<svg xmlns="http://www.w3.org/2000/svg" width="91.218" height="91.217" viewBox="0 0 91.218 91.217"><path d="M149.885,169a18.885,18.885,0,1,0,18.885,18.885A18.906,18.906,0,0,0,149.885,169Zm0,34.206a15.322,15.322,0,1,1,15.322-15.322A15.339,15.339,0,0,1,149.885,203.206Z" transform="translate(-107.661 -138.891)" fill="#4c77ae"/><path d="M208.236,240a6.236,6.236,0,1,0,6.236,6.236A6.243,6.243,0,0,0,208.236,240Zm0,8.908a2.672,2.672,0,1,1,2.672-2.672A2.675,2.675,0,0,1,208.236,248.908Z" transform="translate(-166.012 -197.242)" fill="#4c77ae"/><path d="M415.77,79.291a1.782,1.782,0,1,0,2.521-2.519v0a1.782,1.782,0,0,0-2.521,2.519Z" transform="translate(-341.269 -62.665)" fill="#4c77ae"/><path d="M91.209,43.993a48.976,48.976,0,0,0-8.828-23.542,1.781,1.781,0,1,0-2.9,2.063A45.7,45.7,0,0,1,87.452,42.58L67.893,44.554A26.13,26.13,0,0,0,47.052,23.292L49.432,3.8A45.83,45.83,0,0,1,68.615,11.65a1.781,1.781,0,1,0,2.063-2.9A49.088,49.088,0,0,0,48.1.012,1.749,1.749,0,0,0,47.881,0a1.782,1.782,0,0,0-1.766,1.566L45.464,6.9c-1.077-.082-2.161-.126-3.24-.126A42.223,42.223,0,0,0,12.367,78.85,42.224,42.224,0,0,0,84.448,48.994c0-.839-.028-1.682-.077-2.521l5.244-.529a1.786,1.786,0,0,0,1.595-1.951Zm-10.324,5a38.661,38.661,0,1,1-38.661-38.66c.935,0,1.874.037,2.807.1L43.305,24.57a1.783,1.783,0,0,0,1.555,1.985A22.67,22.67,0,0,1,64.587,46.676a1.782,1.782,0,0,0,1.769,1.605c.061,0,14.467-1.45,14.467-1.45.04.72.062,1.443.062,2.163Z" transform="translate(0 0)" fill="#4c77ae"/><path d="M296.026,53.1a1.782,1.782,0,0,0-2.348,1.422l-1.161,7.835a1.781,1.781,0,0,0,1.1,1.915A30.381,30.381,0,0,1,310.8,81.945a1.78,1.78,0,0,0,1.891,1.151l7.824-.973a1.782,1.782,0,0,0,1.478-2.308A41.793,41.793,0,0,0,296.026,53.1Zm17.593,26.29a33.961,33.961,0,0,0-17.375-17.873l.634-4.282a38.258,38.258,0,0,1,21,21.625Z" transform="translate(-240.387 -43.558)" fill="#4c77ae"/><path d="M74.561,325.316c-1.645,1.4-3.329,2.956-5,4.621a1.782,1.782,0,0,0,2.511,2.528c1.612-1.6,3.228-3.094,4.8-4.437a1.782,1.782,0,0,0-2.311-2.712Z" transform="translate(-56.732 -267.008)" fill="#4c77ae"/><path d="M63.416,217.467a1.782,1.782,0,0,0,.14-3.558c-2.166-.173-4.457-.264-6.81-.269h0a1.782,1.782,0,0,0,0,3.563c2.261.005,4.46.092,6.534.258Q63.345,217.467,63.416,217.467Z" transform="translate(-45.169 -175.578)" fill="#4c77ae"/><path d="M177.827,399.6a1.78,1.78,0,0,0-1.918,1.634c-.173,2.166-.264,4.457-.269,6.81a1.782,1.782,0,0,0,1.777,1.786h0a1.782,1.782,0,0,0,1.782-1.777c.005-2.261.092-4.46.258-6.534a1.781,1.781,0,0,0-1.634-1.918Z" transform="translate(-144.348 -328.399)" fill="#4c77ae"/><path d="M290.028,396.067a1.782,1.782,0,0,0-2.712,2.311c1.4,1.645,2.956,3.329,4.621,5a1.782,1.782,0,0,0,2.528-2.511C292.864,399.259,291.371,397.643,290.028,396.067Z" transform="translate(-235.778 -324.989)" fill="#4c77ae"/><path d="M361.6,316.52a1.782,1.782,0,0,0,1.634,1.918c2.166.173,4.457.264,6.81.269h0a1.782,1.782,0,0,0,0-3.563c-2.261-.005-4.46-.092-6.534-.258A1.781,1.781,0,0,0,361.6,316.52Z" transform="translate(-297.169 -258.782)" fill="#4c77ae"/><path d="M146.644,114.872a1.782,1.782,0,1,0,2.712-2.311c-1.4-1.645-2.956-3.329-4.621-5a1.782,1.782,0,0,0-2.528,2.511C143.808,111.679,145.3,113.3,146.644,114.872Z" transform="translate(-116.446 -87.962)" fill="#4c77ae"/></svg>