<svg xmlns="http://www.w3.org/2000/svg" width="88.172" height="88.136" viewBox="0 0 88.172 88.136"><path d="M.866,67.219,9.3,75.655a2.964,2.964,0,0,0,4.186,0L21.94,67.2l1.13,1.131a7.356,7.356,0,0,0,10.39,0L50.424,51.372a4.408,4.408,0,0,0,0-6.233L31.382,26.1a4.408,4.408,0,0,0-6.233,0L8.186,43.061a7.356,7.356,0,0,0,0,10.39l1.131,1.13L.865,63.034a2.965,2.965,0,0,0,0,4.185Zm44.3-23.18-2.126,2.123a1.547,1.547,0,0,1-2.138,0L30.36,35.618a1.511,1.511,0,0,1,0-2.139l2.125-2.125Zm-34.9,1.1L27.227,28.177a1.469,1.469,0,0,1,2.078,0l1.1,1.1L28.282,31.4a4.451,4.451,0,0,0,0,6.3L38.825,48.241a4.448,4.448,0,0,0,6.3,0l2.125-2.123,1.1,1.1a1.469,1.469,0,0,1,0,2.078L31.382,66.258a4.408,4.408,0,0,1-6.235,0L10.263,51.374a4.408,4.408,0,0,1,0-6.235Zm1.131,11.52,8.466,8.465-8.48,8.458L2.938,65.11Z" transform="translate(-0.001 11.615)" fill="#4c77ae"/><path d="M58.433.858a3.027,3.027,0,0,0-4.181,0L45.8,9.308,44.733,8.24a5.953,5.953,0,0,0-8.405,0l-2.109,2.11a5.941,5.941,0,0,0,0,8.4l.625.623v7.218L26.837,34.6a4.458,4.458,0,0,0,0,6.3l8.436,8.436a4.455,4.455,0,0,0,6.3,0l8.014-8.006H56.8l.623.625a5.941,5.941,0,0,0,8.4,0l2.11-2.109a5.953,5.953,0,0,0,0-8.405L66.869,30.37l8.451-8.452a2.954,2.954,0,0,0,0-4.181ZM48.965,38.387a1.469,1.469,0,0,0-1.039.43l-8.435,8.435a1.515,1.515,0,0,1-2.14,0l-8.436-8.436a1.515,1.515,0,0,1,0-2.139l8.436-8.435a1.469,1.469,0,0,0,.431-1.039V22.316L53.854,38.387Zm16.887-4.873a3.009,3.009,0,0,1,0,4.25l-2.11,2.109a3.073,3.073,0,0,1-4.247,0l-23.2-23.2a3,3,0,0,1,0-4.247l2.109-2.11a3.009,3.009,0,0,1,4.25,0l1.067,1.068-1.073,1.073a2.962,2.962,0,0,0,0,4.181L59.532,33.52a2.962,2.962,0,0,0,4.181,0l1.071-1.071ZM73.24,19.84,61.614,31.448,44.733,14.538,56.355,2.929,73.24,19.815Z" transform="translate(11.986 -0.02)" fill="#4c77ae"/><path d="M34.886,22.39l-3.161,3.174a2.961,2.961,0,0,0,0,4.179l2.1,2.1a2.961,2.961,0,0,0,4.178,0l3.175-3.161a2.962,2.962,0,0,0,0-4.179l-2.119-2.119a2.965,2.965,0,0,0-4.178,0Zm4.222,4.191a.016.016,0,0,1,0,.026L35.914,29.77l-2.1-2.131L37,24.465Z" transform="translate(14.486 10.077)" fill="#4c77ae"/></svg>