<svg xmlns="http://www.w3.org/2000/svg" width="120" height="120" viewBox="0 0 120 120">
  <g id="Grupo_1118470" data-name="Grupo 1118470" transform="translate(-14883 9040.962)">
    <g id="Grupo_1117618" data-name="Grupo 1117618" transform="translate(22019.898 516.937)">
      <circle id="Elipse_8441" data-name="Elipse 8441" cx="60" cy="60" r="60" transform="translate(-7136.898 -9557.898)" fill="#f6d957" opacity="0.45"/>
      <circle id="Elipse_8442" data-name="Elipse 8442" cx="48" cy="48" r="48" transform="translate(-7124.898 -9545.898)" fill="#fff"/>
    </g>
    <g id="reloj_1_" data-name="reloj (1)" transform="translate(14910.506 -9004.097)">
      <path id="Trazado_914795" data-name="Trazado 914795" d="M364.871,256.6a.952.952,0,0,0,.952-.952v-.436a.952.952,0,0,0-1.9,0v.436A.952.952,0,0,0,364.871,256.6Z" transform="translate(-317.726 -226.751)" fill="#c5ae46"/>
      <path id="Trazado_914796" data-name="Trazado 914796" d="M413.455,277.608a.949.949,0,0,0,.673-.279l.308-.308a.952.952,0,1,0-1.346-1.346l-.308.308a.952.952,0,0,0,.673,1.625Z" transform="translate(-360.143 -245.201)" fill="#c5ae46"/>
      <path id="Trazado_914797" data-name="Trazado 914797" d="M434.014,328.313a.952.952,0,1,0,0-1.9h-.436a.952.952,0,0,0,0,1.9Z" transform="translate(-377.711 -289.738)" fill="#c5ae46"/>
      <path id="Trazado_914798" data-name="Trazado 914798" d="M292.726,326.409a.952.952,0,1,0,0,1.9h.436a.952.952,0,0,0,0-1.9Z" transform="translate(-254.738 -289.738)" fill="#c5ae46"/>
      <path id="Trazado_914799" data-name="Trazado 914799" d="M412.781,376.619l.308.308a.952.952,0,1,0,1.346-1.346l-.308-.308a.952.952,0,0,0-1.346,1.346Z" transform="translate(-360.142 -332.156)" fill="#c5ae46"/>
      <path id="Trazado_914800" data-name="Trazado 914800" d="M363.919,396.07v.436a.952.952,0,1,0,1.9,0v-.436a.952.952,0,0,0-1.9,0Z" transform="translate(-317.726 -349.726)" fill="#c5ae46"/>
      <path id="Trazado_914801" data-name="Trazado 914801" d="M313.492,375.272l-.308.308a.952.952,0,0,0,1.347,1.346l.308-.308a.952.952,0,0,0-1.347-1.346Z" transform="translate(-273.187 -332.155)" fill="#c5ae46"/>
      <path id="Trazado_914802" data-name="Trazado 914802" d="M314.838,275.982l-.308-.308a.952.952,0,1,0-1.347,1.346l.308.308a.952.952,0,1,0,1.347-1.346Z" transform="translate(-273.187 -245.199)" fill="#c5ae46"/>
      <path id="Trazado_914803" data-name="Trazado 914803" d="M60.3,64.494a.952.952,0,0,0-.215,1.329,15.951,15.951,0,1,1-2.418-2.663.952.952,0,1,0,1.257-1.43,17.818,17.818,0,0,0-9.21-4.253,33.181,33.181,0,0,0-1.037-9.455,2.532,2.532,0,0,1,.648-2.462l.974-.974a3.373,3.373,0,0,0,.125-4.7,3.331,3.331,0,0,0-2.4-1.07,3.482,3.482,0,0,0-2.577,1.126,2.535,2.535,0,0,1-2.907.479c-6.5-3.179-18.517-3.844-27.956-1.548a.952.952,0,1,0,.45,1.85A51.555,51.555,0,0,1,29.2,39.471a33.25,33.25,0,0,1,12.509,2.66,4.44,4.44,0,0,0,5.091-.843,1.543,1.543,0,0,1,1.2-.569,1.444,1.444,0,0,1,1.038.464,1.5,1.5,0,0,1-.078,2.056l-.974.974a4.439,4.439,0,0,0-1.137,4.317,31.129,31.129,0,0,1,.972,8.774c-.222-.008-.444-.013-.667-.013A17.872,17.872,0,0,0,29.635,71.715c-7.365.369-15.163-.749-20.052-2.9a4.445,4.445,0,0,0-4.895.933l-.3.3A1.452,1.452,0,0,1,2.33,68l.791-.791a4.443,4.443,0,0,0,1.144-4.291,29.1,29.1,0,0,1,.242-14.265,4.438,4.438,0,0,0-1.115-4.393L2.33,43.2a1.453,1.453,0,0,1,2.054-2.054l.461.461a4.437,4.437,0,0,0,5.018.877c.505-.238,1.057-.47,1.639-.688a.952.952,0,1,0-.668-1.783c-.631.236-1.231.488-1.783.749a2.527,2.527,0,0,1-2.859-.5L5.731,39.8A3.357,3.357,0,0,0,.984,44.545l1.063,1.063a2.535,2.535,0,0,1,.635,2.51,31.2,31.2,0,0,0-.254,15.3,2.533,2.533,0,0,1-.652,2.447l-.791.791A3.357,3.357,0,0,0,5.731,71.4l.3-.3a2.527,2.527,0,0,1,2.783-.537c4.548,2,11.167,3.131,17.915,3.131q1.317,0,2.637-.06c-.041.495-.064.995-.064,1.5A17.843,17.843,0,1,0,61.63,64.709.953.953,0,0,0,60.3,64.494Z" transform="translate(-0.002 -37.51)" fill="#c5ae46"/>
      <path id="Trazado_914804" data-name="Trazado 914804" d="M348.71,289.024l-.649-.542a.952.952,0,1,0-1.221,1.461l2.211,1.848a.953.953,0,0,0,1.562-.731v-5.278a.952.952,0,0,0-1.9,0v3.242Z" transform="translate(-302.517 -253.437)" fill="#c5ae46"/>
      <path id="Trazado_914805" data-name="Trazado 914805" d="M422.537,144.055h2.675a.952.952,0,1,0,0-1.9h-.862l1.537-2.229a.952.952,0,0,0-.784-1.492h-2.5a.952.952,0,1,0,0,1.9h.686l-1.537,2.229A.953.953,0,0,0,422.537,144.055Z" transform="translate(-368.071 -125.619)" fill="#c5ae46"/>
      <path id="Trazado_914806" data-name="Trazado 914806" d="M469.863,112.3h3.563a.952.952,0,0,0,0-1.9h-1.75l2.389-3.465a.952.952,0,0,0-.784-1.492h-3.329a.952.952,0,1,0,0,1.9h1.516l-2.389,3.465A.953.953,0,0,0,469.863,112.3Z" transform="translate(-409.389 -96.817)" fill="#c5ae46"/>
      <path id="Trazado_914807" data-name="Trazado 914807" d="M273.408,252.392a.952.952,0,0,0,.611,1.2,13.558,13.558,0,1,0-3.662-1.847.952.952,0,0,0,1.105-1.55,11.605,11.605,0,1,1,3.146,1.587A.952.952,0,0,0,273.408,252.392Z" transform="translate(-231.069 -203.082)" fill="#c5ae46"/>
    </g>
  </g>
</svg>
