<svg xmlns="http://www.w3.org/2000/svg" width="91.216" height="77.849" viewBox="0 0 91.216 77.849"><path d="M365.255,257.549a1.336,1.336,0,0,0,1.336-1.336V255.6a1.336,1.336,0,1,0-2.672,0v.612A1.336,1.336,0,0,0,365.255,257.549Z" transform="translate(-299.084 -215.647)" fill="#4c77ae"/><path d="M413.839,278.5a1.333,1.333,0,0,0,.945-.391l.433-.433a1.336,1.336,0,1,0-1.89-1.89l-.433.433a1.336,1.336,0,0,0,.945,2.281Z" transform="translate(-339.012 -233.015)" fill="#4c77ae"/><path d="M434.574,329.081a1.336,1.336,0,0,0,0-2.672h-.612a1.336,1.336,0,0,0,0,2.672Z" transform="translate(-355.55 -274.939)" fill="#4c77ae"/><path d="M293.11,326.409a1.336,1.336,0,0,0,0,2.672h.612a1.336,1.336,0,1,0,0-2.672Z" transform="translate(-239.792 -274.939)" fill="#4c77ae"/><path d="M412.894,377.275l.433.433a1.336,1.336,0,0,0,1.89-1.89l-.433-.433a1.336,1.336,0,0,0-1.89,1.89Z" transform="translate(-339.011 -314.868)" fill="#4c77ae"/><path d="M363.919,396.454v.612a1.336,1.336,0,1,0,2.672,0v-.612a1.336,1.336,0,0,0-2.672,0Z" transform="translate(-299.084 -331.407)" fill="#4c77ae"/><path d="M313.729,375.384l-.433.433a1.336,1.336,0,0,0,1.89,1.889l.433-.433a1.336,1.336,0,0,0-1.89-1.889Z" transform="translate(-257.158 -314.867)" fill="#4c77ae"/><path d="M315.619,276.219l-.433-.433a1.336,1.336,0,1,0-1.89,1.889l.433.433a1.336,1.336,0,1,0,1.89-1.889Z" transform="translate(-257.158 -233.014)" fill="#4c77ae"/><path d="M84.635,75.384a1.337,1.337,0,0,0-.3,1.866,22.388,22.388,0,1,1-3.394-3.738A1.336,1.336,0,1,0,82.7,71.5a25.009,25.009,0,0,0-12.927-5.97,46.572,46.572,0,0,0-1.455-13.271,3.553,3.553,0,0,1,.91-3.456L70.6,47.441a4.735,4.735,0,0,0,.175-6.6,4.675,4.675,0,0,0-3.366-1.5,4.887,4.887,0,0,0-3.617,1.581,3.558,3.558,0,0,1-4.08.672c-9.121-4.461-25.99-5.4-39.239-2.172a1.336,1.336,0,1,0,.632,2.6,72.36,72.36,0,0,1,19.876-1.758c7.069.328,13.3,1.654,17.557,3.734a6.232,6.232,0,0,0,7.145-1.183,2.166,2.166,0,0,1,1.68-.8,2.026,2.026,0,0,1,1.458.651,2.1,2.1,0,0,1-.11,2.886l-1.366,1.366a6.23,6.23,0,0,0-1.6,6.06A43.691,43.691,0,0,1,67.11,65.292c-.311-.012-.623-.019-.936-.019A25.085,25.085,0,0,0,41.594,85.519c-10.337.518-21.282-1.052-28.145-4.066a6.239,6.239,0,0,0-6.87,1.31l-.426.426A2.039,2.039,0,0,1,3.27,80.306L4.38,79.2a6.236,6.236,0,0,0,1.606-6.022,40.839,40.839,0,0,1,.34-20.022,6.229,6.229,0,0,0-1.565-6.165L3.27,45.494a2.039,2.039,0,0,1,2.883-2.883l.647.647a6.228,6.228,0,0,0,7.043,1.232c.709-.335,1.483-.66,2.3-.966a1.336,1.336,0,1,0-.938-2.5c-.885.332-1.727.686-2.5,1.051a3.547,3.547,0,0,1-4.012-.7l-.647-.647A4.711,4.711,0,1,0,1.38,47.384l1.492,1.491A3.558,3.558,0,0,1,3.762,52.4,43.8,43.8,0,0,0,3.406,73.87a3.556,3.556,0,0,1-.916,3.435L1.38,78.416a4.711,4.711,0,0,0,6.662,6.662l.426-.426a3.547,3.547,0,0,1,3.906-.753c6.383,2.8,15.673,4.394,25.144,4.394q1.849,0,3.7-.084c-.058.694-.089,1.4-.089,2.105A25.044,25.044,0,1,0,86.5,75.685,1.338,1.338,0,0,0,84.635,75.384Z" transform="translate(-0.002 -37.51)" fill="#4c77ae"/><path d="M349.6,290.716l-.911-.761a1.336,1.336,0,1,0-1.713,2.05l3.1,2.594a1.337,1.337,0,0,0,2.193-1.025v-7.408a1.336,1.336,0,1,0-2.672,0v4.55Z" transform="translate(-284.767 -240.768)" fill="#4c77ae"/><path d="M422.922,146.325h3.754a1.336,1.336,0,0,0,0-2.672h-1.209l2.158-3.129a1.336,1.336,0,0,0-1.1-2.095h-3.508a1.336,1.336,0,1,0,0,2.672h.963l-2.157,3.129A1.337,1.337,0,0,0,422.922,146.325Z" transform="translate(-346.475 -120.449)" fill="#4c77ae"/><path d="M470.248,115.069h5a1.336,1.336,0,0,0,0-2.672h-2.456l3.354-4.863a1.336,1.336,0,0,0-1.1-2.095h-4.672a1.336,1.336,0,1,0,0,2.672H472.5l-3.354,4.863A1.337,1.337,0,0,0,470.248,115.069Z" transform="translate(-385.369 -93.337)" fill="#4c77ae"/><path d="M276.937,262.577a1.336,1.336,0,0,0,.857,1.684,19.029,19.029,0,1,0-5.14-2.592,1.336,1.336,0,0,0,1.552-2.176,16.289,16.289,0,1,1,4.415,2.227A1.336,1.336,0,0,0,276.937,262.577Z" transform="translate(-217.512 -193.367)" fill="#4c77ae"/></svg>