<svg xmlns="http://www.w3.org/2000/svg" width="120" height="120" viewBox="0 0 120 120">
  <g id="Grupo_1118481" data-name="Grupo 1118481" transform="translate(-7304 6200)">
    <g id="Grupo_1118017" data-name="Grupo 1118017" transform="translate(335 54)">
      <g id="Grupo_1117992" data-name="Grupo 1117992" transform="translate(14105.898 3303.898)">
        <circle id="Elipse_8441" data-name="Elipse 8441" cx="60" cy="60" r="60" transform="translate(-7136.898 -9557.898)" fill="#bfd4ef" opacity="0.45"/>
        <circle id="Elipse_8442" data-name="Elipse 8442" cx="48" cy="48" r="48" transform="translate(-7124.898 -9545.898)" fill="#fbfcfd"/>
      </g>
    </g>
    <g id="freno-de-mano" transform="translate(7337.875 -6171.013)">
      <path id="Trazado_913174" data-name="Trazado 913174" d="M23.756,12.05A11.878,11.878,0,1,0,11.878,23.928,11.892,11.892,0,0,0,23.756,12.05Zm-22.141,0A10.263,10.263,0,1,1,11.878,22.313,10.275,10.275,0,0,1,1.615,12.05Z" transform="translate(0 -0.172)" fill="#4c77ae"/>
      <path id="Trazado_913175" data-name="Trazado 913175" d="M89.988,44.334a2.456,2.456,0,0,0,2.453-2.453V35.726a2.453,2.453,0,1,0-4.907,0V41.88A2.456,2.456,0,0,0,89.988,44.334Zm-.838-8.607a.838.838,0,0,1,1.677,0V41.88a.838.838,0,0,1-1.677,0Z" transform="translate(-78.11 -29.709)" fill="#4c77ae"/>
      <path id="Trazado_913176" data-name="Trazado 913176" d="M92.442,144.593a2.453,2.453,0,1,0-2.453,2.453A2.456,2.456,0,0,0,92.442,144.593Zm-3.292,0a.838.838,0,1,1,.838.838A.839.839,0,0,1,89.15,144.593Z" transform="translate(-78.11 -126.854)" fill="#4c77ae"/>
      <path id="Trazado_913177" data-name="Trazado 913177" d="M93.355,3.576,90.593.813a2.18,2.18,0,0,0-3.085,0l-.79.79a4,4,0,0,0-5.026.5l-.7.7a.807.807,0,1,0,1.142,1.142l.7-.7a2.379,2.379,0,0,1,3.36,0l4.725,4.725a2.379,2.379,0,0,1,0,3.359l-.171.171a4.065,4.065,0,0,0-5,4.527,4.064,4.064,0,0,0-4.6,4.6,4.063,4.063,0,0,0-4.528,4.994,2.8,2.8,0,0,1-3.828-.122L68.36,21.083a2.378,2.378,0,0,1,0-3.359L79.85,6.235a.807.807,0,1,0-1.142-1.142l-11.49,11.49a4,4,0,0,0-.5,5.025L52.024,36.3a2.765,2.765,0,0,0-3.9.011l-3.757,3.756a2.752,2.752,0,0,0-.809,1.955V52.5a2.769,2.769,0,0,0,2.766,2.766H86.363A2.768,2.768,0,0,0,89.127,52.5V44.1a2.768,2.768,0,0,0-2.765-2.766H65.717a.808.808,0,0,0,0,1.615H86.363a1.151,1.151,0,0,1,1.15,1.151V52.5a1.151,1.151,0,0,1-1.15,1.151H46.324A1.152,1.152,0,0,1,45.173,52.5V42.019a1.146,1.146,0,0,1,.337-.814l3.756-3.755a1.15,1.15,0,0,1,1.627,0l5.266,5.266a.807.807,0,0,0,.571.237h5.764a.808.808,0,0,0,0-1.615H58.679L72.625,27.391a4.416,4.416,0,0,0,5.255-.735l.026-.025.01-.01a1.232,1.232,0,0,0,.3-1.237,2.447,2.447,0,0,1,3.064-3.063,1.241,1.241,0,0,0,.366.055,1.229,1.229,0,0,0,1.174-1.6,2.448,2.448,0,0,1,3.066-3.064,1.246,1.246,0,0,0,.366.055,1.223,1.223,0,0,0,.872-.362,1.236,1.236,0,0,0,.3-1.235,2.448,2.448,0,0,1,3.061-3.065,1.228,1.228,0,0,0,1.24-.3l.331-.331a4,4,0,0,0,.5-5.025l.79-.79a2.184,2.184,0,0,0,0-3.085ZM71.363,26.369,56.73,41l-3.564-3.564L67.8,22.806ZM89.05,1.789a.563.563,0,0,1,.4.166l2.762,2.762a.567.567,0,0,1,0,.8l-.734.734L87.916,2.689l.734-.734a.562.562,0,0,1,.4-.166Z" transform="translate(-38.868 -0.174)" fill="#4c77ae"/>
    </g>
  </g>
</svg>
