<svg xmlns="http://www.w3.org/2000/svg" width="120" height="120" viewBox="0 0 120 120">
  <g id="Grupo_1118475" data-name="Grupo 1118475" transform="translate(-8637 10953)">
    <g id="Grupo_1117992" data-name="Grupo 1117992" transform="translate(15773.898 -1395.102)">
      <circle id="Elipse_8441" data-name="Elipse 8441" cx="60" cy="60" r="60" transform="translate(-7136.898 -9557.898)" fill="#bfd4ef" opacity="0.45"/>
      <circle id="Elipse_8442" data-name="Elipse 8442" cx="48" cy="48" r="48" transform="translate(-7124.898 -9545.898)" fill="#fbfcfd"/>
    </g>
    <g id="walkie-talkie" transform="translate(8684.257 -10914)">
      <g id="Grupo_1114062" data-name="Grupo 1114062" transform="translate(-7 -16)">
        <path id="Trazado_912785" data-name="Trazado 912785" d="M220.836,214.173a1.025,1.025,0,0,0,1.025-1.025v-1.793a2.825,2.825,0,0,0-2.822-2.822h-6.831a2.825,2.825,0,0,0-2.822,2.822v1.793a1.025,1.025,0,0,0,1.025,1.025Zm-9.4-2.818a.772.772,0,0,1,.771-.771h6.831a.772.772,0,0,1,.771.771v.767h-8.374v-.767Z" transform="translate(-196.216 -180.022)" fill="#4c77ae"/>
        <path id="Trazado_912786" data-name="Trazado 912786" d="M175.391,271.85v6.105a2.321,2.321,0,0,0,2.318,2.318h6.3a1.025,1.025,0,1,0,0-2.051h-6.3a.271.271,0,0,1-.267-.267V271.85a.277.277,0,0,1,.267-.271h17.135a.278.278,0,0,1,.271.271v6.105a.268.268,0,0,1-.081.189.262.262,0,0,1-.183.078h-6.039a1.025,1.025,0,0,0-.006,2.051h6.045a2.323,2.323,0,0,0,2.315-2.318V271.85a2.325,2.325,0,0,0-2.322-2.322H177.709A2.323,2.323,0,0,0,175.391,271.85Z" transform="translate(-166.868 -232.678)" fill="#4c77ae"/>
        <path id="Trazado_912787" data-name="Trazado 912787" d="M186.746,370.892H183.73a1.025,1.025,0,0,0,0,2.051h3.015a1.025,1.025,0,0,0,0-2.051Z" transform="translate(-173.182 -320.184)" fill="#4c77ae"/>
        <path id="Trazado_912788" data-name="Trazado 912788" d="M186.746,401.175H183.73a1.025,1.025,0,1,0,0,2.051h3.015a1.025,1.025,0,0,0,0-2.051Z" transform="translate(-173.182 -346.326)" fill="#4c77ae"/>
        <path id="Trazado_912789" data-name="Trazado 912789" d="M240.311,370.892H237.3a1.025,1.025,0,1,0,0,2.051h3.015a1.025,1.025,0,0,0,0-2.051Z" transform="translate(-219.424 -320.184)" fill="#4c77ae"/>
        <path id="Trazado_912790" data-name="Trazado 912790" d="M240.311,401.175H237.3a1.025,1.025,0,1,0,0,2.051h3.015a1.025,1.025,0,0,0,0-2.051Z" transform="translate(-219.424 -346.326)" fill="#4c77ae"/>
        <path id="Trazado_912791" data-name="Trazado 912791" d="M186.746,431.487H183.73a1.025,1.025,0,0,0,0,2.051h3.015a1.025,1.025,0,0,0,0-2.051Z" transform="translate(-173.182 -372.494)" fill="#4c77ae"/>
        <path id="Trazado_912792" data-name="Trazado 912792" d="M240.311,431.487H237.3a1.025,1.025,0,1,0,0,2.051h3.015a1.025,1.025,0,0,0,0-2.051Z" transform="translate(-219.424 -372.494)" fill="#4c77ae"/>
        <path id="Trazado_912793" data-name="Trazado 912793" d="M293.906,370.892H290.89a1.025,1.025,0,1,0,0,2.051h3.015a1.025,1.025,0,1,0,0-2.051Z" transform="translate(-265.692 -320.184)" fill="#4c77ae"/>
        <path id="Trazado_912794" data-name="Trazado 912794" d="M293.906,401.175H290.89a1.025,1.025,0,1,0,0,2.051h3.015a1.025,1.025,0,1,0,0-2.051Z" transform="translate(-265.692 -346.326)" fill="#4c77ae"/>
        <path id="Trazado_912795" data-name="Trazado 912795" d="M293.906,431.487H290.89a1.025,1.025,0,1,0,0,2.051h3.015a1.025,1.025,0,1,0,0-2.051Z" transform="translate(-265.692 -372.494)" fill="#4c77ae"/>
        <path id="Trazado_912796" data-name="Trazado 912796" d="M186.746,461.77H183.73a1.025,1.025,0,1,0,0,2.051h3.015a1.025,1.025,0,0,0,0-2.051Z" transform="translate(-173.182 -398.637)" fill="#4c77ae"/>
        <path id="Trazado_912797" data-name="Trazado 912797" d="M240.311,461.77H237.3a1.025,1.025,0,1,0,0,2.051h3.015a1.025,1.025,0,0,0,0-2.051Z" transform="translate(-219.424 -398.637)" fill="#4c77ae"/>
        <path id="Trazado_912798" data-name="Trazado 912798" d="M293.906,461.77H290.89a1.025,1.025,0,1,0,0,2.051h3.015a1.025,1.025,0,1,0,0-2.051Z" transform="translate(-265.692 -398.637)" fill="#4c77ae"/>
        <path id="Trazado_912799" data-name="Trazado 912799" d="M150.781,27.98l-2.675-1.351a3.483,3.483,0,0,0-2.632-2.424V20.587a2.352,2.352,0,0,0-2.35-2.35h-4.511a2.35,2.35,0,0,0-2.346,2.35v3.494h-5.187V22.814a3.257,3.257,0,0,0-2-3L128.02,2.878A2.879,2.879,0,0,0,125.209,0h0a2.872,2.872,0,0,0-2.8,2.88l-1.062,16.9a3.256,3.256,0,0,0-2.076,3.031v1.533a3.393,3.393,0,0,0-2.179,2.283l-2.674,1.35a2.39,2.39,0,0,0-1.361,2.35v5.765a2.39,2.39,0,0,0,1.36,2.349l1.343.678-1.342.678a2.39,2.39,0,0,0-1.361,2.35v5.765a2.39,2.39,0,0,0,1.36,2.349l2.593,1.309v4.974a1.025,1.025,0,1,0,2.051,0V27.3c0-.623.789-1.17,1.689-1.17h23.7c.9,0,1.689.547,1.689,1.17V67.041c0,.429-.587.908-1.373.908H120.431c-.809,0-1.373-.479-1.373-.908V61.319a1.025,1.025,0,1,0-2.051,0v5.722A3.22,3.22,0,0,0,120.431,70h24.333a3.22,3.22,0,0,0,3.424-2.959V52.365l2.591-1.309a2.39,2.39,0,0,0,1.361-2.35V30.329a2.389,2.389,0,0,0-1.36-2.349ZM117.008,49.274l-1.67-.843c-.2-.1-.232-.117-.232-.517V42.148c0-.4.036-.418.234-.518l1.668-.842Zm0-11.819-1.67-.843c-.2-.1-.232-.117-.232-.517V30.329c0-.4.035-.419.234-.518l1.668-.842Zm8.2-35.4h0c.34,0,.72.252.765.958l1.04,16.554h-3.6l1.04-16.554c.044-.705.418-.957.754-.957Zm3.822,22.03h-7.71V22.814a1.217,1.217,0,0,1,1.2-1.2h5.308a1.2,1.2,0,0,1,1.2,1.2v1.267Zm14.393,0h-5.1V20.588a.3.3,0,0,1,.295-.3h4.511a.307.307,0,0,1,.3.3Zm6.667,24.625c0,.4-.035.418-.234.518l-1.668.842v-21.1l1.67.843c.2.1.232.117.232.517Z" transform="translate(-113.055 0)" fill="#4c77ae"/>
      </g>
    </g>
  </g>
</svg>
