<svg xmlns="http://www.w3.org/2000/svg" width="76.179" height="76.673" viewBox="0 0 76.179 76.673"><path d="M1117.394,27.416a1.255,1.255,0,0,1-.809-.27,1.358,1.358,0,0,1-.27-1.888L1134.607.585a1.348,1.348,0,1,1,2.157,1.618l-18.292,24.674A1.34,1.34,0,0,1,1117.394,27.416Z" transform="translate(-1066.158 -0.045)" fill="#4c77ae" fill-rule="evenodd"/><path d="M1135.686,27.416a1.34,1.34,0,0,1-1.078-.539L1116.315,2.2a1.348,1.348,0,1,1,2.157-1.618l18.292,24.674a1.348,1.348,0,0,1-1.079,2.157Z" transform="translate(-1066.158 -0.045)" fill="#4c77ae" fill-rule="evenodd"/><path d="M1135.64,27.37h-18.292A1.324,1.324,0,0,1,1116,26.022V1.348A1.352,1.352,0,0,1,1117.348,0h18.292a1.352,1.352,0,0,1,1.348,1.348V26.022A1.324,1.324,0,0,1,1135.64,27.37Zm-16.944-2.7h15.6V2.7h-15.6Z" transform="translate(-1066.113)" fill="#4c77ae" fill-rule="evenodd"/><g transform="translate(36.719)"><path d="M824.348,5.079A1.382,1.382,0,0,1,823,3.73V1.348A1.382,1.382,0,0,1,824.348,0,1.352,1.352,0,0,1,825.7,1.348V3.73A1.352,1.352,0,0,1,824.348,5.079Z" transform="translate(-823)" fill="#4c77ae" fill-rule="evenodd"/><path d="M824.348,202.079A1.382,1.382,0,0,1,823,200.73v-2.382A1.382,1.382,0,0,1,824.348,197a1.352,1.352,0,0,1,1.348,1.348v2.382A1.352,1.352,0,0,1,824.348,202.079Z" transform="translate(-823 -188.146)" fill="#4c77ae" fill-rule="evenodd"/><path d="M824.348,399.079A1.382,1.382,0,0,1,823,397.73v-2.382A1.382,1.382,0,0,1,824.348,394a1.352,1.352,0,0,1,1.348,1.348v2.382A1.352,1.352,0,0,1,824.348,399.079Z" transform="translate(-823 -376.292)" fill="#4c77ae" fill-rule="evenodd"/><path d="M824.348,596.079A1.382,1.382,0,0,1,823,594.73v-2.382A1.382,1.382,0,0,1,824.348,591a1.352,1.352,0,0,1,1.348,1.348v2.382A1.352,1.352,0,0,1,824.348,596.079Z" transform="translate(-823 -564.438)" fill="#4c77ae" fill-rule="evenodd"/><path d="M824.348,793.079A1.382,1.382,0,0,1,823,791.73v-2.382A1.382,1.382,0,0,1,824.348,788a1.352,1.352,0,0,1,1.348,1.348v2.382A1.352,1.352,0,0,1,824.348,793.079Z" transform="translate(-823 -752.585)" fill="#4c77ae" fill-rule="evenodd"/><path d="M824.348,990.079A1.382,1.382,0,0,1,823,988.73v-2.382A1.382,1.382,0,0,1,824.348,985a1.352,1.352,0,0,1,1.348,1.348v2.382A1.352,1.352,0,0,1,824.348,990.079Z" transform="translate(-823 -940.731)" fill="#4c77ae" fill-rule="evenodd"/><path d="M824.348,1187.079A1.382,1.382,0,0,1,823,1185.73v-2.382a1.352,1.352,0,0,1,1.348-1.348,1.324,1.324,0,0,1,1.348,1.348v2.382A1.352,1.352,0,0,1,824.348,1187.079Z" transform="translate(-823 -1128.877)" fill="#4c77ae" fill-rule="evenodd"/><path d="M824.348,1384.079A1.383,1.383,0,0,1,823,1382.73v-2.382a1.352,1.352,0,0,1,1.348-1.348,1.324,1.324,0,0,1,1.348,1.348v2.382A1.352,1.352,0,0,1,824.348,1384.079Z" transform="translate(-823 -1317.023)" fill="#4c77ae" fill-rule="evenodd"/><path d="M824.348,1581.079A1.382,1.382,0,0,1,823,1579.73v-2.382a1.352,1.352,0,0,1,1.348-1.348,1.324,1.324,0,0,1,1.348,1.348v2.382A1.352,1.352,0,0,1,824.348,1581.079Z" transform="translate(-823 -1505.169)" fill="#4c77ae" fill-rule="evenodd"/><path d="M1135.64,601h-18.292a1.324,1.324,0,0,1-1.348-1.348v-49.3a1.324,1.324,0,0,1,1.348-1.348h18.292a1.324,1.324,0,0,1,1.348,1.348v49.3A1.324,1.324,0,0,1,1135.64,601Zm-16.944-2.7h15.6V551.7h-15.6Z" transform="translate(-1102.832 -524.326)" fill="#4c77ae" fill-rule="evenodd"/></g><path d="M1642.348,22.921A1.352,1.352,0,0,1,1641,21.573V1.348a1.348,1.348,0,1,1,2.7,0V21.573A1.352,1.352,0,0,1,1642.348,22.921Z" transform="translate(-1567.518)" fill="#4c77ae" fill-rule="evenodd"/><path d="M7.348,1219.876A1.324,1.324,0,0,1,6,1218.528v-20.18A1.324,1.324,0,0,1,7.348,1197a1.352,1.352,0,0,1,1.348,1.348v20.18A1.352,1.352,0,0,1,7.348,1219.876Z" transform="translate(-6 -1143.203)" fill="#4c77ae" fill-rule="evenodd"/><path d="M143.64,76.673a1.324,1.324,0,0,1-1.348-1.348V2.7H126.7V75.325a1.352,1.352,0,0,1-1.348,1.348A1.324,1.324,0,0,1,124,75.325V1.348A1.352,1.352,0,0,1,125.348,0H143.64a1.352,1.352,0,0,1,1.348,1.348V75.325A1.324,1.324,0,0,1,143.64,76.673Z" transform="translate(-118.697)" fill="#4c77ae" fill-rule="evenodd"/><path d="M143.64,1648.7H125.348a1.324,1.324,0,0,1-1.348-1.348,1.352,1.352,0,0,1,1.348-1.348H143.64a1.352,1.352,0,0,1,1.348,1.348A1.324,1.324,0,0,1,143.64,1648.7Z" transform="translate(-118.697 -1572.023)" fill="#4c77ae" fill-rule="evenodd"/><path d="M124.811,23.784a1.374,1.374,0,0,1-.9-.315,1.308,1.308,0,0,1-.135-1.888L142.069.773A1.4,1.4,0,0,1,144,.683a1.345,1.345,0,0,1,.09,1.888L125.8,23.334A1.275,1.275,0,0,1,124.811,23.784Z" transform="translate(-118.159 -0.323)" fill="#4c77ae" fill-rule="evenodd"/><path d="M124.811,418.634a1.374,1.374,0,0,1-.9-.315,1.359,1.359,0,0,1-.135-1.933l18.292-20.764a1.446,1.446,0,0,1,1.933-.135,1.4,1.4,0,0,1,.09,1.933L125.8,418.185A1.275,1.275,0,0,1,124.811,418.634Z" transform="translate(-118.159 -377.421)" fill="#4c77ae" fill-rule="evenodd"/><path d="M124.811,812.923a1.427,1.427,0,0,1-.9-.36,1.308,1.308,0,0,1-.135-1.888l18.292-20.764a1.359,1.359,0,0,1,1.933-.135,1.344,1.344,0,0,1,.09,1.888L125.8,812.474A1.444,1.444,0,0,1,124.811,812.923Z" transform="translate(-118.159 -753.958)" fill="#4c77ae" fill-rule="evenodd"/><path d="M124.811,1207.878a1.374,1.374,0,0,1-.9-.315,1.308,1.308,0,0,1-.135-1.888l18.292-20.764a1.359,1.359,0,0,1,1.933-.135,1.345,1.345,0,0,1,.09,1.888L125.8,1207.429A1.275,1.275,0,0,1,124.811,1207.878Z" transform="translate(-118.159 -1131.205)" fill="#4c77ae" fill-rule="evenodd"/><path d="M1116.811,565.713a1.373,1.373,0,0,1-.9-.315,1.359,1.359,0,0,1-.135-1.933L1128,549.623a1.392,1.392,0,0,1,1.888-.135,1.359,1.359,0,0,1,.135,1.933L1117.8,565.263A1.275,1.275,0,0,1,1116.811,565.713Z" transform="translate(-1065.576 -524.5)" fill="#4c77ae" fill-rule="evenodd"/><path d="M1116.811,812.923a1.427,1.427,0,0,1-.9-.36,1.309,1.309,0,0,1-.135-1.888l18.337-20.764a1.3,1.3,0,0,1,1.887-.135,1.392,1.392,0,0,1,.135,1.888L1117.8,812.474A1.443,1.443,0,0,1,1116.811,812.923Z" transform="translate(-1065.576 -753.958)" fill="#4c77ae" fill-rule="evenodd"/><path d="M1116.811,1207.878a1.373,1.373,0,0,1-.9-.315,1.309,1.309,0,0,1-.135-1.888l18.337-20.764a1.3,1.3,0,0,1,1.887-.135,1.392,1.392,0,0,1,.135,1.888l-18.337,20.764A1.274,1.274,0,0,1,1116.811,1207.878Z" transform="translate(-1065.576 -1131.205)" fill="#4c77ae" fill-rule="evenodd"/></svg>