<svg xmlns="http://www.w3.org/2000/svg" width="120" height="120" viewBox="0 0 120 120">
  <g id="Grupo_1118483" data-name="Grupo 1118483" transform="translate(-7925 6200)">
    <g id="Grupo_1118019" data-name="Grupo 1118019" transform="translate(956 54)">
      <g id="Grupo_1117992" data-name="Grupo 1117992" transform="translate(14105.898 3303.898)">
        <circle id="Elipse_8441" data-name="Elipse 8441" cx="60" cy="60" r="60" transform="translate(-7136.898 -9557.898)" fill="#bfd4ef" opacity="0.45"/>
        <circle id="Elipse_8442" data-name="Elipse 8442" cx="48" cy="48" r="48" transform="translate(-7124.898 -9545.898)" fill="#fbfcfd"/>
      </g>
    </g>
    <g id="choque-de-autos" transform="translate(7951.09 -6178.77)">
      <path id="Trazado_913153" data-name="Trazado 913153" d="M0,0H2.275V4.551H0Z" transform="translate(7.509 42.805) rotate(-82.008)" fill="#4c77ae"/>
      <path id="Trazado_913154" data-name="Trazado 913154" d="M0,0H2.275V2.275H0Z" transform="translate(16.869 57.913) rotate(-82.008)" fill="#4c77ae"/>
      <path id="Trazado_913155" data-name="Trazado 913155" d="M70.378,30.433l-.2-2.266-22.823,2A3.413,3.413,0,0,0,44.286,33L43.25,39.215A2.275,2.275,0,0,0,45.51,41.74a1.981,1.981,0,0,0,.2-.009l19.017-1.667,1.389,15.867-6.89.6a7.953,7.953,0,0,0-15.688,1.372l-3.489.3a1.117,1.117,0,0,1-.828-.263,1.131,1.131,0,0,1-.4-.771l-.1-1.138,3.4-.3-.2-2.266-3.4.3-.1-1.17L42.423,50.2a1.138,1.138,0,0,0,.218-1.779l-1.471-1.47,1.471-1.471a1.138,1.138,0,0,0-.3-1.82L38.424,41.7c.1-.4.2-.8.333-1.2l4.28-10.388a3.4,3.4,0,0,1,2.859-2.1l23.451-2.048a3.575,3.575,0,0,1,.772.02l.319-2.253a5.8,5.8,0,0,0-1.289-.034L45.7,25.746a5.669,5.669,0,0,0-4.765,3.5l-4.3,10.467a19.227,19.227,0,0,0-.966,5.179,8.055,8.055,0,0,0-.928-1.6A7.915,7.915,0,0,0,29.486,40.2l-1.812-.255,6.056-4.036,1.615,1.615,1.609-1.609-2.275-2.275a1.138,1.138,0,0,0-1.436-.142l-8.168,5.445L17.545,26.794A5.681,5.681,0,0,0,13.5,24.159L2.177,22.566,1.861,24.82l11.324,1.593a3.406,3.406,0,0,1,2.427,1.58l.719,1.159L2.177,27.163l-.316,2.253,4.916.692-.95,6.759-3.65-.512-.316,2.253,3.65.513L3.293,54.893l-1.116-.157-.316,2.253,10.217,1.436a7.956,7.956,0,0,0,15.6,2.192l3.469.487A3.406,3.406,0,0,0,35,58.2l1-7.13.553,6.306a3.42,3.42,0,0,0,3.393,3.114,2.415,2.415,0,0,0,.3-.013l3.49-.306a7.973,7.973,0,0,0,7.736,6.143q.348,0,.7-.031A7.948,7.948,0,0,0,59.422,58.8l10.953-.959-.2-2.266-1.8.157L66.992,39.862l3.383-.3-.2-2.266-3.383.3L66.2,30.8ZM34.01,48.87,33.851,50l-4.505-.634.316-2.253,4.393.617a5.76,5.76,0,0,1-.044,1.143ZM9.031,30.424l8.854,1.245v-.007l4.688,7.559L8.079,37.184ZM25.668,59.185a5.689,5.689,0,1,1-5.645-6.48,5.8,5.8,0,0,1,.8.056,5.7,5.7,0,0,1,4.841,6.424Zm5.791-.334-3.47-.488A7.949,7.949,0,0,0,12.4,56.171l-6.857-.962L7.763,39.442l16.9,2.37,4.506.634a5.377,5.377,0,0,1,4.163,2.882l-3.353-.471A2.275,2.275,0,0,0,27.4,46.79l-.316,2.253a2.275,2.275,0,0,0,1.934,2.571l4.506.633L33.213,54.5l-3.38-.474-.316,2.253,3.38.476-.159,1.126A1.138,1.138,0,0,1,31.458,58.851Zm8.459-13.864-1.159,1.159a1.138,1.138,0,0,0,0,1.609L40,49,38.2,50.085l-.238-2.717A17.247,17.247,0,0,1,38,44.026Zm17.231,12.87a5.688,5.688,0,1,1-6.162-5.171c.168-.015.341-.023.505-.023a5.688,5.688,0,0,1,5.656,5.193ZM64.53,37.812,45.5,39.524l1.03-6.143a1.138,1.138,0,0,1,1.024-.945L63.939,31Z" transform="translate(-1.861 -1.444)" fill="#4c77ae"/>
      <path id="Trazado_913156" data-name="Trazado 913156" d="M0,0H4.551V2.275H0Z" transform="translate(44.915 42.472) rotate(-4.992)" fill="#4c77ae"/>
      <path id="Trazado_913157" data-name="Trazado 913157" d="M0,0H2.275V2.275H0Z" transform="translate(48.354 55.886) rotate(-4.992)" fill="#4c77ae"/>
      <path id="Trazado_913158" data-name="Trazado 913158" d="M18.746,28.043l1.609-1.609-1.471-1.471h2.942a1.138,1.138,0,0,0,1.138-1.138V20.884L26.71,24.63a1.138,1.138,0,0,0,1.609,0l3.746-3.746v2.942A1.138,1.138,0,0,0,33.2,24.964h4.08l-2.609,2.609,1.609,1.609,4.551-4.551a1.138,1.138,0,0,0-.8-1.942H34.34V18.138a1.138,1.138,0,0,0-1.942-.8l-4.884,4.884L22.63,17.333a1.138,1.138,0,0,0-1.942.8v4.551H16.138a1.138,1.138,0,0,0-.8,1.942Z" transform="translate(-0.052 -2.21)" fill="#4c77ae"/>
      <path id="Trazado_913159" data-name="Trazado 913159" d="M24.3,17.377h2.275a1.547,1.547,0,0,1,.529-1.162,3.779,3.779,0,0,0,0-5.256,1.545,1.545,0,0,1,0-2.33A3.743,3.743,0,0,0,28.168,6H25.893a1.549,1.549,0,0,1-.53,1.165,3.784,3.784,0,0,0,0,5.258,1.543,1.543,0,0,1,0,2.327A3.732,3.732,0,0,0,24.3,17.377Z" transform="translate(1.228 -3.725)" fill="#4c77ae"/>
      <path id="Trazado_913160" data-name="Trazado 913160" d="M30.3,15.377h2.275a1.547,1.547,0,0,1,.529-1.162,3.779,3.779,0,0,0,0-5.256,1.545,1.545,0,0,1,0-2.33A3.743,3.743,0,0,0,34.168,4H31.893a1.549,1.549,0,0,1-.53,1.165,3.784,3.784,0,0,0,0,5.258,1.543,1.543,0,0,1,0,2.327A3.732,3.732,0,0,0,30.3,15.377Z" transform="translate(2.054 -4)" fill="#4c77ae"/>
    </g>
  </g>
</svg>
