<svg xmlns="http://www.w3.org/2000/svg" width="120" height="120" viewBox="0 0 120 120">
  <g id="Grupo_1118473" data-name="Grupo 1118473" transform="translate(-8322 10953)">
    <g id="Grupo_1117992" data-name="Grupo 1117992" transform="translate(15458.898 -1395.102)">
      <circle id="Elipse_8441" data-name="Elipse 8441" cx="60" cy="60" r="60" transform="translate(-7136.898 -9557.898)" fill="#bfd4ef" opacity="0.45"/>
      <circle id="Elipse_8442" data-name="Elipse 8442" cx="48" cy="48" r="48" transform="translate(-7124.898 -9545.898)" fill="#fbfcfd"/>
    </g>
    <g id="sensor-de-velocidad" transform="translate(8352 -10923)">
      <path id="Trazado_912776" data-name="Trazado 912776" d="M362.528,406.467a2.654,2.654,0,1,0-2.654,2.654A2.657,2.657,0,0,0,362.528,406.467Zm-3.58,0a.926.926,0,1,1,.926.926A.927.927,0,0,1,358.948,406.467Z" transform="translate(-316.053 -357.273)" fill="#4c77ae"/>
      <path id="Trazado_912777" data-name="Trazado 912777" d="M108.719,406.467a2.654,2.654,0,1,0,2.654-2.654A2.657,2.657,0,0,0,108.719,406.467Zm3.58,0a.926.926,0,1,1-.926-.926A.927.927,0,0,1,112.3,406.467Z" transform="translate(-96.193 -357.273)" fill="#4c77ae"/>
      <path id="Trazado_912778" data-name="Trazado 912778" d="M475.731,364.685a.864.864,0,0,0-1.222,1.222,8.086,8.086,0,0,1,0,11.435.864.864,0,1,0,1.222,1.222A9.825,9.825,0,0,0,475.731,364.685Z" transform="translate(-419.601 -322.431)" fill="#4c77ae"/>
      <path id="Trazado_912779" data-name="Trazado 912779" d="M453.767,386.65a.864.864,0,1,0-1.222,1.222,4.511,4.511,0,0,1,0,6.372.864.864,0,1,0,1.222,1.222A6.241,6.241,0,0,0,453.767,386.65Z" transform="translate(-400.168 -341.864)" fill="#4c77ae"/>
      <path id="Trazado_912780" data-name="Trazado 912780" d="M1.764,371.626a8.033,8.033,0,0,1,2.368-5.717.864.864,0,1,0-1.222-1.222,9.825,9.825,0,0,0,0,13.88.864.864,0,1,0,1.222-1.222A8.034,8.034,0,0,1,1.764,371.626Z" transform="translate(-0.04 -322.431)" fill="#4c77ae"/>
      <path id="Trazado_912781" data-name="Trazado 912781" d="M34.134,386.65a.864.864,0,0,0-1.222,0,6.242,6.242,0,0,0,0,8.817.864.864,0,0,0,1.222-1.222,4.511,4.511,0,0,1,0-6.372A.864.864,0,0,0,34.134,386.65Z" transform="translate(-27.51 -341.864)" fill="#4c77ae"/>
      <path id="Trazado_912782" data-name="Trazado 912782" d="M163.13,66.769a3.1,3.1,0,0,0-3.7-1.38,15.412,15.412,0,0,0-25.589,3.853.864.864,0,0,0,1.4.969,13.122,13.122,0,0,1,17.421-.976l-3.878,2.239a4.221,4.221,0,1,0,3.1,5.373l4.258-2.458a.864.864,0,1,0-.864-1.5l-3.28,1.894a4.222,4.222,0,0,0-1.375-2.377l9.141-5.277a1.373,1.373,0,0,1,1.373,2.378L158.9,70.8a.864.864,0,1,0,.864,1.5L162,71.007A3.106,3.106,0,0,0,163.13,66.769ZM147.849,78.084a2.492,2.492,0,1,1,2.492-2.492A2.495,2.495,0,0,1,147.849,78.084Zm-3.356-13.425a14.793,14.793,0,0,0-6.514,1.5,13.678,13.678,0,0,1,19.878.077l-3.607,2.082A14.787,14.787,0,0,0,144.492,64.659Z" transform="translate(-118.349 -53.248)" fill="#4c77ae"/>
      <path id="Trazado_912783" data-name="Trazado 912783" d="M159.574,239.723a1.152,1.152,0,0,0,1.176-.045l5.293-3.421a1.152,1.152,0,0,0,0-1.936L160.75,230.9a1.153,1.153,0,0,0-1.778.968v.767H141.222a1.442,1.442,0,0,0-1.441,1.441V236.5a1.442,1.442,0,0,0,1.441,1.441h17.751v.767A1.152,1.152,0,0,0,159.574,239.723Zm-18.064-3.508v-1.851h18.039a1.154,1.154,0,0,0,1.153-1.153v-.285l3.655,2.363-3.655,2.363v-.285a1.154,1.154,0,0,0-1.153-1.153Z" transform="translate(-123.675 -204.125)" fill="#4c77ae"/>
      <path id="Trazado_912784" data-name="Trazado 912784" d="M74.746,56.048a.864.864,0,0,0,.6,1.06L80.1,58.425a16.629,16.629,0,0,0,8.738,0l11.62-3.222a6.236,6.236,0,0,0,0-12.016L95.465,41.8A22.347,22.347,0,1,0,69.53,5.728a.887.887,0,0,0-.159,1.16.865.865,0,0,0,1.289.148A20.618,20.618,0,1,1,93,41.118l-4.086-1.133V38.455c0-1.513-1.911-2.654-4.444-2.654s-4.444,1.141-4.444,2.654v1.531l-4.086,1.133A20.626,20.626,0,0,1,63.854,22.345,20.42,20.42,0,0,1,68.106,9.8a.886.886,0,0,0-.117-1.217.864.864,0,0,0-1.235.139A22.352,22.352,0,0,0,73.474,41.8L68.48,43.187a6.236,6.236,0,0,0,0,12.016l2.949.818A.864.864,0,0,0,72.5,55.38a.885.885,0,0,0-.642-1.033l-2.918-.809a4.507,4.507,0,0,1,0-8.685l11.083-3.073V44a6.027,6.027,0,0,0-3.58,5.2c0,3.438,3.6,6.234,8.024,6.234s8.024-2.8,8.024-6.234a6.027,6.027,0,0,0-3.58-5.2V41.779L100,44.852a4.507,4.507,0,0,1,0,8.685l-11.62,3.222a14.9,14.9,0,0,1-7.814,0l-4.752-1.318a.864.864,0,0,0-1.065.606ZM84.47,37.529c1.782,0,2.716.688,2.716.926v10.74c0,.238-.934.926-2.716.926s-2.716-.688-2.716-.926V38.455C81.754,38.217,82.688,37.529,84.47,37.529Zm6.3,11.666c0,2.484-2.824,4.506-6.3,4.506s-6.3-2.021-6.3-4.506a4.013,4.013,0,0,1,1.851-3.178v3.178c0,1.513,1.911,2.654,4.444,2.654s4.444-1.141,4.444-2.654V46.017A4.013,4.013,0,0,1,90.765,49.195Z" transform="translate(-54.97)" fill="#4c77ae"/>
    </g>
  </g>
</svg>
