<svg xmlns="http://www.w3.org/2000/svg" width="84" height="88.085" viewBox="0 0 84 88.085"><g transform="translate(0 0.014)"><g transform="translate(0 -0.014)"><path d="M22,56.263H9.385a1.336,1.336,0,0,0-1.344,1.349v10.65a1.332,1.332,0,0,0,1.344,1.344H22a1.328,1.328,0,0,0,1.323-1.344V57.612A1.332,1.332,0,0,0,22,56.263ZM20.668,66.955H10.713v-8h9.955Zm16.668-9.343a1.353,1.353,0,0,1-1.328,1.344H31.041v8H35.02a1.328,1.328,0,1,1,0,2.651H29.693a1.328,1.328,0,0,1-1.323-1.344V57.612a1.336,1.336,0,0,1,1.323-1.349h6.324a1.332,1.332,0,0,1,1.319,1.349ZM22,38.129H9.385a1.361,1.361,0,0,0-1.344,1.344V50.165a1.323,1.323,0,0,0,1.344,1.307H22a1.319,1.319,0,0,0,1.323-1.307V39.474A1.357,1.357,0,0,0,22,38.129ZM20.668,48.821H10.713v-8h9.955Zm9.025,2.651H42.3a1.34,1.34,0,0,0,1.344-1.307V39.474A1.378,1.378,0,0,0,42.3,38.129H29.693a1.357,1.357,0,0,0-1.323,1.344V50.165a1.319,1.319,0,0,0,1.323,1.307Zm1.349-10.65h9.938v8H31.041Zm17.656.712v-2.06a1.357,1.357,0,0,1,1.328-1.344h12.61a1.357,1.357,0,0,1,1.328,1.344,1.332,1.332,0,0,1-1.328,1.349H51.353v.712a1.328,1.328,0,1,1-2.655,0Zm-19-8.154H42.3a1.349,1.349,0,0,0,1.344-1.344V21.344a1.336,1.336,0,0,0-1.344-1.3H29.693a1.319,1.319,0,0,0-1.323,1.3V32.036a1.332,1.332,0,0,0,1.323,1.344Zm1.349-10.688h9.938v7.995H31.041ZM50.025,33.38h12.61a1.332,1.332,0,0,0,1.328-1.344V21.344a1.319,1.319,0,0,0-1.328-1.3H50.025a1.319,1.319,0,0,0-1.328,1.3V32.036a1.332,1.332,0,0,0,1.328,1.344Zm1.328-10.688h9.934v7.995H51.353Zm20.68,22.879V12.4a9.339,9.339,0,0,0-9.276-9.306v-1.7A1.349,1.349,0,0,0,61.408.044a1.328,1.328,0,0,0-1.323,1.344v1.7H50.033v-1.7a1.336,1.336,0,0,0-2.672,0v1.7H37.31v-1.7a1.328,1.328,0,1,0-2.651,0v1.7H24.625v-1.7a1.328,1.328,0,1,0-2.651,0v1.7H11.923v-1.7A1.349,1.349,0,0,0,10.591.044,1.328,1.328,0,0,0,9.264,1.388v1.7A9.327,9.327,0,0,0,0,12.4V68.144a9.343,9.343,0,0,0,9.327,9.339H42.3A22.573,22.573,0,1,0,72.033,45.571ZM9.264,5.744v1.7a1.319,1.319,0,0,0,1.328,1.3,1.34,1.34,0,0,0,1.349-1.3v-1.7H21.991v1.7a1.328,1.328,0,0,0,2.651,0v-1.7H34.693v1.7a1.328,1.328,0,0,0,2.651,0v-1.7H47.4v1.7a1.336,1.336,0,1,0,2.672,0v-1.7H60.118v1.7a1.315,1.315,0,0,0,1.323,1.3,1.34,1.34,0,0,0,1.349-1.3v-1.7a6.663,6.663,0,0,1,6.592,6.416H2.672A6.663,6.663,0,0,1,9.264,5.744Zm.063,69.047a6.7,6.7,0,0,1-6.676-6.646V14.811h66.7V44.386a22.958,22.958,0,0,0-7.957-1.466,22.544,22.544,0,0,0-20.55,31.87Zm66.869.8,1.742.988a19.39,19.39,0,0,1-5.444,5.444l-1.009-1.742a1.34,1.34,0,0,0-1.822-.473,1.256,1.256,0,0,0-.473,1.78l.988,1.742a19.608,19.608,0,0,1-7.421,2.019V83.326a1.34,1.34,0,0,0-1.349-1.307,1.319,1.319,0,0,0-1.323,1.307v2.019a19.683,19.683,0,0,1-7.446-2.019l1.009-1.742a1.3,1.3,0,0,0-.494-1.78,1.344,1.344,0,0,0-1.822.473l-1.009,1.742a19.6,19.6,0,0,1-5.444-5.444l1.738-.988a1.353,1.353,0,0,0,.494-1.826,1.315,1.315,0,0,0-1.822-.473l-1.742.988a19.914,19.914,0,0,1-1.977-7.438h1.985a1.328,1.328,0,0,0,0-2.655H41.574a20.19,20.19,0,0,1,1.977-7.446l1.742.993a1.294,1.294,0,0,0,1.822-.477,1.344,1.344,0,0,0-.494-1.818l-1.738-.988A19.537,19.537,0,0,1,50.327,49l1.009,1.742a1.349,1.349,0,0,0,1.168.674,1.407,1.407,0,0,0,.653-.2,1.34,1.34,0,0,0,.494-1.822l-1.009-1.7a19.683,19.683,0,0,1,7.446-2.019v2.019A1.319,1.319,0,0,0,61.412,49a1.34,1.34,0,0,0,1.349-1.307V45.676a19.608,19.608,0,0,1,7.421,2.019l-.988,1.7a1.315,1.315,0,0,0,.473,1.822,1.428,1.428,0,0,0,.674.2,1.319,1.319,0,0,0,1.147-.674L72.5,49a19.336,19.336,0,0,1,5.444,5.444l-1.742.988a1.319,1.319,0,0,0-.473,1.818,1.3,1.3,0,0,0,1.147.674,1.256,1.256,0,0,0,.649-.2l1.746-.993a19.893,19.893,0,0,1,2,7.446h-2a1.328,1.328,0,1,0,0,2.655h1.977a19.621,19.621,0,0,1-2,7.438L77.5,73.287a1.282,1.282,0,0,0-1.8.473,1.328,1.328,0,0,0,.49,1.826ZM62.756,55.157V65.527a1.319,1.319,0,0,1-.674,1.147,1.465,1.465,0,0,1-1.344,0l-8.95-5.185a1.344,1.344,0,0,1-.494-1.822,1.311,1.311,0,0,1,1.822-.473l6.969,4V55.157a1.323,1.323,0,0,1,1.323-1.311,1.344,1.344,0,0,1,1.349,1.311Z" transform="translate(0 0.014)" fill="#4c77ae"/></g></g></svg>