<svg xmlns="http://www.w3.org/2000/svg" width="91.103" height="91.041" viewBox="0 0 91.103 91.041"><path d="M39.261,19.8a19.63,19.63,0,1,0-19.63,19.63A19.653,19.653,0,0,0,39.261,19.8Zm-36.592,0A16.961,16.961,0,1,1,19.63,36.764,16.981,16.981,0,0,1,2.669,19.8Z" transform="translate(0 -0.172)" fill="#4c77ae"/><path d="M91.59,51.552A4.059,4.059,0,0,0,95.644,47.5V37.328a4.055,4.055,0,1,0-8.109,0V47.5A4.059,4.059,0,0,0,91.59,51.552ZM90.2,37.328a1.385,1.385,0,1,1,2.771,0V47.5a1.385,1.385,0,1,1-2.771,0Z" transform="translate(-71.959 -27.383)" fill="#4c77ae"/><path d="M95.644,146.195a4.055,4.055,0,1,0-4.055,4.055A4.059,4.059,0,0,0,95.644,146.195Zm-5.44,0a1.385,1.385,0,1,1,1.385,1.385A1.387,1.387,0,0,1,90.2,146.195Z" transform="translate(-71.959 -116.878)" fill="#4c77ae"/><path d="M125.856,5.8,121.29,1.231a3.6,3.6,0,0,0-5.1,0l-1.305,1.305a6.609,6.609,0,0,0-8.307.834l-1.161,1.161a1.334,1.334,0,0,0,1.887,1.887l1.161-1.161a3.932,3.932,0,0,1,5.553,0l7.809,7.809a3.931,3.931,0,0,1,0,5.551l-.282.282a6.718,6.718,0,0,0-8.268,7.481,6.716,6.716,0,0,0-7.608,7.61,6.715,6.715,0,0,0-7.483,8.254,4.631,4.631,0,0,1-6.326-.2l-7.313-7.313a3.929,3.929,0,0,1,0-5.551L103.536,10.19A1.334,1.334,0,0,0,101.649,8.3L82.66,27.291a6.6,6.6,0,0,0-.834,8.3L57.549,59.873a4.569,4.569,0,0,0-6.445.018L44.9,66.1a4.548,4.548,0,0,0-1.337,3.231V86.644a4.576,4.576,0,0,0,4.571,4.571H114.3a4.575,4.575,0,0,0,4.569-4.571V72.773A4.575,4.575,0,0,0,114.3,68.2H80.179a1.335,1.335,0,0,0,0,2.669H114.3a1.9,1.9,0,0,1,1.9,1.9V86.644a1.9,1.9,0,0,1-1.9,1.9H48.129a1.9,1.9,0,0,1-1.9-1.9V69.329a1.894,1.894,0,0,1,.557-1.345l6.208-6.206a1.9,1.9,0,0,1,2.69,0l8.7,8.7a1.334,1.334,0,0,0,.944.391h9.525a1.335,1.335,0,0,0,0-2.669h-6.3L91.6,45.154a7.3,7.3,0,0,0,8.684-1.215l.044-.042.017-.017a2.036,2.036,0,0,0,.5-2.045,4.044,4.044,0,0,1,5.064-5.061,2.052,2.052,0,0,0,.6.091,2.031,2.031,0,0,0,1.94-2.637,4.046,4.046,0,0,1,5.068-5.063,2.06,2.06,0,0,0,.6.091,2.021,2.021,0,0,0,1.441-.6,2.043,2.043,0,0,0,.5-2.041,4.046,4.046,0,0,1,5.059-5.065,2.029,2.029,0,0,0,2.05-.5l.546-.546a6.608,6.608,0,0,0,.834-8.3l1.306-1.305a3.61,3.61,0,0,0,0-5.1ZM89.51,43.466,65.326,67.649,59.437,61.76,83.62,37.576ZM118.741,2.843a.93.93,0,0,1,.662.275l4.565,4.565a.937.937,0,0,1,0,1.324l-1.212,1.212L116.867,4.33l1.213-1.212a.929.929,0,0,1,.662-.275Z" transform="translate(-35.807 -0.174)" fill="#4c77ae"/></svg>