<svg xmlns="http://www.w3.org/2000/svg" width="120" height="120" viewBox="0 0 120 120">
  <g id="Grupo_1118476" data-name="Grupo 1118476" transform="translate(-8647 10531)">
    <g id="Grupo_1117992" data-name="Grupo 1117992" transform="translate(15783.898 -973.102)">
      <circle id="Elipse_8441" data-name="Elipse 8441" cx="60" cy="60" r="60" transform="translate(-7136.898 -9557.898)" fill="#bfd4ef" opacity="0.45"/>
      <circle id="Elipse_8442" data-name="Elipse 8442" cx="48" cy="48" r="48" transform="translate(-7124.898 -9545.898)" fill="#fbfcfd"/>
    </g>
    <g id="diseno-de-la-aplicacion" transform="translate(8677.136 -10500.713)">
      <path id="Trazado_912808" data-name="Trazado 912808" d="M81.97,38.638h-24.6v16.77l9.005-11.224a.858.858,0,0,1,1.37.065l4.437,5.873,3.654-2.545a.9.9,0,0,1,1.175.2l4.829,7.961v-17.1ZM49.277,77.922a2.687,2.687,0,0,1,2.675-2.675,2.646,2.646,0,0,1,2.675,2.675,2.675,2.675,0,1,1-5.351,0Zm1.762,0a.914.914,0,1,0,.914-.914A.856.856,0,0,0,51.039,77.922ZM39.815,62.587v5.22h11.42v-5.22Zm-1.762,5.22v-5.22H26.634v5.22ZM26.634,60.89H51.169V49.144H26.634ZM30.614,57.5a.848.848,0,0,1,0-1.7h16.77a.848.848,0,0,1,0,1.7Zm0-3.458a.848.848,0,0,1,0-1.7h16.77a.848.848,0,0,1,0,1.7ZM74.792,68.851a.848.848,0,0,1-1.7,0V63.566a.848.848,0,0,1,1.7,0Zm4.437,3.85a.848.848,0,0,1-1.7,0V63.566a.848.848,0,0,1,1.7,0Zm4.437,10.18a.848.848,0,0,1-1.7,0V63.566a.848.848,0,0,1,1.7,0ZM57.5,58.019H81.252L76.1,49.536l-3.589,2.48a.835.835,0,0,1-1.175-.2l-4.307-5.742ZM51.235,38.508h-24.6v5.22H51.169v-5.22ZM25.785,36.746h10.18v-10.9A.864.864,0,0,1,36.813,25H67.026a.864.864,0,0,1,.848.848V36.876H82.753a.864.864,0,0,1,.848.848V58.8a.864.864,0,0,1-.848.848H67.94V82.816a.864.864,0,0,1-.848.848H36.813a.864.864,0,0,1-.848-.848V69.5H25.785a.864.864,0,0,1-.848-.848V48.231a.864.864,0,0,1,.848-.848h10.18V45.49H25.785a.974.974,0,0,1-.848-.914V37.659A.879.879,0,0,1,25.785,36.746Zm11.942,0H52.083a.864.864,0,0,1,.848.848v6.982a.864.864,0,0,1-.848.848H37.727v1.892H52.083a.864.864,0,0,1,.848.848V68.59a.864.864,0,0,1-.848.848H37.727v2.675H66.243v-12.4H56.52a.864.864,0,0,1-.848-.848V37.79a.864.864,0,0,1,.848-.848h9.658V34.005H37.727Zm0-4.5H66.243V26.7H37.727Zm28.451,41.7H37.727v8.092H66.243V73.941ZM54.758,28.654a.848.848,0,0,1,0,1.7H49.146a.848.848,0,0,1,0-1.7Z" transform="translate(-24.937 -25)" fill="#4c77ae"/>
    </g>
  </g>
</svg>
