<svg xmlns="http://www.w3.org/2000/svg" width="52.486" height="93.999" viewBox="0 0 52.486 93.999"><g transform="translate(0 0)"><path d="M224.762,216.107a1.377,1.377,0,0,0,1.377-1.377v-2.407a3.794,3.794,0,0,0-3.79-3.79h-9.173a3.794,3.794,0,0,0-3.79,3.79v2.407a1.377,1.377,0,0,0,1.377,1.377Zm-12.622-3.784a1.037,1.037,0,0,1,1.036-1.036h9.173a1.037,1.037,0,0,1,1.036,1.036v1.031H212.14v-1.031Z" transform="translate(-191.7 -170.248)" fill="#4c77ae"/><path d="M175.391,272.646v8.2a3.116,3.116,0,0,0,3.113,3.113h8.455a1.377,1.377,0,0,0,0-2.754H178.5a.364.364,0,0,1-.359-.359v-8.2a.371.371,0,0,1,.359-.364h23.01a.374.374,0,0,1,.364.364v8.2a.36.36,0,0,1-.109.254.352.352,0,0,1-.246.105h-8.11a1.377,1.377,0,0,0-.008,2.754h8.117a3.12,3.12,0,0,0,3.109-3.113v-8.2a3.122,3.122,0,0,0-3.118-3.118H178.5a3.119,3.119,0,0,0-3.113,3.118Z" transform="translate(-163.947 -220.044)" fill="#4c77ae"/><path d="M188.131,370.892h-4.049a1.377,1.377,0,0,0,0,2.754h4.049a1.377,1.377,0,0,0,0-2.754Z" transform="translate(-169.918 -302.799)" fill="#4c77ae"/><path d="M188.131,401.175h-4.049a1.377,1.377,0,1,0,0,2.754h4.049a1.377,1.377,0,0,0,0-2.754Z" transform="translate(-169.918 -327.522)" fill="#4c77ae"/><path d="M241.7,370.892h-4.049a1.377,1.377,0,0,0,0,2.754H241.7a1.377,1.377,0,0,0,0-2.754Z" transform="translate(-213.649 -302.799)" fill="#4c77ae"/><path d="M241.7,401.175h-4.049a1.377,1.377,0,1,0,0,2.754H241.7a1.377,1.377,0,0,0,0-2.754Z" transform="translate(-213.649 -327.522)" fill="#4c77ae"/><path d="M188.131,431.487h-4.049a1.377,1.377,0,1,0,0,2.754h4.049a1.377,1.377,0,0,0,0-2.754Z" transform="translate(-169.918 -352.269)" fill="#4c77ae"/><path d="M241.7,431.487h-4.049a1.377,1.377,0,1,0,0,2.754H241.7a1.377,1.377,0,0,0,0-2.754Z" transform="translate(-213.649 -352.269)" fill="#4c77ae"/><path d="M295.291,370.892h-4.049a1.377,1.377,0,0,0,0,2.754h4.049a1.377,1.377,0,0,0,0-2.754Z" transform="translate(-257.404 -302.799)" fill="#4c77ae"/><path d="M295.291,401.175h-4.049a1.377,1.377,0,0,0,0,2.754h4.049a1.377,1.377,0,0,0,0-2.754Z" transform="translate(-257.404 -327.522)" fill="#4c77ae"/><path d="M295.291,431.487h-4.049a1.377,1.377,0,0,0,0,2.754h4.049a1.377,1.377,0,0,0,0-2.754Z" transform="translate(-257.404 -352.269)" fill="#4c77ae"/><path d="M188.131,461.77h-4.049a1.377,1.377,0,1,0,0,2.754h4.049a1.377,1.377,0,0,0,0-2.754Z" transform="translate(-169.918 -376.992)" fill="#4c77ae"/><path d="M241.7,461.77h-4.049a1.377,1.377,0,1,0,0,2.754H241.7a1.377,1.377,0,0,0,0-2.754Z" transform="translate(-213.649 -376.992)" fill="#4c77ae"/><path d="M295.291,461.77h-4.049a1.377,1.377,0,0,0,0,2.754h4.049a1.377,1.377,0,0,0,0-2.754Z" transform="translate(-257.404 -376.992)" fill="#4c77ae"/><path d="M163.715,37.573l-3.593-1.814a4.677,4.677,0,0,0-3.534-3.255V27.646a3.159,3.159,0,0,0-3.155-3.155h-6.058a3.156,3.156,0,0,0-3.15,3.155v4.692h-6.965v-1.7a4.373,4.373,0,0,0-2.681-4.028L133.151,3.865A3.866,3.866,0,0,0,129.375,0h0a3.857,3.857,0,0,0-3.758,3.867l-1.426,22.7a4.373,4.373,0,0,0-2.788,4.07v2.058a4.556,4.556,0,0,0-2.926,3.065l-3.591,1.813a3.21,3.21,0,0,0-1.828,3.155v7.742a3.209,3.209,0,0,0,1.826,3.154l1.8.911-1.8.91a3.21,3.21,0,0,0-1.828,3.155V64.34a3.209,3.209,0,0,0,1.826,3.154l3.482,1.758v6.68a1.377,1.377,0,0,0,2.754,0V36.662c0-.837,1.06-1.571,2.268-1.571h31.827c1.208,0,2.268.734,2.268,1.571V90.026c0,.576-.788,1.219-1.843,1.219H122.96c-1.086,0-1.843-.643-1.843-1.219V82.342a1.377,1.377,0,0,0-2.754,0v7.684c0,2.191,2.062,3.973,4.6,3.973h32.676c2.535,0,4.6-1.782,4.6-3.973V70.317l3.48-1.757a3.21,3.21,0,0,0,1.828-3.155V40.727a3.208,3.208,0,0,0-1.826-3.154ZM118.363,66.168l-2.242-1.132c-.264-.133-.312-.157-.312-.695V56.6c0-.538.048-.562.314-.7l2.24-1.131Zm0-15.872-2.242-1.132c-.264-.133-.312-.157-.312-.695V40.727c0-.538.048-.562.314-.7l2.24-1.131ZM129.375,2.754h0c.457,0,.966.338,1.027,1.286l1.4,22.229h-4.833l1.4-22.23c.059-.947.562-1.285,1.012-1.286Zm5.132,29.584H124.154v-1.7a1.634,1.634,0,0,1,1.613-1.613h7.128a1.614,1.614,0,0,1,1.613,1.613v1.7Zm19.328,0H146.98V27.646a.4.4,0,0,1,.4-.4h6.058a.412.412,0,0,1,.4.4Zm8.953,33.068c0,.538-.048.562-.314.7l-2.24,1.131V38.9l2.242,1.132c.264.133.312.157.312.695Z" transform="translate(-113.055 0)" fill="#4c77ae"/></g></svg>