<svg xmlns="http://www.w3.org/2000/svg" width="129.104" height="80.69" viewBox="0 0 129.104 80.69"><path d="M127.087,118.19H94.811V100.035a2.017,2.017,0,0,0,0-4.035H90.777a2.017,2.017,0,0,0,0,4.035V118.19H38.328V100.035a2.017,2.017,0,0,0,0-4.035H34.293a2.017,2.017,0,0,0,0,4.035V118.19H2.017A2.017,2.017,0,0,0,0,120.207v48.414a2.017,2.017,0,1,0,4.035,0,17.1,17.1,0,0,1,3.4-9.925c.022.008.044.017.067.024a6.248,6.248,0,0,1,1.231.572,8.519,8.519,0,0,0,4.629,1.26,8.519,8.519,0,0,0,4.629-1.26,4.606,4.606,0,0,1,2.68-.758,4.594,4.594,0,0,1,2.674.757,8.5,8.5,0,0,0,4.626,1.26,8.52,8.52,0,0,0,4.629-1.26,5.115,5.115,0,0,1,5.357,0,9.135,9.135,0,0,0,9.258,0,5.119,5.119,0,0,1,5.36,0,9.136,9.136,0,0,0,9.259,0,5.126,5.126,0,0,1,5.364,0,9.145,9.145,0,0,0,9.263,0,5.129,5.129,0,0,1,5.366,0,9.143,9.143,0,0,0,9.262,0,5.125,5.125,0,0,1,5.364,0,9.145,9.145,0,0,0,9.263,0,5.14,5.14,0,0,1,5.374,0,9.169,9.169,0,0,0,9.273,0,6.2,6.2,0,0,1,1.249-.577c.02-.006.039-.014.059-.021a17.1,17.1,0,0,1,3.4,9.926,2.017,2.017,0,1,0,4.035,0V120.207A2.017,2.017,0,0,0,127.087,118.19Zm-2.017,4.035v4.035H110.949v-4.035Zm-14.138,22.438a2.014,2.014,0,0,0,.017-.248V130.293h4.035v16.8Q113.077,145.832,110.932,144.662ZM18.155,130.293v14.121a2.013,2.013,0,0,0,.017.248q-2.145,1.168-4.051,2.427v-16.8Zm4.035,0h4.035V140.38a2.014,2.014,0,0,0,.074.537q-2.113.821-4.109,1.738Zm8.069,0h4.035v7.972q-2.056.575-4.035,1.229Zm8.069,0h4.035v6.052c0,.011,0,.021,0,.031q-2.046.392-4.036.856Zm8.069,0h4.035v4.843q-2.038.238-4.035.545Zm8.069,0H58.5v4.182q-2.032.1-4.035.264Zm8.069,0h4.035v4.053c-.671-.011-1.343-.018-2.017-.018s-1.346.007-2.017.018Zm8.069,0h4.035v4.446q-2-.164-4.035-.264Zm8.069,0h4.035v5.388q-2-.306-4.035-.545Zm8.069,6.052v-6.052h4.035v6.939q-1.989-.464-4.036-.856C86.741,136.366,86.742,136.356,86.742,136.345Zm8.069-6.052h4.035v9.2q-1.977-.654-4.035-1.229Zm8.069,10.086V130.293h4.035v12.361q-2-.916-4.109-1.738A2.014,2.014,0,0,0,102.88,140.38Zm4.035-18.155v4.035h-12.1v-4.035Zm-16.138,0v4.035h-12.1v-4.035Zm-16.138,0v4.035H54.466v-4.035Zm-24.207,0v4.035h-12.1v-4.035Zm-16.138,0v4.035H22.19v-4.035Zm-16.138,4.035H4.035v-4.035H18.155ZM4.035,130.293h6.052v19.774a32.991,32.991,0,0,0-6.052,6.46Zm114.382,25.466a5.151,5.151,0,0,1-5.381,0,9.157,9.157,0,0,0-9.268,0,5.128,5.128,0,0,1-5.366,0,9.143,9.143,0,0,0-9.262,0,5.127,5.127,0,0,1-5.365,0,9.145,9.145,0,0,0-9.263,0,5.129,5.129,0,0,1-5.366,0,9.142,9.142,0,0,0-9.262,0,5.119,5.119,0,0,1-5.36,0,9.137,9.137,0,0,0-9.259,0,5.118,5.118,0,0,1-5.359,0,9.132,9.132,0,0,0-9.257,0,4.607,4.607,0,0,1-2.68.757,4.594,4.594,0,0,1-2.675-.757,8.5,8.5,0,0,0-4.625-1.26,8.52,8.52,0,0,0-4.629,1.26,4.606,4.606,0,0,1-2.679.757,4.607,4.607,0,0,1-2.68-.757c-.169-.094-.347-.191-.535-.288a43.357,43.357,0,0,1,11.113-7.881c11.53-5.951,26.906-9.229,43.294-9.229s31.763,3.278,43.294,9.229a43.362,43.362,0,0,1,11.11,7.878C118.767,155.567,118.587,155.665,118.416,155.759Zm.6-5.692V130.293h6.052v26.234A32.991,32.991,0,0,0,119.018,150.068Z" transform="translate(0 -96)" fill="#4c77ae"/><path d="M206.769,362.017a4.615,4.615,0,0,1-2.683-.758,9.145,9.145,0,0,0-9.263,0,5.129,5.129,0,0,1-5.366,0,9.142,9.142,0,0,0-9.262,0,5.12,5.12,0,0,1-5.36,0,9.137,9.137,0,0,0-9.259,0,4.61,4.61,0,0,1-2.681.758,2.017,2.017,0,0,0,0,4.035,8.523,8.523,0,0,0,4.63-1.26,5.119,5.119,0,0,1,5.36,0,9.136,9.136,0,0,0,9.259,0,5.126,5.126,0,0,1,5.364,0,9.145,9.145,0,0,0,9.263,0,5.129,5.129,0,0,1,5.366,0,8.526,8.526,0,0,0,4.631,1.26,2.017,2.017,0,0,0,0-4.035Z" transform="translate(-120.311 -293.43)" fill="#4c77ae"/><path d="M235.5,394.017a4.615,4.615,0,0,1-2.683-.758,9.142,9.142,0,0,0-9.262,0,4.61,4.61,0,0,1-2.681.757,2.017,2.017,0,0,0,0,4.035,8.52,8.52,0,0,0,4.63-1.26,5.126,5.126,0,0,1,5.364,0,8.525,8.525,0,0,0,4.631,1.26,2.017,2.017,0,0,0,0-4.035Z" transform="translate(-163.67 -317.361)" fill="#4c77ae"/></svg>