<svg xmlns="http://www.w3.org/2000/svg" width="120" height="120" viewBox="0 0 120 120">
  <g id="Grupo_1118478" data-name="Grupo 1118478" transform="translate(-8963 10531)">
    <g id="Grupo_1117992" data-name="Grupo 1117992" transform="translate(16099.898 -973.102)">
      <circle id="Elipse_8441" data-name="Elipse 8441" cx="60" cy="60" r="60" transform="translate(-7136.898 -9557.898)" fill="#bfd4ef" opacity="0.45"/>
      <circle id="Elipse_8442" data-name="Elipse 8442" cx="48" cy="48" r="48" transform="translate(-7124.898 -9545.898)" fill="#fbfcfd"/>
    </g>
    <g id="puente-sobre-un-rio" transform="translate(8989.668 -10495.897)">
      <path id="Trazado_912809" data-name="Trazado 912809" d="M68.577,107.974H51.16v-9.8a1.089,1.089,0,0,0,0-2.177H48.983a1.089,1.089,0,0,0,0,2.177v9.8h-28.3v-9.8a1.089,1.089,0,0,0,0-2.177H18.5a1.089,1.089,0,1,0,0,2.177v9.8H1.089A1.089,1.089,0,0,0,0,109.062v26.124a1.089,1.089,0,1,0,2.177,0,9.229,9.229,0,0,1,1.834-5.355l.036.013a3.371,3.371,0,0,1,.664.309,4.6,4.6,0,0,0,2.5.68,4.6,4.6,0,0,0,2.5-.68,2.485,2.485,0,0,1,1.446-.409,2.479,2.479,0,0,1,1.443.408,4.589,4.589,0,0,0,2.5.68,4.6,4.6,0,0,0,2.5-.68,2.76,2.76,0,0,1,2.891,0,4.929,4.929,0,0,0,5,0,2.762,2.762,0,0,1,2.892,0,4.93,4.93,0,0,0,5,0,2.766,2.766,0,0,1,2.894,0,4.935,4.935,0,0,0,5,0,2.767,2.767,0,0,1,2.9,0,4.934,4.934,0,0,0,5,0,2.766,2.766,0,0,1,2.894,0,4.935,4.935,0,0,0,5,0,2.774,2.774,0,0,1,2.9,0,4.948,4.948,0,0,0,5,0,3.345,3.345,0,0,1,.674-.311l.032-.011a9.227,9.227,0,0,1,1.835,5.356,1.089,1.089,0,1,0,2.177,0V109.062A1.089,1.089,0,0,0,68.577,107.974Zm-1.089,2.177v2.177h-7.62v-2.177Zm-7.629,12.108a1.087,1.087,0,0,0,.009-.134V114.5h2.177v9.063Q61.017,122.89,59.859,122.258ZM9.8,114.5v7.62a1.086,1.086,0,0,0,.009.134q-1.158.63-2.186,1.31V114.5Zm2.177,0h2.177v5.443a1.087,1.087,0,0,0,.04.29q-1.14.443-2.217.938Zm4.354,0H18.5v4.3q-1.109.31-2.177.663Zm4.354,0h2.177v3.266c0,.006,0,.011,0,.017q-1.1.212-2.178.462Zm4.354,0h2.177v2.614q-1.1.128-2.177.294Zm4.354,0h2.177v2.257q-1.1.053-2.177.142Zm4.354,0h2.177v2.187c-.362-.006-.725-.01-1.089-.01s-.726,0-1.089.01Zm4.354,0h2.177v2.4q-1.081-.089-2.177-.142Zm4.354,0h2.177v2.908q-1.078-.165-2.177-.294Zm4.354,3.266V114.5h2.177v3.744q-1.073-.251-2.178-.462C46.805,117.782,46.806,117.776,46.806,117.77ZM51.16,114.5h2.177v4.965q-1.067-.353-2.177-.663Zm4.354,5.443V114.5h2.177v6.67q-1.077-.495-2.217-.938A1.087,1.087,0,0,0,55.514,119.947Zm2.177-9.8v2.177H51.16v-2.177Zm-8.708,0v2.177H42.452v-2.177Zm-8.708,0v2.177H29.39v-2.177Zm-13.062,0v2.177H20.682v-2.177Zm-8.708,0v2.177H11.974v-2.177ZM9.8,112.328H2.177v-2.177H9.8ZM2.177,114.5H5.443v10.67a17.8,17.8,0,0,0-3.266,3.486ZM63.9,128.246a2.78,2.78,0,0,1-2.9,0,4.941,4.941,0,0,0-5,0,2.767,2.767,0,0,1-2.9,0,4.934,4.934,0,0,0-5,0,2.766,2.766,0,0,1-2.895,0,4.935,4.935,0,0,0-5,0,2.768,2.768,0,0,1-2.9,0,4.933,4.933,0,0,0-5,0,2.762,2.762,0,0,1-2.892,0,4.931,4.931,0,0,0-5,0,2.762,2.762,0,0,1-2.892,0,4.928,4.928,0,0,0-5,0,2.486,2.486,0,0,1-1.446.409,2.479,2.479,0,0,1-1.443-.408,4.587,4.587,0,0,0-2.5-.68,4.6,4.6,0,0,0-2.5.68,2.485,2.485,0,0,1-1.446.409,2.486,2.486,0,0,1-1.446-.409c-.091-.05-.187-.1-.289-.156a23.4,23.4,0,0,1,6-4.252c6.222-3.211,14.518-4.98,23.361-4.98s17.14,1.769,23.361,4.98a23.4,23.4,0,0,1,5.995,4.251C64.087,128.143,63.99,128.2,63.9,128.246Zm.325-3.071V114.5h3.266v14.156A17.8,17.8,0,0,0,64.222,125.175Z" transform="translate(0 -96)" fill="#4c77ae"/>
      <path id="Trazado_912810" data-name="Trazado 912810" d="M185.641,361.089a2.49,2.49,0,0,1-1.448-.409,4.935,4.935,0,0,0-5,0,2.767,2.767,0,0,1-2.9,0,4.933,4.933,0,0,0-5,0,2.763,2.763,0,0,1-2.892,0,4.931,4.931,0,0,0-5,0,2.488,2.488,0,0,1-1.447.409,1.089,1.089,0,0,0,0,2.177,4.6,4.6,0,0,0,2.5-.68,2.762,2.762,0,0,1,2.892,0,4.93,4.93,0,0,0,5,0,2.766,2.766,0,0,1,2.894,0,4.934,4.934,0,0,0,5,0,2.767,2.767,0,0,1,2.9,0,4.6,4.6,0,0,0,2.5.68,1.089,1.089,0,0,0,0-2.177Z" transform="translate(-138.988 -324.079)" fill="#4c77ae"/>
      <path id="Trazado_912811" data-name="Trazado 912811" d="M227.837,393.089a2.49,2.49,0,0,1-1.448-.409,4.933,4.933,0,0,0-5,0,2.488,2.488,0,0,1-1.447.409,1.089,1.089,0,0,0,0,2.177,4.6,4.6,0,0,0,2.5-.68,2.766,2.766,0,0,1,2.894,0,4.6,4.6,0,0,0,2.5.68,1.089,1.089,0,0,0,0-2.177Z" transform="translate(-189.077 -351.725)" fill="#4c77ae"/>
    </g>
  </g>
</svg>
