<svg xmlns="http://www.w3.org/2000/svg" width="120" height="120" viewBox="0 0 120 120">
  <g id="Grupo_1118014" data-name="Grupo 1118014" transform="translate(-6969 6254)">
    <g id="Grupo_1117992" data-name="Grupo 1117992" transform="translate(14105.898 3303.898)">
      <circle id="Elipse_8441" data-name="Elipse 8441" cx="60" cy="60" r="60" transform="translate(-7136.898 -9557.898)" fill="#bfd4ef" opacity="0.45"/>
      <circle id="Elipse_8442" data-name="Elipse 8442" cx="48" cy="48" r="48" transform="translate(-7124.898 -9545.898)" fill="#fbfcfd"/>
    </g>
    <path id="exceso-de-velocidad" d="M36.953,98.2a31.131,31.131,0,0,0-31.1,31.094v3.668a2.682,2.682,0,0,0,2.679,2.679H65.368a2.682,2.682,0,0,0,2.679-2.679v-3.668A31.129,31.129,0,0,0,36.953,98.2ZM65.74,132.958a.373.373,0,0,1-.372.372H8.535a.377.377,0,0,1-.372-.372V129.29a28.79,28.79,0,0,1,57.579,0v3.668ZM55.27,110.974a1.073,1.073,0,0,0-.14-.117,25.855,25.855,0,0,0-36.367.01,1.119,1.119,0,0,0-.127.108,1,1,0,0,0-.108.128,25.819,25.819,0,0,0-7.48,18.189,1.153,1.153,0,0,0,1.153,1.153h7.467a1.152,1.152,0,0,0,1.153-1.153,16.132,16.132,0,0,1,27.5-11.447c.013.014.026.03.039.043l.032.029a16.173,16.173,0,0,1,1.643,1.936l-9.407-.739A6.262,6.262,0,1,0,42,127.886l4.665-1.906,5.438-2.227a16.058,16.058,0,0,1,.978,5.539,1.153,1.153,0,0,0,1.153,1.153H61.7a1.152,1.152,0,0,0,1.153-1.153,25.821,25.821,0,0,0-7.467-18.178.873.873,0,0,0-.114-.141Zm-6.122,4.492a18.383,18.383,0,0,0-11.041-4.57v-5.174a23.5,23.5,0,0,1,14.688,6.1Zm-24.385.007-3.653-3.655a23.508,23.508,0,0,1,14.689-6.1v5.173a18.359,18.359,0,0,0-11.037,4.579Zm-6.212,12.664H13.383a23.508,23.508,0,0,1,6.1-14.689l3.653,3.655a18.351,18.351,0,0,0-4.58,11.034Zm18.4,0a3.956,3.956,0,1,1,3.954-3.954A3.961,3.961,0,0,1,36.953,128.137Zm8.839-4.293-2.621,1.07a6.423,6.423,0,0,0,.045-.731,6.234,6.234,0,0,0-.565-2.6l7.263.571Zm9.561,4.293a18.266,18.266,0,0,0-1.112-5.261l1.033-.423a1.152,1.152,0,0,0-.346-2.216l-2-.157a18.442,18.442,0,0,0-2.142-2.983l3.647-3.647a23.514,23.514,0,0,1,6.095,14.688h-5.17ZM35.8,93.283v-5.3a1.153,1.153,0,1,1,2.305,0v5.3a1.153,1.153,0,1,1-2.305,0Zm9.358.929,1.37-5.12a1.154,1.154,0,0,1,2.229.6l-1.37,5.12a1.155,1.155,0,0,1-1.114.855,1.187,1.187,0,0,1-.3-.039A1.154,1.154,0,0,1,45.158,94.212Zm8.8,3.319,2.65-4.592a1.153,1.153,0,0,1,2,1.153l-2.65,4.592a1.153,1.153,0,1,1-2-1.153Zm7.643,7.113a1.153,1.153,0,0,1,0-1.63l3.746-3.746a1.153,1.153,0,0,1,1.63,1.63l-3.746,3.746a1.153,1.153,0,0,1-1.63,0Zm11.7,4.991-4.587,2.65a1.154,1.154,0,0,1-1.154-2l4.587-2.65a1.154,1.154,0,0,1,1.154,2ZM25.147,89.688a1.153,1.153,0,1,1,2.229-.6l1.37,5.12a1.153,1.153,0,0,1-.816,1.412,1.125,1.125,0,0,1-.3.039,1.155,1.155,0,0,1-1.114-.855Zm-9.851,4.4a1.153,1.153,0,0,1,2-1.153l2.65,4.592a1.153,1.153,0,1,1-2,1.153ZM6.925,100.9a1.153,1.153,0,0,1,1.63-1.63l3.746,3.746a1.153,1.153,0,0,1-1.63,1.63ZM5.765,112.44a1.157,1.157,0,0,1-.576-.154L.6,109.635a1.153,1.153,0,0,1,1.154-2l4.587,2.65a1.153,1.153,0,0,1-.578,2.151Z" transform="translate(6992.122 -6312.487)" fill="#4c77ae"/>
  </g>
</svg>
