<svg xmlns="http://www.w3.org/2000/svg" width="120" height="120" viewBox="0 0 120 120">
  <g id="Grupo_1118479" data-name="Grupo 1118479" transform="translate(-6674 6200)">
    <g id="Grupo_1118015" data-name="Grupo 1118015" transform="translate(-295 54)">
      <g id="Grupo_1117992" data-name="Grupo 1117992" transform="translate(14105.898 3303.898)">
        <circle id="Elipse_8441" data-name="Elipse 8441" cx="60" cy="60" r="60" transform="translate(-7136.898 -9557.898)" fill="#bfd4ef" opacity="0.45"/>
        <circle id="Elipse_8442" data-name="Elipse 8442" cx="48" cy="48" r="48" transform="translate(-7124.898 -9545.898)" fill="#fbfcfd"/>
      </g>
    </g>
    <g id="Layer_2" data-name="Layer 2" transform="translate(6705.533 -6169.838)">
      <g id="Layer_1" data-name="Layer 1" transform="translate(0 -0.014)">
        <path id="schedule_of_classes" data-name="schedule of classes" d="M14.908,38.13H6.361a.905.905,0,0,0-.911.914v7.218a.9.9,0,0,0,.911.911h8.547a.9.9,0,0,0,.9-.911V39.044a.9.9,0,0,0-.9-.914Zm-.9,7.247H7.261V39.955h6.747Zm11.3-6.333a.917.917,0,0,1-.9.911H21.039v5.422h2.7a.9.9,0,1,1,0,1.8H20.125a.9.9,0,0,1-.9-.911V39.044a.905.905,0,0,1,.9-.914h4.286a.9.9,0,0,1,.894.914Zm-10.4-13.2H6.361a.923.923,0,0,0-.911.911V34a.9.9,0,0,0,.911.886h8.547A.894.894,0,0,0,15.8,34V26.75a.92.92,0,0,0-.9-.911Zm-.9,7.247H7.261V27.664h6.747Zm6.117,1.8h8.544A.908.908,0,0,0,29.58,34V26.75a.934.934,0,0,0-.911-.911H20.125a.92.92,0,0,0-.9.911V34A.894.894,0,0,0,20.125,34.883Zm.914-7.218h6.736v5.422H21.039Zm11.967.483v-1.4a.92.92,0,0,1,.9-.911h8.547a.92.92,0,0,1,.9.911.9.9,0,0,1-.9.914H34.806v.483a.9.9,0,1,1-1.8,0ZM20.125,22.62h8.544a.914.914,0,0,0,.911-.911V14.462a.905.905,0,0,0-.911-.883H20.125a.894.894,0,0,0-.9.883v7.247a.9.9,0,0,0,.9.911Zm.914-7.244h6.736v5.419H21.039ZM33.906,22.62h8.547a.9.9,0,0,0,.9-.911V14.462a.894.894,0,0,0-.9-.883H33.906a.894.894,0,0,0-.9.883v7.247a.9.9,0,0,0,.9.911Zm.9-7.244h6.733v5.419H34.806ZM48.823,30.883V8.4a6.33,6.33,0,0,0-6.287-6.307V.937a.914.914,0,0,0-.914-.911.9.9,0,0,0-.9.911V2.092H33.912V.937a.905.905,0,0,0-1.811,0V2.092H25.289V.937a.9.9,0,1,0-1.8,0V2.092h-6.8V.937a.9.9,0,1,0-1.8,0V2.092H8.081V.937a.914.914,0,0,0-.9-.911.9.9,0,0,0-.9.911V2.092A6.321,6.321,0,0,0,0,8.4V46.183a6.333,6.333,0,0,0,6.321,6.33H28.669a15.3,15.3,0,1,0,20.154-21.63ZM6.279,3.889V5.044a.894.894,0,0,0,.9.883.908.908,0,0,0,.914-.883V3.889h6.812V5.044a.9.9,0,0,0,1.8,0V3.889h6.812V5.044a.9.9,0,0,0,1.8,0V3.889h6.812V5.044a.905.905,0,1,0,1.811,0V3.889h6.812V5.044a.891.891,0,0,0,.9.883.908.908,0,0,0,.914-.883V3.889a4.516,4.516,0,0,1,4.468,4.349H1.811A4.516,4.516,0,0,1,6.279,3.889Zm.043,46.8a4.542,4.542,0,0,1-4.525-4.5V10.034H47V30.08a15.561,15.561,0,0,0-5.393-.993,15.28,15.28,0,0,0-13.929,21.6Zm45.323.539,1.181.67a13.142,13.142,0,0,1-3.69,3.69l-.684-1.181a.908.908,0,0,0-1.235-.321.852.852,0,0,0-.321,1.206l.67,1.181a13.29,13.29,0,0,1-5.03,1.368V56.473a.908.908,0,0,0-.914-.886.894.894,0,0,0-.9.886v1.368a13.341,13.341,0,0,1-5.047-1.368l.684-1.181a.883.883,0,0,0-.335-1.206.911.911,0,0,0-1.235.321l-.684,1.181a13.282,13.282,0,0,1-3.69-3.69l1.178-.67a.917.917,0,0,0,.335-1.238.891.891,0,0,0-1.235-.321l-1.181.67a13.5,13.5,0,0,1-1.34-5.041h1.345a.9.9,0,0,0,0-1.8H28.178a13.685,13.685,0,0,1,1.34-5.047l1.181.673a.877.877,0,0,0,1.235-.324.911.911,0,0,0-.335-1.232l-1.178-.67a13.242,13.242,0,0,1,3.69-3.69l.684,1.181a.914.914,0,0,0,.792.457.954.954,0,0,0,.443-.136.908.908,0,0,0,.335-1.235l-.684-1.152a13.341,13.341,0,0,1,5.047-1.368v1.368a.894.894,0,0,0,.9.886.908.908,0,0,0,.914-.886V30.954a13.29,13.29,0,0,1,5.03,1.368l-.67,1.152a.891.891,0,0,0,.321,1.235.968.968,0,0,0,.457.136.894.894,0,0,0,.778-.457l.684-1.181a13.106,13.106,0,0,1,3.69,3.69l-1.181.67a.894.894,0,0,0-.321,1.232.88.88,0,0,0,.778.457.852.852,0,0,0,.44-.133l1.184-.673A13.483,13.483,0,0,1,55.082,43.5H53.728a.9.9,0,1,0,0,1.8h1.34a13.3,13.3,0,0,1-1.354,5.041l-1.184-.67a.869.869,0,0,0-1.218.321.9.9,0,0,0,.332,1.238ZM42.535,37.381v7.028a.894.894,0,0,1-.457.778.993.993,0,0,1-.911,0L35.1,41.672a.911.911,0,0,1-.335-1.235A.888.888,0,0,1,36,40.117l4.723,2.711V37.381a.9.9,0,0,1,.9-.888.911.911,0,0,1,.914.888Z" transform="translate(0 0.014)" fill="#4c77ae"/>
      </g>
    </g>
  </g>
</svg>
