<svg xmlns="http://www.w3.org/2000/svg" width="120" height="120" viewBox="0 0 120 120">
  <g id="Grupo_1117989" data-name="Grupo 1117989" transform="translate(-790.051 -1005)">
    <g id="Grupo_1117274" data-name="Grupo 1117274" transform="translate(7926.949 10562.898)">
      <circle id="Elipse_8441" data-name="Elipse 8441" cx="60" cy="60" r="60" transform="translate(-7136.898 -9557.898)" fill="#bfd4ef" opacity="0.45"/>
      <circle id="Elipse_8442" data-name="Elipse 8442" cx="48" cy="48" r="48" transform="translate(-7124.898 -9545.898)" fill="#fbfcfd"/>
    </g>
    <g id="Layer_x0020_1" transform="translate(818 1032.392)">
      <g id="_563485336" transform="translate(0 0)">
        <g id="Grupo_1114061" data-name="Grupo 1114061" transform="translate(0 0)">
          <g id="_341782264" transform="translate(2.804 9.322)">
            <path id="Trazado_912764" data-name="Trazado 912764" d="M133.2,383.749H75.758a.777.777,0,0,1-.758-.758V346.008A2.022,2.022,0,0,1,77.008,344h32.55a.775.775,0,0,1,.758.682c.3,2.88,4.244,9.587,6.783,13.869a3.052,3.052,0,0,1,2.8,0c2.539-4.282,6.48-10.989,6.783-13.869a.748.748,0,0,1,.758-.682h4.509a2,2,0,0,1,2.008,2.008v36.983A.76.76,0,0,1,133.2,383.749Zm-56.687-1.516h55.929V346.008a.5.5,0,0,0-.493-.493h-3.865c-.758,3.562-4.585,9.966-7.162,14.323l-.152.227a.7.7,0,0,1-.568.341.727.727,0,0,1-.644-.227,1.376,1.376,0,0,0-1.061-.455,1.518,1.518,0,0,0-1.1.455.628.628,0,0,1-.606.227.653.653,0,0,1-.568-.341l-.152-.227c-2.577-4.358-6.4-10.761-7.162-14.323H77.008a.5.5,0,0,0-.493.493Z" transform="translate(-75 -344)" fill="#4c77ae" fill-rule="evenodd"/>
          </g>
          <g id="_341782504" transform="translate(0 47.555)">
            <path id="Trazado_912765" data-name="Trazado 912765" d="M61.4,1362.663H5.206A4.221,4.221,0,0,1,1,1358.457v-4.7a.76.76,0,0,1,.758-.758H64.849a.76.76,0,0,1,.758.758v4.7A4.221,4.221,0,0,1,61.4,1362.663Zm-58.885-8.147v3.941a2.7,2.7,0,0,0,2.69,2.69H61.4a2.7,2.7,0,0,0,2.69-2.69v-3.941Z" transform="translate(-1 -1353)" fill="#4c77ae" fill-rule="evenodd"/>
          </g>
          <g id="_341782096" transform="translate(23.039 47.555)">
            <path id="Trazado_912766" data-name="Trazado 912766" d="M626.734,1358.191H609.758a.76.76,0,0,1-.758-.758v-3.676a.76.76,0,0,1,.758-.758h16.976a.76.76,0,0,1,.758.758v3.676A.76.76,0,0,1,626.734,1358.191Zm-16.218-1.516h15.46v-2.16h-15.46Z" transform="translate(-609 -1353)" fill="#4c77ae" fill-rule="evenodd"/>
          </g>
          <g id="_341782168" transform="translate(36.604)">
            <path id="Trazado_912767" data-name="Trazado 912767" d="M978.33,123.767a.806.806,0,0,1-.568-.265,1.376,1.376,0,0,0-1.061-.455,1.518,1.518,0,0,0-1.1.455.628.628,0,0,1-.606.227.653.653,0,0,1-.568-.341l-.152-.227c-3.827-6.48-7.275-12.5-7.275-15.422a9.7,9.7,0,1,1,19.4,0c0,2.918-3.448,8.943-7.275,15.422l-.152.227a.7.7,0,0,1-.568.341C978.368,123.729,978.368,123.767,978.33,123.767Zm-1.629-2.236a2.95,2.95,0,0,1,1.4.341c2.652-4.471,6.783-11.481,6.783-14.134a8.185,8.185,0,1,0-16.37,0c0,2.652,4.092,9.663,6.783,14.134A2.95,2.95,0,0,1,976.7,121.531Z" transform="translate(-967 -98)" fill="#4c77ae" fill-rule="evenodd"/>
          </g>
          <g id="_341783440" transform="translate(39.711 3.107)">
            <path id="Trazado_912768" data-name="Trazado 912768" d="M1055.593,193.225a6.612,6.612,0,1,1,6.593-6.593A6.6,6.6,0,0,1,1055.593,193.225Zm0-11.709a5.1,5.1,0,1,0,5.078,5.116A5.11,5.11,0,0,0,1055.593,181.516Z" transform="translate(-1049 -180)" fill="#4c77ae" fill-rule="evenodd"/>
          </g>
          <g id="_341782312" transform="translate(22.235 27.358)">
            <path id="Trazado_912769" data-name="Trazado 912769" d="M588.556,831.974a.728.728,0,0,1-.455-.152.741.741,0,0,1-.152-1.061l4.32-5.684a.765.765,0,0,1,1.061-.114.809.809,0,0,1,.152,1.061l-4.32,5.646A.791.791,0,0,1,588.556,831.974Zm12.921-1.591a.748.748,0,0,1-.531-.227.733.733,0,0,1,0-1.061l8.791-8.867a.733.733,0,0,1,1.061,0,.778.778,0,0,1,0,1.1l-8.791,8.829A.748.748,0,0,1,601.478,830.383Zm-2.956-.19a.791.791,0,0,1-.606-.3l-2.956-3.865a.77.77,0,0,1,1.213-.947l2.956,3.9a.745.745,0,0,1-.152,1.061A.928.928,0,0,1,598.522,830.193Z" transform="translate(-587.791 -820)" fill="#4c77ae" fill-rule="evenodd"/>
          </g>
          <g id="_341783296" transform="translate(18.87 37.514)">
            <path id="Trazado_912770" data-name="Trazado 912770" d="M501.993,1093.987a2.994,2.994,0,1,1,2.993-2.994A2.976,2.976,0,0,1,501.993,1093.987Zm0-4.471a1.478,1.478,0,1,0,1.478,1.478A1.456,1.456,0,0,0,501.993,1089.516Z" transform="translate(-499 -1088)" fill="#4c77ae" fill-rule="evenodd"/>
          </g>
          <g id="_341783056" transform="translate(25.653 28.116)">
            <path id="Trazado_912771" data-name="Trazado 912771" d="M680.993,846.025a3.013,3.013,0,1,1,3.031-3.031A3.033,3.033,0,0,1,680.993,846.025Zm0-4.509a1.5,1.5,0,0,0,0,2.994,1.5,1.5,0,1,0,0-2.994Z" transform="translate(-678 -840)" fill="#4c77ae" fill-rule="evenodd"/>
          </g>
          <g id="_341783512" transform="translate(31.337 35.581)">
            <path id="Trazado_912772" data-name="Trazado 912772" d="M830.993,1042.987a2.994,2.994,0,1,1,2.994-2.994A2.976,2.976,0,0,1,830.993,1042.987Zm0-4.471a1.478,1.478,0,1,0,1.478,1.478A1.456,1.456,0,0,0,830.993,1038.516Z" transform="translate(-828 -1037)" fill="#4c77ae" fill-rule="evenodd"/>
          </g>
          <g id="_341782864" transform="translate(43.311 23.531)">
            <path id="Trazado_912773" data-name="Trazado 912773" d="M1146.993,725.025a3.013,3.013,0,1,1,2.994-3.031A3.008,3.008,0,0,1,1146.993,725.025Zm0-4.509a1.5,1.5,0,1,0,1.478,1.478A1.48,1.48,0,0,0,1146.993,720.516Z" transform="translate(-1144 -719)" fill="#4c77ae" fill-rule="evenodd"/>
          </g>
          <g id="_341783176" transform="translate(7.351 16.862)">
            <path id="Trazado_912774" data-name="Trazado 912774" d="M208.3,544.516H195.758a.758.758,0,0,1,0-1.516H208.3a.758.758,0,0,1,0,1.516Z" transform="translate(-195 -543)" fill="#4c77ae" fill-rule="evenodd"/>
          </g>
          <g id="_341782888" transform="translate(7.351 20.007)">
            <path id="Trazado_912775" data-name="Trazado 912775" d="M215.235,627.516H195.758a.758.758,0,0,1,0-1.516h19.477a.758.758,0,1,1,0,1.516Z" transform="translate(-195 -626)" fill="#4c77ae" fill-rule="evenodd"/>
          </g>
        </g>
      </g>
    </g>
  </g>
</svg>
