<svg xmlns="http://www.w3.org/2000/svg" width="99" height="79.046" viewBox="0 0 99 79.046"><g transform="translate(0 -51.405)"><path d="M95.113,74.193H89.681V66.619a3.33,3.33,0,0,0-3.326-3.326h-.222V57.076h9.61a1.456,1.456,0,0,0,0-2.911h-9.61v-1.3a1.456,1.456,0,1,0-2.911,0v1.3H73.405a1.456,1.456,0,0,0,0,2.911h9.816v6.217H83a3.33,3.33,0,0,0-3.327,3.326v7.574H75.864a1.457,1.457,0,0,0-.64.148l-1.822.892-2.989-2.08a36.447,36.447,0,0,0-41.633,0l-3.069,2.135-1.936-.948a1.457,1.457,0,0,0-.64-.148H19.521V66.619a3.33,3.33,0,0,0-3.327-3.326h-.221V57.076h9.816a1.456,1.456,0,1,0,0-2.911H15.973v-1.3a1.456,1.456,0,0,0-2.911,0v1.3H3.452a1.456,1.456,0,0,0,0,2.911h9.61v6.217H12.84a3.33,3.33,0,0,0-3.326,3.326v7.574H3.887A3.891,3.891,0,0,0,0,78.079v2.364a3.891,3.891,0,0,0,3.887,3.887H16.246L9.807,93.013A3.612,3.612,0,0,0,9.1,95.151v3.722a1.456,1.456,0,0,0,2.911,0V95.151a.681.681,0,0,1,.133-.4l7.092-9.563,5.293,5.981L17.007,96.4a3.59,3.59,0,0,0-1.538,2.944v9.368a1.728,1.728,0,1,1-3.456,0v-3.642a1.456,1.456,0,0,0-2.911,0v3.642a4.639,4.639,0,1,0,9.279,0V99.349a.677.677,0,0,1,.29-.555l7.8-5.434L30.4,97.793a11.606,11.606,0,0,0,8.687,3.912h5.153v4.219h-4.5A5.367,5.367,0,0,0,35.8,107.64H32.432a3.948,3.948,0,0,0-3.944,3.944v13.21a3.948,3.948,0,0,0,3.944,3.944H35.8a5.367,5.367,0,0,0,3.934,1.715H59.456a5.367,5.367,0,0,0,3.934-1.715h3.373a3.948,3.948,0,0,0,3.944-3.944v-13.21a3.948,3.948,0,0,0-3.944-3.944H63.39a5.367,5.367,0,0,0-3.934-1.715H54.764v-4.219h5.153A11.607,11.607,0,0,0,68.6,97.793l3.923-4.433,7.8,5.434a.677.677,0,0,1,.29.555v9.368a4.639,4.639,0,1,0,9.279,0V95.151a3.613,3.613,0,0,0-.706-2.138l-6.439-8.682H95.113A3.891,3.891,0,0,0,99,80.444V78.08a3.891,3.891,0,0,0-3.887-3.887ZM32.432,125.825a1.034,1.034,0,0,1-1.032-1.032v-13.21a1.034,1.034,0,0,1,1.032-1.032h1.979a5.394,5.394,0,0,0-.054.756V125.07a5.393,5.393,0,0,0,.054.756H32.432Zm34.331-15.275a1.034,1.034,0,0,1,1.032,1.032v13.21a1.034,1.034,0,0,1-1.032,1.032H64.783a5.393,5.393,0,0,0,.054-.756V111.306a5.393,5.393,0,0,0-.054-.756h1.979Zm-4.836.756V125.07a2.473,2.473,0,0,1-2.47,2.47H39.739a2.473,2.473,0,0,1-2.47-2.47V111.306a2.473,2.473,0,0,1,2.47-2.47H59.456A2.473,2.473,0,0,1,61.926,111.306Zm-14.779-5.382v-4.219h4.7v4.219ZM83,66.2h3.355a.415.415,0,0,1,.415.415v2.24H82.584v-2.24A.416.416,0,0,1,83,66.2Zm-.415,5.566h4.185v2.423H82.584ZM12.84,66.2h3.355a.416.416,0,0,1,.415.415v2.24H12.425v-2.24A.415.415,0,0,1,12.84,66.2Zm-.415,5.566H16.61v2.423H12.425ZM59.917,98.794H39.083a8.694,8.694,0,0,1-6.507-2.931l-.868-.981H67.292l-.868.981a8.694,8.694,0,0,1-6.507,2.931Zm27.07-3.643v13.566a1.728,1.728,0,1,1-3.456,0V99.349A3.589,3.589,0,0,0,81.994,96.4l-7.524-5.24,5.293-5.981,7.092,9.563a.682.682,0,0,1,.133.4Zm9.1-14.707a.977.977,0,0,1-.976.976H79.862a1.456,1.456,0,0,0-1.09.491l-8.9,10.061H29.132l-8.9-10.061a1.456,1.456,0,0,0-1.09-.491H3.887a.977.977,0,0,1-.976-.976V78.079a.977.977,0,0,1,.976-.975H22.8l13.816,6.764a4.565,4.565,0,0,0,2,.463h11.6a1.456,1.456,0,0,0,0-2.911h-11.6a1.639,1.639,0,0,1-.717-.166l-9.191-4.5,1.74-1.21a33.537,33.537,0,0,1,38.307,0l1.66,1.155-9.3,4.555a1.638,1.638,0,0,1-.717.166H56.41a1.456,1.456,0,0,0,0,2.911h3.979a4.566,4.566,0,0,0,2-.463L76.2,77.1H95.113a.977.977,0,0,1,.976.975Z" fill="#4c77ae"/><path d="M208.632,375.2H215.6a1.456,1.456,0,1,0,0-2.911h-5.667v-7.059h13.013v7.059H221.8a1.456,1.456,0,1,0,0,2.911h2.444a1.612,1.612,0,0,0,1.61-1.61v-9.661a1.612,1.612,0,0,0-1.61-1.611H208.632a1.612,1.612,0,0,0-1.61,1.611v9.661A1.612,1.612,0,0,0,208.632,375.2Z" transform="translate(-166.842 -250.568)" fill="#4c77ae"/><path d="M247.888,388H246.5a1.456,1.456,0,1,0,0,2.911h1.386a1.456,1.456,0,1,0,0-2.911Z" transform="translate(-197.488 -271.269)" fill="#4c77ae"/></g></svg>