<svg xmlns="http://www.w3.org/2000/svg" width="92" height="75.824" viewBox="0 0 92 75.824"><g transform="translate(0 -11.25)"><path d="M86.43,11.25H5.57A5.577,5.577,0,0,0,0,16.82V81.5a5.577,5.577,0,0,0,5.57,5.57H86.43A5.577,5.577,0,0,0,92,81.5V16.82a5.577,5.577,0,0,0-5.57-5.57ZM73.986,13.766v1.617a3.058,3.058,0,0,1-3.054,3.055H21.069a3.058,3.058,0,0,1-3.055-3.055V13.766ZM89.484,81.5a3.058,3.058,0,0,1-3.055,3.055H5.57A3.058,3.058,0,0,1,2.516,81.5V16.82A3.058,3.058,0,0,1,5.57,13.766H15.5v1.617a5.577,5.577,0,0,0,5.57,5.57H70.932a5.576,5.576,0,0,0,5.57-5.57V13.766H86.43a3.058,3.058,0,0,1,3.055,3.055Z" fill="#4c77ae"/><path d="M87.242,29.25H9.258A1.258,1.258,0,0,0,8,30.508V66.8a1.258,1.258,0,0,0,1.258,1.258H87.242A1.258,1.258,0,0,0,88.5,66.8v-36.3a1.258,1.258,0,0,0-1.258-1.258Zm-1.258,36.3H10.516V31.766H85.984Z" transform="translate(-2.25 -5.063)" fill="#4c77ae"/><path d="M46.193,61.527h9.089a1.258,1.258,0,0,0,1.258-1.258V44.524a1.258,1.258,0,0,0-1.258-1.258H46.193a1.258,1.258,0,0,0-1.258,1.258V60.269a1.258,1.258,0,0,0,1.258,1.258Zm1.258-15.745h6.573V59.011H47.451Z" transform="translate(-12.638 -9.004)" fill="#4c77ae"/><path d="M64.7,67.872a1.258,1.258,0,0,0,1.258-1.258v-.965a1.258,1.258,0,1,0-2.516,0v.965A1.258,1.258,0,0,0,64.7,67.872Z" transform="translate(-17.843 -14.946)" fill="#4c77ae"/><path d="M27.62,61.527h9.089a1.258,1.258,0,0,0,0-2.516H28.878V57.566l8.6-6.584a1.26,1.26,0,0,0,.493-1V44.524a1.258,1.258,0,0,0-1.258-1.258H27.62a1.258,1.258,0,0,0-1.258,1.258v4.559a1.258,1.258,0,1,0,2.516,0v-3.3h6.573V49.36l-8.6,6.585a1.26,1.26,0,0,0-.493,1v3.324A1.258,1.258,0,0,0,27.62,61.527Z" transform="translate(-7.414 -9.004)" fill="#4c77ae"/><path d="M70.558,61.527h9.088A1.257,1.257,0,0,0,80.9,60.269V54.99A1.257,1.257,0,0,0,80.27,53.9l-2.631-1.5,2.631-1.5A1.259,1.259,0,0,0,80.9,49.8V44.524a1.257,1.257,0,0,0-1.258-1.258H70.558A1.257,1.257,0,0,0,69.3,44.524v2.762a1.258,1.258,0,0,0,2.516,0v-1.5h6.572v3.29L74.478,51.3a1.258,1.258,0,0,0,0,2.184l3.91,2.232v3.29H71.816v-1.5a1.258,1.258,0,0,0-2.516,0v2.763a1.257,1.257,0,0,0,1.258,1.258Z" transform="translate(-19.491 -9.004)" fill="#4c77ae"/><path d="M93.644,52.239a4.486,4.486,0,1,0-4.486-4.486A4.486,4.486,0,0,0,93.644,52.239Zm0-6.457a1.971,1.971,0,1,1-1.971,1.971A1.971,1.971,0,0,1,93.644,45.782Z" transform="translate(-25.076 -9.005)" fill="#4c77ae"/><path d="M70.307,87.75H47.967a1.258,1.258,0,0,0-1.258,1.258v12.574a1.258,1.258,0,0,0,1.258,1.258h22.34a1.258,1.258,0,0,0,1.258-1.258V89.008a1.258,1.258,0,0,0-1.258-1.258Zm-1.258,12.574H49.225V90.266H69.049Z" transform="translate(-13.137 -21.516)" fill="#4c77ae"/><path d="M109.121,87.75H87.049a1.257,1.257,0,0,0-1.258,1.258v12.574a1.257,1.257,0,0,0,1.258,1.258h22.072a1.258,1.258,0,0,0,1.258-1.258V89.008a1.258,1.258,0,0,0-1.258-1.258Zm-1.258,12.574H88.307V90.266h19.556Z" transform="translate(-24.129 -21.516)" fill="#4c77ae"/><path d="M31.33,87.75H9.258A1.258,1.258,0,0,0,8,89.008v12.574a1.258,1.258,0,0,0,1.258,1.258H31.33a1.257,1.257,0,0,0,1.258-1.258V89.008A1.257,1.257,0,0,0,31.33,87.75Zm-1.258,12.574H10.516V90.266H30.072Z" transform="translate(-2.25 -21.516)" fill="#4c77ae"/><path d="M100.5,99.491a1.272,1.272,0,0,0,1.75,0l2.807-2.718a1.258,1.258,0,1,0-1.75-1.806l-1.932,1.869-1.933-1.869A1.257,1.257,0,1,0,97.7,96.772Z" transform="translate(-27.369 -23.445)" fill="#4c77ae"/><path d="M59.6,99.843a1.252,1.252,0,0,0,.875-.354l1.933-1.871,1.933,1.869a1.258,1.258,0,1,0,1.75-1.807l-2.808-2.715a1.274,1.274,0,0,0-1.749,0l-2.807,2.718a1.258,1.258,0,0,0,.875,2.161Z" transform="translate(-16.409 -23.447)" fill="#4c77ae"/><path d="M19.784,99.016h6.941a1.258,1.258,0,1,0,0-2.516H19.784a1.258,1.258,0,1,0,0,2.516Z" transform="translate(-5.21 -23.977)" fill="#4c77ae"/></g></svg>