<svg xmlns="http://www.w3.org/2000/svg" width="120" height="120" viewBox="0 0 120 120">
  <g id="Grupo_1118013" data-name="Grupo 1118013" transform="translate(-6969 6254)">
    <g id="Grupo_1117992" data-name="Grupo 1117992" transform="translate(14105.898 3303.898)">
      <circle id="Elipse_8441" data-name="Elipse 8441" cx="60" cy="60" r="60" transform="translate(-7136.898 -9557.898)" fill="#bfd4ef" opacity="0.45"/>
      <circle id="Elipse_8442" data-name="Elipse 8442" cx="48" cy="48" r="48" transform="translate(-7124.898 -9545.898)" fill="#fbfcfd"/>
    </g>
    <g id="Layer_x0020_1" transform="translate(7001.771 -6221.08)">
      <path id="Trazado_913179" data-name="Trazado 913179" d="M1117,19.47a.89.89,0,0,1-.574-.191.964.964,0,0,1-.191-1.34L1129.219.429a.957.957,0,1,1,1.531,1.148l-12.981,17.51A.951.951,0,0,1,1117,19.47Z" transform="translate(-1080.642 -0.046)" fill="#4c77ae" fill-rule="evenodd"/>
      <path id="Trazado_913180" data-name="Trazado 913180" d="M1129.984,19.47a.951.951,0,0,1-.765-.383l-12.981-17.51a.957.957,0,0,1,1.531-1.148l12.981,17.51a.957.957,0,0,1-.766,1.531Z" transform="translate(-1080.642 -0.046)" fill="#4c77ae" fill-rule="evenodd"/>
      <path id="Trazado_913181" data-name="Trazado 913181" d="M1129.938,19.424h-12.981a.94.94,0,0,1-.957-.957V.957a.96.96,0,0,1,.957-.957h12.981a.96.96,0,0,1,.957.957v17.51A.94.94,0,0,1,1129.938,19.424Zm-12.025-1.914h11.068V1.914h-11.068Z" transform="translate(-1080.596)" fill="#4c77ae" fill-rule="evenodd"/>
      <g id="Grupo_1114514" data-name="Grupo 1114514" transform="translate(26.058)">
        <path id="Trazado_913182" data-name="Trazado 913182" d="M823.957,3.6A.981.981,0,0,1,823,2.647V.957A.981.981,0,0,1,823.957,0a.96.96,0,0,1,.957.957v1.69A.96.96,0,0,1,823.957,3.6Z" transform="translate(-823)" fill="#4c77ae" fill-rule="evenodd"/>
        <path id="Trazado_913183" data-name="Trazado 913183" d="M823.957,200.6a.981.981,0,0,1-.957-.957v-1.69a.981.981,0,0,1,.957-.957.96.96,0,0,1,.957.957v1.69A.96.96,0,0,1,823.957,200.6Z" transform="translate(-823 -190.717)" fill="#4c77ae" fill-rule="evenodd"/>
        <path id="Trazado_913184" data-name="Trazado 913184" d="M823.957,397.6a.981.981,0,0,1-.957-.957v-1.69a.981.981,0,0,1,.957-.957.96.96,0,0,1,.957.957v1.69A.96.96,0,0,1,823.957,397.6Z" transform="translate(-823 -381.433)" fill="#4c77ae" fill-rule="evenodd"/>
        <path id="Trazado_913185" data-name="Trazado 913185" d="M823.957,594.6a.981.981,0,0,1-.957-.957v-1.69a.981.981,0,0,1,.957-.957.96.96,0,0,1,.957.957v1.69A.96.96,0,0,1,823.957,594.6Z" transform="translate(-823 -572.15)" fill="#4c77ae" fill-rule="evenodd"/>
        <path id="Trazado_913186" data-name="Trazado 913186" d="M823.957,791.6a.981.981,0,0,1-.957-.957v-1.69a.981.981,0,0,1,.957-.957.96.96,0,0,1,.957.957v1.69A.96.96,0,0,1,823.957,791.6Z" transform="translate(-823 -762.867)" fill="#4c77ae" fill-rule="evenodd"/>
        <path id="Trazado_913187" data-name="Trazado 913187" d="M823.957,988.6a.981.981,0,0,1-.957-.957v-1.69a.981.981,0,0,1,.957-.957.96.96,0,0,1,.957.957v1.69A.96.96,0,0,1,823.957,988.6Z" transform="translate(-823 -953.583)" fill="#4c77ae" fill-rule="evenodd"/>
        <path id="Trazado_913188" data-name="Trazado 913188" d="M823.957,1185.6a.981.981,0,0,1-.957-.957v-1.69a.96.96,0,0,1,.957-.957.94.94,0,0,1,.957.957v1.69A.96.96,0,0,1,823.957,1185.6Z" transform="translate(-823 -1144.3)" fill="#4c77ae" fill-rule="evenodd"/>
        <path id="Trazado_913189" data-name="Trazado 913189" d="M823.957,1382.6a.981.981,0,0,1-.957-.957v-1.69a.96.96,0,0,1,.957-.957.94.94,0,0,1,.957.957v1.69A.96.96,0,0,1,823.957,1382.6Z" transform="translate(-823 -1335.017)" fill="#4c77ae" fill-rule="evenodd"/>
        <path id="Trazado_913190" data-name="Trazado 913190" d="M823.957,1579.6a.981.981,0,0,1-.957-.957v-1.691a.96.96,0,0,1,.957-.957.94.94,0,0,1,.957.957v1.691A.959.959,0,0,1,823.957,1579.6Z" transform="translate(-823 -1525.733)" fill="#4c77ae" fill-rule="evenodd"/>
        <path id="Trazado_913191" data-name="Trazado 913191" d="M1129.938,585.9h-12.981a.94.94,0,0,1-.957-.957V549.957a.94.94,0,0,1,.957-.957h12.981a.94.94,0,0,1,.957.957v34.989A.94.94,0,0,1,1129.938,585.9Zm-12.025-1.914h11.068V550.914h-11.068Z" transform="translate(-1106.655 -531.49)" fill="#4c77ae" fill-rule="evenodd"/>
      </g>
      <path id="Trazado_913192" data-name="Trazado 913192" d="M1641.957,16.267a.96.96,0,0,1-.957-.957V.957a.957.957,0,1,1,1.914,0V15.31A.96.96,0,0,1,1641.957,16.267Z" transform="translate(-1588.852)" fill="#4c77ae" fill-rule="evenodd"/>
      <path id="Trazado_913193" data-name="Trazado 913193" d="M6.957,1213.235a.94.94,0,0,1-.957-.957v-14.321a.94.94,0,0,1,.957-.957.96.96,0,0,1,.957.957v14.321A.96.96,0,0,1,6.957,1213.235Z" transform="translate(-6 -1158.822)" fill="#4c77ae" fill-rule="evenodd"/>
      <path id="Trazado_913194" data-name="Trazado 913194" d="M137.938,54.413a.94.94,0,0,1-.957-.957V1.914H125.914V53.456a.96.96,0,0,1-.957.957.94.94,0,0,1-.957-.957V.957A.96.96,0,0,1,124.957,0h12.981a.96.96,0,0,1,.957.957v52.5A.94.94,0,0,1,137.938,54.413Z" transform="translate(-120.236)" fill="#4c77ae" fill-rule="evenodd"/>
      <path id="Trazado_913195" data-name="Trazado 913195" d="M137.938,1647.914H124.957a.94.94,0,0,1-.957-.957.96.96,0,0,1,.957-.957h12.981a.96.96,0,0,1,.957.957A.94.94,0,0,1,137.938,1647.914Z" transform="translate(-120.236 -1593.501)" fill="#4c77ae" fill-rule="evenodd"/>
      <path id="Trazado_913196" data-name="Trazado 913196" d="M124.412,16.977a.975.975,0,0,1-.638-.223.929.929,0,0,1-.1-1.34L136.66.647a.992.992,0,0,1,1.371-.064.954.954,0,0,1,.064,1.34L125.114,16.658A.9.9,0,0,1,124.412,16.977Z" transform="translate(-119.692 -0.328)" fill="#4c77ae" fill-rule="evenodd"/>
      <path id="Trazado_913197" data-name="Trazado 913197" d="M124.412,411.825a.975.975,0,0,1-.638-.223.964.964,0,0,1-.1-1.371l12.981-14.736a1.026,1.026,0,0,1,1.371-.1.992.992,0,0,1,.064,1.371l-12.981,14.736A.9.9,0,0,1,124.412,411.825Z" transform="translate(-119.692 -382.577)" fill="#4c77ae" fill-rule="evenodd"/>
      <path id="Trazado_913198" data-name="Trazado 913198" d="M124.412,806.1a1.013,1.013,0,0,1-.638-.255.929.929,0,0,1-.1-1.34l12.981-14.736a.964.964,0,0,1,1.371-.1.954.954,0,0,1,.064,1.34l-12.981,14.768A1.025,1.025,0,0,1,124.412,806.1Z" transform="translate(-119.692 -764.258)" fill="#4c77ae" fill-rule="evenodd"/>
      <path id="Trazado_913199" data-name="Trazado 913199" d="M124.412,1201.073a.975.975,0,0,1-.638-.223.929.929,0,0,1-.1-1.34l12.981-14.735a.964.964,0,0,1,1.371-.1.954.954,0,0,1,.064,1.34l-12.981,14.735A.9.9,0,0,1,124.412,1201.073Z" transform="translate(-119.692 -1146.66)" fill="#4c77ae" fill-rule="evenodd"/>
      <path id="Trazado_913200" data-name="Trazado 913200" d="M1116.412,560.913a.975.975,0,0,1-.638-.223.964.964,0,0,1-.1-1.372l8.676-9.824a.988.988,0,0,1,1.34-.1.964.964,0,0,1,.1,1.372l-8.675,9.824A.9.9,0,0,1,1116.412,560.913Z" transform="translate(-1080.052 -531.666)" fill="#4c77ae" fill-rule="evenodd"/>
      <path id="Trazado_913201" data-name="Trazado 913201" d="M1116.412,806.1a1.013,1.013,0,0,1-.638-.255.929.929,0,0,1-.1-1.34l13.013-14.736a.924.924,0,0,1,1.339-.1.988.988,0,0,1,.1,1.34l-13.013,14.768A1.025,1.025,0,0,1,1116.412,806.1Z" transform="translate(-1080.052 -764.258)" fill="#4c77ae" fill-rule="evenodd"/>
      <path id="Trazado_913202" data-name="Trazado 913202" d="M1116.412,1201.073a.975.975,0,0,1-.638-.223.929.929,0,0,1-.1-1.34l13.013-14.735a.924.924,0,0,1,1.339-.1.988.988,0,0,1,.1,1.34l-13.013,14.735A.9.9,0,0,1,1116.412,1201.073Z" transform="translate(-1080.052 -1146.66)" fill="#4c77ae" fill-rule="evenodd"/>
    </g>
  </g>
</svg>
