<svg xmlns="http://www.w3.org/2000/svg" width="109.463" height="109.645" viewBox="0 0 109.463 109.645"><g transform="translate(-1.103 -1)"><path d="M35.074,39a7.074,7.074,0,1,0,7.074,7.074A7.081,7.081,0,0,0,35.074,39Zm0,10.611a3.537,3.537,0,1,1,3.537-3.537A3.54,3.54,0,0,1,35.074,49.611Z" transform="translate(20.67 29.201)" fill="#4c77ae"/><path d="M38.148,35A14.148,14.148,0,1,0,52.3,49.148,14.164,14.164,0,0,0,38.148,35Zm0,24.758A10.611,10.611,0,1,1,48.758,49.148,10.621,10.621,0,0,1,38.148,59.758Z" transform="translate(17.596 26.128)" fill="#4c77ae"/><path d="M44.3,27a28.3,28.3,0,1,0,28.3,28.3A28.328,28.328,0,0,0,44.3,27Zm0,53.054A24.758,24.758,0,1,1,69.054,55.3,24.786,24.786,0,0,1,44.3,80.054Z" transform="translate(11.448 19.98)" fill="#4c77ae"/><path d="M56.212,23.385v-4.7h3.537A12.4,12.4,0,0,0,72.128,6.305V1H22.611V6.305A12.4,12.4,0,0,0,34.99,18.685h3.537v4.7A35.4,35.4,0,0,0,12,57.591V75.275a35.369,35.369,0,1,0,70.738,0V57.591A35.4,35.4,0,0,0,56.212,23.385ZM26.148,6.305V4.537H68.591V6.305a8.852,8.852,0,0,1-8.842,8.842H34.99A8.852,8.852,0,0,1,26.148,6.305ZM42.064,18.685H52.675v3.979a35.22,35.22,0,0,0-5.305-.442,35.22,35.22,0,0,0-5.305.442Zm5.305,88.423A31.832,31.832,0,1,1,79.2,75.275,31.869,31.869,0,0,1,47.369,107.108ZM79.2,59.96a35.291,35.291,0,0,0-63.665,0v-2.37a31.832,31.832,0,1,1,63.665,0Z" transform="translate(8.374)" fill="#4c77ae"/><circle cx="1.768" cy="1.768" r="1.768" transform="translate(53.975 54.054)" fill="#4c77ae"/><path d="M24.127,36.737a1.768,1.768,0,1,0,.647,2.416A1.769,1.769,0,0,0,24.127,36.737Z" transform="translate(15.655 27.28)" fill="#4c77ae"/><path d="M22.358,47.737a1.768,1.768,0,1,0,2.416.647A1.769,1.769,0,0,0,22.358,47.737Z" transform="translate(15.655 35.733)" fill="#4c77ae"/><circle cx="1.768" cy="1.768" r="1.768" transform="translate(53.975 92.96)" fill="#4c77ae"/><path d="M43.179,47.737a1.768,1.768,0,1,0,.647,2.416A1.769,1.769,0,0,0,43.179,47.737Z" transform="translate(30.295 35.733)" fill="#4c77ae"/><path d="M41.41,36.737a1.768,1.768,0,1,0,2.416.647A1.769,1.769,0,0,0,41.41,36.737Z" transform="translate(30.295 27.28)" fill="#4c77ae"/><path d="M57.158,35.929l-2.5,2.5a14.165,14.165,0,0,1,0,20.008l2.5,2.5A17.7,17.7,0,0,0,57.158,35.929Z" transform="translate(41.155 26.842)" fill="#4c77ae"/><path d="M59.986,33.1l-2.5,2.5a21.246,21.246,0,0,1,0,30.013l2.5,2.5a24.756,24.756,0,0,0,0-35.014Z" transform="translate(43.328 24.668)" fill="#4c77ae"/><path d="M10.272,35.929a17.706,17.706,0,0,0,0,25.011l2.5-2.5a14.165,14.165,0,0,1,0-20.008Z" transform="translate(3.072 26.842)" fill="#4c77ae"/><path d="M10.842,35.6l-2.5-2.5a24.788,24.788,0,0,0,0,35.014l2.5-2.5a21.252,21.252,0,0,1,0-30.013Z" transform="translate(0 24.668)" fill="#4c77ae"/></g></svg>