<svg xmlns="http://www.w3.org/2000/svg" xmlns:xlink="http://www.w3.org/1999/xlink" width="98" height="98" viewBox="0 0 98 98"><defs><radialGradient id="a" cx="0.5" cy="0.5" r="0.5" gradientUnits="objectBoundingBox"><stop offset="0" stop-color="#fff"/><stop offset="0.812" stop-color="#fff" stop-opacity="0.859"/><stop offset="1" stop-color="#fff" stop-opacity="0.22"/></radialGradient></defs><g transform="translate(-1204.333 -432)"><g transform="translate(288 68)"><g transform="translate(-286.987 -24.742)"><g transform="translate(1203.32 388.742)" opacity="0.859" fill="url(#a)"><path d="M 49 96.5 C 42.58687973022461 96.5 36.36638641357422 95.24432373046875 30.51132011413574 92.76782989501953 C 24.85522651672363 90.37550354003906 19.77522659301758 86.95037078857422 15.41242694854736 82.58757019042969 C 11.04962635040283 78.22476959228516 7.62449312210083 73.144775390625 5.232173442840576 67.48867797851562 C 2.755680084228516 61.63361358642578 1.5 55.41312026977539 1.5 49 C 1.5 42.58687973022461 2.755680084228516 36.36638641357422 5.232173442840576 30.51132011413574 C 7.62449312210083 24.85522651672363 11.04962635040283 19.77522659301758 15.41242694854736 15.41242694854736 C 19.77522659301758 11.04962635040283 24.85522651672363 7.62449312210083 30.51132011413574 5.232173442840576 C 36.36638641357422 2.755680084228516 42.58687973022461 1.5 49 1.5 C 55.41312026977539 1.5 61.63361358642578 2.755680084228516 67.48867797851562 5.232173442840576 C 73.144775390625 7.62449312210083 78.22476959228516 11.04962635040283 82.58757019042969 15.41242694854736 C 86.95037078857422 19.77522659301758 90.37550354003906 24.85522651672363 92.76782989501953 30.51132011413574 C 95.24432373046875 36.36638641357422 96.5 42.58687973022461 96.5 49 C 96.5 55.41312026977539 95.24432373046875 61.63361358642578 92.76782989501953 67.48867797851562 C 90.37550354003906 73.144775390625 86.95037078857422 78.22476959228516 82.58757019042969 82.58757019042969 C 78.22476959228516 86.95037078857422 73.144775390625 90.37550354003906 67.48867797851562 92.76782989501953 C 61.63361358642578 95.24432373046875 55.41312026977539 96.5 49 96.5 Z" stroke="none"/><path d="M 49 3 C 42.78872299194336 3 36.76481628417969 4.215812683105469 31.09564971923828 6.613677978515625 C 25.61835479736328 8.930366516113281 20.69861602783203 12.24755096435547 16.47309112548828 16.47309112548828 C 12.24755096435547 20.69861602783203 8.930366516113281 25.61835479736328 6.613677978515625 31.09564971923828 C 4.215812683105469 36.76481628417969 3 42.78872299194336 3 49 C 3 55.21127700805664 4.215812683105469 61.23518371582031 6.613677978515625 66.90435791015625 C 8.930366516113281 72.38164520263672 12.24755096435547 77.30138397216797 16.47309112548828 81.52690887451172 C 20.69861602783203 85.75244903564453 25.61835479736328 89.06963348388672 31.09564971923828 91.38632202148438 C 36.76481628417969 93.78418731689453 42.78872299194336 95 49 95 C 55.21127700805664 95 61.23518371582031 93.78418731689453 66.90435791015625 91.38632202148438 C 72.38164520263672 89.06963348388672 77.30138397216797 85.75244903564453 81.52690887451172 81.52690887451172 C 85.75244903564453 77.30138397216797 89.06963348388672 72.38164520263672 91.38632202148438 66.90435791015625 C 93.78418731689453 61.23518371582031 95 55.21127700805664 95 49 C 95 42.78872299194336 93.78418731689453 36.76481628417969 91.38632202148438 31.09564971923828 C 89.06963348388672 25.61835479736328 85.75244903564453 20.69861602783203 81.52690887451172 16.47309112548828 C 77.30138397216797 12.24755096435547 72.38164520263672 8.930366516113281 66.90435791015625 6.613677978515625 C 61.23518371582031 4.215812683105469 55.21127700805664 3 49 3 M 49 0 C 76.06195068359375 0 98 21.93804931640625 98 49 C 98 76.06195068359375 76.06195068359375 98 49 98 C 21.93804931640625 98 0 76.06195068359375 0 49 C 0 21.93804931640625 21.93804931640625 0 49 0 Z" stroke="none" fill="#fff"/></g><g transform="translate(1203.32 388.742)" fill="none" stroke="#fff" stroke-width="3"><rect width="98" height="98" rx="49" stroke="none"/><rect x="1.5" y="1.5" width="95" height="95" rx="47.5" fill="none"/></g></g></g><g transform="translate(12773.361 12204.813)"><path d="M325.934,190.542l-3.743,3.91-1.151-1.561a1.144,1.144,0,0,0-1.842,1.357l1.958,2.656a1.145,1.145,0,0,0,.847.463l.074,0a1.143,1.143,0,0,0,.826-.353l4.683-4.893a1.144,1.144,0,1,0-1.653-1.581" transform="translate(-11836.15 -11903.561)" fill="#4c77ae"/><path d="M306.31,171.691l-3.743,3.91-1.151-1.561a1.144,1.144,0,0,0-1.842,1.357l1.958,2.656a1.145,1.145,0,0,0,.847.463l.074,0a1.143,1.143,0,0,0,.826-.353l4.683-4.893a1.144,1.144,0,1,0-1.653-1.582" transform="translate(-11830.542 -11898.174)" fill="#4c77ae"/><path d="M327.061,149.67h-3.636V146.22a3.4,3.4,0,0,0-6.715,0v3.451h-8.517V146.22a3.4,3.4,0,0,0-6.715,0v3.451H292.96V146.22a3.4,3.4,0,0,0-6.714,0v3.451h-3.637a4.036,4.036,0,0,0-4.032,4.031v31.142a4.037,4.037,0,0,0,4.032,4.032h44.452a4.037,4.037,0,0,0,4.032-4.032V153.7a4.036,4.036,0,0,0-4.032-4.031m-46.2,12.031h10.092v11.175H280.865Zm11.726,0h11.444v11.175H292.591Zm13.078,0h11.444v11.175H305.669Zm13.078,0h10.059v11.175H318.747ZM319,149.67V146.22c0-.224.426-.566,1.07-.566s1.07.341,1.07.566v8.137c0,.225-.426.565-1.07.565s-1.07-.34-1.07-.565V149.67Zm-15.232,0V146.22c0-.224.426-.566,1.07-.566s1.069.341,1.069.566v8.137c0,.225-.426.565-1.069.565s-1.07-.34-1.07-.565V149.67Zm-15.233,0V146.22c0-.224.427-.566,1.07-.566s1.07.341,1.07.566v8.137c0,.225-.427.565-1.07.565s-1.07-.34-1.07-.565V149.67Zm-7.668,4.031a1.747,1.747,0,0,1,1.744-1.744h3.637v2.4a3.4,3.4,0,0,0,6.714,0v-2.4h8.518v2.4a3.4,3.4,0,0,0,6.715,0v-2.4h8.517v2.4a3.4,3.4,0,0,0,6.715,0v-2.4h3.636a1.747,1.747,0,0,1,1.744,1.744v5.712H280.865Zm0,31.142V174.51h10.092v12.078h-8.348a1.746,1.746,0,0,1-1.744-1.744m11.726-10.334h11.444v12.078H292.591Zm13.078,0h11.444v12.078H305.669Zm23.136,10.334a1.746,1.746,0,0,1-1.744,1.744h-8.314V174.51h10.059Z" transform="translate(-11824.605 -11890.182)" fill="#4c77ae"/></g></g></svg>