<svg xmlns="http://www.w3.org/2000/svg" width="120" height="120" viewBox="0 0 120 120">
  <g id="Grupo_1117988" data-name="Grupo 1117988" transform="translate(-1105.051 -1020)">
    <g id="Grupo_1117985" data-name="Grupo 1117985" transform="translate(8241.949 10577.898)">
      <circle id="Elipse_8441" data-name="Elipse 8441" cx="60" cy="60" r="60" transform="translate(-7136.898 -9557.898)" fill="#bfd4ef" opacity="0.45"/>
      <circle id="Elipse_8442" data-name="Elipse 8442" cx="48" cy="48" r="48" transform="translate(-7124.898 -9545.898)" fill="#fbfcfd"/>
    </g>
    <g id="circuito-cerrado-de-television" transform="translate(1133 1047.057)">
      <path id="Trazado_912752" data-name="Trazado 912752" d="M32.165,39a4.165,4.165,0,1,0,4.165,4.165A4.169,4.169,0,0,0,32.165,39Zm0,6.247a2.082,2.082,0,1,1,2.082-2.082A2.084,2.084,0,0,1,32.165,45.247Z" transform="translate(0.005 0.565)" fill="#4c77ae"/>
      <path id="Trazado_912753" data-name="Trazado 912753" d="M32.329,35a8.329,8.329,0,1,0,8.329,8.329A8.339,8.339,0,0,0,32.329,35Zm0,14.576a6.247,6.247,0,1,1,6.247-6.247A6.253,6.253,0,0,1,32.329,49.576Z" transform="translate(-0.16 0.4)" fill="#4c77ae"/>
      <path id="Trazado_912754" data-name="Trazado 912754" d="M32.659,27A16.659,16.659,0,1,0,49.317,43.659,16.678,16.678,0,0,0,32.659,27Zm0,31.235A14.576,14.576,0,1,1,47.235,43.659,14.592,14.592,0,0,1,32.659,58.235Z" transform="translate(-0.489 0.071)" fill="#4c77ae"/>
      <path id="Trazado_912755" data-name="Trazado 912755" d="M38.029,14.179V11.412h2.082A7.3,7.3,0,0,0,47.4,4.124V1H18.247V4.124a7.3,7.3,0,0,0,7.288,7.288h2.082v2.767A20.841,20.841,0,0,0,12,34.317V44.729a20.823,20.823,0,1,0,41.647,0V34.317A20.841,20.841,0,0,0,38.029,14.179ZM20.329,4.124V3.082H45.317V4.124a5.212,5.212,0,0,1-5.206,5.206H25.535A5.212,5.212,0,0,1,20.329,4.124ZM29.7,11.412h6.247v2.343a18.871,18.871,0,0,0-6.247,0ZM32.823,63.47A18.741,18.741,0,1,1,51.564,44.729,18.763,18.763,0,0,1,32.823,63.47ZM51.564,35.713a20.777,20.777,0,0,0-37.482,0v-1.4a18.741,18.741,0,1,1,37.482,0Z" transform="translate(-0.654 -1)" fill="#4c77ae"/>
      <ellipse id="Elipse_11692" data-name="Elipse 11692" cx="1.041" cy="1.041" rx="1.041" ry="1.041" transform="translate(31.128 31.235)" fill="#4c77ae"/>
      <path id="Trazado_912756" data-name="Trazado 912756" d="M23.036,36.64a1.041,1.041,0,1,0,.381,1.422A1.042,1.042,0,0,0,23.036,36.64Z" transform="translate(-0.264 0.462)" fill="#4c77ae"/>
      <path id="Trazado_912757" data-name="Trazado 912757" d="M21.995,47.64a1.041,1.041,0,1,0,1.422.381A1.042,1.042,0,0,0,21.995,47.64Z" transform="translate(-0.264 0.915)" fill="#4c77ae"/>
      <ellipse id="Elipse_11693" data-name="Elipse 11693" cx="1.041" cy="1.041" rx="1.041" ry="1.041" transform="translate(31.128 54.141)" fill="#4c77ae"/>
      <path id="Trazado_912758" data-name="Trazado 912758" d="M42.088,47.64a1.041,1.041,0,1,0,.381,1.422A1.042,1.042,0,0,0,42.088,47.64Z" transform="translate(0.52 0.915)" fill="#4c77ae"/>
      <path id="Trazado_912759" data-name="Trazado 912759" d="M41.047,36.64a1.041,1.041,0,1,0,1.422.381A1.042,1.042,0,0,0,41.047,36.64Z" transform="translate(0.52 0.462)" fill="#4c77ae"/>
      <path id="Trazado_912760" data-name="Trazado 912760" d="M56.129,35.929,54.657,37.4a8.34,8.34,0,0,1,0,11.78l1.472,1.472A10.421,10.421,0,0,0,56.129,35.929Z" transform="translate(1.102 0.438)" fill="#4c77ae"/>
      <path id="Trazado_912761" data-name="Trazado 912761" d="M58.957,33.1l-1.472,1.472a12.508,12.508,0,0,1,0,17.67l1.472,1.472a14.575,14.575,0,0,0,0-20.614Z" transform="translate(1.219 0.322)" fill="#4c77ae"/>
      <path id="Trazado_912762" data-name="Trazado 912762" d="M8.145,35.929a10.425,10.425,0,0,0,0,14.725l1.472-1.472a8.34,8.34,0,0,1,0-11.78Z" transform="translate(-0.938 0.438)" fill="#4c77ae"/>
      <path id="Trazado_912763" data-name="Trazado 912763" d="M6.837,34.573,5.365,33.1a14.594,14.594,0,0,0,0,20.614l1.472-1.472a12.512,12.512,0,0,1,0-17.67Z" transform="translate(-1.102 0.322)" fill="#4c77ae"/>
    </g>
  </g>
</svg>
