<svg xmlns="http://www.w3.org/2000/svg" width="93.036" height="88.066" viewBox="0 0 93.036 88.066"><g transform="translate(-1.861 -4)"><path d="M0,0H3.087V6.174H0Z" transform="translate(12.048 62.072) rotate(-82.008)" fill="#4c77ae"/><path d="M0,0H3.087V3.087H0Z" transform="translate(24.746 82.569) rotate(-82.008)" fill="#4c77ae"/><path d="M94.815,33.239l-.269-3.075-30.963,2.71a4.63,4.63,0,0,0-4.167,3.848l-1.4,8.43a3.087,3.087,0,0,0,3.065,3.426,2.688,2.688,0,0,0,.272-.012l25.8-2.261,1.885,21.526-9.347.818A10.79,10.79,0,0,0,58.4,70.511l-4.734.414a1.516,1.516,0,0,1-1.124-.357A1.534,1.534,0,0,1,52,69.522l-.134-1.543,4.612-.4L56.2,64.5l-4.612.409-.139-1.587,5.436-3.266a1.543,1.543,0,0,0,.3-2.414l-2-1.994,2-2a1.543,1.543,0,0,0-.4-2.469l-5.32-2.661c.139-.545.275-1.091.452-1.624l5.806-14.093A4.613,4.613,0,0,1,61.6,29.954l31.815-2.778a4.85,4.85,0,0,1,1.048.028l.432-3.056a7.871,7.871,0,0,0-1.749-.046L61.332,26.88a7.691,7.691,0,0,0-6.464,4.752l-5.836,14.2a26.084,26.084,0,0,0-1.31,7.026,10.927,10.927,0,0,0-1.259-2.169,10.738,10.738,0,0,0-7.124-4.2l-2.459-.346L45.1,40.67l2.192,2.192,2.182-2.182-3.087-3.087a1.543,1.543,0,0,0-1.948-.193L33.353,44.787,23.139,28.3a7.708,7.708,0,0,0-5.484-3.575L2.29,22.566l-.429,3.058,15.363,2.161a4.621,4.621,0,0,1,3.292,2.144l.975,1.573L2.29,28.8l-.429,3.056L8.53,32.8,7.241,41.967,2.29,41.272l-.429,3.056,4.951.7L3.8,66.422,2.29,66.209l-.429,3.056,13.861,1.948a10.794,10.794,0,0,0,21.162,2.974l4.706.661a4.62,4.62,0,0,0,5.229-3.94l1.358-9.673.75,8.555a4.64,4.64,0,0,0,4.6,4.224A3.273,3.273,0,0,0,53.938,74l4.735-.415a10.816,10.816,0,0,0,10.5,8.335q.472,0,.949-.042a10.782,10.782,0,0,0,9.835-10.156l14.86-1.3-.269-3.075-2.439.213L90.222,46.031l4.59-.4-.269-3.075-4.59.414-.806-9.237ZM45.477,58.252l-.216,1.528-6.112-.86.429-3.056,5.959.837a7.814,7.814,0,0,1-.06,1.551ZM11.588,33.226,23.6,34.915v-.009l6.36,10.255L10.3,42.4ZM34.159,72.246A7.718,7.718,0,1,1,26.5,63.454a7.876,7.876,0,0,1,1.091.076,7.728,7.728,0,0,1,6.568,8.716Zm7.856-.454-4.707-.662a10.784,10.784,0,0,0-21.145-2.973l-9.3-1.306,3.008-21.39L32.79,48.676l6.114.86a7.294,7.294,0,0,1,5.647,3.909L40,52.806a3.087,3.087,0,0,0-3.487,2.624l-.429,3.056a3.087,3.087,0,0,0,2.624,3.488l6.114.858-.429,3.058-4.586-.644L39.38,68.3l4.586.645-.216,1.528a1.543,1.543,0,0,1-1.735,1.317ZM53.49,52.984l-1.573,1.573a1.543,1.543,0,0,0,0,2.182l1.69,1.687L51.155,59.9l-.323-3.686a23.4,23.4,0,0,1,.054-4.535ZM76.867,70.445a7.717,7.717,0,1,1-8.359-7.015c.228-.02.463-.031.685-.031a7.717,7.717,0,0,1,7.674,7.046Zm10.015-27.2L61.068,45.572l1.4-8.334a1.543,1.543,0,0,1,1.389-1.283L86.08,34.01Z" transform="translate(0 10.089)" fill="#4c77ae"/><path d="M0,0H6.174V3.087H0Z" transform="translate(62.795 61.62) rotate(-4.992)" fill="#4c77ae"/><path d="M0,0H3.087V3.087H0Z" transform="translate(67.461 79.818) rotate(-4.992)" fill="#4c77ae"/><path d="M20.082,31.982,22.265,29.8l-2-2H24.26A1.543,1.543,0,0,0,25.8,26.26V22.269l5.082,5.082a1.543,1.543,0,0,0,2.182,0l5.082-5.082V26.26A1.543,1.543,0,0,0,39.695,27.8h5.535L41.69,31.343l2.182,2.182,6.174-6.174a1.543,1.543,0,0,0-1.091-2.635H41.238V18.543A1.543,1.543,0,0,0,38.6,17.452l-6.626,6.626-6.626-6.626a1.543,1.543,0,0,0-2.635,1.091v6.174H16.543a1.543,1.543,0,0,0-1.091,2.635Z" transform="translate(7.14 7.065)" fill="#4c77ae"/><path d="M24.3,21.434h3.087a2.1,2.1,0,0,1,.718-1.576,5.127,5.127,0,0,0,0-7.131,2.1,2.1,0,0,1,0-3.161A5.078,5.078,0,0,0,29.548,6H26.461a2.1,2.1,0,0,1-.719,1.58,5.133,5.133,0,0,0,0,7.134,2.093,2.093,0,0,1,0,3.156A5.062,5.062,0,0,0,24.3,21.434Z" transform="translate(12.194 1.087)" fill="#4c77ae"/><path d="M30.3,19.434h3.087a2.1,2.1,0,0,1,.718-1.576,5.127,5.127,0,0,0,0-7.131,2.1,2.1,0,0,1,0-3.161A5.078,5.078,0,0,0,35.548,4H32.461a2.1,2.1,0,0,1-.719,1.58,5.133,5.133,0,0,0,0,7.134,2.093,2.093,0,0,1,0,3.156A5.062,5.062,0,0,0,30.3,19.434Z" transform="translate(15.454 0)" fill="#4c77ae"/></g></svg>