<svg xmlns="http://www.w3.org/2000/svg" width="80" height="80" viewBox="0 0 80 80"><path d="M308.129,294.937v-9.745l-3.733-.954c-.026-.063-.052-.126-.079-.188l1.965-3.312-6.891-6.891-3.312,1.965-.188-.079L294.937,272h-9.745l-.954,3.733c-.063.026-.126.052-.188.079l-3.312-1.965-6.891,6.891,1.965,3.312c-.027.064-.053.127-.079.188l-3.732.954v9.745l3.733.954c.026.063.052.126.079.188l-1.965,3.312,6.891,6.891,3.312-1.965.188.079.954,3.732h9.745l.954-3.733c.063-.026.126-.052.188-.079l3.312,1.965,6.891-6.891-1.965-3.312c.027-.064.053-.127.079-.188Zm-5.088,4.048-4.057,4.057-2.758-1.636-.621.3a12.91,12.91,0,0,1-1.23.51l-.65.231-.792,3.106H287.2l-.792-3.106-.65-.231a12.159,12.159,0,0,1-1.23-.51l-.621-.3-2.758,1.636-4.057-4.057,1.636-2.758-.3-.621a12.91,12.91,0,0,1-.51-1.23l-.231-.65-3.107-.792V287.2l3.106-.792.231-.65a12.159,12.159,0,0,1,.51-1.23l.3-.621-1.636-2.758,4.057-4.057,2.758,1.636.621-.3a12.906,12.906,0,0,1,1.23-.51l.65-.231.792-3.107h5.738l.792,3.106.65.231a12.159,12.159,0,0,1,1.23.51l.621.3,2.758-1.636,4.057,4.057L301.4,283.9l.3.621a12.906,12.906,0,0,1,.51,1.23l.231.65,3.107.792v5.738l-3.106.792-.231.65a12.159,12.159,0,0,1-.51,1.23l-.3.621Zm0,0" transform="translate(-228.129 -228.129)" fill="#4c77ae"/><path d="M330.323,320a10.323,10.323,0,1,0,10.323,10.323A10.334,10.334,0,0,0,330.323,320Zm0,18.065a7.742,7.742,0,1,1,7.742-7.742A7.75,7.75,0,0,1,330.323,338.065Zm0,0" transform="translate(-268.387 -268.387)" fill="#4c77ae"/><path d="M357.161,352a5.161,5.161,0,1,0,5.161,5.161A5.166,5.166,0,0,0,357.161,352Zm0,7.742a2.581,2.581,0,1,1,2.581-2.581A2.583,2.583,0,0,1,357.161,359.742Zm0,0" transform="translate(-295.226 -295.226)" fill="#4c77ae"/><path d="M160.162,21.848a7.755,7.755,0,0,0,2.161,3.262V26.2l-6.135,2.3A6.48,6.48,0,0,0,152,34.544V41.29h30.968V34.544a6.483,6.483,0,0,0-4.186-6.041l-6.137-2.3V25.11a7.739,7.739,0,0,0,2.161-3.262,5.159,5.159,0,0,0,4.291-5.074V11.613a11.613,11.613,0,1,0-23.226,0v5.161a5.159,5.159,0,0,0,4.291,5.074Zm9.9,4.892-2.581,4.3-2.581-4.3v-.095a7.6,7.6,0,0,0,5.161,0Zm-7.005,1.943,2.6,4.334-2.584,1.292-1.67-5.006Zm17.328,5.862V38.71H154.581V34.544a3.889,3.889,0,0,1,2.512-3.625l1.9-.711,2.579,7.739,5.915-2.957,5.915,2.957,2.579-7.739,1.9.712a3.886,3.886,0,0,1,2.511,3.623ZM173.562,29.3l-1.67,5.008-2.584-1.292,2.6-4.335Zm-6.077-4.786a5.166,5.166,0,0,1-5.161-5.161V14.106a9.988,9.988,0,0,0,5.161-2.06,9.977,9.977,0,0,0,5.161,2.06v5.249A5.166,5.166,0,0,1,167.484,24.516ZM175.226,19V14.553a2.558,2.558,0,0,1,0,4.443ZM167.484,2.581a9.043,9.043,0,0,1,9.032,9.032v.718a5.1,5.1,0,0,0-2.581-.718h-.222a7.467,7.467,0,0,1-5.318-2.2l-.912-.914-.912.914a7.469,7.469,0,0,1-5.318,2.2h-.222a5.1,5.1,0,0,0-2.581.718v-.718a9.043,9.043,0,0,1,9.032-9.032Zm-7.742,11.971V19a2.558,2.558,0,0,1,0-4.443Zm0,0" transform="translate(-127.484)" fill="#4c77ae"/><path d="M0,321.548H25.806V288H0Zm2.581-30.968H23.226v28.387H2.581Zm0,0" transform="translate(0 -241.548)" fill="#4c77ae"/><path d="M32,320H47.484v2.581H32Zm0,0" transform="translate(-26.839 -268.387)" fill="#4c77ae"/><path d="M32,352h2.581v2.581H32Zm0,0" transform="translate(-26.839 -295.226)" fill="#4c77ae"/><path d="M64,352H74.323v2.581H64Zm0,0" transform="translate(-53.677 -295.226)" fill="#4c77ae"/><path d="M32,384H47.484v2.581H32Zm0,0" transform="translate(-26.839 -322.065)" fill="#4c77ae"/><path d="M32,416H47.484v2.581H32Zm0,0" transform="translate(-26.839 -348.903)" fill="#4c77ae"/><path d="M112,448h2.581v2.581H112Zm0,0" transform="translate(-93.935 -375.742)" fill="#4c77ae"/><path d="M32,448H42.323v2.581H32Zm0,0" transform="translate(-26.839 -375.742)" fill="#4c77ae"/><path d="M172.585,348.168l-1.825-1.825-6.074,6.074,6.074,6.074,1.825-1.825-2.959-2.959h9.788v-2.581h-9.788Zm0,0" transform="translate(-138.125 -290.482)" fill="#4c77ae"/><path d="M74.581,83a1.292,1.292,0,0,1,1.29-1.29h5.917L78.83,84.666l1.825,1.825,6.074-6.074-6.074-6.074L78.83,76.168l2.959,2.959H75.871A3.876,3.876,0,0,0,72,83v23.226h2.581Zm0,0" transform="translate(-60.387 -62.353)" fill="#4c77ae"/><path d="M343.742,107.871v16.24l-2.959-2.959-1.825,1.825,6.074,6.074,6.074-6.074-1.825-1.825-2.959,2.959v-16.24A3.876,3.876,0,0,0,342.452,104H336v2.581h6.452A1.292,1.292,0,0,1,343.742,107.871Zm0,0" transform="translate(-281.806 -87.226)" fill="#4c77ae"/></svg>