<svg xmlns="http://www.w3.org/2000/svg" width="93.985" height="94" viewBox="0 0 93.985 94"><path d="M365.676,408.041a4.228,4.228,0,1,0-4.228,4.228A4.233,4.233,0,0,0,365.676,408.041Zm-5.7,0a1.474,1.474,0,1,1,1.474,1.474A1.476,1.476,0,0,1,359.973,408.041Z" transform="translate(-291.643 -329.675)" fill="#4c77ae"/><path d="M108.719,408.041a4.228,4.228,0,1,0,4.228-4.228A4.233,4.233,0,0,0,108.719,408.041Zm5.7,0a1.474,1.474,0,1,1-1.474-1.474A1.476,1.476,0,0,1,114.422,408.041Z" transform="translate(-88.766 -329.675)" fill="#4c77ae"/><path d="M476.606,364.836a1.377,1.377,0,0,0-1.947,1.947,12.881,12.881,0,0,1,0,18.216,1.377,1.377,0,1,0,1.947,1.947A15.652,15.652,0,0,0,476.606,364.836Z" transform="translate(-387.192 -297.525)" fill="#4c77ae"/><path d="M454.642,386.8a1.377,1.377,0,1,0-1.947,1.947,7.185,7.185,0,0,1,0,10.15,1.377,1.377,0,1,0,1.947,1.947A9.942,9.942,0,0,0,454.642,386.8Z" transform="translate(-369.261 -315.457)" fill="#4c77ae"/><path d="M2.786,375.891a12.8,12.8,0,0,1,3.772-9.108,1.377,1.377,0,0,0-1.947-1.947,15.652,15.652,0,0,0,0,22.11A1.377,1.377,0,1,0,6.559,385,12.8,12.8,0,0,1,2.786,375.891Z" transform="translate(-0.04 -297.526)" fill="#4c77ae"/><path d="M35.94,386.8a1.377,1.377,0,0,0-1.947,0,9.943,9.943,0,0,0,0,14.045A1.377,1.377,0,1,0,35.94,398.9a7.185,7.185,0,0,1,0-10.15A1.377,1.377,0,0,0,35.94,386.8Z" transform="translate(-25.388 -315.457)" fill="#4c77ae"/><path d="M180.546,70.674a4.945,4.945,0,0,0-5.9-2.2,24.551,24.551,0,0,0-40.763,6.138,1.377,1.377,0,0,0,2.226,1.544A20.9,20.9,0,0,1,163.86,74.6l-6.178,3.567a6.724,6.724,0,1,0,4.941,8.559l6.782-3.916a1.377,1.377,0,0,0-1.377-2.385L162.8,83.444a6.726,6.726,0,0,0-2.191-3.787l14.561-8.407a2.187,2.187,0,0,1,2.187,3.789l-3.56,2.055a1.377,1.377,0,1,0,1.377,2.385l3.56-2.055A4.947,4.947,0,0,0,180.546,70.674ZM156.2,88.7a3.969,3.969,0,1,1,3.969-3.969A3.974,3.974,0,0,1,156.2,88.7Zm-5.346-21.386A23.566,23.566,0,0,0,140.48,69.7a21.788,21.788,0,0,1,31.665.122L166.4,73.136A23.556,23.556,0,0,0,150.856,67.313Z" transform="translate(-109.21 -49.135)" fill="#4c77ae"/><path d="M171.311,245.065a1.834,1.834,0,0,0,1.874-.071l8.431-5.45a1.836,1.836,0,0,0,0-3.083l-8.431-5.45a1.836,1.836,0,0,0-2.833,1.542v1.222H142.076a2.3,2.3,0,0,0-2.295,2.295v3.867a2.3,2.3,0,0,0,2.295,2.295h28.276v1.222A1.835,1.835,0,0,0,171.311,245.065Zm-28.776-5.588v-2.949H171.27a1.838,1.838,0,0,0,1.836-1.836v-.453L178.928,238l-5.822,3.764v-.453a1.838,1.838,0,0,0-1.836-1.836Z" transform="translate(-114.125 -188.357)" fill="#4c77ae"/><path d="M82.229,89.282a1.377,1.377,0,0,0,.961,1.688l7.57,2.1a26.489,26.489,0,0,0,13.919,0l18.511-5.133a9.934,9.934,0,0,0,0-19.142l-7.955-2.206A35.6,35.6,0,1,0,73.921,9.125a1.413,1.413,0,0,0-.253,1.848,1.377,1.377,0,0,0,2.054.236A32.844,32.844,0,1,1,111.308,65.5L104.8,63.7V61.257c0-2.411-3.044-4.228-7.08-4.228s-7.08,1.818-7.08,4.228V63.7L84.13,65.5A32.857,32.857,0,0,1,64.879,35.594a32.529,32.529,0,0,1,6.774-19.978,1.412,1.412,0,0,0-.186-1.939A1.377,1.377,0,0,0,69.5,13.9a35.606,35.606,0,0,0,10.7,52.69l-7.955,2.206a9.934,9.934,0,0,0,0,19.142l4.7,1.3a1.376,1.376,0,0,0,1.71-1.021,1.41,1.41,0,0,0-1.023-1.646l-4.649-1.289a7.18,7.18,0,0,1,0-13.834l17.655-4.9v3.532c-3.54,1.825-5.7,4.933-5.7,8.28,0,5.476,5.734,9.931,12.783,9.931S110.5,83.842,110.5,78.366c0-3.348-2.162-6.455-5.7-8.28V66.553l17.655,4.9a7.18,7.18,0,0,1,0,13.834l-18.511,5.133a23.735,23.735,0,0,1-12.447,0l-7.569-2.1a1.377,1.377,0,0,0-1.7.965Zm15.49-29.5c2.839,0,4.326,1.1,4.326,1.474V78.366c0,.379-1.487,1.474-4.326,1.474s-4.326-1.1-4.326-1.474V61.257c0-.379,1.487-1.474,4.326-1.474Zm10.029,18.583c0,3.958-4.5,7.177-10.029,7.177S87.69,82.323,87.69,78.366A6.393,6.393,0,0,1,90.639,73.3v5.062c0,2.411,3.044,4.228,7.08,4.228s7.08-1.818,7.08-4.228V73.3A6.393,6.393,0,0,1,107.748,78.366Z" transform="translate(-50.727)" fill="#4c77ae"/></svg>