<svg xmlns="http://www.w3.org/2000/svg" width="120" height="120" viewBox="0 0 120 120"><g transform="translate(7786 9054)"><g transform="translate(-649.102 503.898)"><circle cx="60" cy="60" r="60" transform="translate(-7136.898 -9557.898)" fill="#bfd4ef" opacity="0.45"/><circle cx="48" cy="48" r="48" transform="translate(-7124.898 -9545.898)" fill="#fbfcfd"/></g><g transform="translate(-7755.669 -9026.547)"><path d="M60.253,36.427l-2.834-1.132a17.858,17.858,0,0,0-1.646-3.963l1.2-2.8a2.195,2.195,0,0,0-.329-2.31,21.293,21.293,0,0,0-2.6-2.6,2.192,2.192,0,0,0-2.308-.331l-2.805,1.2a17.962,17.962,0,0,0-3.962-1.646L43.832,20a2.259,2.259,0,0,0-.617-.844V8.232C43.214,2.881,32.081,0,21.605,0S0,2.881,0,8.232V45.276c0,5.351,11.133,8.232,21.609,8.232.566,0,1.112-.02,1.664-.034a2.122,2.122,0,0,0,.344.573,21.439,21.439,0,0,0,2.6,2.6,2.195,2.195,0,0,0,2.308.331l2.805-1.2a17.961,17.961,0,0,0,3.962,1.646l1.132,2.832a2.24,2.24,0,0,0,1.852,1.4c.641.058,1.283.085,1.908.085a18.026,18.026,0,0,0,1.8-.085,2.242,2.242,0,0,0,1.852-1.4l1.132-2.83a17.961,17.961,0,0,0,3.962-1.646l2.8,1.2a2.2,2.2,0,0,0,2.31-.331,21.359,21.359,0,0,0,2.6-2.6,2.193,2.193,0,0,0,.33-2.307l-1.2-2.807a17.859,17.859,0,0,0,1.638-3.966l2.835-1.132a2.239,2.239,0,0,0,1.39-1.842,18.811,18.811,0,0,0,0-3.721A2.242,2.242,0,0,0,60.253,36.427ZM21.609,2.058c11.525,0,19.551,3.254,19.551,6.174s-8.026,6.174-19.551,6.174S2.058,11.152,2.058,8.232,10.084,2.058,21.609,2.058ZM2.058,11.9c3.7,2.987,11.8,4.568,19.551,4.568S37.465,14.884,41.16,11.9v6.674a19.492,19.492,0,0,0-2.881.037A2.242,2.242,0,0,0,36.427,20l-1.132,2.83a17.961,17.961,0,0,0-3.962,1.646l-2.8-1.2a2.19,2.19,0,0,0-2.311.331,21.488,21.488,0,0,0-2.6,2.6,2.121,2.121,0,0,0-.316.5c-.562.016-1.123.039-1.694.039-11.525,0-19.551-3.254-19.551-6.174Zm0,12.348c3.7,2.987,11.8,4.568,19.551,4.568.6,0,1.192-.024,1.782-.043l1.093,2.56a17.859,17.859,0,0,0-1.64,3.966l-2.835,1.132a2.239,2.239,0,0,0-1.39,1.842c-.025.247-.023.5-.037.744-9.924-.528-16.524-3.5-16.524-6.085ZM23.425,51.41c-.6.021-1.2.04-1.816.04-11.525,0-19.551-3.254-19.551-6.174V36.524c2.688,2.253,8.087,4.132,16.51,4.544.015.309.015.617.046.926a2.239,2.239,0,0,0,1.4,1.852l2.83,1.132a17.859,17.859,0,0,0,1.646,3.963ZM59.6,41.8a.184.184,0,0,1-.11.126l-3.311,1.322a1.029,1.029,0,0,0-.617.709,15.821,15.821,0,0,1-1.813,4.37,1.029,1.029,0,0,0-.065.935l1.4,3.286a.16.16,0,0,1-.012.172A19.447,19.447,0,0,1,52.7,55.086a.163.163,0,0,1-.163,0l-3.28-1.4a1.029,1.029,0,0,0-.934.065,15.811,15.811,0,0,1-4.368,1.816,1.029,1.029,0,0,0-.709.617l-1.321,3.308a.178.178,0,0,1-.137.115,18.2,18.2,0,0,1-3.333,0,.177.177,0,0,1-.125-.112l-1.322-3.311a1.029,1.029,0,0,0-.709-.617,15.811,15.811,0,0,1-4.37-1.813A1.029,1.029,0,0,0,31,53.688l-3.283,1.4a.157.157,0,0,1-.174-.015,19.429,19.429,0,0,1-2.362-2.367.162.162,0,0,1,0-.162l1.4-3.283a1.029,1.029,0,0,0-.065-.935,15.821,15.821,0,0,1-1.813-4.37,1.029,1.029,0,0,0-.617-.709l-3.306-1.32a.187.187,0,0,1-.115-.128V41.79a16.779,16.779,0,0,1,0-3.333.184.184,0,0,1,.11-.126l3.311-1.322A1.029,1.029,0,0,0,24.7,36.3a15.821,15.821,0,0,1,1.813-4.37,1.029,1.029,0,0,0,.065-.935l-1.4-3.284a.161.161,0,0,1,.012-.172,19.6,19.6,0,0,1,2.367-2.367.165.165,0,0,1,.163,0l3.28,1.4a1.021,1.021,0,0,0,.934-.065A15.811,15.811,0,0,1,36.3,24.7a1.029,1.029,0,0,0,.709-.617l1.321-3.308a.178.178,0,0,1,.137-.115,18.017,18.017,0,0,1,3.333,0,.177.177,0,0,1,.125.112l1.322,3.311a1.029,1.029,0,0,0,.709.617,15.811,15.811,0,0,1,4.37,1.813,1.021,1.021,0,0,0,.934.065l3.283-1.4a.158.158,0,0,1,.174.015,19.356,19.356,0,0,1,2.367,2.367.162.162,0,0,1,0,.162L53.686,31a1.029,1.029,0,0,0,.065.935,15.821,15.821,0,0,1,1.813,4.37,1.029,1.029,0,0,0,.617.709l3.306,1.32a.186.186,0,0,1,.116.139A16.779,16.779,0,0,1,59.6,41.8Z" fill="#4c77ae"/><path d="M39.377,26A13.377,13.377,0,1,0,52.754,39.377,13.377,13.377,0,0,0,39.377,26Zm0,24.7A11.319,11.319,0,1,1,50.7,39.377,11.319,11.319,0,0,1,39.377,50.7Z" transform="translate(0.754 0.754)" fill="#4c77ae"/><path d="M39.232,31a8.232,8.232,0,1,0,8.232,8.232A8.232,8.232,0,0,0,39.232,31Zm0,14.406a6.174,6.174,0,1,1,6.174-6.174A6.174,6.174,0,0,1,39.232,45.406Z" transform="translate(0.899 0.899)" fill="#4c77ae"/><path d="M4.593,19.161c.345.162.709.317,1.088.467a1.029,1.029,0,1,0,.755-1.914q-.508-.2-.97-.418a1.029,1.029,0,1,0-.873,1.865Z" transform="translate(0.116 0.499)" fill="#4c77ae"/><path d="M9.8,20.877q.52.122,1.06.23a.983.983,0,0,0,.206.02,1.029,1.029,0,0,0,.206-2.037c-.34-.068-.672-.141-1-.216a1.029,1.029,0,1,0-.467,2Z" transform="translate(0.26 0.547)" fill="#4c77ae"/></g></g></svg>