<svg xmlns="http://www.w3.org/2000/svg" width="120" height="120" viewBox="0 0 120 120">
  <g id="Grupo_1118474" data-name="Grupo 1118474" transform="translate(-8322 10531)">
    <g id="Grupo_1117992" data-name="Grupo 1117992" transform="translate(15458.898 -973.102)">
      <circle id="Elipse_8441" data-name="Elipse 8441" cx="60" cy="60" r="60" transform="translate(-7136.898 -9557.898)" fill="#bfd4ef" opacity="0.45"/>
      <circle id="Elipse_8442" data-name="Elipse 8442" cx="48" cy="48" r="48" transform="translate(-7124.898 -9545.898)" fill="#fbfcfd"/>
    </g>
    <g id="bloque-de-carreteras" transform="translate(8351 -10500.27)">
      <path id="Trazado_912803" data-name="Trazado 912803" d="M55.926,14.506h-.9v-2.7a.9.9,0,0,0-.9-.9h-5.4a.9.9,0,0,0-.9.9v2.7H39.556L37,1.724A.9.9,0,0,0,36.116,1H21.71a.9.9,0,0,0-.882.724L18.27,14.506H10v-2.7a.9.9,0,0,0-.9-.9H3.7a.9.9,0,0,0-.9.9v2.7H1.9a.9.9,0,0,0-.9.9V28.013a.9.9,0,0,0,.9.9h.9V46.922a.9.9,0,0,0,.9.9H9.1a.9.9,0,0,0,.9-.9V28.913h5.385L10.022,55.749a.9.9,0,0,0,.882,1.077H46.922a.9.9,0,0,0,.882-1.077L42.437,28.913h5.385V46.021a.9.9,0,0,0,.9.9h5.4a.9.9,0,0,0,.9-.9V28.913h.9a.9.9,0,0,0,.9-.9V15.407A.9.9,0,0,0,55.926,14.506ZM4.074,27.112,14.879,16.307h4.657L8.731,27.112ZM22.082,16.307h7.358L18.636,27.112H11.277Zm9.9,0h4.657L25.839,27.112H21.182Zm7.2,0h7.358L35.744,27.112H28.385Zm9.9,0h4.657L42.947,27.112H38.29Zm.528-3.6h3.6v1.8h-3.6ZM22.448,2.8h5.565V6.4h1.8V2.8h5.565l2.341,11.705H20.107ZM4.6,12.705H8.2v1.8H4.6Zm7.731,3.6L2.8,25.839V16.307ZM8.2,46.021H4.6V28.913H8.2Zm37.62,9H29.814v-3.6h-1.8v3.6H12l5.222-26.112H40.6Zm7.4-9.9h-3.6V28.913h3.6ZM45.493,27.112l9.532-9.532v9.532Z" fill="#4c77ae"/>
      <path id="Trazado_912804" data-name="Trazado 912804" d="M31,49h1.8v3.6H31Z" transform="translate(-2.987 -4.78)" fill="#4c77ae"/>
      <path id="Trazado_912805" data-name="Trazado 912805" d="M31,41h1.8v3.6H31Z" transform="translate(-2.987 -3.983)" fill="#4c77ae"/>
      <path id="Trazado_912806" data-name="Trazado 912806" d="M31,33h1.8v3.6H31Z" transform="translate(-2.987 -3.186)" fill="#4c77ae"/>
      <path id="Trazado_912807" data-name="Trazado 912807" d="M31,11h1.8v3.6H31Z" transform="translate(-2.987 -0.996)" fill="#4c77ae"/>
    </g>
  </g>
</svg>
