<svg xmlns="http://www.w3.org/2000/svg" width="120" height="120" viewBox="0 0 120 120">
  <g id="Grupo_1118468" data-name="Grupo 1118468" transform="translate(-14254.898 9040.962)">
    <g id="Grupo_1117618" data-name="Grupo 1117618" transform="translate(21391.797 516.937)">
      <circle id="Elipse_8441" data-name="Elipse 8441" cx="60" cy="60" r="60" transform="translate(-7136.898 -9557.898)" fill="#f6d957" opacity="0.45"/>
      <circle id="Elipse_8442" data-name="Elipse 8442" cx="48" cy="48" r="48" transform="translate(-7124.898 -9545.898)" fill="#fff"/>
    </g>
    <g id="cinturon-de-seguridad" transform="translate(14288.114 -9011.426)">
      <path id="Trazado_914769" data-name="Trazado 914769" d="M.618,55.024l6.011,6.01a2.112,2.112,0,0,0,2.983,0l6.021-6.021.805.806a5.241,5.241,0,0,0,7.4,0L35.926,43.734a3.141,3.141,0,0,0,0-4.441L22.36,25.725a3.141,3.141,0,0,0-4.441,0L5.832,37.812a5.241,5.241,0,0,0,0,7.4l.806.805L.617,52.042a2.113,2.113,0,0,0,0,2.982ZM32.181,38.508l-1.515,1.513a1.1,1.1,0,0,1-1.523,0l-7.512-7.512a1.076,1.076,0,0,1,0-1.524l1.514-1.514Zm-24.868.784L19.4,27.208a1.047,1.047,0,0,1,1.48,0l.784.784L20.15,29.5a3.171,3.171,0,0,0,0,4.486L27.662,41.5a3.169,3.169,0,0,0,4.485,0l1.514-1.513.783.784a1.047,1.047,0,0,1,0,1.48L22.36,54.339a3.141,3.141,0,0,1-4.442,0l-10.6-10.6a3.141,3.141,0,0,1,0-4.442ZM8.119,47.5l6.031,6.031L8.109,59.558,2.094,53.521Z" transform="translate(-0.001 1.143)" fill="#c5ae46"/>
      <path id="Trazado_914770" data-name="Trazado 914770" d="M48.974.617A2.157,2.157,0,0,0,46,.617L39.973,6.638l-.76-.761a4.241,4.241,0,0,0-5.989,0l-1.5,1.5a4.233,4.233,0,0,0,0,5.987l.445.444v5.143l-5.7,5.7a3.176,3.176,0,0,0,0,4.485l6.011,6.01a3.174,3.174,0,0,0,4.485,0l5.71-5.7h5.143l.444.445a4.233,4.233,0,0,0,5.987,0l1.5-1.5a4.241,4.241,0,0,0,0-5.988l-.761-.76,6.021-6.022a2.1,2.1,0,0,0,0-2.979ZM42.228,27.355a1.047,1.047,0,0,0-.74.307l-6.01,6.01a1.079,1.079,0,0,1-1.524,0l-6.011-6.01a1.079,1.079,0,0,1,0-1.524l6.011-6.009a1.047,1.047,0,0,0,.307-.74V15.905l11.45,11.45ZM54.26,23.884a2.144,2.144,0,0,1,0,3.028l-1.5,1.5a2.189,2.189,0,0,1-3.026,0L33.2,11.886a2.138,2.138,0,0,1,0-3.026l1.5-1.5a2.144,2.144,0,0,1,3.028,0l.76.761-.764.764a2.111,2.111,0,0,0,0,2.979L49.757,23.888a2.111,2.111,0,0,0,2.979,0l.763-.763Zm5.264-9.743-8.283,8.271L39.213,10.364l8.28-8.271,12.03,12.03Z" transform="translate(1.197 -0.02)" fill="#c5ae46"/>
      <path id="Trazado_914771" data-name="Trazado 914771" d="M33.729,22.143,31.477,24.4a2.11,2.11,0,0,0,0,2.977l1.5,1.5a2.11,2.11,0,0,0,2.976,0l2.262-2.252a2.111,2.111,0,0,0,0-2.977l-1.51-1.51a2.113,2.113,0,0,0-2.976,0Zm3.008,2.986a.012.012,0,0,1,0,.019L34.461,27.4l-1.5-1.518,2.269-2.261Z" transform="translate(1.447 0.99)" fill="#c5ae46"/>
    </g>
  </g>
</svg>
