<svg xmlns="http://www.w3.org/2000/svg" width="120" height="120" viewBox="0 0 120 120">
  <g id="Grupo_1118482" data-name="Grupo 1118482" transform="translate(-7604 6200)">
    <g id="Grupo_1118018" data-name="Grupo 1118018" transform="translate(635 54)">
      <g id="Grupo_1117992" data-name="Grupo 1117992" transform="translate(14105.898 3303.898)">
        <circle id="Elipse_8441" data-name="Elipse 8441" cx="60" cy="60" r="60" transform="translate(-7136.898 -9557.898)" fill="#bfd4ef" opacity="0.45"/>
        <circle id="Elipse_8442" data-name="Elipse 8442" cx="48" cy="48" r="48" transform="translate(-7124.898 -9545.898)" fill="#fbfcfd"/>
      </g>
    </g>
    <g id="control-de-temperatura" transform="translate(7633.567 -6167.616)">
      <path id="Trazado_913161" data-name="Trazado 913161" d="M58.34,11.25H3.76A3.764,3.764,0,0,0,0,15.01V58.671a3.764,3.764,0,0,0,3.76,3.76H58.34a3.764,3.764,0,0,0,3.76-3.76V15.01a3.764,3.764,0,0,0-3.76-3.76Zm-8.4,1.7V14.04A2.064,2.064,0,0,1,47.879,16.1H14.221a2.064,2.064,0,0,1-2.062-2.062V12.948ZM60.4,58.671a2.064,2.064,0,0,1-2.062,2.062H3.76A2.064,2.064,0,0,1,1.7,58.671V15.01A2.064,2.064,0,0,1,3.76,12.948h6.7V14.04a3.764,3.764,0,0,0,3.76,3.76H47.879a3.764,3.764,0,0,0,3.759-3.76V12.948h6.7A2.064,2.064,0,0,1,60.4,15.01Z" transform="translate(0 -11.25)" fill="#4c77ae"/>
      <path id="Trazado_913162" data-name="Trazado 913162" d="M61.488,29.25H8.849A.849.849,0,0,0,8,30.1V54.6a.849.849,0,0,0,.849.849H61.488a.849.849,0,0,0,.849-.849V30.1a.849.849,0,0,0-.849-.849Zm-.849,24.5H9.7v-22.8H60.639Z" transform="translate(-4.119 -20.517)" fill="#4c77ae"/>
      <path id="Trazado_913163" data-name="Trazado 913163" d="M45.784,55.592h6.135a.849.849,0,0,0,.849-.849V44.115a.849.849,0,0,0-.849-.849H45.784a.849.849,0,0,0-.849.849V54.743a.849.849,0,0,0,.849.849Zm.849-10.628H51.07v8.93H46.633Z" transform="translate(-23.135 -27.733)" fill="#4c77ae"/>
      <path id="Trazado_913164" data-name="Trazado 913164" d="M64.289,66.741a.849.849,0,0,0,.849-.849V65.24a.849.849,0,1,0-1.7,0v.652A.849.849,0,0,0,64.289,66.741Z" transform="translate(-32.662 -38.609)" fill="#4c77ae"/>
      <path id="Trazado_913165" data-name="Trazado 913165" d="M27.211,55.592h6.135a.849.849,0,0,0,0-1.7H28.06v-.976l5.8-4.444a.85.85,0,0,0,.333-.674V44.115a.849.849,0,0,0-.849-.849H27.211a.849.849,0,0,0-.849.849v3.077a.849.849,0,1,0,1.7,0V44.964H32.5V47.38l-5.8,4.445a.85.85,0,0,0-.333.674v2.244A.849.849,0,0,0,27.211,55.592Z" transform="translate(-13.572 -27.733)" fill="#4c77ae"/>
      <path id="Trazado_913166" data-name="Trazado 913166" d="M70.149,55.592h6.134a.849.849,0,0,0,.849-.849V51.18a.849.849,0,0,0-.428-.737l-1.776-1.014L76.7,48.415a.85.85,0,0,0,.428-.737V44.115a.849.849,0,0,0-.849-.849H70.149a.849.849,0,0,0-.849.849v1.864a.849.849,0,1,0,1.7,0V44.964h4.436v2.221l-2.639,1.5a.849.849,0,0,0,0,1.474l2.639,1.507v2.221H71V52.878a.849.849,0,1,0-1.7,0v1.865a.849.849,0,0,0,.849.849Z" transform="translate(-35.679 -27.733)" fill="#4c77ae"/>
      <path id="Trazado_913167" data-name="Trazado 913167" d="M92.186,49.323a3.028,3.028,0,1,0-3.028-3.028A3.028,3.028,0,0,0,92.186,49.323Zm0-4.359a1.33,1.33,0,1,1-1.33,1.33A1.33,1.33,0,0,1,92.186,44.964Z" transform="translate(-45.903 -27.733)" fill="#4c77ae"/>
      <path id="Trazado_913168" data-name="Trazado 913168" d="M62.638,87.75H47.558a.849.849,0,0,0-.849.849v8.487a.849.849,0,0,0,.849.849h15.08a.849.849,0,0,0,.849-.849V88.6a.849.849,0,0,0-.849-.849Zm-.849,8.487H48.407V89.448H61.789Z" transform="translate(-24.048 -50.636)" fill="#4c77ae"/>
      <path id="Trazado_913169" data-name="Trazado 913169" d="M101.539,87.75H86.64a.849.849,0,0,0-.849.849v8.487a.849.849,0,0,0,.849.849h14.9a.849.849,0,0,0,.849-.849V88.6a.849.849,0,0,0-.849-.849Zm-.849,8.487h-13.2V89.448h13.2Z" transform="translate(-44.169 -50.636)" fill="#4c77ae"/>
      <path id="Trazado_913170" data-name="Trazado 913170" d="M23.748,87.75H8.849A.849.849,0,0,0,8,88.6v8.487a.849.849,0,0,0,.849.849h14.9a.849.849,0,0,0,.849-.849V88.6a.849.849,0,0,0-.849-.849ZM22.9,96.237H9.7V89.448H22.9Z" transform="translate(-4.119 -50.636)" fill="#4c77ae"/>
      <path id="Trazado_913171" data-name="Trazado 913171" d="M99.466,97.9a.859.859,0,0,0,1.181,0l1.9-1.835a.849.849,0,1,0-1.181-1.219l-1.3,1.262-1.3-1.261a.849.849,0,1,0-1.181,1.219Z" transform="translate(-50.102 -54.168)" fill="#4c77ae"/>
      <path id="Trazado_913172" data-name="Trazado 913172" d="M59.193,98.144a.845.845,0,0,0,.59-.239l1.3-1.263,1.3,1.261a.849.849,0,1,0,1.181-1.22l-1.9-1.833a.86.86,0,0,0-1.181,0l-1.9,1.834a.849.849,0,0,0,.59,1.459Z" transform="translate(-30.038 -54.171)" fill="#4c77ae"/>
      <path id="Trazado_913173" data-name="Trazado 913173" d="M19.375,98.2H24.06a.849.849,0,1,0,0-1.7H19.375a.849.849,0,0,0,0,1.7Z" transform="translate(-9.538 -55.141)" fill="#4c77ae"/>
    </g>
  </g>
</svg>
