<svg xmlns="http://www.w3.org/2000/svg" width="120" height="120" viewBox="0 0 120 120">
  <g id="Grupo_1118469" data-name="Grupo 1118469" transform="translate(-1105.051 -1682.196)">
    <g id="Grupo_1118339" data-name="Grupo 1118339" transform="translate(-5863.949 7936.196)">
      <g id="Grupo_1117992" data-name="Grupo 1117992" transform="translate(14105.898 3303.898)">
        <circle id="Elipse_8441" data-name="Elipse 8441" cx="60" cy="60" r="60" transform="translate(-7136.898 -9557.898)" fill="#bfd4ef" opacity="0.45"/>
        <circle id="Elipse_8442" data-name="Elipse 8442" cx="48" cy="48" r="48" transform="translate(-7124.898 -9545.898)" fill="#fbfcfd"/>
      </g>
    </g>
    <g id="big-data_1_" data-name="big-data (1)" transform="translate(1138.968 1715.713)">
      <path id="Trazado_914602" data-name="Trazado 914602" d="M8.563,57a2.563,2.563,0,1,0,2.563,2.563A2.566,2.566,0,0,0,8.563,57Zm0,3.417a.854.854,0,1,1,.854-.854A.855.855,0,0,1,8.563,60.417Z" transform="translate(-1.728 -9.158)" fill="#4c77ae"/>
      <path id="Trazado_914603" data-name="Trazado 914603" d="M4.051,54.751l1.208,1.208a4.271,4.271,0,0,1,6.04,0l1.208-1.208a5.979,5.979,0,0,0-8.456,0Z" transform="translate(-1.444 -8.575)" fill="#4c77ae"/>
      <path id="Trazado_914604" data-name="Trazado 914604" d="M1.222,51.753,2.43,52.961a7.7,7.7,0,0,1,10.875,0l1.208-1.208a9.409,9.409,0,0,0-13.291,0Z" transform="translate(-1.032 -7.994)" fill="#4c77ae"/>
      <path id="Trazado_914605" data-name="Trazado 914605" d="M57.252,56.126H55.543V52.709H53.835v3.417H52.126V54.417H50.417v1.709H48.709V51H47v6.835H57.252Z" transform="translate(-7.701 -8.284)" fill="#4c77ae"/>
      <path id="Trazado_914606" data-name="Trazado 914606" d="M51.4,21.5H44.57a2.566,2.566,0,0,0-2.563,2.563V26.63H38.546a11.043,11.043,0,0,0-2.638-6.362l8.161-8.161H50.55a3.418,3.418,0,0,0,.8-6.741,5.127,5.127,0,0,0-10.141,0,3.407,3.407,0,0,0,.478,6.708L34.7,19.059a11.045,11.045,0,0,0-6.362-2.638V12.96H30.9A2.566,2.566,0,0,0,33.464,10.4V3.563A2.566,2.566,0,0,0,30.9,1H24.067A2.566,2.566,0,0,0,21.5,3.563V10.4a2.566,2.566,0,0,0,2.563,2.563H26.63v3.461a11.043,11.043,0,0,0-6.362,2.638l-4.113-4.114a8.564,8.564,0,1,0-1.209,1.208l4.113,4.114A11.045,11.045,0,0,0,16.42,26.63H12.96V24.067A2.566,2.566,0,0,0,10.4,21.5H3.563A2.566,2.566,0,0,0,1,24.067V30.9a2.566,2.566,0,0,0,2.563,2.563H10.4A2.566,2.566,0,0,0,12.96,30.9V28.338h3.461A11.043,11.043,0,0,0,19.059,34.7l-5.849,5.849,1.208,1.208,5.849-5.849a11.045,11.045,0,0,0,6.362,2.638v3.461H24.067A2.566,2.566,0,0,0,21.5,44.57V51.4a2.566,2.566,0,0,0,2.563,2.563H30.9A2.566,2.566,0,0,0,33.464,51.4V44.57A2.566,2.566,0,0,0,30.9,42.007H28.338V38.546A11.043,11.043,0,0,0,34.7,35.908l4.423,4.423a2.558,2.558,0,0,0-2.242,2.53V51.4a2.566,2.566,0,0,0,2.563,2.563H51.4A2.566,2.566,0,0,0,53.968,51.4V42.862A2.566,2.566,0,0,0,51.4,40.3h-9.9l-5.6-5.6a11.045,11.045,0,0,0,2.638-6.362h3.461V30.9a2.566,2.566,0,0,0,2.563,2.563H51.4A2.566,2.566,0,0,0,53.968,30.9V24.067A2.566,2.566,0,0,0,51.4,21.5ZM31.755,7.835H23.212V6.126h8.543ZM24.067,2.709H30.9a.855.855,0,0,1,.854.854v.854H23.212V3.563A.855.855,0,0,1,24.067,2.709ZM23.212,10.4V9.543h8.543V10.4a.855.855,0,0,1-.854.854H24.067A.855.855,0,0,1,23.212,10.4ZM3.563,23.212H10.4a.855.855,0,0,1,.854.854v.854H2.709v-.854A.855.855,0,0,1,3.563,23.212Zm7.689,3.417v1.709H2.709V26.63ZM10.4,31.755H3.563a.855.855,0,0,1-.854-.854v-.854h8.543V30.9A.855.855,0,0,1,10.4,31.755ZM23.212,47.133h8.543v1.709H23.212ZM30.9,52.259H24.067a.855.855,0,0,1-.854-.854V50.55h8.543V51.4A.855.855,0,0,1,30.9,52.259Zm.854-7.689v.854H23.212V44.57a.855.855,0,0,1,.854-.854H30.9A.855.855,0,0,1,31.755,44.57Zm-4.272-7.689c-.918,0-1.9-1.3-2.571-3.417h5.142C29.38,35.577,28.4,36.881,27.484,36.881Zm-3.006-5.126a21.185,21.185,0,0,1-.393-3.417h6.8a21.282,21.282,0,0,1-.393,3.417ZM18.13,28.338h4.247a23.43,23.43,0,0,0,.349,3.417h-3.6A9.3,9.3,0,0,1,18.13,28.338Zm9.354-10.252c.918,0,1.9,1.3,2.571,3.417H24.912C25.587,19.391,26.565,18.086,27.484,18.086Zm3.006,5.126a21.185,21.185,0,0,1,.393,3.417h-6.8a21.282,21.282,0,0,1,.393-3.417ZM22.377,26.63H18.13a9.312,9.312,0,0,1,.994-3.417h3.6A23.313,23.313,0,0,0,22.377,26.63Zm10.214,1.709h4.247a9.312,9.312,0,0,1-.994,3.417h-3.6A23.313,23.313,0,0,0,32.591,28.338Zm0-1.709a23.43,23.43,0,0,0-.349-3.417h3.6a9.328,9.328,0,0,1,.994,3.417ZM40.3,8.689A1.71,1.71,0,0,1,42.007,6.98h.854V6.126A3.417,3.417,0,0,1,49.618,5.4a3.423,3.423,0,0,0-2.485,3.288h1.709A1.709,1.709,0,1,1,50.55,10.4H42.007A1.71,1.71,0,0,1,40.3,8.689ZM34.728,21.5H31.846a11.807,11.807,0,0,0-1.188-2.854A9.439,9.439,0,0,1,34.728,21.5ZM24.311,18.649A11.841,11.841,0,0,0,23.123,21.5H20.241A9.429,9.429,0,0,1,24.311,18.649ZM9.543,2.709a6.821,6.821,0,0,1,5.9,10.269,6.883,6.883,0,0,0-3.337-2.906,3.417,3.417,0,1,0-5.125,0,6.887,6.887,0,0,0-3.337,2.906,6.822,6.822,0,0,1,5.9-10.268ZM7.835,7.835A1.709,1.709,0,1,1,9.543,9.543,1.71,1.71,0,0,1,7.835,7.835ZM4.809,14.461a5.1,5.1,0,0,1,9.469,0,6.805,6.805,0,0,1-9.469,0Zm15.432,19h2.882a11.807,11.807,0,0,0,1.188,2.854A9.439,9.439,0,0,1,20.24,33.464Zm10.417,2.854a11.841,11.841,0,0,0,1.188-2.854h2.882A9.429,9.429,0,0,1,30.657,36.318Zm21.6,6.543V51.4a.855.855,0,0,1-.854.854H39.444a.855.855,0,0,1-.854-.854V42.862a.855.855,0,0,1,.854-.854H51.4A.855.855,0,0,1,52.259,42.862ZM44.57,23.212H51.4a.855.855,0,0,1,.854.854v.854H43.716v-.854A.855.855,0,0,1,44.57,23.212Zm7.689,3.417v1.709H43.716V26.63ZM51.4,31.755H44.57a.855.855,0,0,1-.854-.854v-.854h8.543V30.9A.855.855,0,0,1,51.4,31.755Z" transform="translate(-1 -1)" fill="#4c77ae"/>
    </g>
  </g>
</svg>
