<svg xmlns="http://www.w3.org/2000/svg" width="120" height="120" viewBox="0 0 120 120"><g transform="translate(7136.898 9557.898)"><circle cx="60" cy="60" r="60" transform="translate(-7136.898 -9557.898)" fill="#bfd4ef" opacity="0.45"/><circle cx="48" cy="48" r="48" transform="translate(-7124.898 -9545.898)" fill="#fbfcfd"/><g transform="translate(-7105.807 -9524.69)"><path d="M58.438,49.415H58.5a2.751,2.751,0,0,0,2.723-2.724,2.731,2.731,0,0,0-4.654-1.931,2.759,2.759,0,0,0-.793,1.931,2.73,2.73,0,0,0,2.659,2.724Zm.908,1.726V63.06a.908.908,0,0,1-1.816,0V51.116A4.557,4.557,0,0,1,55.3,49.888,4.526,4.526,0,0,1,61.7,43.481a4.523,4.523,0,0,1,0,6.407,4.588,4.588,0,0,1-2.353,1.253Z" transform="translate(-29.625 -23.143)" fill="#4c77ae"/><path d="M44.056,1.655A.907.907,0,0,1,43.788.4a.9.9,0,0,1,1.24-.256,27.846,27.846,0,0,1-1.215,47.5.9.9,0,0,1-1.228-.332.887.887,0,0,1,.332-1.228A26.042,26.042,0,0,0,44.056,1.655ZM12.725.146A.9.9,0,0,1,13.966.4.907.907,0,0,1,13.7,1.655,25.99,25.99,0,0,0,2.354,18.216,26.092,26.092,0,0,0,14.835,46.082a.9.9,0,1,1-.9,1.56A28.02,28.02,0,0,1,2.431,34.879,27.8,27.8,0,0,1,12.725.146Zm3.53,5.448A.9.9,0,0,1,17.24,7.1a19.675,19.675,0,0,0-5.511,5.371,19.552,19.552,0,0,0,6.356,27.969.9.9,0,1,1-.9,1.56A21.335,21.335,0,0,1,6.958,19.175a21.145,21.145,0,0,1,3.274-7.712,21.554,21.554,0,0,1,6.023-5.87Zm3.517,5.435a.891.891,0,0,1,1.241.256.909.909,0,0,1-.268,1.253,13.266,13.266,0,0,0-3.683,3.581,13.091,13.091,0,0,0,4.258,18.735.894.894,0,1,1-.9,1.547,14.881,14.881,0,0,1-7.136-15.922,14.839,14.839,0,0,1,6.484-9.451Zm2.878,4.437a.9.9,0,1,1,.972,1.509,7.773,7.773,0,0,0-2.2,2.136,7.885,7.885,0,0,0-1.189,2.813,7.778,7.778,0,0,0,3.734,8.338.9.9,0,1,1-.9,1.56,9.577,9.577,0,0,1-.423-16.356ZM40.514,7.1a.9.9,0,0,1-.269-1.241A.921.921,0,0,1,41.5,5.593,21.351,21.351,0,0,1,40.552,42a.875.875,0,0,1-1.215-.332.9.9,0,0,1,.32-1.228A19.544,19.544,0,0,0,40.514,7.1ZM37,12.538a.917.917,0,0,1-.256-1.253.891.891,0,0,1,1.241-.256,14.983,14.983,0,0,1,4.194,4.08,14.87,14.87,0,0,1,1.3,14.477A14.842,14.842,0,0,1,37.329,36.4a.894.894,0,1,1-.9-1.547,13.279,13.279,0,0,0,5.41-6A13.044,13.044,0,0,0,37,12.538Zm-2.865,4.437a.9.9,0,1,1,.972-1.509,9.592,9.592,0,0,1-.422,16.356.9.9,0,1,1-.9-1.56,7.778,7.778,0,0,0,3.734-8.338,7.825,7.825,0,0,0-3.389-4.949Z" transform="translate(0 -0.001)" fill="#4c77ae"/><path d="M62.9,51.989a.9.9,0,0,0,0-1.8.9.9,0,1,0,0,1.8Z" transform="translate(-34.028 -27.546)" fill="#4c77ae" fill-rule="evenodd"/><path d="M56.884,86.471h3.453a2.751,2.751,0,0,1,1.918.793v.013a2.7,2.7,0,0,1,.793,1.906V103.4a1.813,1.813,0,0,1-.524,1.266h-.013a1.769,1.769,0,0,1-1.266.537H55.976a1.746,1.746,0,0,1-1.266-.537H54.7a1.834,1.834,0,0,1-.525-1.266V89.182a2.7,2.7,0,0,1,.793-1.906v-.013A2.751,2.751,0,0,1,56.884,86.471ZM61.245,100.9H55.976V103.4h5.269Zm-5.269-1.8h5.269V89.182a.917.917,0,0,0-.908-.908H56.884a.867.867,0,0,0-.639.268h-.013a.933.933,0,0,0-.256.64v9.911Z" transform="translate(-29.734 -47.462)" fill="#4c77ae"/></g></g></svg>