<svg xmlns="http://www.w3.org/2000/svg" width="120" height="120" viewBox="0 0 120 120">
  <g id="Grupo_1118471" data-name="Grupo 1118471" transform="translate(1537.949 5957.174)">
    <g id="Grupo_1118358" data-name="Grupo 1118358" transform="translate(-2627.949 -11313.36)">
      <g id="Grupo_1117618" data-name="Grupo 1117618" transform="translate(8226.898 14914.085)">
        <circle id="Elipse_8441" data-name="Elipse 8441" cx="60" cy="60" r="60" transform="translate(-7136.898 -9557.898)" fill="#f6d957" opacity="0.45"/>
        <circle id="Elipse_8442" data-name="Elipse 8442" cx="48" cy="48" r="48" transform="translate(-7124.898 -9545.898)" fill="#fff"/>
      </g>
      <g id="gps_1_" data-name="gps (1)" transform="translate(1118.402 5386.831)">
        <path id="Trazado_912426" data-name="Trazado 912426" d="M60.3,144.956a.9.9,0,0,0-.9.9v1.868a.539.539,0,0,1-.538.538H2.331a.539.539,0,0,1-.538-.538v-34.5a.539.539,0,0,1,.538-.538H3.885a.9.9,0,1,0,0-1.793H2.331A2.333,2.333,0,0,0,0,113.22v34.5a2.333,2.333,0,0,0,2.331,2.331H8.226l1.323,4.823a2.337,2.337,0,0,0,2.247,1.715H49.4a2.337,2.337,0,0,0,2.248-1.715l1.323-4.823h5.895A2.333,2.333,0,0,0,61.2,147.72v-1.868A.9.9,0,0,0,60.3,144.956ZM49.919,154.4a.539.539,0,0,1-.518.4H11.8a.539.539,0,0,1-.518-.4l-1.193-4.349H51.112Z" transform="translate(0 -99.877)" fill="#c5ae46"/>
        <path id="Trazado_912427" data-name="Trazado 912427" d="M96.286,29.773H88.755a7.671,7.671,0,1,0-13.811,0H45.488a.9.9,0,1,0,0,1.793H75.956l1.863,3.227H43.875A1.376,1.376,0,0,0,42.5,36.167V62.54a1.376,1.376,0,0,0,1.375,1.375H92.162a1.376,1.376,0,0,0,1.375-1.375V36.167a1.376,1.376,0,0,0-1.375-1.375H85.88l1.863-3.227h8.542a.539.539,0,0,1,.538.538V60.552a.9.9,0,0,0,1.793,0V32.1A2.334,2.334,0,0,0,96.286,29.773ZM72.02,46.727H91.744v5.254h-7.5a1.376,1.376,0,0,0-1.375,1.375v8.766H77.614V53.356a1.376,1.376,0,0,0-1.375-1.375H64.983a1.366,1.366,0,0,0-1.162.64l-6,9.5H51.605l5.074-8.033a1.374,1.374,0,0,0-1.162-2.108H53.9L56.79,50.5a1.135,1.135,0,0,0,0-2.022h0l-3.422-1.752H64.017a1.376,1.376,0,0,0,1.375-1.375V36.585h5.254v8.767a1.376,1.376,0,0,0,1.374,1.375Zm3.8,7.047v8.348H59.94l5.273-8.348Zm-25.214-4.73-.937-2.2,5.16,2.641-5.16,2.641.937-2.2A1.141,1.141,0,0,0,50.607,49.044ZM63.6,36.585v8.349H49.866l-1-.51a1.125,1.125,0,0,0-1.292.18,1.151,1.151,0,0,0-.246.329H44.293V36.585Zm-15.814,15.4H44.293V46.727h3.376l1.179,2.763Zm-3.492,1.793h2.945a1.133,1.133,0,0,0,1.632.781l1.525-.781h4.363l-5.273,8.348H44.293Zm40.368,8.348V53.774h7.083v8.348Zm7.083-25.536v8.349H72.438V36.585h6.416l1.8,3.126a1.375,1.375,0,0,0,2.381,0h0l1.805-3.126Zm-9.894,1.6-5.091-8.817a5.878,5.878,0,1,1,10.181,0Z" transform="translate(-37.42 -18.761)" fill="#c5ae46"/>
        <path id="Trazado_912428" data-name="Trazado 912428" d="M347.162,54.323a3.334,3.334,0,1,0,3.334,3.334,3.338,3.338,0,0,0-3.334-3.334Zm0,4.875a1.541,1.541,0,1,1,1.541-1.541A1.543,1.543,0,0,1,347.162,59.2Z" transform="translate(-302.732 -50.072)" fill="#c5ae46"/>
        <path id="Trazado_912429" data-name="Trazado 912429" d="M148.048,452.683h24.227a.9.9,0,0,0,0-1.793H148.048a.9.9,0,0,0,0,1.793Z" transform="translate(-129.564 -399.24)" fill="#c5ae46"/>
      </g>
    </g>
  </g>
</svg>
