<svg xmlns="http://www.w3.org/2000/svg" width="72" height="72" viewBox="0 0 72 72"><g transform="translate(-1 -1)"><path d="M56.742,1c-1.664,0-16.258.13-16.258,4.645v6.968h-9.29V4.484A3.488,3.488,0,0,0,27.71,1H4.484A3.488,3.488,0,0,0,1,4.484V23.065a3.488,3.488,0,0,0,3.484,3.484H14.935v4.645H4.484A3.488,3.488,0,0,0,1,34.677V53.258a3.488,3.488,0,0,0,3.484,3.484H14.935v2.536a3.475,3.475,0,1,0,4.431,4.431H41.645v5.806A3.488,3.488,0,0,0,45.129,73H68.355a3.488,3.488,0,0,0,3.484-3.484V50.935a3.488,3.488,0,0,0-3.484-3.484H57.9V42.593a3.464,3.464,0,0,0,0-6.54V31.18C61.8,31.094,73,30.5,73,26.548V5.645C73,1.13,58.406,1,56.742,1ZM70.677,12.523c-.563.88-5.61,2.412-13.935,2.412S43.37,13.4,42.806,12.523V8.282C47,10.217,55.5,10.29,56.742,10.29s9.747-.073,13.935-2.008Zm0,6.968c-.563.88-5.61,2.412-13.935,2.412S43.37,20.371,42.806,19.491V15.25C47,17.185,55.5,17.258,56.742,17.258s9.747-.073,13.935-2.008ZM56.742,3.323c8.048,0,13.04,1.432,13.872,2.323-.831.891-5.824,2.323-13.872,2.323S43.7,6.536,42.87,5.645C43.7,4.754,48.694,3.323,56.742,3.323Zm-52.258,0H27.71a1.162,1.162,0,0,1,1.161,1.161V10.29H3.323V4.484A1.162,1.162,0,0,1,4.484,3.323ZM3.323,23.065V12.613H28.871V23.065a1.162,1.162,0,0,1-1.161,1.161H4.484A1.162,1.162,0,0,1,3.323,23.065Zm13.935,3.484H27.71a3.488,3.488,0,0,0,3.484-3.484V14.935h9.29V26.548c0,3.955,11.2,4.545,15.1,4.631v4.873a3.48,3.48,0,0,0-2.109,2.109H31.194V34.677a3.488,3.488,0,0,0-3.484-3.484H17.258ZM4.484,33.516H27.71a1.162,1.162,0,0,1,1.161,1.161v5.806H3.323V34.677A1.162,1.162,0,0,1,4.484,33.516ZM3.323,53.258V42.806H28.871V53.258a1.162,1.162,0,0,1-1.161,1.161H4.484A1.162,1.162,0,0,1,3.323,53.258ZM16.1,63.71a1.161,1.161,0,1,1,1.161-1.161A1.162,1.162,0,0,1,16.1,63.71Zm52.258,6.968H45.129a1.162,1.162,0,0,1-1.161-1.161V59.065H69.516V69.516A1.162,1.162,0,0,1,68.355,70.677Zm1.161-19.742v5.806H43.968V50.935a1.162,1.162,0,0,1,1.161-1.161H68.355A1.162,1.162,0,0,1,69.516,50.935ZM45.129,47.452a3.488,3.488,0,0,0-3.484,3.484V61.387H19.367a3.48,3.48,0,0,0-2.109-2.109V56.742H27.71a3.488,3.488,0,0,0,3.484-3.484V40.484H53.472a3.48,3.48,0,0,0,2.109,2.109v4.859Zm11.613-6.968A1.161,1.161,0,1,1,57.9,39.323,1.162,1.162,0,0,1,56.742,40.484Zm0-11.613c-8.292,0-13.337-1.52-13.935-2.4V22.218C47,24.153,55.5,24.226,56.742,24.226s9.747-.073,13.935-2.008v4.251C70.079,27.351,65.034,28.871,56.742,28.871Z" fill="#4c77ae"/><path d="M13,5h2.323V7.323H13Z" transform="translate(1.935 0.645)" fill="#4c77ae"/><path d="M5,5H7.323V7.323H5Z" transform="translate(0.645 0.645)" fill="#4c77ae"/><path d="M9,5h2.323V7.323H9Z" transform="translate(1.29 0.645)" fill="#4c77ae"/><path d="M13,31h2.323v2.323H13Z" transform="translate(1.935 4.839)" fill="#4c77ae"/><path d="M5,31H7.323v2.323H5Z" transform="translate(0.645 4.839)" fill="#4c77ae"/><path d="M9,31h2.323v2.323H9Z" transform="translate(1.29 4.839)" fill="#4c77ae"/><path d="M40,45h2.323v2.323H40Z" transform="translate(6.29 7.097)" fill="#4c77ae"/><path d="M48,45h2.323v2.323H48Z" transform="translate(7.581 7.097)" fill="#4c77ae"/><path d="M44,45h2.323v2.323H44Z" transform="translate(6.935 7.097)" fill="#4c77ae"/><path d="M43.484,53a3.484,3.484,0,1,0,3.484,3.484A3.488,3.488,0,0,0,43.484,53Zm0,4.645a1.161,1.161,0,1,1,1.161-1.161A1.162,1.162,0,0,1,43.484,57.645Z" transform="translate(6.29 8.387)" fill="#4c77ae"/><path d="M48,53H59.613v2.323H48Z" transform="translate(7.581 8.387)" fill="#4c77ae"/><path d="M48,57h6.968v2.323H48Z" transform="translate(7.581 9.032)" fill="#4c77ae"/><path d="M56,57h2.323v2.323H56Z" transform="translate(8.871 9.032)" fill="#4c77ae"/><path d="M5,39H7.323v2.323H5Z" transform="translate(0.645 6.129)" fill="#4c77ae"/><path d="M9,39H25.258v2.323H9Z" transform="translate(1.29 6.129)" fill="#4c77ae"/><path d="M5,43H25.9v2.323H5Z" transform="translate(0.645 6.774)" fill="#4c77ae"/><path d="M17,19.968h6.968V13H17Zm2.323-4.645h2.323v2.323H19.323Z" transform="translate(2.581 1.935)" fill="#4c77ae"/><path d="M5,13H16.613v2.323H5Z" transform="translate(0.645 1.935)" fill="#4c77ae"/><path d="M5,17h6.968v2.323H5Z" transform="translate(0.645 2.581)" fill="#4c77ae"/><path d="M13,17h2.323v2.323H13Z" transform="translate(1.935 2.581)" fill="#4c77ae"/></g></svg>