<svg xmlns="http://www.w3.org/2000/svg" width="73.846" height="73.854" viewBox="0 0 73.846 73.854"><path d="M72.071,43.572l-3.39-1.354a21.361,21.361,0,0,0-1.969-4.74l1.431-3.354a2.625,2.625,0,0,0-.394-2.763,25.47,25.47,0,0,0-3.112-3.113,2.622,2.622,0,0,0-2.761-.4l-3.355,1.433a21.485,21.485,0,0,0-4.739-1.969l-1.354-3.387a2.7,2.7,0,0,0-.739-1.009V9.847C51.691,3.446,38.374,0,25.843,0S0,3.446,0,9.847V54.157C0,60.558,13.317,64,25.848,64c.677,0,1.331-.023,1.99-.041a2.538,2.538,0,0,0,.411.686,25.644,25.644,0,0,0,3.112,3.113,2.625,2.625,0,0,0,2.761.4l3.355-1.433a21.485,21.485,0,0,0,4.739,1.969l1.354,3.387a2.68,2.68,0,0,0,2.216,1.669c.767.069,1.535.1,2.282.1a21.563,21.563,0,0,0,2.156-.1,2.682,2.682,0,0,0,2.216-1.671l1.354-3.385a21.484,21.484,0,0,0,4.739-1.969l3.353,1.431a2.63,2.63,0,0,0,2.763-.4,25.549,25.549,0,0,0,3.112-3.112,2.623,2.623,0,0,0,.4-2.76l-1.433-3.358a21.362,21.362,0,0,0,1.96-4.744l3.391-1.354a2.678,2.678,0,0,0,1.663-2.2,22.5,22.5,0,0,0,0-4.451A2.682,2.682,0,0,0,72.071,43.572ZM25.848,2.462c13.786,0,23.386,3.892,23.386,7.385s-9.6,7.385-23.386,7.385S2.462,13.34,2.462,9.847,12.062,2.462,25.848,2.462ZM2.462,14.23c4.42,3.573,14.115,5.464,23.386,5.464S44.814,17.8,49.234,14.23v7.983a23.315,23.315,0,0,0-3.446.044,2.682,2.682,0,0,0-2.216,1.671l-1.354,3.385a21.484,21.484,0,0,0-4.739,1.969l-3.353-1.431a2.619,2.619,0,0,0-2.764.4,25.7,25.7,0,0,0-3.11,3.112,2.537,2.537,0,0,0-.378.6c-.672.02-1.343.047-2.026.047C12.062,32,2.462,28.11,2.462,24.617Zm0,14.77c4.42,3.573,14.115,5.464,23.386,5.464.719,0,1.425-.028,2.132-.052l1.307,3.062a21.362,21.362,0,0,0-1.962,4.744l-3.391,1.354a2.678,2.678,0,0,0-1.663,2.2c-.03.3-.027.593-.044.89-11.87-.631-19.765-4.19-19.765-7.278ZM28.02,61.494c-.718.025-1.434.048-2.172.048-13.786,0-23.386-3.892-23.386-7.385V43.688c3.215,2.694,9.673,4.943,19.749,5.435.018.369.018.739.055,1.108a2.678,2.678,0,0,0,1.669,2.216L27.32,53.8a21.362,21.362,0,0,0,1.969,4.74ZM71.29,50a.22.22,0,0,1-.132.15L67.2,51.73a1.231,1.231,0,0,0-.739.848,18.924,18.924,0,0,1-2.169,5.227,1.231,1.231,0,0,0-.078,1.119l1.676,3.93a.192.192,0,0,1-.015.206,23.262,23.262,0,0,1-2.831,2.831.194.194,0,0,1-.194,0l-3.924-1.675a1.231,1.231,0,0,0-1.118.078,18.912,18.912,0,0,1-5.225,2.172,1.231,1.231,0,0,0-.848.738l-1.58,3.957a.213.213,0,0,1-.164.138A21.77,21.77,0,0,1,46,71.3a.212.212,0,0,1-.149-.134L44.272,67.2a1.231,1.231,0,0,0-.848-.739A18.912,18.912,0,0,1,38.2,64.3a1.231,1.231,0,0,0-1.118-.078L33.153,65.9a.188.188,0,0,1-.208-.018,23.24,23.24,0,0,1-2.825-2.831.193.193,0,0,1,0-.193L31.8,58.927a1.231,1.231,0,0,0-.078-1.119,18.924,18.924,0,0,1-2.169-5.227,1.231,1.231,0,0,0-.739-.848l-3.955-1.579A.224.224,0,0,1,24.718,50v-.014a20.07,20.07,0,0,1,0-3.987.22.22,0,0,1,.132-.15l3.961-1.582a1.231,1.231,0,0,0,.739-.848,18.924,18.924,0,0,1,2.169-5.227,1.231,1.231,0,0,0,.078-1.119l-1.678-3.928a.192.192,0,0,1,.015-.206,23.44,23.44,0,0,1,2.831-2.831.2.2,0,0,1,.194,0l3.924,1.675a1.221,1.221,0,0,0,1.118-.078,18.912,18.912,0,0,1,5.225-2.168,1.231,1.231,0,0,0,.848-.739l1.58-3.957a.213.213,0,0,1,.164-.138,21.552,21.552,0,0,1,3.987,0,.212.212,0,0,1,.149.134L51.734,28.8a1.231,1.231,0,0,0,.848.739,18.912,18.912,0,0,1,5.227,2.169,1.221,1.221,0,0,0,1.118.078l3.926-1.676a.19.19,0,0,1,.208.018,23.152,23.152,0,0,1,2.831,2.831.193.193,0,0,1,0,.193l-1.675,3.926a1.231,1.231,0,0,0,.078,1.119,18.924,18.924,0,0,1,2.169,5.227,1.231,1.231,0,0,0,.739.848l3.955,1.579a.223.223,0,0,1,.139.166A20.071,20.071,0,0,1,71.29,50Z" fill="#4c77ae"/><path d="M42,26A16,16,0,1,0,58,42,16,16,0,0,0,42,26Zm0,29.54A13.539,13.539,0,1,1,55.54,42,13.539,13.539,0,0,1,42,55.54Z" transform="translate(6.002 6.002)" fill="#4c77ae"/><path d="M40.847,31a9.847,9.847,0,1,0,9.847,9.847A9.847,9.847,0,0,0,40.847,31Zm0,17.232a7.385,7.385,0,1,1,7.385-7.385A7.385,7.385,0,0,1,40.847,48.232Z" transform="translate(7.156 7.156)" fill="#4c77ae"/><path d="M4.709,19.546c.412.193.848.379,1.3.559a1.231,1.231,0,1,0,.9-2.29q-.608-.24-1.161-.5a1.231,1.231,0,1,0-1.044,2.23Z" transform="translate(0.923 3.97)" fill="#4c77ae"/><path d="M9.956,21.277q.622.146,1.268.276a1.176,1.176,0,0,0,.246.023,1.231,1.231,0,0,0,.246-2.437c-.406-.081-.8-.169-1.194-.258a1.231,1.231,0,1,0-.559,2.4Z" transform="translate(2.073 4.349)" fill="#4c77ae"/></svg>