<svg xmlns="http://www.w3.org/2000/svg" width="120" height="120" viewBox="0 0 120 120">
  <g id="Grupo_1118477" data-name="Grupo 1118477" transform="translate(-8954 10953)">
    <g id="Grupo_1117992" data-name="Grupo 1117992" transform="translate(16090.898 -1395.102)">
      <circle id="Elipse_8441" data-name="Elipse 8441" cx="60" cy="60" r="60" transform="translate(-7136.898 -9557.898)" fill="#bfd4ef" opacity="0.45"/>
      <circle id="Elipse_8442" data-name="Elipse 8442" cx="48" cy="48" r="48" transform="translate(-7124.898 -9545.898)" fill="#fbfcfd"/>
    </g>
    <g id="drone-de-camara" transform="translate(8981.551 -10968.928)">
      <path id="Trazado_912800" data-name="Trazado 912800" d="M65.33,67.057H61.6v-5.2a2.287,2.287,0,0,0-2.285-2.285h-.152V55.3h6.6a1,1,0,0,0,0-2h-6.6v-.9a1,1,0,0,0-2,0v.9H50.42a1,1,0,0,0,0,2h6.742v4.27H57.01a2.287,2.287,0,0,0-2.285,2.285v5.2H52.109a1,1,0,0,0-.44.1l-1.252.613-2.053-1.428a25.034,25.034,0,0,0-28.6,0L17.66,67.81l-1.33-.651a1,1,0,0,0-.44-.1H13.408v-5.2a2.287,2.287,0,0,0-2.285-2.285h-.152V55.3h6.742a1,1,0,1,0,0-2H10.971v-.9a1,1,0,0,0-2,0v.9h-6.6a1,1,0,0,0,0,2h6.6v4.27H8.819a2.287,2.287,0,0,0-2.285,2.285v5.2H2.67A2.673,2.673,0,0,0,0,69.727v1.624a2.673,2.673,0,0,0,2.67,2.67h8.489L6.736,79.984a2.481,2.481,0,0,0-.485,1.468v2.556a1,1,0,0,0,2,0V81.453a.468.468,0,0,1,.092-.277l4.871-6.569,3.635,4.108-5.168,3.6a2.466,2.466,0,0,0-1.056,2.022v6.435a1.187,1.187,0,1,1-2.374,0v-2.5a1,1,0,0,0-2,0v2.5a3.187,3.187,0,1,0,6.373,0V84.336a.465.465,0,0,1,.2-.382l5.359-3.732,2.694,3.045a7.972,7.972,0,0,0,5.967,2.687h3.54v2.9H27.3a3.686,3.686,0,0,0-2.7,1.178H22.276a2.712,2.712,0,0,0-2.709,2.709v9.073a2.712,2.712,0,0,0,2.709,2.709h2.317a3.686,3.686,0,0,0,2.7,1.178H40.838a3.686,3.686,0,0,0,2.7-1.178h2.317a2.712,2.712,0,0,0,2.709-2.709V92.739a2.712,2.712,0,0,0-2.709-2.709H43.541a3.686,3.686,0,0,0-2.7-1.178H37.616v-2.9h3.54a7.973,7.973,0,0,0,5.967-2.687l2.695-3.045,5.359,3.733a.465.465,0,0,1,.2.382v6.435a3.187,3.187,0,1,0,6.373,0V81.453a2.482,2.482,0,0,0-.485-1.468l-4.423-5.964H65.33A2.673,2.673,0,0,0,68,71.351V69.727a2.673,2.673,0,0,0-2.67-2.67ZM22.276,102.522a.71.71,0,0,1-.709-.709V92.739a.71.71,0,0,1,.709-.709h1.359a3.7,3.7,0,0,0-.037.519V102a3.7,3.7,0,0,0,.037.519H22.276ZM45.857,92.03a.71.71,0,0,1,.709.709v9.073a.71.71,0,0,1-.709.709H44.5a3.7,3.7,0,0,0,.037-.519V92.549a3.7,3.7,0,0,0-.037-.519h1.359Zm-3.322.519V102a1.7,1.7,0,0,1-1.7,1.7H27.3a1.7,1.7,0,0,1-1.7-1.7V92.549a1.7,1.7,0,0,1,1.7-1.7H40.838A1.7,1.7,0,0,1,42.535,92.549Zm-10.151-3.7v-2.9h3.232v2.9ZM57.01,61.57h2.3a.285.285,0,0,1,.285.285v1.539H56.725V61.855A.285.285,0,0,1,57.01,61.57Zm-.285,3.823H59.6v1.664H56.725ZM8.819,61.57h2.3a.285.285,0,0,1,.285.285v1.539H8.534V61.855A.285.285,0,0,1,8.819,61.57Zm-.285,3.823h2.875v1.664H8.534ZM41.155,83.955H26.845a5.972,5.972,0,0,1-4.47-2.013l-.6-.674H46.221l-.6.674a5.972,5.972,0,0,1-4.47,2.013Zm18.594-2.5v9.318a1.187,1.187,0,1,1-2.374,0V84.336a2.465,2.465,0,0,0-1.056-2.022l-5.168-3.6,3.635-4.108,4.871,6.569a.468.468,0,0,1,.092.277ZM66,71.351a.671.671,0,0,1-.67.67H54.855a1,1,0,0,0-.749.337l-6.116,6.911H20.01l-6.116-6.911a1,1,0,0,0-.749-.337H2.67a.671.671,0,0,1-.67-.67V69.727a.671.671,0,0,1,.67-.67H15.66L25.15,73.7a3.136,3.136,0,0,0,1.371.318h7.965a1,1,0,0,0,0-2H26.521a1.126,1.126,0,0,1-.492-.114l-6.313-3.091,1.2-.831a23.035,23.035,0,0,1,26.312,0l1.14.793-6.391,3.129a1.125,1.125,0,0,1-.492.114H38.746a1,1,0,0,0,0,2h2.733a3.136,3.136,0,0,0,1.371-.318l9.49-4.646H65.33a.671.671,0,0,1,.67.67Z" fill="#4c77ae"/>
      <path id="Trazado_912801" data-name="Trazado 912801" d="M208.127,371.163h4.786a1,1,0,0,0,0-2h-3.893v-4.849h8.938v4.849h-.785a1,1,0,1,0,0,2h1.678a1.107,1.107,0,0,0,1.106-1.106v-6.636a1.108,1.108,0,0,0-1.106-1.106H208.127a1.108,1.108,0,0,0-1.106,1.106v6.636A1.107,1.107,0,0,0,208.127,371.163Z" transform="translate(-179.423 -269.463)" fill="#4c77ae"/>
      <path id="Trazado_912802" data-name="Trazado 912802" d="M247,388h-.952a1,1,0,1,0,0,2H247a1,1,0,1,0,0-2Z" transform="translate(-212.38 -291.725)" fill="#4c77ae"/>
    </g>
  </g>
</svg>
