<svg xmlns="http://www.w3.org/2000/svg" width="68.025" height="80.559" viewBox="0 0 68.025 80.559"><path d="M106.678,57.877a1.18,1.18,0,0,0,1.18-1.18V10.647a4.332,4.332,0,0,0-4.327-4.327H80.139V3.828A3.832,3.832,0,0,0,76.312,0H71.379a3.832,3.832,0,0,0-3.827,3.828V6.32H44.16a4.332,4.332,0,0,0-4.327,4.327V70.018a4.332,4.332,0,0,0,4.327,4.327H67.552v5.035a1.18,1.18,0,1,0,2.36,0V74.344h7.867v5.035a1.18,1.18,0,1,0,2.36,0V74.344h23.392a4.332,4.332,0,0,0,4.327-4.327V62.987a1.18,1.18,0,0,0-2.36,0v7.031a1.969,1.969,0,0,1-1.967,1.967H44.16a1.969,1.969,0,0,1-1.967-1.967V10.647A1.969,1.969,0,0,1,44.16,8.68h59.371a1.969,1.969,0,0,1,1.967,1.967V56.7A1.18,1.18,0,0,0,106.678,57.877ZM69.912,3.828A1.469,1.469,0,0,1,71.379,2.36h4.933a1.469,1.469,0,0,1,1.467,1.468V6.32H69.912Z" transform="translate(-39.833 0)" fill="#4c77ae"/><path d="M72.246,83.409a1.208,1.208,0,0,0-2.413,0V127.57a1.18,1.18,0,0,0,1.18,1.18h56.224a1.18,1.18,0,0,0,1.18-1.18V71.346a1.18,1.18,0,0,0-1.18-1.18H71.013a1.18,1.18,0,0,0-1.18,1.18v5.771c0,1.743,2.88,1.332,2.36-.351v-4.24h53.864V126.39H72.193s.053-42.859.053-42.981Z" transform="translate(-65.113 -59.126)" fill="#4c77ae"/><path d="M165.051,142.191h-16.71a6.7,6.7,0,0,0-6.688,6.688V152.2a3.081,3.081,0,0,0-3.5,2.956v5.567a1.18,1.18,0,1,0,2.36,0v-5.567c0-.578.71-.686,1.139-.6v21.226a2.7,2.7,0,0,0,2.695,2.695h2.7a2.7,2.7,0,0,0,2.695-2.695v-1.146H163.65v1.146a2.7,2.7,0,0,0,2.695,2.695h2.7a2.7,2.7,0,0,0,2.695-2.695V154.556c.43-.09,1.139.017,1.139.6v5.567a1.18,1.18,0,1,0,2.36,0v-5.567a3.081,3.081,0,0,0-3.5-2.956v-3.317a6.7,6.7,0,0,0-6.688-6.688Zm-21.038,6.688a4.333,4.333,0,0,1,4.328-4.328h16.71a4.333,4.333,0,0,1,4.328,4.328v23.4H144.014Zm3.368,26.9a.335.335,0,0,1-.335.335h-2.7a.335.335,0,0,1-.335-.335v-1.146h3.368Zm22,0a.335.335,0,0,1-.335.335h-2.7a.335.335,0,0,1-.335-.335v-1.146h3.368Z" transform="translate(-122.684 -119.818)" fill="#4c77ae"/><path d="M188.449,206.327h19.269a1.18,1.18,0,0,0,1.18-1.18V195.8a2.689,2.689,0,0,0-2.686-2.686H189.955a2.689,2.689,0,0,0-2.686,2.686v9.351A1.18,1.18,0,0,0,188.449,206.327Zm1.18-10.53a.326.326,0,0,1,.326-.326h16.256a.326.326,0,0,1,.326.326v8.17H189.629Z" transform="translate(-164.071 -162.726)" fill="#4c77ae"/><path d="M221.18,170.47h8.969a1.18,1.18,0,0,0,0-2.36H221.18a1.18,1.18,0,1,0,0,2.36Z" transform="translate(-191.652 -141.659)" fill="#4c77ae"/><path d="M194.779,305.29a1.18,1.18,0,0,0-1.18-1.18h-5.15a1.18,1.18,0,0,0,0,2.36h5.15A1.18,1.18,0,0,0,194.779,305.29Z" transform="translate(-164.071 -256.26)" fill="#4c77ae"/><path d="M283.33,304.11h-5.15a1.18,1.18,0,0,0,0,2.36h5.15a1.18,1.18,0,1,0,0-2.36Z" transform="translate(-239.683 -256.26)" fill="#4c77ae"/></svg>