<svg xmlns="http://www.w3.org/2000/svg" width="120" height="120" viewBox="0 0 120 120">
  <g id="Grupo_1118469" data-name="Grupo 1118469" transform="translate(-14574.318 9040.962)">
    <g id="Grupo_1117618" data-name="Grupo 1117618" transform="translate(21711.217 516.937)">
      <circle id="Elipse_8441" data-name="Elipse 8441" cx="60" cy="60" r="60" transform="translate(-7136.898 -9557.898)" fill="#f6d957" opacity="0.45"/>
      <circle id="Elipse_8442" data-name="Elipse 8442" cx="48" cy="48" r="48" transform="translate(-7124.898 -9545.898)" fill="#fff"/>
    </g>
    <g id="Outline" transform="translate(14609.068 -9011.426)">
      <path id="Trazado_914788" data-name="Trazado 914788" d="M87.974,34.155l-1.139-1.139V27.17a1.015,1.015,0,0,0-1.015-1.015H79.974L77.819,24a3.026,3.026,0,0,0-2.154-.892H69.573V22.093A6.1,6.1,0,0,0,63.48,16H41.139a6.1,6.1,0,0,0-6.093,6.093v44.68H33.015A1.015,1.015,0,0,0,32,67.789v8.124a1.015,1.015,0,0,0,1.015,1.015h39.6V74.9H34.031V68.8H68.557a1.015,1.015,0,0,0,1.015-1.015V51.541h1.015A1.017,1.017,0,0,1,71.6,52.557V68.3a8.632,8.632,0,0,0,17.263,0V36.309A3.027,3.027,0,0,0,87.974,34.155ZM76.383,25.437l2.452,2.452a1.015,1.015,0,0,0,.718.3H84.8v5.251a1.015,1.015,0,0,0,.3.718l1.436,1.436a1.009,1.009,0,0,1,.3.718V48.495H84.8V37.15a1.015,1.015,0,0,0-.3-.718L81.635,33.56a1.016,1.016,0,0,0-.718-.3H75.673c0-2.763-.007-5.08-.007-5.08A1.015,1.015,0,0,0,74.65,27.17H73.634V25.139h2.031A1.009,1.009,0,0,1,76.383,25.437Zm-5.8,20.012H69.573V29.2h4.064c0,1.122.007,10.677,0,12.176A4.061,4.061,0,0,0,77.7,45.448h5.073V68.3a2.539,2.539,0,0,1-5.077,0V52.557a7.116,7.116,0,0,0-7.108-7.108ZM80.5,35.294l2.277,2.277v1.785H79.727V35.294Zm-1.785,6.093h4.062v2.031H77.7a2.03,2.03,0,0,1-2.031-2.035c0-1.253,0-4.152,0-6.088H77.7v5.077A1.015,1.015,0,0,0,78.712,41.387ZM71.6,25.139V27.17H69.573V25.139ZM37.077,66.773V22.093a4.066,4.066,0,0,1,4.062-4.062H63.48a4.066,4.066,0,0,1,4.062,4.062v44.68ZM86.836,68.3a6.6,6.6,0,0,1-13.2,0V52.557a3.05,3.05,0,0,0-3.046-3.046H69.573V47.479h1.015a5.083,5.083,0,0,1,5.077,5.077V68.3a4.57,4.57,0,0,0,9.139,0V50.526h2.031Z" transform="translate(-32 -16)" fill="#c5ae46"/>
      <path id="Trazado_914789" data-name="Trazado 914789" d="M119.356,64H97.015A1.015,1.015,0,0,0,96,65.015V81.263a1.015,1.015,0,0,0,1.015,1.015h22.34a1.015,1.015,0,0,0,1.015-1.015V65.015A1.015,1.015,0,0,0,119.356,64ZM118.34,80.247H98.031V66.031H118.34Z" transform="translate(-87.876 -57.907)" fill="#c5ae46"/>
      <path id="Trazado_914790" data-name="Trazado 914790" d="M136,128h2.031v2.031H136Z" transform="translate(-122.799 -113.784)" fill="#c5ae46"/>
      <path id="Trazado_914791" data-name="Trazado 914791" d="M168,128h2.031v2.031H168Z" transform="translate(-150.735 -113.784)" fill="#c5ae46"/>
      <path id="Trazado_914792" data-name="Trazado 914792" d="M200,128h2.031v2.031H200Z" transform="translate(-178.675 -113.784)" fill="#c5ae46"/>
      <path id="Trazado_914793" data-name="Trazado 914793" d="M232,128h2.031v2.031H232Z" transform="translate(-206.611 -113.784)" fill="#c5ae46"/>
      <path id="Trazado_914794" data-name="Trazado 914794" d="M149.178,262.7a5.542,5.542,0,0,0,9.7-5.321l-4.1-8.791a1.015,1.015,0,0,0-1.841,0l-4.1,8.791A5.517,5.517,0,0,0,149.178,262.7Zm1.493-4.462,3.182-6.819,3.182,6.819a3.511,3.511,0,1,1-6.364,0Z" transform="translate(-133.544 -218.551)" fill="#c5ae46"/>
    </g>
  </g>
</svg>
