<svg xmlns="http://www.w3.org/2000/svg" width="121.5" height="107.604" viewBox="0 0 121.5 107.604"><g transform="translate(-1 -98)"><g transform="translate(1 98)"><g transform="translate(0 0)"><g transform="translate(5.273 17.53)"><path d="M184.457,418.753H76.425A1.461,1.461,0,0,1,75,417.328V347.777A3.8,3.8,0,0,1,78.777,344H139.99a1.458,1.458,0,0,1,1.425,1.283c.57,5.416,7.981,18.029,12.756,26.082a5.741,5.741,0,0,1,5.273,0c4.774-8.052,12.186-20.666,12.756-26.082A1.406,1.406,0,0,1,173.625,344h8.48a3.756,3.756,0,0,1,3.777,3.777v69.551A1.429,1.429,0,0,1,184.457,418.753ZM77.85,415.9H183.032V347.777a.943.943,0,0,0-.926-.926h-7.269c-1.425,6.7-8.623,18.742-13.468,26.937l-.285.428a1.324,1.324,0,0,1-1.069.641,1.367,1.367,0,0,1-1.211-.428,2.588,2.588,0,0,0-2-.855,2.854,2.854,0,0,0-2.067.855,1.182,1.182,0,0,1-1.14.428,1.229,1.229,0,0,1-1.069-.641l-.285-.428c-4.846-8.2-12.043-20.238-13.468-26.937h-60a.943.943,0,0,0-.926.926Z" transform="translate(-75 -344)" fill="#4c77ae" fill-rule="evenodd"/></g><g transform="translate(0 89.433)"><path d="M114.59,1371.172H8.91a7.938,7.938,0,0,1-7.91-7.91v-8.836A1.429,1.429,0,0,1,2.425,1353h118.65a1.429,1.429,0,0,1,1.425,1.425v8.836A7.938,7.938,0,0,1,114.59,1371.172ZM3.85,1355.85v7.411a5.079,5.079,0,0,0,5.06,5.059H114.59a5.079,5.079,0,0,0,5.06-5.059v-7.411Z" transform="translate(-1 -1353)" fill="#4c77ae" fill-rule="evenodd"/></g><g transform="translate(43.327 89.433)"><path d="M642.35,1362.763H610.425a1.429,1.429,0,0,1-1.425-1.425v-6.912a1.429,1.429,0,0,1,1.425-1.425H642.35a1.429,1.429,0,0,1,1.425,1.425v6.912A1.429,1.429,0,0,1,642.35,1362.763Zm-30.5-2.85h29.074v-4.062H611.85Z" transform="translate(-609 -1353)" fill="#4c77ae" fill-rule="evenodd"/></g><g transform="translate(68.838)"><path d="M988.307,146.457a1.516,1.516,0,0,1-1.069-.5,2.588,2.588,0,0,0-2-.855,2.854,2.854,0,0,0-2.067.855,1.182,1.182,0,0,1-1.14.428,1.229,1.229,0,0,1-1.069-.641l-.285-.428c-7.2-12.186-13.682-23.516-13.682-29a18.243,18.243,0,1,1,36.486,0c0,5.487-6.485,16.818-13.682,29l-.285.428a1.324,1.324,0,0,1-1.069.641C988.378,146.386,988.378,146.457,988.307,146.457Zm-3.064-4.2a5.548,5.548,0,0,1,2.637.641c4.988-8.409,12.756-21.592,12.756-26.58a15.393,15.393,0,1,0-30.785,0c0,4.988,7.7,18.172,12.756,26.58A5.548,5.548,0,0,1,985.243,142.253Z" transform="translate(-967 -98)" fill="#4c77ae" fill-rule="evenodd"/></g><g transform="translate(74.682 5.843)"><path d="M1061.4,204.87a12.435,12.435,0,1,1,12.4-12.4A12.408,12.408,0,0,1,1061.4,204.87Zm0-22.02a9.585,9.585,0,1,0,9.549,9.62A9.611,9.611,0,0,0,1061.4,182.85Z" transform="translate(-1049 -180)" fill="#4c77ae" fill-rule="evenodd"/></g><g transform="translate(41.815 51.45)"><path d="M589.231,842.518a1.369,1.369,0,0,1-.855-.285,1.394,1.394,0,0,1-.285-2l8.124-10.689a1.439,1.439,0,0,1,2-.214,1.521,1.521,0,0,1,.285,2l-8.124,10.618A1.488,1.488,0,0,1,589.231,842.518Zm24.3-2.993a1.407,1.407,0,0,1-1-.428,1.378,1.378,0,0,1,0-2l16.533-16.675a1.378,1.378,0,0,1,2,0,1.462,1.462,0,0,1,0,2.067l-16.533,16.6A1.407,1.407,0,0,1,613.531,839.526Zm-5.558-.356a1.488,1.488,0,0,1-1.14-.57l-5.558-7.269a1.448,1.448,0,0,1,2.28-1.782l5.558,7.34a1.4,1.4,0,0,1-.285,2A1.746,1.746,0,0,1,607.973,839.169Z" transform="translate(-587.791 -820)" fill="#4c77ae" fill-rule="evenodd"/></g><g transform="translate(35.488 70.548)"><path d="M504.63,1099.259a5.63,5.63,0,1,1,5.63-5.63A5.6,5.6,0,0,1,504.63,1099.259Zm0-8.409a2.779,2.779,0,1,0,2.779,2.779A2.738,2.738,0,0,0,504.63,1090.85Z" transform="translate(-499 -1088)" fill="#4c77ae" fill-rule="evenodd"/></g><g transform="translate(48.244 52.876)"><path d="M683.63,851.331a5.665,5.665,0,1,1,5.7-5.7A5.7,5.7,0,0,1,683.63,851.331Zm0-8.48a2.815,2.815,0,0,0,0,5.63,2.815,2.815,0,1,0,0-5.63Z" transform="translate(-678 -840)" fill="#4c77ae" fill-rule="evenodd"/></g><g transform="translate(58.933 66.914)"><path d="M833.63,1048.259a5.63,5.63,0,1,1,5.63-5.63A5.6,5.6,0,0,1,833.63,1048.259Zm0-8.409a2.779,2.779,0,1,0,2.779,2.779A2.738,2.738,0,0,0,833.63,1039.85Z" transform="translate(-828 -1037)" fill="#4c77ae" fill-rule="evenodd"/></g><g transform="translate(81.451 44.253)"><path d="M1149.63,730.331a5.665,5.665,0,1,1,5.63-5.7A5.657,5.657,0,0,1,1149.63,730.331Zm0-8.48a2.815,2.815,0,1,0,2.779,2.779A2.783,2.783,0,0,0,1149.63,721.85Z" transform="translate(-1144 -719)" fill="#4c77ae" fill-rule="evenodd"/></g><g transform="translate(13.825 31.711)"><path d="M220.013,545.85H196.425a1.425,1.425,0,1,1,0-2.85h23.587a1.425,1.425,0,1,1,0,2.85Z" transform="translate(-195 -543)" fill="#4c77ae" fill-rule="evenodd"/></g><g transform="translate(13.825 37.626)"><path d="M233.053,628.85H196.425a1.425,1.425,0,0,1,0-2.85h36.628a1.425,1.425,0,0,1,0,2.85Z" transform="translate(-195 -626)" fill="#4c77ae" fill-rule="evenodd"/></g></g></g></g></svg>