<svg xmlns="http://www.w3.org/2000/svg" width="120" height="120" viewBox="0 0 120 120">
  <g id="Grupo_1118471" data-name="Grupo 1118471" transform="translate(-11317 9322)">
    <g id="Grupo_1118341" data-name="Grupo 1118341" transform="translate(4348 -3068)">
      <g id="Grupo_1117992" data-name="Grupo 1117992" transform="translate(14105.898 3303.898)">
        <circle id="Elipse_8441" data-name="Elipse 8441" cx="60" cy="60" r="60" transform="translate(-7136.898 -9557.898)" fill="#bfd4ef" opacity="0.45"/>
        <circle id="Elipse_8442" data-name="Elipse 8442" cx="48" cy="48" r="48" transform="translate(-7124.898 -9545.898)" fill="#fbfcfd"/>
      </g>
    </g>
    <path id="recopilacion-de-datos" d="M62.132,20.607h1.635a.6.6,0,0,0,.6-.6V18.375l-2.232,2.232ZM65.748,17.4H76.181a.6.6,0,0,1,.6.6V37.2a.6.6,0,0,1-.6.6H61.75a.6.6,0,0,1-.6-.6v-15.2h2.613a1.984,1.984,0,0,0,1.982-1.982V17.4Zm-44.74,3.211h1.635a.6.6,0,0,0,.6-.6V18.375l-2.232,2.232ZM24.625,17.4H35.057a.6.6,0,0,1,.6.6V37.2a.6.6,0,0,1-.6.6H20.627a.6.6,0,0,1-.6-.6v-15.2h2.613a1.984,1.984,0,0,0,1.982-1.982V17.4Zm4.541,6.34.712.191-7.485,4.321a.691.691,0,1,0,.692,1.2l7.483-4.32-.191.713a.691.691,0,0,0,1.336.357l.623-2.324a.691.691,0,0,0-.489-.846L29.523,22.4a.691.691,0,0,0-.357,1.336Zm12.4-3.129H43.2a.6.6,0,0,0,.6-.6V18.375L41.57,20.607ZM45.186,17.4H55.619a.6.6,0,0,1,.6.6V37.2a.6.6,0,0,1-.6.6H41.189a.6.6,0,0,1-.6-.6v-15.2H43.2a1.984,1.984,0,0,0,1.982-1.982V17.4Zm13.4,34.081A5.243,5.243,0,1,0,62.3,53a5.209,5.209,0,0,0-3.712-1.527Zm-4.679.571a6.623,6.623,0,1,1,.021,9.365,6.628,6.628,0,0,1-.021-9.365ZM68.705,65.514l-.613-.552a2.181,2.181,0,0,0-1.2,1.2l.559.616a2.663,2.663,0,0,0,1.253-1.265Zm7.938,7.146a1.257,1.257,0,0,1,.409.957,1.437,1.437,0,0,1-2.42,1.064l-6.226-6.853a4.006,4.006,0,0,0,1.354-1.365ZM49.107,55.482a9.586,9.586,0,0,0,11.512,10.6l-2.857,6.833a2.132,2.132,0,0,1-1.707,1.227H32.371c-.46,0-.483-.317-.324-.7l7-16.739a2.132,2.132,0,0,1,1.707-1.227h8.355Zm1.1-3.379H44.471a.689.689,0,0,1-.406-.131L39.294,48.5H33.508a1.546,1.546,0,0,0-1.537,1.535l-.009,20.033,5.807-13.889A3.506,3.506,0,0,1,40.752,54.1h8.639A9.521,9.521,0,0,1,50.21,52.1Zm.4,2.783a8.2,8.2,0,1,1,14.842,6.341,1.345,1.345,0,0,0,.174,1.7l1.184,1.178a3.5,3.5,0,0,0-.781.781L64.85,63.712a1.345,1.345,0,0,0-1.7-.165,8.2,8.2,0,0,1-12.535-8.661Zm-1.175-30.23h4.029a.692.692,0,1,0,0-1.384H49.438a.692.692,0,0,0,0,1.384Zm-6.1,0h3.211a.692.692,0,0,0,0-1.384H43.34a.692.692,0,0,0,0,1.384Zm0,3.63H53.467a.692.692,0,1,0,0-1.384H43.34a.692.692,0,0,0,0,1.384Zm8.114,3.63h2.013a.692.692,0,1,0,0-1.384H51.454a.692.692,0,0,0,0,1.384Zm-8.114,0h5.227a.692.692,0,0,0,0-1.384H43.34a.692.692,0,0,0,0,1.384Zm0,3.63h7.793a.692.692,0,0,0,0-1.384H43.34a.692.692,0,0,0,0,1.384Zm3.577-14.521h6.549a.692.692,0,1,0,0-1.384H46.918a.692.692,0,1,0,0,1.384ZM22.047,32.657V36.75a.692.692,0,0,0,1.384,0V32.657a.692.692,0,1,0-1.384,0Zm3.4-1.964V36.75a.692.692,0,1,0,1.384,0V30.693a.692.692,0,1,0-1.384,0Zm3.4-1.964V36.75a.692.692,0,0,0,1.384,0V28.729a.692.692,0,0,0-1.384,0Zm3.4-1.969v9.99a.692.692,0,0,0,1.384,0V26.76a.692.692,0,0,0-1.384,0Zm32.022-1.626a3.811,3.811,0,1,0,5.389,0,3.811,3.811,0,0,0-5.389,0Zm6.055,6.657,2.933,3.655a.964.964,0,0,0,1.513-.814.7.7,0,0,0-.189-.511L70.93,31.19l-.6.6Zm1.349-1.766a5.2,5.2,0,1,0-2.514,2.514l2.974,3.719a2.022,2.022,0,0,0,1.644.757A2.32,2.32,0,0,0,75.4,33l-3.719-2.974ZM66.3,26.681a1.329,1.329,0,0,1,1.973.93.69.69,0,1,0,1.363-.222,2.712,2.712,0,0,0-4.028-1.9.691.691,0,0,0,.692,1.2ZM49.1,39.178v5.768h17.6a1.583,1.583,0,0,0,1.579-1.579v-4.19H61.751A1.984,1.984,0,0,1,59.769,37.2V21.3a.689.689,0,0,1,.209-.5c.518-.514,4.537-4.573,4.7-4.677a.685.685,0,0,1,.391-.114H76.181a1.984,1.984,0,0,1,1.982,1.981V37.2a1.985,1.985,0,0,1-1.982,1.982H69.656v4.19a2.968,2.968,0,0,1-2.963,2.963H49.1v4.388h2.042a9.581,9.581,0,0,1,15.483,11.25l1.527,1.519a.692.692,0,0,1,.572.178l8.849,7.966A2.818,2.818,0,0,1,75.6,76.465a2.646,2.646,0,0,1-1.993-.853L65.6,66.79a.69.69,0,0,1-.173-.562l-1.528-1.52a9.518,9.518,0,0,1-1.55.833l-3.306,7.907a3.506,3.506,0,0,1-2.984,2.081H32.371a1.689,1.689,0,0,1-1.79-1.824l.01-23.67a2.922,2.922,0,0,1,2.916-2.919h6.01a.689.689,0,0,1,.437.155l4.74,3.448h3.017V46.331h-17.6a2.968,2.968,0,0,1-2.963-2.963v-4.19H20.627A1.984,1.984,0,0,1,18.645,37.2V21.3a.689.689,0,0,1,.209-.5c.518-.514,4.537-4.573,4.7-4.677a.685.685,0,0,1,.391-.114H35.057a1.984,1.984,0,0,1,1.982,1.981V37.2a1.985,1.985,0,0,1-1.982,1.982H28.536v4.19a1.583,1.583,0,0,0,1.579,1.579h17.6V39.178H41.189A1.984,1.984,0,0,1,39.207,37.2V21.3a.689.689,0,0,1,.209-.5c.518-.514,4.537-4.573,4.7-4.677a.685.685,0,0,1,.391-.114H55.619A1.984,1.984,0,0,1,57.6,17.993V37.2a1.985,1.985,0,0,1-1.982,1.982H49.1Z" transform="translate(11327.232 -9305.011)" fill="#4c77ae" fill-rule="evenodd"/>
  </g>
</svg>
