<svg xmlns="http://www.w3.org/2000/svg" width="120" height="120" viewBox="0 0 120 120">
  <g id="Grupo_1118472" data-name="Grupo 1118472" transform="translate(-11636 9322)">
    <g id="Grupo_1118342" data-name="Grupo 1118342" transform="translate(4667 -3068)">
      <g id="Grupo_1117992" data-name="Grupo 1117992" transform="translate(14105.898 3303.898)">
        <circle id="Elipse_8441" data-name="Elipse 8441" cx="60" cy="60" r="60" transform="translate(-7136.898 -9557.898)" fill="#bfd4ef" opacity="0.45"/>
        <circle id="Elipse_8442" data-name="Elipse 8442" cx="48" cy="48" r="48" transform="translate(-7124.898 -9545.898)" fill="#fbfcfd"/>
      </g>
    </g>
    <g id="proceso" transform="translate(11667 -9296)">
      <path id="Trazado_914633" data-name="Trazado 914633" d="M299.4,289.394V282l-2.831-.723c-.02-.048-.039-.1-.06-.143l1.49-2.512-5.226-5.226-2.512,1.49-.143-.06-.723-2.83H282l-.723,2.831-.143.06-2.512-1.49-5.226,5.226,1.49,2.512-.06.143L272,282v7.39l2.831.723c.02.048.039.1.06.143l-1.49,2.512L278.626,298l2.512-1.49.143.06L282,299.4h7.39l.723-2.831.143-.06,2.512,1.49L298,292.772l-1.49-2.512.06-.143Zm-3.858,3.07-3.076,3.076-2.091-1.241-.471.225a9.8,9.8,0,0,1-.933.387l-.493.175-.6,2.355h-4.352l-.6-2.355-.493-.175a9.224,9.224,0,0,1-.933-.387l-.471-.225-2.091,1.241-3.076-3.076,1.241-2.091-.225-.471a9.781,9.781,0,0,1-.387-.933l-.175-.493-2.356-.6v-4.352l2.355-.6.175-.493a9.224,9.224,0,0,1,.387-.933l.225-.471-1.241-2.091,3.076-3.076,2.091,1.241.471-.225a9.778,9.778,0,0,1,.933-.387l.493-.175.6-2.356h4.352l.6,2.355.493.175a9.224,9.224,0,0,1,.933.387l.471.225,2.091-1.241,3.076,3.076-1.241,2.091.225.471a9.778,9.778,0,0,1,.387.933l.175.493,2.356.6v4.352l-2.355.6-.175.493a9.224,9.224,0,0,1-.387.933l-.225.471Zm0,0" transform="translate(-238.731 -238.731)" fill="#4c77ae"/>
      <path id="Trazado_914634" data-name="Trazado 914634" d="M327.828,320a7.828,7.828,0,1,0,7.828,7.828A7.837,7.837,0,0,0,327.828,320Zm0,13.7a5.871,5.871,0,1,1,5.871-5.871A5.877,5.877,0,0,1,327.828,333.7Zm0,0" transform="translate(-280.86 -280.86)" fill="#4c77ae"/>
      <path id="Trazado_914635" data-name="Trazado 914635" d="M355.914,352a3.914,3.914,0,1,0,3.914,3.914A3.918,3.918,0,0,0,355.914,352Zm0,5.871a1.957,1.957,0,1,1,1.957-1.957A1.959,1.959,0,0,1,355.914,357.871Zm0,0" transform="translate(-308.946 -308.946)" fill="#4c77ae"/>
      <path id="Trazado_914636" data-name="Trazado 914636" d="M158.19,16.568a5.881,5.881,0,0,0,1.639,2.473v.83l-4.653,1.744A4.914,4.914,0,0,0,152,26.2v5.116h23.484V26.2a4.917,4.917,0,0,0-3.174-4.581l-4.654-1.744v-.829a5.869,5.869,0,0,0,1.639-2.473,3.913,3.913,0,0,0,3.254-3.848V8.807a8.806,8.806,0,1,0-17.613,0v3.914a3.913,3.913,0,0,0,3.254,3.848Zm7.51,3.71-1.957,3.261-1.957-3.261v-.072a5.761,5.761,0,0,0,3.914,0Zm-5.312,1.473,1.973,3.287-1.96.979-1.266-3.8ZM173.527,26.2v3.159h-19.57V26.2a2.949,2.949,0,0,1,1.9-2.749l1.439-.539,1.956,5.869,4.485-2.243,4.485,2.243,1.956-5.869,1.44.54a2.947,2.947,0,0,1,1.9,2.748Zm-5.176-3.976-1.266,3.8-1.96-.979,1.973-3.288Zm-4.609-3.629a3.918,3.918,0,0,1-3.914-3.914V10.7a7.575,7.575,0,0,0,3.914-1.562,7.566,7.566,0,0,0,3.914,1.562v3.98A3.918,3.918,0,0,1,163.742,18.592Zm5.871-4.186V11.036a1.939,1.939,0,0,1,0,3.369ZM163.742,1.957a6.858,6.858,0,0,1,6.85,6.849v.544a3.871,3.871,0,0,0-1.957-.544h-.168a5.663,5.663,0,0,1-4.033-1.67l-.692-.693-.692.693a5.664,5.664,0,0,1-4.033,1.67h-.168a3.871,3.871,0,0,0-1.957.544V8.807A6.858,6.858,0,0,1,163.742,1.957Zm-5.871,9.078V14.4a1.939,1.939,0,0,1,0-3.369Zm0,0" transform="translate(-133.409)" fill="#4c77ae"/>
      <path id="Trazado_914637" data-name="Trazado 914637" d="M0,313.441H19.57V288H0Zm1.957-23.484H17.613v21.527H1.957Zm0,0" transform="translate(0 -252.774)" fill="#4c77ae"/>
      <path id="Trazado_914638" data-name="Trazado 914638" d="M32,320H43.742v1.957H32Zm0,0" transform="translate(-28.086 -280.86)" fill="#4c77ae"/>
      <path id="Trazado_914639" data-name="Trazado 914639" d="M32,352h1.957v1.957H32Zm0,0" transform="translate(-28.086 -308.946)" fill="#4c77ae"/>
      <path id="Trazado_914640" data-name="Trazado 914640" d="M64,352h7.828v1.957H64Zm0,0" transform="translate(-56.172 -308.946)" fill="#4c77ae"/>
      <path id="Trazado_914641" data-name="Trazado 914641" d="M32,384H43.742v1.957H32Zm0,0" transform="translate(-28.086 -337.032)" fill="#4c77ae"/>
      <path id="Trazado_914642" data-name="Trazado 914642" d="M32,416H43.742v1.957H32Zm0,0" transform="translate(-28.086 -365.118)" fill="#4c77ae"/>
      <path id="Trazado_914643" data-name="Trazado 914643" d="M112,448h1.957v1.957H112Zm0,0" transform="translate(-98.301 -393.204)" fill="#4c77ae"/>
      <path id="Trazado_914644" data-name="Trazado 914644" d="M32,448h7.828v1.957H32Zm0,0" transform="translate(-28.086 -393.204)" fill="#4c77ae"/>
      <path id="Trazado_914645" data-name="Trazado 914645" d="M170.677,347.727l-1.384-1.384-4.606,4.606,4.606,4.606,1.384-1.384-2.244-2.244h7.423v-1.957h-7.423Zm0,0" transform="translate(-144.544 -303.981)" fill="#4c77ae"/>
      <path id="Trazado_914646" data-name="Trazado 914646" d="M73.957,80.907a.98.98,0,0,1,.979-.978h4.487l-2.244,2.244,1.384,1.384,4.606-4.606-4.606-4.606-1.384,1.384,2.244,2.244H74.936A2.939,2.939,0,0,0,72,80.907V98.52h1.957Zm0,0" transform="translate(-63.194 -65.251)" fill="#4c77ae"/>
      <path id="Trazado_914647" data-name="Trazado 914647" d="M341.871,106.936v12.315l-2.244-2.244-1.384,1.384L342.849,123l4.606-4.606-1.384-1.384-2.244,2.244V106.936A2.939,2.939,0,0,0,340.892,104H336v1.957h4.892A.98.98,0,0,1,341.871,106.936Zm0,0" transform="translate(-294.903 -91.279)" fill="#4c77ae"/>
    </g>
  </g>
</svg>
