<svg xmlns="http://www.w3.org/2000/svg" width="92.497" height="92.498" viewBox="0 0 92.497 92.498"><path d="M198.357,216.476a4.072,4.072,0,0,0-3.832,2.71H186.8V217.6a1.355,1.355,0,0,0-2.71,0v6.605a27.432,27.432,0,0,1-6.379,17.915,53.92,53.92,0,0,1-21.533,15.134A54.228,54.228,0,0,1,136.5,244.18a1.355,1.355,0,0,0-1.963,1.869,55.334,55.334,0,0,0,6.011,5.442v10.293a4.065,4.065,0,1,0,2.71,0v-8.307a58.99,58.99,0,0,0,12.162,6.4,2.09,2.09,0,0,0,1.51,0,56.636,56.636,0,0,0,22.836-15.985,29.051,29.051,0,0,0,5.982-11.516h4.58a4.065,4.065,0,1,0,0-2.71h-3.991a32.274,32.274,0,0,0,.461-5.454V221.9h7.73a4.065,4.065,0,1,0,3.832-5.42ZM141.9,266.97a1.355,1.355,0,1,1,1.355-1.355A1.356,1.356,0,0,1,141.9,266.97Zm52.256-37.306a1.355,1.355,0,1,1-1.355,1.355A1.356,1.356,0,0,1,194.157,229.664Zm4.2-7.768a1.355,1.355,0,1,1,1.355-1.355A1.356,1.356,0,0,1,198.357,221.9Zm0,0" transform="translate(-109.925 -177.183)" fill="#4c77ae"/><path d="M18.337,47.028V22.379a54.181,54.181,0,0,0,15.357-6.514,24.259,24.259,0,0,1,25.109,0,62.907,62.907,0,0,0,6.925,3.627c.025.012.051.024.078.034a48.022,48.022,0,0,0,8.355,2.853V34.626a1.355,1.355,0,1,0,2.71,0V21.882a2.07,2.07,0,0,0-1.588-2.025,44.193,44.193,0,0,1-7.626-2.481V7.9a4.065,4.065,0,1,0-2.71,0v8.241q-2.355-1.155-4.744-2.593a26.961,26.961,0,0,0-27.907,0,51.006,51.006,0,0,1-15.081,6.312,2.07,2.07,0,0,0-1.588,2.025v8.2H7.9a4.065,4.065,0,1,0,0,2.71h7.73v7.768H12.1a4.065,4.065,0,1,0,0,2.71h3.53v3.76A30.336,30.336,0,0,0,21.05,64.641a1.355,1.355,0,1,0,2.214-1.563A27.64,27.64,0,0,1,18.337,47.028ZM66.3,2.71a1.355,1.355,0,1,1-1.355,1.355A1.356,1.356,0,0,1,66.3,2.71ZM4.065,32.79A1.355,1.355,0,1,1,5.42,31.435,1.356,1.356,0,0,1,4.065,32.79Zm4.2,10.478A1.355,1.355,0,1,1,9.62,41.913,1.356,1.356,0,0,1,8.265,43.268Zm0,0" fill="#4c77ae"/><path d="M126.8,91.747a1.355,1.355,0,1,0-1.2-2.429,56,56,0,0,1-7.651,3.128,2.071,2.071,0,0,0-1.444,1.977v21.019a24.721,24.721,0,0,0,5.725,16.149,50.979,50.979,0,0,0,18.725,13.661,1.909,1.909,0,0,0,1.505,0,50.97,50.97,0,0,0,18.723-13.659,24.726,24.726,0,0,0,5.726-16.151V94.424a2.071,2.071,0,0,0-1.444-1.977,60.364,60.364,0,0,1-12.6-5.845,21.618,21.618,0,0,0-22.311,0l-.288.173a1.355,1.355,0,0,0,1.387,2.328l.3-.18a18.906,18.906,0,0,1,19.513,0,63.5,63.5,0,0,0,12.735,5.962v20.558a22.016,22.016,0,0,1-5.073,14.386,48.232,48.232,0,0,1-17.419,12.8,48.241,48.241,0,0,1-17.42-12.8,22.014,22.014,0,0,1-5.072-14.386V94.884A59.122,59.122,0,0,0,126.8,91.747Zm0,0" transform="translate(-95.453 -68.415)" fill="#4c77ae"/><path d="M208.888,175.5a6.782,6.782,0,0,0-6.775,6.775v2.258h-.452a3.165,3.165,0,0,0-3.162,3.162v10.84a3.165,3.165,0,0,0,3.162,3.162h14.453a3.165,3.165,0,0,0,3.162-3.162v-10.84a3.165,3.165,0,0,0-3.162-3.162h-.452v-2.258A6.782,6.782,0,0,0,208.888,175.5Zm-4.065,6.775a4.065,4.065,0,1,1,8.13,0v2.258h-8.13Zm11.743,5.42v10.84a.452.452,0,0,1-.452.452H201.662a.452.452,0,0,1-.452-.452v-10.84a.452.452,0,0,1,.452-.452h14.453A.452.452,0,0,1,216.566,187.694Zm0,0" transform="translate(-162.639 -143.794)" fill="#4c77ae"/><path d="M237.565,243a4.065,4.065,0,0,0-1.355,7.9v1.588a1.355,1.355,0,1,0,2.71,0V250.9a4.065,4.065,0,0,0-1.355-7.9Zm0,5.42a1.355,1.355,0,1,1,1.355-1.355A1.356,1.356,0,0,1,237.565,248.42Zm0,0" transform="translate(-191.316 -199.1)" fill="#4c77ae"/></svg>