<svg xmlns="http://www.w3.org/2000/svg" width="120" height="120" viewBox="0 0 120 120">
  <g id="Grupo_1118468" data-name="Grupo 1118468" transform="translate(-795.051 -1682.196)">
    <g id="Grupo_1118338" data-name="Grupo 1118338" transform="translate(-6173.949 7936.196)">
      <g id="Grupo_1117992" data-name="Grupo 1117992" transform="translate(14105.898 3303.898)">
        <circle id="Elipse_8441" data-name="Elipse 8441" cx="60" cy="60" r="60" transform="translate(-7136.898 -9557.898)" fill="#bfd4ef" opacity="0.45"/>
        <circle id="Elipse_8442" data-name="Elipse 8442" cx="48" cy="48" r="48" transform="translate(-7124.898 -9545.898)" fill="#fbfcfd"/>
      </g>
    </g>
    <g id="surface1" transform="translate(822.422 1711.168)">
      <path id="Trazado_914607" data-name="Trazado 914607" d="M177.231,216.4a2.732,2.732,0,0,0-2.571,1.818h-5.186v-1.061a.909.909,0,0,0-1.818,0v4.432a18.4,18.4,0,0,1-4.28,12.019,36.175,36.175,0,0,1-14.447,10.154,36.382,36.382,0,0,1-13.2-8.775.909.909,0,1,0-1.317,1.254,37.126,37.126,0,0,0,4.033,3.651V246.8a2.727,2.727,0,1,0,1.818,0v-5.574a39.577,39.577,0,0,0,8.16,4.292,1.4,1.4,0,0,0,1.013,0,38,38,0,0,0,15.321-10.724,19.49,19.49,0,0,0,4.013-7.726h3.073a2.727,2.727,0,1,0,0-1.818h-2.677a21.652,21.652,0,0,0,.309-3.659v-1.553h5.186a2.727,2.727,0,1,0,2.571-3.636Zm-37.877,33.877a.909.909,0,1,1,.909-.909A.91.91,0,0,1,139.355,250.278Zm35.059-25.029a.909.909,0,1,1-.909.909A.91.91,0,0,1,174.413,225.25Zm2.818-5.212a.909.909,0,1,1,.909-.909A.91.91,0,0,1,177.231,220.038Zm0,0" transform="translate(-117.901 -190.039)" fill="#4c77ae"/>
      <path id="Trazado_914608" data-name="Trazado 914608" d="M12.3,31.551V15.014a36.351,36.351,0,0,0,10.3-4.371,16.276,16.276,0,0,1,16.846,0A42.2,42.2,0,0,0,44.1,13.077c.017.008.034.016.052.023a32.218,32.218,0,0,0,5.605,1.914v8.216a.909.909,0,1,0,1.818,0v-8.55a1.389,1.389,0,0,0-1.065-1.359,29.65,29.65,0,0,1-5.116-1.665V5.3a2.727,2.727,0,1,0-1.818,0v5.529q-1.58-.775-3.183-1.74a18.089,18.089,0,0,0-18.723,0A34.22,34.22,0,0,1,11.55,13.322a1.389,1.389,0,0,0-1.065,1.359v5.5H5.3A2.727,2.727,0,1,0,5.3,22h5.186v5.212H8.116a2.727,2.727,0,1,0,0,1.818h2.368v2.523a20.352,20.352,0,0,0,3.639,11.817.909.909,0,1,0,1.486-1.048A18.544,18.544,0,0,1,12.3,31.551ZM44.482,1.818a.909.909,0,1,1-.909.909A.91.91,0,0,1,44.482,1.818ZM2.727,22a.909.909,0,1,1,.909-.909A.91.91,0,0,1,2.727,22Zm2.818,7.03a.909.909,0,1,1,.909-.909A.91.91,0,0,1,5.545,29.029Zm0,0" transform="translate(0 0)" fill="#4c77ae"/>
      <path id="Trazado_914609" data-name="Trazado 914609" d="M123.408,89.033a.909.909,0,1,0-.806-1.63,37.571,37.571,0,0,1-5.133,2.1,1.39,1.39,0,0,0-.969,1.327v14.1a16.586,16.586,0,0,0,3.841,10.835A34.2,34.2,0,0,0,132.9,124.93a1.281,1.281,0,0,0,1.01,0,34.2,34.2,0,0,0,12.561-9.164,16.589,16.589,0,0,0,3.842-10.836v-14.1a1.39,1.39,0,0,0-.969-1.327,40.5,40.5,0,0,1-8.455-3.922,14.5,14.5,0,0,0-14.969,0l-.193.116a.909.909,0,0,0,.931,1.562l.2-.121a12.684,12.684,0,0,1,13.092,0,42.606,42.606,0,0,0,8.544,4V104.93a14.77,14.77,0,0,1-3.4,9.652,32.359,32.359,0,0,1-11.687,8.585,32.365,32.365,0,0,1-11.687-8.586,14.769,14.769,0,0,1-3.4-9.651V91.137A39.666,39.666,0,0,0,123.408,89.033Zm0,0" transform="translate(-102.379 -73.379)" fill="#4c77ae"/>
      <path id="Trazado_914610" data-name="Trazado 914610" d="M205.469,175.5a4.55,4.55,0,0,0-4.545,4.545v1.515h-.3a2.124,2.124,0,0,0-2.121,2.121v7.272a2.124,2.124,0,0,0,2.121,2.121h9.7a2.124,2.124,0,0,0,2.121-2.121v-7.272a2.124,2.124,0,0,0-2.121-2.121h-.3v-1.515A4.55,4.55,0,0,0,205.469,175.5Zm-2.727,4.545a2.727,2.727,0,1,1,5.454,0v1.515h-5.454Zm7.878,3.636v7.272a.3.3,0,0,1-.3.3h-9.7a.3.3,0,0,1-.3-.3v-7.272a.3.3,0,0,1,.3-.3h9.7A.3.3,0,0,1,210.621,183.681Zm0,0" transform="translate(-174.441 -154.228)" fill="#4c77ae"/>
      <path id="Trazado_914611" data-name="Trazado 914611" d="M236.227,243a2.727,2.727,0,0,0-.909,5.3v1.065a.909.909,0,1,0,1.818,0V248.3a2.727,2.727,0,0,0-.909-5.3Zm0,3.636a.909.909,0,1,1,.909-.909A.91.91,0,0,1,236.227,246.636Zm0,0" transform="translate(-205.198 -213.547)" fill="#4c77ae"/>
    </g>
  </g>
</svg>
