<svg xmlns="http://www.w3.org/2000/svg" width="120" height="120" viewBox="0 0 120 120"><g transform="translate(7136.898 9557.898)"><circle cx="60" cy="60" r="60" transform="translate(-7136.898 -9557.898)" fill="#bfd4ef" opacity="0.45"/><circle cx="48" cy="48" r="48" transform="translate(-7124.898 -9545.898)" fill="#fbfcfd"/><g transform="translate(-7101.333 -9526.835)"><path d="M87.853,41.578a.848.848,0,0,0,.848-.848V7.649A3.112,3.112,0,0,0,85.593,4.54h-16.8V2.75A2.753,2.753,0,0,0,66.039,0H62.5a2.753,2.753,0,0,0-2.749,2.75V4.54h-16.8a3.112,3.112,0,0,0-3.108,3.108V50.3a3.112,3.112,0,0,0,3.108,3.108h16.8v3.617a.848.848,0,1,0,1.7,0V53.408h5.652v3.617a.848.848,0,1,0,1.7,0V53.408h16.8A3.112,3.112,0,0,0,88.7,50.3V45.249a.848.848,0,0,0-1.7,0V50.3a1.414,1.414,0,0,1-1.413,1.413H42.941A1.414,1.414,0,0,1,41.528,50.3V7.649a1.414,1.414,0,0,1,1.413-1.413H85.593a1.414,1.414,0,0,1,1.413,1.413V40.731A.848.848,0,0,0,87.853,41.578ZM61.441,2.75A1.055,1.055,0,0,1,62.5,1.7h3.544A1.055,1.055,0,0,1,67.093,2.75V4.54H61.441Z" transform="translate(-39.833 0)" fill="#4c77ae"/><path d="M71.566,79.68a.868.868,0,0,0-1.733,0V111.4a.848.848,0,0,0,.848.848h40.391a.848.848,0,0,0,.848-.848V71.014a.848.848,0,0,0-.848-.848H70.681a.848.848,0,0,0-.848.848v4.146c0,1.252,2.069.957,1.7-.252V71.861h38.7v38.7h-38.7s.038-30.79.038-30.877Z" transform="translate(-66.442 -62.235)" fill="#4c77ae"/><path d="M157.477,142.191h-12a4.81,4.81,0,0,0-4.8,4.8v2.383a2.214,2.214,0,0,0-2.514,2.123v4a.848.848,0,1,0,1.7,0v-4c0-.415.51-.492.818-.428v15.249a1.938,1.938,0,0,0,1.936,1.936h1.939a1.938,1.938,0,0,0,1.936-1.936V165.5h9.992v.823a1.938,1.938,0,0,0,1.936,1.936h1.939a1.938,1.938,0,0,0,1.936-1.936V151.074c.309-.065.818.012.818.428v4a.848.848,0,1,0,1.7,0v-4a2.213,2.213,0,0,0-2.514-2.123V147A4.81,4.81,0,0,0,157.477,142.191ZM142.363,147a3.113,3.113,0,0,1,3.109-3.109h12A3.112,3.112,0,0,1,160.586,147V163.8H142.363Zm2.42,19.327a.241.241,0,0,1-.24.24H142.6a.241.241,0,0,1-.24-.24V165.5h2.42Zm15.8,0a.241.241,0,0,1-.24.24h-1.939a.241.241,0,0,1-.24-.24V165.5h2.42Z" transform="translate(-127.04 -126.119)" fill="#4c77ae"/><path d="M188.117,202.6h13.842a.848.848,0,0,0,.848-.848V195.04a1.932,1.932,0,0,0-1.93-1.93H189.2a1.932,1.932,0,0,0-1.93,1.93v6.717A.848.848,0,0,0,188.117,202.6Zm.848-7.565a.234.234,0,0,1,.234-.234h11.678a.234.234,0,0,1,.234.234v5.87H188.964Z" transform="translate(-170.604 -171.282)" fill="#4c77ae"/><path d="M220.848,169.805h6.443a.848.848,0,0,0,0-1.7h-6.443a.848.848,0,1,0,0,1.7Z" transform="translate(-199.635 -149.108)" fill="#4c77ae"/><path d="M192.664,304.958a.848.848,0,0,0-.848-.848h-3.7a.848.848,0,0,0,0,1.7h3.7A.848.848,0,0,0,192.664,304.958Z" transform="translate(-170.604 -269.735)" fill="#4c77ae"/><path d="M281.547,304.11h-3.7a.848.848,0,0,0,0,1.7h3.7a.848.848,0,1,0,0-1.7Z" transform="translate(-250.192 -269.735)" fill="#4c77ae"/></g></g></svg>