<svg xmlns="http://www.w3.org/2000/svg" width="82.102" height="75.625" viewBox="0 0 82.102 75.625"><g transform="translate(0 0)"><path d="M78.1,34.38l.191-.535H80.5a1.6,1.6,0,1,0,0-3.2H77.158a1.6,1.6,0,0,0-.723.173l-1.4-5.692a6.432,6.432,0,0,0-6.26-4.909H52.739a6.432,6.432,0,0,0-6.26,4.909l-1.4,5.692a1.6,1.6,0,0,0-.723-.173H41.017a1.6,1.6,0,0,0,0,3.2h2.212l.191.535a6.151,6.151,0,0,0-4.005,5.757v.5h-5.92a4.169,4.169,0,0,0-3.673-2.2h-12.5a4.169,4.169,0,0,0-3.673,2.2H5.127A5.133,5.133,0,0,0,0,45.768V90.71a5.133,5.133,0,0,0,5.127,5.127H42.018a5.133,5.133,0,0,0,5.127-5.127v-32a3.8,3.8,0,0,0,.6.047h2.443a3.789,3.789,0,0,0,3.784-3.784V51.951h13.58v3.023a3.789,3.789,0,0,0,3.784,3.784h2.443a3.789,3.789,0,0,0,3.784-3.784V51.951H80.5a1.6,1.6,0,0,0,1.6-1.6V40.137A6.151,6.151,0,0,0,78.1,34.38ZM49.591,25.885a3.235,3.235,0,0,1,3.148-2.469H68.777a3.235,3.235,0,0,1,3.148,2.468L73.918,34H47.6ZM17.324,41.642h12.5a.962.962,0,0,1,.961.961v3.685a.962.962,0,0,1-.961.961h-12.5a.962.962,0,0,1-.961-.961V42.6A.962.962,0,0,1,17.324,41.642ZM43.941,90.71a1.925,1.925,0,0,1-1.923,1.923H5.127A1.925,1.925,0,0,1,3.2,90.71V45.767a1.925,1.925,0,0,1,1.923-1.923h8.031v2.443a4.17,4.17,0,0,0,4.166,4.166h12.5a4.17,4.17,0,0,0,4.166-4.166V43.845h8.031a1.925,1.925,0,0,1,1.923,1.923Zm6.823-35.736a.581.581,0,0,1-.58.58H47.74a.58.58,0,0,1-.58-.58V51.951h3.6Zm23.592,0a.581.581,0,0,1-.58.58H71.333a.58.58,0,0,1-.58-.58V51.951h3.6ZM78.9,48.746H47.145V45.767a5.134,5.134,0,0,0-4.526-5.091v-.54A2.939,2.939,0,0,1,45.55,37.2H75.966A2.94,2.94,0,0,1,78.9,40.137v8.61Z" transform="translate(0 -20.212)" fill="#4c77ae"/><path d="M312.942,152.272a1.6,1.6,0,1,0,1.133.47A1.614,1.614,0,0,0,312.942,152.272Z" transform="translate(-261.456 -131.113)" fill="#4c77ae"/><path d="M428.692,152.272a1.6,1.6,0,1,0,1.133.47A1.611,1.611,0,0,0,428.692,152.272Z" transform="translate(-358.661 -131.113)" fill="#4c77ae"/><path d="M358.669,152.545h-5.727a1.6,1.6,0,1,0,0,3.2h5.727a1.6,1.6,0,0,0,0-3.2Z" transform="translate(-295.047 -131.342)" fill="#4c77ae"/><path d="M56.127,315.182l-3.353,3.353-1.206-1.206A1.6,1.6,0,1,0,49.3,319.6l2.339,2.339a1.6,1.6,0,0,0,2.266,0l4.486-4.486a1.6,1.6,0,0,0-2.266-2.266Z" transform="translate(-41.009 -267.528)" fill="#4c77ae"/><path d="M154.889,334.212H141.323a1.6,1.6,0,0,0,0,3.2h13.566a1.6,1.6,0,0,0,0-3.2Z" transform="translate(-117.335 -283.902)" fill="#4c77ae"/><path d="M56.127,235.182l-3.353,3.353-1.206-1.206A1.6,1.6,0,1,0,49.3,239.6l2.339,2.339a1.6,1.6,0,0,0,2.266,0l4.486-4.486a1.6,1.6,0,0,0-2.266-2.266Z" transform="translate(-41.009 -200.345)" fill="#4c77ae"/><path d="M225.992,254.212a1.6,1.6,0,1,0,1.133.469A1.614,1.614,0,0,0,225.992,254.212Z" transform="translate(-188.438 -216.72)" fill="#4c77ae"/><path d="M141.324,257.416h7.157a1.6,1.6,0,1,0,0-3.2h-7.157a1.6,1.6,0,1,0,0,3.2Z" transform="translate(-117.335 -216.72)" fill="#4c77ae"/><path d="M56.127,395.182l-3.353,3.353-1.206-1.206A1.6,1.6,0,1,0,49.3,399.6l2.339,2.339a1.6,1.6,0,0,0,2.266,0l4.486-4.486a1.6,1.6,0,0,0-2.266-2.266Z" transform="translate(-41.009 -334.71)" fill="#4c77ae"/><path d="M154.889,414.212H141.323a1.6,1.6,0,0,0,0,3.2h13.566a1.6,1.6,0,0,0,0-3.2Z" transform="translate(-117.335 -351.084)" fill="#4c77ae"/></g></svg>