<svg xmlns="http://www.w3.org/2000/svg" width="120" height="120" viewBox="0 0 120 120"><g transform="translate(7472 9054)"><g transform="translate(-335.102 503.898)"><circle cx="60" cy="60" r="60" transform="translate(-7136.898 -9557.898)" fill="#bfd4ef" opacity="0.45"/><circle cx="48" cy="48" r="48" transform="translate(-7124.898 -9545.898)" fill="#fbfcfd"/></g><g transform="translate(-7433.32 -9023.039)"><path d="M266.72,245.086a2.487,2.487,0,0,0,1.794-.756L272.74,240a2.506,2.506,0,0,0-3.588-3.5l-2.479,2.542-.434-.422a2.505,2.505,0,1,0-3.493,3.592l2.228,2.166A2.492,2.492,0,0,0,266.72,245.086Zm-2.866-5.292a.891.891,0,0,1,1.258-.018l1.013.985a.808.808,0,0,0,1.142-.015l3.042-3.119a.89.89,0,1,1,1.274,1.242l-4.226,4.333a.894.894,0,0,1-1.257.017l-2.228-2.166A.891.891,0,0,1,263.854,239.795Z" transform="translate(-233.824 -210.402)" fill="#4c77ae"/><path d="M219.619,196.067a.808.808,0,0,0-1.29.973,10.648,10.648,0,0,0,.967,1.111,10.509,10.509,0,1,0-2.582-4.23.808.808,0,0,0,1.539-.491,8.908,8.908,0,1,1,2.185,3.579A9.043,9.043,0,0,1,219.619,196.067Z" transform="translate(-192.969 -160.833)" fill="#4c77ae"/><path d="M53.927,44.641l-5.1-5.1a.808.808,0,0,0-1.143,0l-.031.031-1.962-1.961a14.193,14.193,0,0,0,2.259-6.833.808.808,0,0,0-1.613-.1,12.591,12.591,0,0,1-12.565,11.8H33.7A12.594,12.594,0,1,1,46.167,27.648a.808.808,0,0,0,1.591-.285,14.226,14.226,0,0,0-7.321-10.034V10.818a.818.818,0,0,0-.237-.571L30.188.237A.819.819,0,0,0,29.617,0H2.423A2.426,2.426,0,0,0,0,2.423v6.79a.808.808,0,0,0,1.616,0V2.423a.809.809,0,0,1,.808-.808H28.809V9.2a2.426,2.426,0,0,0,2.424,2.423h7.588V16.6a14.276,14.276,0,0,0-4.9-.922l-.024,0H15.856a.808.808,0,1,0,0,1.616H27.167A14.161,14.161,0,0,0,23.945,19.6H15.856a.808.808,0,1,0,0,1.616H22.49a14.062,14.062,0,0,0-2.651,5.776H15.856a.808.808,0,1,0,0,1.616H19.6q-.056.632-.057,1.273,0,.526.038,1.046H15.856a.808.808,0,1,0,0,1.616h3.939a14.061,14.061,0,0,0,2.7,6.006H15.856a.808.808,0,1,0,0,1.616h8.092a14.159,14.159,0,0,0,3.218,2.31H15.855a.808.808,0,1,0,0,1.616H33.764a14.285,14.285,0,0,0,5.057-.924v9.448a.809.809,0,0,1-.808.808H2.423a.809.809,0,0,1-.808-.808V12.445a.808.808,0,0,0-1.616,0V52.616a2.426,2.426,0,0,0,2.424,2.423h35.59a2.426,2.426,0,0,0,2.424-2.423V42.436q.541-.287,1.061-.624l1.961,1.961a.815.815,0,0,0-.031,1.174l5.1,5.1a3.82,3.82,0,0,0,5.4-5.4ZM31.233,10.01a.809.809,0,0,1-.808-.808V2.758l7.253,7.252ZM42.815,40.845q.517-.427,1-.91t.91-1l1.786,1.785L44.6,42.63ZM52.784,48.9a2.215,2.215,0,0,1-3.117,0l-4.526-4.525,3.118-3.117,4.526,4.525A2.214,2.214,0,0,1,52.784,48.9Z" transform="translate(0.001 0)" fill="#4c77ae"/><path d="M53.2,145.458h3.535a1.809,1.809,0,0,0,1.807-1.807v-3.534a1.809,1.809,0,0,0-1.807-1.807H53.2a1.809,1.809,0,0,0-1.807,1.807v3.534A1.809,1.809,0,0,0,53.2,145.458Zm-.191-5.341a.192.192,0,0,1,.191-.191h3.535a.191.191,0,0,1,.191.191v3.534a.192.192,0,0,1-.191.191H53.2a.191.191,0,0,1-.191-.191Z" transform="translate(-45.868 -123.442)" fill="#4c77ae"/><path d="M51.393,249.019a1.809,1.809,0,0,0,1.807,1.807h3.535a1.809,1.809,0,0,0,1.807-1.807v-3.534a1.809,1.809,0,0,0-1.807-1.807H53.2a1.809,1.809,0,0,0-1.807,1.807Zm1.616-3.534a.192.192,0,0,1,.191-.191h3.535a.191.191,0,0,1,.191.191v3.534a.192.192,0,0,1-.191.191H53.2a.191.191,0,0,1-.191-.191Z" transform="translate(-45.868 -217.483)" fill="#4c77ae"/><path d="M51.393,356.526a1.809,1.809,0,0,0,1.807,1.807h3.535a1.809,1.809,0,0,0,1.807-1.807v-3.534a1.809,1.809,0,0,0-1.807-1.807H53.2a1.809,1.809,0,0,0-1.807,1.807Zm1.616-3.534a.191.191,0,0,1,.191-.191h3.535a.191.191,0,0,1,.191.191v3.534a.192.192,0,0,1-.191.191H53.2a.191.191,0,0,1-.191-.191Z" transform="translate(-45.868 -313.433)" fill="#4c77ae"/></g></g></svg>