<svg xmlns="http://www.w3.org/2000/svg" width="78.042" height="78.042" viewBox="0 0 78.042 78.042"><path d="M78.043,142.356V131.462a3.014,3.014,0,0,0-.09-.734l-2.374-9.5a3.024,3.024,0,0,0-.548-1.123l-7.82-10.055a3.879,3.879,0,0,0-3.623-1.392,30.164,30.164,0,0,0-49.128,0,3.892,3.892,0,0,0-3.626,1.4L3.015,120.1a3,3,0,0,0-.55,1.128l-2.374,9.5a3.015,3.015,0,0,0-.09.734v10.894a3.014,3.014,0,0,0,.09.734l2.074,8.295H0v7.552H20.14v-7.552H17.623v-3.863a30.184,30.184,0,0,0,42.8,0v3.859H57.9v7.552h20.14v-7.552H75.879l2.074-8.295a3.014,3.014,0,0,0,.09-.734ZM39.021,98.517a27.694,27.694,0,0,1,26.441,35.925L63.5,127.905a4.118,4.118,0,0,0-1.857-2.369,22.633,22.633,0,0,0-45.247,0,4.118,4.118,0,0,0-1.857,2.369l-1.961,6.536A27.694,27.694,0,0,1,39.022,98.517Zm30.108,33.735a.51.51,0,0,1-.022.316l-1.859,4.647a.426.426,0,0,1-.162.181,29.739,29.739,0,0,0,1.752-6.3ZM55.6,130.829l1.449,4.348a20.23,20.23,0,0,1-12.99,10.514V136.28a8.822,8.822,0,0,1,8.811-8.811H55.72a4.138,4.138,0,0,0-.335,1.629v.42A4.16,4.16,0,0,0,55.6,130.829Zm-33.275-3.361h2.852a8.822,8.822,0,0,1,8.811,8.811v9.428a20.049,20.049,0,0,1-12.95-10.425l-.092.047,1.5-4.5a4.16,4.16,0,0,0,.213-1.312v-.42a4.138,4.138,0,0,0-.335-1.629Zm26.634-1.808a13.263,13.263,0,0,0-2.2-5.745h11.38a20.092,20.092,0,0,1,.958,5.035H52.868a11.269,11.269,0,0,0-3.911.71ZM20.939,117.4a20.1,20.1,0,0,1,36.164,0ZM19.9,119.916h11.38a13.263,13.263,0,0,0-2.2,5.745,11.269,11.269,0,0,0-3.911-.71h-6.23a20.037,20.037,0,0,1,.957-5.035Zm11.6,6.969a10.808,10.808,0,0,1,3.025-6.969h9a10.8,10.8,0,0,1,3.025,6.969,11.325,11.325,0,0,0-5.006,9.4v9.9a19.907,19.907,0,0,1-2.517.17,20.329,20.329,0,0,1-2.517-.163V136.28a11.325,11.325,0,0,0-5.006-9.4ZM9.2,131.091a29.806,29.806,0,0,0,1.754,6.305.419.419,0,0,1-.163-.18L8.934,132.57a.517.517,0,0,1-.022-.318Zm8.42,25.329H2.518V153.9h15.1ZM4.761,151.385l-2.243-9.029.015-11.018,2.372-9.492A.493.493,0,0,1,5,121.653l7.111-9.143a29.953,29.953,0,0,0-2.938,9.036,3.011,3.011,0,0,0-.406.909l-2.3,9.189A3.006,3.006,0,0,0,6.6,133.5l1.859,4.648a3.031,3.031,0,0,0,5.716-.256l2.781-9.267a1.628,1.628,0,0,1,3.187.468v.42a1.626,1.626,0,0,1-.083.515l-4.952,14.854v6.5Zm34.26,2.517a27.61,27.61,0,0,1-21.036-9.7l1.94-5.818a22.535,22.535,0,0,0,19.1,10.479,22.763,22.763,0,0,0,19.1-10.478l1.939,5.816a27.59,27.59,0,0,1-21.035,9.7Zm36.5,2.517H60.42V153.9h15.1Zm-12.587-5.035v-6.5l-4.952-14.854a1.625,1.625,0,0,1-.083-.515v-.42a1.628,1.628,0,0,1,3.187-.468l2.781,9.267a3.03,3.03,0,0,0,5.716.254l1.86-4.648a3.01,3.01,0,0,0,.126-1.859l-2.3-9.191a3.011,3.011,0,0,0-.406-.907,29.936,29.936,0,0,0-2.937-9.034l7.111,9.143a.519.519,0,0,1,.092.186l2.389,9.622L75.51,142.48l-2.226,8.9Zm0,0" transform="translate(0 -80.895)" fill="#4c77ae"/><path d="M231.552,267.776a3.776,3.776,0,1,0-3.776,3.776A3.781,3.781,0,0,0,231.552,267.776Zm-5.035,0a1.259,1.259,0,1,1,1.259,1.259A1.26,1.26,0,0,1,226.517,267.776Zm0,0" transform="translate(-188.755 -222.462)" fill="#4c77ae"/><path d="M196.025,2.517a11.074,11.074,0,0,1,7.918,3.313l1.789-1.769a13.629,13.629,0,0,0-19.411,0l1.789,1.769a11.069,11.069,0,0,1,7.916-3.313Zm0,0" transform="translate(-157.004 0)" fill="#4c77ae"/><path d="M221.075,34.587a8.68,8.68,0,0,0-12.364,0l1.789,1.769a6.167,6.167,0,0,1,8.787,0Zm0,0" transform="translate(-175.872 -26.965)" fill="#4c77ae"/><path d="M231.113,65.305l1.79,1.77a1.244,1.244,0,0,1,1.734,0l1.79-1.77A3.821,3.821,0,0,0,231.113,65.305Zm0,0" transform="translate(-194.749 -54.124)" fill="#4c77ae"/></svg>