<svg xmlns="http://www.w3.org/2000/svg" width="120" height="120" viewBox="0 0 120 120"><g transform="translate(8413 9054)"><g transform="translate(-1276.101 503.898)"><circle cx="60" cy="60" r="60" transform="translate(-7136.898 -9557.898)" fill="#bfd4ef" opacity="0.45"/><circle cx="48" cy="48" r="48" transform="translate(-7124.898 -9545.898)" fill="#fbfcfd"/></g><g transform="translate(-8385.372 -9031.244)"><path d="M65.245,134.754v-9.107a2.52,2.52,0,0,0-.076-.614l-1.985-7.942a2.528,2.528,0,0,0-.458-.939l-6.538-8.406a3.243,3.243,0,0,0-3.029-1.164,25.217,25.217,0,0,0-41.072,0,3.254,3.254,0,0,0-3.032,1.167l-6.536,8.4a2.511,2.511,0,0,0-.46.943l-1.985,7.94a2.52,2.52,0,0,0-.076.614v9.107a2.52,2.52,0,0,0,.076.614L1.81,142.3H0v6.314H16.838V142.3h-2.1v-3.229a25.235,25.235,0,0,0,35.779,0V142.3h-2.1v6.314H65.245V142.3H63.436l1.734-6.935a2.52,2.52,0,0,0,.076-.614ZM32.623,98.1a23.152,23.152,0,0,1,22.105,30.033l-1.639-5.465a3.443,3.443,0,0,0-1.552-1.981,18.921,18.921,0,0,0-37.827,0,3.443,3.443,0,0,0-1.552,1.981l-1.639,5.465A23.152,23.152,0,0,1,32.623,98.1Zm25.171,28.2a.426.426,0,0,1-.018.264l-1.554,3.885a.356.356,0,0,1-.136.152,24.862,24.862,0,0,0,1.465-5.27Zm-11.313-1.19,1.211,3.635a16.913,16.913,0,0,1-10.86,8.79v-7.868a7.375,7.375,0,0,1,7.366-7.366h2.385a3.46,3.46,0,0,0-.28,1.362v.351A3.478,3.478,0,0,0,46.481,125.118Zm-27.818-2.81h2.385a7.375,7.375,0,0,1,7.366,7.366v7.882a16.762,16.762,0,0,1-10.826-8.716l-.077.039,1.254-3.762a3.478,3.478,0,0,0,.178-1.1v-.351a3.46,3.46,0,0,0-.28-1.362ZM40.929,120.8a11.088,11.088,0,0,0-1.836-4.8h9.514a16.8,16.8,0,0,1,.8,4.209H44.2a9.421,9.421,0,0,0-3.27.593Zm-23.423-6.907a16.8,16.8,0,0,1,30.234,0Zm-.867,2.1h9.514a11.088,11.088,0,0,0-1.836,4.8,9.421,9.421,0,0,0-3.27-.593H15.839a16.751,16.751,0,0,1,.8-4.209Zm9.694,5.826a9.036,9.036,0,0,1,2.529-5.826h7.523a9.031,9.031,0,0,1,2.529,5.826,9.468,9.468,0,0,0-4.185,7.854v8.277a16.642,16.642,0,0,1-2.1.142,17,17,0,0,1-2.1-.137v-8.282a9.468,9.468,0,0,0-4.185-7.854ZM7.694,125.337a24.919,24.919,0,0,0,1.466,5.271.35.35,0,0,1-.137-.151l-1.554-3.884a.432.432,0,0,1-.018-.266Zm7.039,21.175H2.105v-2.1H14.733ZM3.981,142.3l-1.875-7.548.013-9.211L4.1,117.608a.412.412,0,0,1,.079-.161l5.945-7.644a25.041,25.041,0,0,0-2.456,7.554,2.517,2.517,0,0,0-.339.76L5.41,125.8a2.513,2.513,0,0,0,.106,1.555L7.07,131.24a2.534,2.534,0,0,0,4.779-.214l2.325-7.748a1.361,1.361,0,0,1,2.665.392v.351a1.359,1.359,0,0,1-.069.431l-4.14,12.418V142.3Zm28.642,2.1A23.083,23.083,0,0,1,15.036,136.3l1.622-4.864A18.84,18.84,0,0,0,32.623,140.2a19.03,19.03,0,0,0,15.965-8.76l1.621,4.862a23.065,23.065,0,0,1-17.585,8.107Zm30.518,2.1H50.512v-2.1H63.14ZM52.617,142.3V136.87l-4.14-12.418a1.359,1.359,0,0,1-.069-.431v-.351a1.361,1.361,0,0,1,2.665-.392l2.325,7.748a2.533,2.533,0,0,0,4.779.212l1.555-3.886a2.516,2.516,0,0,0,.105-1.554l-1.92-7.684a2.517,2.517,0,0,0-.339-.758,25.027,25.027,0,0,0-2.455-7.552l5.945,7.644a.433.433,0,0,1,.077.156l2,8.044-.013,9.211L61.266,142.3Zm0,0" transform="translate(0 -83.372)" fill="#4c77ae"/><path d="M230.314,267.157a3.157,3.157,0,1,0-3.157,3.157A3.161,3.161,0,0,0,230.314,267.157Zm-4.209,0a1.052,1.052,0,1,1,1.052,1.052A1.054,1.054,0,0,1,226.1,267.157Zm0,0" transform="translate(-194.535 -229.273)" fill="#4c77ae"/><path d="M194.434,2.1a9.258,9.258,0,0,1,6.619,2.77l1.5-1.479a11.394,11.394,0,0,0-16.228,0l1.5,1.479a9.254,9.254,0,0,1,6.618-2.77Zm0,0" transform="translate(-161.812 0)" fill="#4c77ae"/><path d="M219.047,34.163a7.256,7.256,0,0,0-10.336,0l1.5,1.479a5.156,5.156,0,0,1,7.346,0Zm0,0" transform="translate(-181.257 -27.791)" fill="#4c77ae"/><path d="M231.113,65.129l1.5,1.48a1.04,1.04,0,0,1,1.45,0l1.5-1.48A3.2,3.2,0,0,0,231.113,65.129Zm0,0" transform="translate(-200.712 -55.782)" fill="#4c77ae"/></g></g></svg>