<svg xmlns="http://www.w3.org/2000/svg" width="120" height="120" viewBox="0 0 120 120">
  <g id="Grupo_1117619" data-name="Grupo 1117619" transform="translate(-790 -5360.645)">
    <g id="Grupo_1117617" data-name="Grupo 1117617" transform="translate(7926.898 14918.543)">
      <circle id="Elipse_8441" data-name="Elipse 8441" cx="60" cy="60" r="60" transform="translate(-7136.898 -9557.898)" fill="#f6d957" opacity="0.45"/>
      <circle id="Elipse_8442" data-name="Elipse 8442" cx="48" cy="48" r="48" transform="translate(-7124.898 -9545.898)" fill="#fff"/>
    </g>
    <g id="camion_4_" data-name="camion (4)" transform="translate(821.948 5392.593)">
      <path id="Trazado_912420" data-name="Trazado 912420" d="M54.982,20.2H50.494V2.244A2.246,2.246,0,0,0,48.25,0H7.855A2.246,2.246,0,0,0,5.61,2.244V20.2H1.122A1.122,1.122,0,0,0,0,21.32V30.3a1.122,1.122,0,0,0,1.122,1.122H5.61v10.1a1.114,1.114,0,0,0,.339.8,3.325,3.325,0,0,0-.339,1.444v2.244a3.37,3.37,0,0,0,3.366,3.366v3.366A3.37,3.37,0,0,0,12.343,56.1h4.488A3.37,3.37,0,0,0,20.2,52.738V49.372H35.907v3.366A3.37,3.37,0,0,0,39.273,56.1h4.488a3.37,3.37,0,0,0,3.366-3.366V49.372a3.37,3.37,0,0,0,3.366-3.366V43.761a3.332,3.332,0,0,0-.338-1.444,1.116,1.116,0,0,0,.338-.8v-10.1h4.488A1.122,1.122,0,0,0,56.1,30.3V21.32A1.122,1.122,0,0,0,54.982,20.2ZM47.128,40.4V33.141l1.122-.748v8Zm-31.418,0V37.029a1.122,1.122,0,0,0-.329-.793l-2.244-2.244a1.122,1.122,0,0,0-.793-.329H11.221V14.587a3.37,3.37,0,0,1,3.366-3.366h26.93a3.37,3.37,0,0,1,3.366,3.366V33.663H43.761a1.122,1.122,0,0,0-.793.329l-2.244,2.244a1.122,1.122,0,0,0-.329.793V40.4Zm-7.855,0v-8l1.122.748V40.4Zm3.366-4.488h.657l1.587,1.587v2.9H11.221Zm31.418,1.587,1.587-1.587h.657V40.4H42.639ZM7.855,2.244h40.4V29.7l-1.122.748V14.587a5.617,5.617,0,0,0-5.61-5.61H14.587a5.617,5.617,0,0,0-5.61,5.61V30.444L7.855,29.7Zm-5.61,26.93V22.442H5.61v6.733ZM17.953,52.738a1.124,1.124,0,0,1-1.122,1.122H12.343a1.124,1.124,0,0,1-1.122-1.122V49.372h6.733Zm26.93,0a1.124,1.124,0,0,1-1.122,1.122H39.273a1.124,1.124,0,0,1-1.122-1.122V49.372h6.733Zm3.366-6.733a1.124,1.124,0,0,1-1.122,1.122H8.977a1.124,1.124,0,0,1-1.122-1.122V43.761a1.124,1.124,0,0,1,1.122-1.122H47.128a1.124,1.124,0,0,1,1.122,1.122Zm5.61-16.831H50.494V22.442H53.86Zm0,0" transform="translate(0)" fill="#c5ae46"/>
      <path id="Trazado_912421" data-name="Trazado 912421" d="M94.33,113.953h18.754a1.123,1.123,0,0,0,.444-.092l5.21-2.244a1.123,1.123,0,0,0,.678-1.031V98.244A2.207,2.207,0,0,0,117.252,96H90.162A2.207,2.207,0,0,0,88,98.244v12.343a1.123,1.123,0,0,0,.678,1.031l5.21,2.244a1.123,1.123,0,0,0,.444.092ZM90.162,98.244h27.01v11.6l-4.319,1.861h-3.446l.641-1.122h3.2a1.122,1.122,0,1,0,0-2.244h-6.733a1.122,1.122,0,1,0,0,2.244h.952l-.641,1.122H98.187l.641-1.122h3.2a1.122,1.122,0,1,0,0-2.244H95.292a1.122,1.122,0,1,0,0,2.244h.952l-.641,1.122H94.561l-4.324-1.863Zm0,0" transform="translate(-75.655 -82.535)" fill="#c5ae46"/>
      <path id="Trazado_912422" data-name="Trazado 912422" d="M141.61,312h-4.488a1.122,1.122,0,1,0,0,2.244h4.488a1.122,1.122,0,1,0,0-2.244Zm0,0" transform="translate(-116.925 -268.239)" fill="#c5ae46"/>
      <path id="Trazado_912423" data-name="Trazado 912423" d="M221.61,312h-4.488a1.122,1.122,0,1,0,0,2.244h4.488a1.122,1.122,0,1,0,0-2.244Zm0,0" transform="translate(-185.704 -268.239)" fill="#c5ae46"/>
      <path id="Trazado_912424" data-name="Trazado 912424" d="M147.075,264H129.122a1.122,1.122,0,1,0,0,2.244h17.953a1.122,1.122,0,0,0,0-2.244Zm0,0" transform="translate(-110.047 -226.971)" fill="#c5ae46"/>
      <path id="Trazado_912425" data-name="Trazado 912425" d="M147.075,240H129.122a1.122,1.122,0,1,0,0,2.244h17.953a1.122,1.122,0,0,0,0-2.244Zm0,0" transform="translate(-110.047 -206.337)" fill="#c5ae46"/>
    </g>
  </g>
</svg>
