<svg xmlns="http://www.w3.org/2000/svg" width="98.937" height="91.687" viewBox="0 0 98.937 91.687"><path d="M97.488,165.965a1.449,1.449,0,0,0-1.449,1.449v3.02a.871.871,0,0,1-.87.87H3.768a.871.871,0,0,1-.87-.87V114.657a.871.871,0,0,1,.87-.87H6.28a1.449,1.449,0,0,0,0-2.9H3.768A3.772,3.772,0,0,0,0,114.657v55.778A3.772,3.772,0,0,0,3.768,174.2H13.3l2.139,7.8a3.778,3.778,0,0,0,3.633,2.772h60.8A3.778,3.778,0,0,0,83.5,182l2.139-7.8h9.53a3.772,3.772,0,0,0,3.768-3.768v-3.02A1.449,1.449,0,0,0,97.488,165.965ZM80.7,181.234a.872.872,0,0,1-.838.641H19.07a.872.872,0,0,1-.838-.64L16.3,174.2H82.633Z" transform="translate(0 -93.087)" fill="#c5ae46"/><path d="M129.456,36.563H117.281a12.4,12.4,0,1,0-22.328,0H47.331a1.449,1.449,0,1,0,0,2.9H96.589L99.6,44.679H44.722A2.225,2.225,0,0,0,42.5,46.9V89.539a2.225,2.225,0,0,0,2.222,2.222H122.79a2.225,2.225,0,0,0,2.222-2.222V46.9a2.225,2.225,0,0,0-2.222-2.222H112.633l3.012-5.217h13.811a.871.871,0,0,1,.87.87V86.326a1.449,1.449,0,0,0,2.9,0V40.332A3.773,3.773,0,0,0,129.456,36.563ZM90.225,63.974h31.888v8.495H109.986a2.225,2.225,0,0,0-2.222,2.222V88.863H99.269V74.691a2.225,2.225,0,0,0-2.222-2.222h-18.2A2.209,2.209,0,0,0,76.969,73.5l-9.7,15.359H57.221l8.2-12.986a2.221,2.221,0,0,0-1.878-3.408H60.926L65.6,70.074a1.836,1.836,0,0,0,0-3.268h0l-5.533-2.832H77.287a2.225,2.225,0,0,0,2.222-2.222V47.578H88V61.752a2.224,2.224,0,0,0,2.222,2.222ZM96.37,75.367v13.5H70.695l8.526-13.5ZM55.607,67.72l-1.515-3.55,8.342,4.27-8.342,4.271,1.515-3.55A1.844,1.844,0,0,0,55.607,67.72Zm21-20.142v13.5h-22.2l-1.61-.824a1.818,1.818,0,0,0-2.089.292,1.86,1.86,0,0,0-.4.533H45.4v-13.5ZM51.044,72.469H45.4V63.974h5.458l1.906,4.466Zm-5.645,2.9H50.16A1.832,1.832,0,0,0,52.8,76.63l2.466-1.263h7.053l-8.525,13.5H45.4Zm65.264,13.5v-13.5h11.451v13.5Zm11.451-41.285v13.5H90.9v-13.5h10.373l2.918,5.054a2.222,2.222,0,0,0,3.849,0h0l2.918-5.054Zm-16,2.591-8.23-14.254a9.5,9.5,0,1,1,16.46,0Z" transform="translate(-34.287 -18.761)" fill="#c5ae46"/><path d="M349.218,54.323a5.39,5.39,0,1,0,5.39,5.39,5.4,5.4,0,0,0-5.39-5.39Zm0,7.881a2.491,2.491,0,1,1,2.491-2.491A2.494,2.494,0,0,1,349.218,62.2Z" transform="translate(-277.388 -47.451)" fill="#c5ae46"/><path d="M148.6,453.789h39.168a1.449,1.449,0,0,0,0-2.9H148.6a1.449,1.449,0,0,0,0,2.9Z" transform="translate(-118.717 -367.387)" fill="#c5ae46"/></svg>