<svg xmlns="http://www.w3.org/2000/svg" width="120" height="120" viewBox="0 0 120 120">
  <g id="Grupo_1118472" data-name="Grupo 1118472" transform="translate(1222.949 5957.174)">
    <g id="Grupo_1118359" data-name="Grupo 1118359" transform="translate(-2312.949 -11313.36)">
      <g id="Grupo_1117618" data-name="Grupo 1117618" transform="translate(8226.898 14914.085)">
        <circle id="Elipse_8441" data-name="Elipse 8441" cx="60" cy="60" r="60" transform="translate(-7136.898 -9557.898)" fill="#f6d957" opacity="0.45"/>
        <circle id="Elipse_8442" data-name="Elipse 8442" cx="48" cy="48" r="48" transform="translate(-7124.898 -9545.898)" fill="#fff"/>
      </g>
      <g id="camino" transform="translate(1119.567 5388.135)">
        <path id="Trazado_912430" data-name="Trazado 912430" d="M59.71,5.022c-2.279.487-4.473.936-6.61,1.373-6.642,1.359-12.916,2.642-19.4,4.6C21.1,14.792,2.065,20.534.134,39.252c-.9,8.74,2.918,16.48,6.281,21.434a.946.946,0,0,0,1.322.25A.964.964,0,0,0,7.985,59.6C4.8,54.914,1.184,47.612,2.026,39.451,3.825,22.005,21.408,16.7,34.247,12.829c6.4-1.93,12.632-3.205,19.231-4.555C55.62,7.836,57.819,7.386,60.1,6.9a.959.959,0,1,0-.394-1.877Z" transform="translate(0 -5.001)" fill="#c5ae46"/>
        <path id="Trazado_912431" data-name="Trazado 912431" d="M79.843,24.178c-8.045,1.46-28.268,6.183-33.713,8.553-4.606,2.005-7.353,5.16-7.736,8.884-.426,4.136,1.192,8.509,4.945,13.37l1.291,1.674c3.362,4.363,6.018,7.809,9.95,12.257a.95.95,0,0,0,1.648-.486l2.2-13.818H56.5L54.67,66.118c-3.193-3.7-5.593-6.814-8.538-10.636L44.84,53.807c-3.437-4.451-4.926-8.374-4.554-11.994.417-4.052,4.313-6.326,6.6-7.321.212-.092.458-.19.719-.291v3.444a2.875,2.875,0,0,0-2.3,2.822v1.918a.955.955,0,0,0,.951.959h9.509a.955.955,0,0,0,.951-.959V40.467a2.875,2.875,0,0,0-2.3-2.822V32.067c7.961-2.216,19.414-4.848,25.763-6a.959.959,0,1,0-.337-1.888ZM49.5,33.532c.886-.29,1.9-.6,3.011-.924v4.982H49.5Zm5.309,6.934v.959H47.206v-.959a.956.956,0,0,1,.951-.959h5.705a.956.956,0,0,1,.951.959Z" transform="translate(-20.105 -15.052)" fill="#c5ae46"/>
        <path id="Trazado_912432" data-name="Trazado 912432" d="M98.951,103.321a.955.955,0,0,0-.951.959v1.96a.951.951,0,1,0,1.9,0v-1.96A.955.955,0,0,0,98.951,103.321Z" transform="translate(-51.406 -56.575)" fill="#c5ae46"/>
        <path id="Trazado_912433" data-name="Trazado 912433" d="M98.951,90.953a.955.955,0,0,0-.951.959v1.96a.951.951,0,1,0,1.9,0v-1.96A.955.955,0,0,0,98.951,90.953Z" transform="translate(-51.406 -50.087)" fill="#c5ae46"/>
        <path id="Trazado_912434" data-name="Trazado 912434" d="M98.951,53.852a.955.955,0,0,0-.951.959v1.96a.951.951,0,1,0,1.9,0v-1.96A.955.955,0,0,0,98.951,53.852Z" transform="translate(-51.406 -30.626)" fill="#c5ae46"/>
        <path id="Trazado_912435" data-name="Trazado 912435" d="M98.951,41.485a.955.955,0,0,0-.951.959V44.4a.951.951,0,1,0,1.9,0v-1.96A.955.955,0,0,0,98.951,41.485Z" transform="translate(-51.406 -24.138)" fill="#c5ae46"/>
        <path id="Trazado_912436" data-name="Trazado 912436" d="M98.951,115.688a.955.955,0,0,0-.951.959v.959a.951.951,0,1,0,1.9,0v-.959A.955.955,0,0,0,98.951,115.688Z" transform="translate(-51.406 -63.062)" fill="#c5ae46"/>
        <path id="Trazado_912437" data-name="Trazado 912437" d="M76.294,27.676a.947.947,0,0,0,.243-.032l1.843-.488a.96.96,0,0,0,.679-1.171A.95.95,0,0,0,77.9,25.3l-1.845.489a.96.96,0,0,0,.242,1.887Z" transform="translate(-39.521 -15.633)" fill="#c5ae46"/>
        <path id="Trazado_912438" data-name="Trazado 912438" d="M64.546,30.444a.941.941,0,0,0,.247-.033c.6-.164,1.215-.315,1.813-.45a.959.959,0,1,0-.415-1.872c-.624.141-1.261.3-1.891.47a.96.96,0,0,0,.246,1.886Z" transform="translate(-33.359 -17.099)" fill="#c5ae46"/>
        <path id="Trazado_912439" data-name="Trazado 912439" d="M33.765,46.1c.412-.426.858-.848,1.327-1.254a.965.965,0,0,0,.1-1.352.944.944,0,0,0-1.341-.1c-.512.443-1,.9-1.451,1.371a.965.965,0,0,0,.017,1.356.945.945,0,0,0,1.345-.018Z" transform="translate(-16.856 -25.018)" fill="#c5ae46"/>
        <path id="Trazado_912440" data-name="Trazado 912440" d="M53.158,34.064a.942.942,0,0,0,.363-.074c.561-.234,1.145-.462,1.737-.677a.961.961,0,0,0,.572-1.227.949.949,0,0,0-1.217-.576c-.619.225-1.231.464-1.818.709a.962.962,0,0,0-.515,1.253.951.951,0,0,0,.879.593Z" transform="translate(-27.385 -18.876)" fill="#c5ae46"/>
        <path id="Trazado_912441" data-name="Trazado 912441" d="M42.464,39.257a.942.942,0,0,0,.5-.146c.51-.322,1.047-.637,1.594-.937a.963.963,0,0,0,.382-1.3.947.947,0,0,0-1.289-.385c-.582.318-1.152.654-1.7,1a.964.964,0,0,0-.3,1.322A.948.948,0,0,0,42.464,39.257Z" transform="translate(-21.775 -21.457)" fill="#c5ae46"/>
        <path id="Trazado_912442" data-name="Trazado 912442" d="M123.688,14.1l-.963.216a.96.96,0,0,0,.208,1.895.944.944,0,0,0,.209-.023l.955-.214a.959.959,0,0,0,.724-1.143.949.949,0,0,0-1.133-.73Z" transform="translate(-63.986 -9.762)" fill="#c5ae46"/>
        <path id="Trazado_912443" data-name="Trazado 912443" d="M111.234,18.73a.934.934,0,0,0,.225-.027c.625-.153,1.242-.3,1.848-.45a.959.959,0,1,0-.442-1.866c-.608.147-1.227.3-1.855.451a.96.96,0,0,0,.224,1.891Z" transform="translate(-57.849 -10.96)" fill="#c5ae46"/>
        <path id="Trazado_912444" data-name="Trazado 912444" d="M99.571,21.632A.958.958,0,0,0,99.8,21.6c.611-.156,1.227-.312,1.844-.467a.959.959,0,0,0,.692-1.162.948.948,0,0,0-1.153-.7q-.929.233-1.85.468a.96.96,0,0,0,.232,1.889Z" transform="translate(-51.731 -12.473)" fill="#c5ae46"/>
        <path id="Trazado_912445" data-name="Trazado 912445" d="M87.928,24.622a.958.958,0,0,0,.239-.03l1.843-.479a.959.959,0,1,0-.474-1.858l-1.846.48a.96.96,0,0,0,.238,1.888Z" transform="translate(-45.624 -14.035)" fill="#c5ae46"/>
        <path id="Trazado_912446" data-name="Trazado 912446" d="M37.771,109.008a.945.945,0,0,0-1.319-.266.964.964,0,0,0-.264,1.33q.523.791,1.091,1.6a.945.945,0,0,0,1.326.229.964.964,0,0,0,.227-1.336Q38.279,109.777,37.771,109.008Z" transform="translate(-18.899 -59.333)" fill="#c5ae46"/>
        <path id="Trazado_912447" data-name="Trazado 912447" d="M27.541,89.525c-.241-.586-.462-1.172-.659-1.741a.949.949,0,0,0-1.211-.59.961.961,0,0,0-.584,1.222c.209.6.443,1.223.7,1.842a.952.952,0,0,0,.879.593.942.942,0,0,0,.363-.074.962.962,0,0,0,.515-1.253Z" transform="translate(-13.131 -48.088)" fill="#c5ae46"/>
        <path id="Trazado_912448" data-name="Trazado 912448" d="M31.662,98.715a.948.948,0,0,0-1.285-.4.963.963,0,0,0-.4,1.3c.295.563.61,1.138.936,1.71a.946.946,0,0,0,1.3.352.963.963,0,0,0,.349-1.31C32.249,99.811,31.945,99.257,31.662,98.715Z" transform="translate(-15.668 -53.891)" fill="#c5ae46"/>
        <path id="Trazado_912449" data-name="Trazado 912449" d="M22.435,64.136a17.811,17.811,0,0,0-.288,2,.957.957,0,0,0,.864,1.039c.028,0,.056,0,.084,0a.954.954,0,0,0,.946-.875,15.881,15.881,0,0,1,.257-1.782.959.959,0,0,0-.74-1.132.949.949,0,0,0-1.122.746Z" transform="translate(-11.615 -35.619)" fill="#c5ae46"/>
        <path id="Trazado_912450" data-name="Trazado 912450" d="M24.456,78.064c-.122-.612-.218-1.222-.284-1.814a.951.951,0,1,0-1.89.217c.073.646.177,1.31.309,1.974a.951.951,0,1,0,1.865-.377Z" transform="translate(-11.685 -41.933)" fill="#c5ae46"/>
        <path id="Trazado_912451" data-name="Trazado 912451" d="M26.2,55.824a.95.95,0,0,0,.859-.546,15.443,15.443,0,0,1,.862-1.578.964.964,0,0,0-.3-1.322.945.945,0,0,0-1.311.3,17.485,17.485,0,0,0-.969,1.774.962.962,0,0,0,.45,1.278.942.942,0,0,0,.408.093Z" transform="translate(-13.242 -29.775)" fill="#c5ae46"/>
        <path id="Trazado_912452" data-name="Trazado 912452" d="M113.72,34.294c-.605.127-1.228.26-1.864.4l5.784,39.042a.953.953,0,0,0,.939.817.971.971,0,0,0,.142-.01.958.958,0,0,0,.8-1.091Z" transform="translate(-58.674 -20.366)" fill="#c5ae46"/>
        <path id="Trazado_912453" data-name="Trazado 912453" d="M81.92,41.142,80.08,52.7h1.926l1.92-12.067q-1.014.252-2.006.5Z" transform="translate(-42.006 -23.694)" fill="#c5ae46"/>
        <path id="Trazado_912454" data-name="Trazado 912454" d="M80.068,70.052H62.952a.955.955,0,0,0-.951.959v4.8a.955.955,0,0,0,.951.959h1.9V80.6a.951.951,0,1,0,1.9,0V76.765H80.068a.955.955,0,0,0,.951-.959v-4.8a.955.955,0,0,0-.951-.959Zm-.951,4.8H63.9V71.97H79.117Z" transform="translate(-32.523 -39.123)" fill="#c5ae46"/>
      </g>
    </g>
  </g>
</svg>
