<svg xmlns="http://www.w3.org/2000/svg" width="94" height="94" viewBox="0 0 94 94"><path d="M63.106,71.151H39.394a8.052,8.052,0,0,1-8.045-8.045V39.394a8.052,8.052,0,0,1,8.045-8.045H63.106a8.052,8.052,0,0,1,8.045,8.045V63.106A8.052,8.052,0,0,1,63.106,71.151ZM39.394,33.89a5.515,5.515,0,0,0-5.5,5.5V63.106a5.515,5.515,0,0,0,5.5,5.5H63.106a5.515,5.515,0,0,0,5.5-5.5V39.394a5.515,5.515,0,0,0-5.5-5.5ZM63.106,64.376H39.394a1.28,1.28,0,0,1-1.27-1.27V39.394a1.28,1.28,0,0,1,1.27-1.27H63.106a1.28,1.28,0,0,1,1.27,1.27V63.106A1.28,1.28,0,0,1,63.106,64.376ZM40.664,61.836H61.836V40.664H40.664ZM51.25,57.6A6.351,6.351,0,1,1,57.6,51.25,6.354,6.354,0,0,1,51.25,57.6Zm0-10.162a3.811,3.811,0,1,0,3.811,3.811A3.817,3.817,0,0,0,51.25,47.439ZM70.1,13.87a1.278,1.278,0,0,0,0-1.8,26.619,26.619,0,0,0-37.7,0,1.269,1.269,0,0,0,1.8,1.8,24.084,24.084,0,0,1,34.111,0,1.268,1.268,0,0,0,1.8,0Zm-4.776,4.776a1.278,1.278,0,0,0,0-1.8,19.913,19.913,0,0,0-28.149,0,1.269,1.269,0,1,0,1.8,1.8,17.378,17.378,0,0,1,24.559,0,1.268,1.268,0,0,0,1.8,0ZM43.764,23.44a10.59,10.59,0,0,1,14.972,0,1.269,1.269,0,0,0,1.8-1.8,13.125,13.125,0,0,0-18.563,0,1.278,1.278,0,0,0,0,1.8,1.268,1.268,0,0,0,1.8,0ZM70.1,90.425a1.269,1.269,0,0,0-1.8-1.8,24.084,24.084,0,0,1-34.111,0,1.269,1.269,0,0,0-1.8,1.8,26.619,26.619,0,0,0,37.7,0Zm-4.776-4.776a1.269,1.269,0,0,0-1.8-1.8,17.378,17.378,0,0,1-24.559,0,1.269,1.269,0,0,0-1.8,1.8,19.913,19.913,0,0,0,28.149,0Zm-4.793-4.793a1.269,1.269,0,0,0-1.8-1.8,10.59,10.59,0,0,1-14.972,0,1.269,1.269,0,0,0-1.8,1.8,13.125,13.125,0,0,0,18.563,0ZM90.425,70.1a26.619,26.619,0,0,0,0-37.7,1.269,1.269,0,1,0-1.8,1.8,24.084,24.084,0,0,1,0,34.111,1.278,1.278,0,0,0,0,1.8,1.268,1.268,0,0,0,1.8,0Zm-4.776-4.776a19.913,19.913,0,0,0,0-28.149,1.269,1.269,0,0,0-1.8,1.8,17.378,17.378,0,0,1,0,24.559,1.278,1.278,0,0,0,0,1.8,1.268,1.268,0,0,0,1.8,0Zm-4.793-4.793a13.125,13.125,0,0,0,0-18.563,1.269,1.269,0,0,0-1.8,1.8,10.59,10.59,0,0,1,0,14.972,1.278,1.278,0,0,0,0,1.8,1.268,1.268,0,0,0,1.8,0ZM13.87,70.1a1.278,1.278,0,0,0,0-1.8,24.084,24.084,0,0,1,0-34.111,1.269,1.269,0,1,0-1.8-1.8,26.619,26.619,0,0,0,0,37.7,1.268,1.268,0,0,0,1.8,0Zm4.776-4.776a1.278,1.278,0,0,0,0-1.8,17.378,17.378,0,0,1,0-24.559,1.269,1.269,0,0,0-1.8-1.8,19.913,19.913,0,0,0,0,28.149,1.268,1.268,0,0,0,1.8,0Zm4.793-4.793a1.278,1.278,0,0,0,0-1.8,10.59,10.59,0,0,1,0-14.972,1.269,1.269,0,0,0-1.8-1.8,13.125,13.125,0,0,0,0,18.563,1.268,1.268,0,0,0,1.8,0Z" transform="translate(-4.25 -4.25)" fill="#c5ae46"/></svg>