<svg xmlns="http://www.w3.org/2000/svg" width="89" height="82.036" viewBox="0 0 89 82.036"><g transform="translate(0 -5.001)"><path d="M87.31,5.031c-3.332.711-6.541,1.368-9.665,2.007C67.933,9.025,58.759,10.9,49.28,13.761,30.859,19.317,3.019,27.715.2,55.084c-1.318,12.78,4.267,24.1,9.184,31.342a1.383,1.383,0,0,0,1.933.365,1.41,1.41,0,0,0,.362-1.949C7.021,77.986,1.732,67.308,2.962,55.375,5.593,29.865,31.3,22.11,50.077,16.447c9.358-2.822,18.471-4.687,28.12-6.661,3.132-.64,6.347-1.3,9.688-2.011a1.4,1.4,0,1,0-.576-2.744Z" transform="translate(0 0)" fill="#c5ae46"/><path d="M99.033,24.185C87.27,26.32,57.7,33.226,49.737,36.692,43,39.624,38.985,44.237,38.425,49.683c-.623,6.048,1.743,12.443,7.23,19.55l1.887,2.447c4.916,6.38,8.8,11.419,14.549,17.923a1.389,1.389,0,0,0,2.41-.711l3.215-20.206H64.9L62.223,85.511c-4.668-5.409-8.179-9.964-12.485-15.552L47.85,67.51c-5.025-6.508-7.2-12.245-6.659-17.538.61-5.926,6.307-9.251,9.648-10.706.309-.135.669-.278,1.051-.425v5.035A4.2,4.2,0,0,0,48.53,48v2.8a1.4,1.4,0,0,0,1.39,1.4h13.9a1.4,1.4,0,0,0,1.39-1.4V48a4.2,4.2,0,0,0-3.36-4.126V35.72c11.641-3.24,28.388-7.09,37.671-8.774a1.4,1.4,0,1,0-.492-2.761ZM54.671,37.863c1.3-.425,2.78-.879,4.4-1.351V43.8h-4.4ZM62.434,48v1.4H51.31V48a1.4,1.4,0,0,1,1.39-1.4h8.342a1.4,1.4,0,0,1,1.39,1.4Z" transform="translate(-11.681 -5.84)" fill="#c5ae46"/><path d="M99.39,103.321a1.4,1.4,0,0,0-1.39,1.4v2.866a1.39,1.39,0,1,0,2.781,0v-2.866A1.4,1.4,0,0,0,99.39,103.321Z" transform="translate(-29.868 -29.966)" fill="#c5ae46"/><path d="M99.39,90.953a1.4,1.4,0,0,0-1.39,1.4v2.866a1.39,1.39,0,1,0,2.781,0V92.356A1.4,1.4,0,0,0,99.39,90.953Z" transform="translate(-29.868 -26.196)" fill="#c5ae46"/><path d="M99.39,53.852a1.4,1.4,0,0,0-1.39,1.4V58.12a1.39,1.39,0,1,0,2.781,0V55.254A1.4,1.4,0,0,0,99.39,53.852Z" transform="translate(-29.868 -14.889)" fill="#c5ae46"/><path d="M99.39,41.485a1.4,1.4,0,0,0-1.39,1.4v2.866a1.39,1.39,0,1,0,2.781,0V42.887A1.4,1.4,0,0,0,99.39,41.485Z" transform="translate(-29.868 -11.119)" fill="#c5ae46"/><path d="M99.39,115.688a1.4,1.4,0,0,0-1.39,1.4v1.4a1.39,1.39,0,1,0,2.781,0v-1.4A1.4,1.4,0,0,0,99.39,115.688Z" transform="translate(-29.868 -33.735)" fill="#c5ae46"/><path d="M76.733,28.789a1.385,1.385,0,0,0,.355-.047l2.694-.714a1.4,1.4,0,0,0,.992-1.713,1.389,1.389,0,0,0-1.7-1l-2.7.716a1.4,1.4,0,0,0,.353,2.759Z" transform="translate(-22.963 -6.177)" fill="#c5ae46"/><path d="M64.986,31.543a1.376,1.376,0,0,0,.362-.049c.884-.24,1.776-.461,2.651-.658a1.4,1.4,0,1,0-.607-2.738c-.913.206-1.843.438-2.765.687a1.4,1.4,0,0,0,.359,2.757Z" transform="translate(-19.382 -7.03)" fill="#c5ae46"/><path d="M34.52,47.462c.6-.622,1.255-1.239,1.941-1.833a1.411,1.411,0,0,0,.15-1.978A1.38,1.38,0,0,0,34.65,43.5c-.748.647-1.462,1.322-2.121,2a1.411,1.411,0,0,0,.025,1.983,1.382,1.382,0,0,0,1.966-.026Z" transform="translate(-9.794 -11.631)" fill="#c5ae46"/><path d="M53.6,35.271a1.377,1.377,0,0,0,.531-.107c.82-.342,1.674-.675,2.539-.99a1.4,1.4,0,0,0,.836-1.795,1.387,1.387,0,0,0-1.78-.843c-.905.329-1.8.678-2.659,1.037a1.406,1.406,0,0,0-.753,1.832,1.391,1.391,0,0,0,1.286.867Z" transform="translate(-15.911 -8.062)" fill="#c5ae46"/><path d="M42.9,40.591a1.378,1.378,0,0,0,.736-.214c.746-.471,1.53-.932,2.331-1.37a1.409,1.409,0,0,0,.559-1.9,1.385,1.385,0,0,0-1.885-.564c-.851.466-1.685.957-2.479,1.458a1.41,1.41,0,0,0-.441,1.933A1.386,1.386,0,0,0,42.9,40.591Z" transform="translate(-12.652 -9.561)" fill="#c5ae46"/><path d="M124.476,14.111l-1.408.316a1.4,1.4,0,0,0,.3,2.77,1.38,1.38,0,0,0,.306-.034l1.4-.313a1.4,1.4,0,0,0,1.059-1.671,1.388,1.388,0,0,0-1.657-1.068Z" transform="translate(-37.177 -2.767)" fill="#c5ae46"/><path d="M111.674,19.825a1.365,1.365,0,0,0,.33-.04c.914-.224,1.817-.444,2.7-.657a1.4,1.4,0,1,0-.646-2.728c-.888.214-1.795.435-2.713.66a1.4,1.4,0,0,0,.328,2.765Z" transform="translate(-33.612 -3.463)" fill="#c5ae46"/><path d="M100.011,22.734a1.4,1.4,0,0,0,.342-.042c.893-.228,1.794-.456,2.7-.683a1.4,1.4,0,0,0,1.013-1.7,1.386,1.386,0,0,0-1.685-1.022q-1.358.341-2.705.685a1.4,1.4,0,0,0,.34,2.762Z" transform="translate(-30.057 -4.342)" fill="#c5ae46"/><path d="M88.367,25.73a1.4,1.4,0,0,0,.35-.044l2.695-.7a1.4,1.4,0,1,0-.692-2.717l-2.7.7a1.4,1.4,0,0,0,.348,2.76Z" transform="translate(-26.509 -5.249)" fill="#c5ae46"/><path d="M38.576,109.205a1.382,1.382,0,0,0-1.928-.389,1.41,1.41,0,0,0-.386,1.945q.764,1.156,1.6,2.343a1.382,1.382,0,0,0,1.938.336,1.41,1.41,0,0,0,.333-1.954Q39.32,110.33,38.576,109.205Z" transform="translate(-10.981 -31.569)" fill="#c5ae46"/><path d="M28.7,90.626c-.352-.857-.676-1.713-.964-2.545a1.388,1.388,0,0,0-1.771-.862,1.406,1.406,0,0,0-.854,1.786c.306.882.648,1.788,1.02,2.693a1.391,1.391,0,0,0,1.286.867,1.377,1.377,0,0,0,.531-.107,1.406,1.406,0,0,0,.753-1.832Z" transform="translate(-7.629 -25.035)" fill="#c5ae46"/><path d="M32.49,98.951a1.386,1.386,0,0,0-1.879-.585,1.409,1.409,0,0,0-.581,1.895c.431.824.892,1.665,1.369,2.5a1.383,1.383,0,0,0,1.9.514,1.409,1.409,0,0,0,.51-1.915C33.348,100.554,32.9,99.744,32.49,98.951Z" transform="translate(-9.103 -28.406)" fill="#c5ae46"/><path d="M22.57,64.491a26.044,26.044,0,0,0-.422,2.924,1.4,1.4,0,0,0,1.263,1.519c.041,0,.082.005.123.005a1.4,1.4,0,0,0,1.383-1.28,23.222,23.222,0,0,1,.375-2.605A1.4,1.4,0,0,0,24.212,63.4a1.387,1.387,0,0,0-1.641,1.091Z" transform="translate(-6.749 -17.79)" fill="#c5ae46"/><path d="M25.464,79.291c-.178-.894-.318-1.786-.416-2.652a1.391,1.391,0,1,0-2.763.318c.107.944.259,1.915.453,2.886a1.391,1.391,0,1,0,2.727-.552Z" transform="translate(-6.789 -21.458)" fill="#c5ae46"/><path d="M26.635,57.485a1.389,1.389,0,0,0,1.256-.8,22.582,22.582,0,0,1,1.261-2.307,1.409,1.409,0,0,0-.436-1.934,1.382,1.382,0,0,0-1.918.44A25.566,25.566,0,0,0,25.38,55.48a1.407,1.407,0,0,0,.657,1.869,1.378,1.378,0,0,0,.6.136Z" transform="translate(-7.694 -14.394)" fill="#c5ae46"/><path d="M114.581,34.294c-.885.186-1.8.381-2.725.582l8.458,57.089a1.394,1.394,0,0,0,1.373,1.195,1.419,1.419,0,0,0,.207-.015,1.4,1.4,0,0,0,1.17-1.595Z" transform="translate(-34.091 -8.928)" fill="#c5ae46"/><path d="M82.771,41.375,80.08,58.282H82.9L85.7,40.638q-1.483.368-2.934.738Z" transform="translate(-24.407 -10.861)" fill="#c5ae46"/><path d="M88.419,70.052H63.391a1.4,1.4,0,0,0-1.39,1.4v7.012a1.4,1.4,0,0,0,1.39,1.4h2.781v5.609a1.39,1.39,0,1,0,2.781,0V79.868H88.419a1.4,1.4,0,0,0,1.39-1.4V71.454a1.4,1.4,0,0,0-1.39-1.4Zm-1.39,7.012H64.782V72.856H87.028Z" transform="translate(-18.896 -19.826)" fill="#c5ae46"/></g></svg>