<svg xmlns="http://www.w3.org/2000/svg" xmlns:xlink="http://www.w3.org/1999/xlink" width="98" height="98" viewBox="0 0 98 98"><defs><radialGradient id="a" cx="0.5" cy="0.5" r="0.5" gradientUnits="objectBoundingBox"><stop offset="0" stop-color="#fff"/><stop offset="0.787" stop-color="#fff" stop-opacity="0.859"/><stop offset="1" stop-color="#fff" stop-opacity="0.22"/></radialGradient></defs><g transform="translate(-1246.333 -174)"><g transform="translate(330 -190)"><g transform="translate(-286.987 -24.742)"><g transform="translate(1203.32 388.742)" opacity="0.859" fill="url(#a)"><path d="M 49 96.5 C 42.58687973022461 96.5 36.36638641357422 95.24432373046875 30.51132011413574 92.76782989501953 C 24.85522651672363 90.37550354003906 19.77522659301758 86.95037078857422 15.41242694854736 82.58757019042969 C 11.04962635040283 78.22476959228516 7.62449312210083 73.144775390625 5.232173442840576 67.48867797851562 C 2.755680084228516 61.63361358642578 1.5 55.41312026977539 1.5 49 C 1.5 42.58687973022461 2.755680084228516 36.36638641357422 5.232173442840576 30.51132011413574 C 7.62449312210083 24.85522651672363 11.04962635040283 19.77522659301758 15.41242694854736 15.41242694854736 C 19.77522659301758 11.04962635040283 24.85522651672363 7.62449312210083 30.51132011413574 5.232173442840576 C 36.36638641357422 2.755680084228516 42.58687973022461 1.5 49 1.5 C 55.41312026977539 1.5 61.63361358642578 2.755680084228516 67.48867797851562 5.232173442840576 C 73.144775390625 7.62449312210083 78.22476959228516 11.04962635040283 82.58757019042969 15.41242694854736 C 86.95037078857422 19.77522659301758 90.37550354003906 24.85522651672363 92.76782989501953 30.51132011413574 C 95.24432373046875 36.36638641357422 96.5 42.58687973022461 96.5 49 C 96.5 55.41312026977539 95.24432373046875 61.63361358642578 92.76782989501953 67.48867797851562 C 90.37550354003906 73.144775390625 86.95037078857422 78.22476959228516 82.58757019042969 82.58757019042969 C 78.22476959228516 86.95037078857422 73.144775390625 90.37550354003906 67.48867797851562 92.76782989501953 C 61.63361358642578 95.24432373046875 55.41312026977539 96.5 49 96.5 Z" stroke="none"/><path d="M 49 3 C 42.78872299194336 3 36.76481628417969 4.215812683105469 31.09564971923828 6.613677978515625 C 25.61835479736328 8.930366516113281 20.69861602783203 12.24755096435547 16.47309112548828 16.47309112548828 C 12.24755096435547 20.69861602783203 8.930366516113281 25.61835479736328 6.613677978515625 31.09564971923828 C 4.215812683105469 36.76481628417969 3 42.78872299194336 3 49 C 3 55.21127700805664 4.215812683105469 61.23518371582031 6.613677978515625 66.90435791015625 C 8.930366516113281 72.38164520263672 12.24755096435547 77.30138397216797 16.47309112548828 81.52690887451172 C 20.69861602783203 85.75244903564453 25.61835479736328 89.06963348388672 31.09564971923828 91.38632202148438 C 36.76481628417969 93.78418731689453 42.78872299194336 95 49 95 C 55.21127700805664 95 61.23518371582031 93.78418731689453 66.90435791015625 91.38632202148438 C 72.38164520263672 89.06963348388672 77.30138397216797 85.75244903564453 81.52690887451172 81.52690887451172 C 85.75244903564453 77.30138397216797 89.06963348388672 72.38164520263672 91.38632202148438 66.90435791015625 C 93.78418731689453 61.23518371582031 95 55.21127700805664 95 49 C 95 42.78872299194336 93.78418731689453 36.76481628417969 91.38632202148438 31.09564971923828 C 89.06963348388672 25.61835479736328 85.75244903564453 20.69861602783203 81.52690887451172 16.47309112548828 C 77.30138397216797 12.24755096435547 72.38164520263672 8.930366516113281 66.90435791015625 6.613677978515625 C 61.23518371582031 4.215812683105469 55.21127700805664 3 49 3 M 49 0 C 76.06195068359375 0 98 21.93804931640625 98 49 C 98 76.06195068359375 76.06195068359375 98 49 98 C 21.93804931640625 98 0 76.06195068359375 0 49 C 0 21.93804931640625 21.93804931640625 0 49 0 Z" stroke="none" fill="#fff"/></g><g transform="translate(1203.32 388.742)" fill="none" stroke="#fff" stroke-width="3"><rect width="98" height="98" rx="49" stroke="none"/><rect x="1.5" y="1.5" width="95" height="95" rx="47.5" fill="none"/></g></g></g><g transform="translate(12922.506 12051.212)"><path d="M145.94,47.862A6.658,6.658,0,1,0,152.6,54.52a6.665,6.665,0,0,0-6.658-6.658m0,11.293a4.635,4.635,0,1,1,4.635-4.635,4.641,4.641,0,0,1-4.635,4.635" transform="translate(-11786.034 -11866.85)" fill="#4c77ae"/><path d="M148.2,54a2.781,2.781,0,1,0,2.781,2.781A2.781,2.781,0,0,0,148.2,54" transform="translate(-11788.298 -11869.111)" fill="#4c77ae"/><path d="M199.838,47.862A6.658,6.658,0,1,0,206.5,54.52a6.665,6.665,0,0,0-6.658-6.658m0,11.293a4.635,4.635,0,1,1,4.635-4.635,4.64,4.64,0,0,1-4.635,4.635" transform="translate(-11805.896 -11866.85)" fill="#4c77ae"/><path d="M202.1,54a2.781,2.781,0,1,0,2.781,2.781A2.781,2.781,0,0,0,202.1,54" transform="translate(-11808.159 -11869.111)" fill="#4c77ae"/><path d="M187.178,16.938,181.6,14.6c-.712-1.269-3.416-5.96-5.541-7.805a1.01,1.01,0,0,0-.663-.248h-8.279V1.012A1.011,1.011,0,0,0,166.1,0H125.376a1.011,1.011,0,0,0-1.011,1.011v24.7a1.011,1.011,0,0,0,1.011,1.011h1.757V34.1a1.011,1.011,0,0,0,1.011,1.012H132.6a1.012,1.012,0,0,0,.953-.673,7.307,7.307,0,0,1,13.773,0,1.012,1.012,0,0,0,.953.673H166.64a1.011,1.011,0,0,0,.952-.673,7.307,7.307,0,0,1,13.773,0,1.012,1.012,0,0,0,.953.673h4.469A1.011,1.011,0,0,0,187.8,34.1V17.871a1.012,1.012,0,0,0-.621-.933M167.127,8.569H175c2.123,2.067,4.967,7.257,5,7.312a1.014,1.014,0,0,0,.5.448l5.286,2.215v6.268H167.127Zm-40.74-3.591h2.556V21.825h-2.556Zm3.856,0h2.719V21.825h-2.719Zm4.018,0h2.719V21.825h-2.719Zm4.019,0H141V21.825h-2.719Zm4.019,0h2.719V21.825H142.3Zm4.019,0h2.719V21.825h-2.719Zm4.018,0h2.719V21.825h-2.719Zm4.019,0h2.719V21.825h-2.719Zm4.019,0h2.719V21.825h-2.719Zm4.018,0h2.7V21.825h-2.7ZM126.388,2.023h38.7v1.51h-38.7Zm0,21.246h38.7V24.7h-38.7Zm59.389,9.821H183a9.328,9.328,0,0,0-17.046,0H148.965a9.328,9.328,0,0,0-17.046,0h-2.764V26.834h56.621Z" transform="translate(-11780.538 -11849.213)" fill="#4c77ae"/><path d="M199.358,16.328h-5.327v6.316h9.833l-.053-.09a44.137,44.137,0,0,0-4.453-6.226" transform="translate(-11806.211 -11855.229)" fill="#4c77ae"/><rect width="3.202" height="1.164" transform="translate(-11610.748 -11830.185)" fill="#4c77ae"/></g></g></svg>