<svg xmlns="http://www.w3.org/2000/svg" xmlns:xlink="http://www.w3.org/1999/xlink" width="98" height="98" viewBox="0 0 98 98"><defs><radialGradient id="a" cx="0.5" cy="0.5" r="0.5" gradientUnits="objectBoundingBox"><stop offset="0" stop-color="#fff"/><stop offset="0.669" stop-color="#fff" stop-opacity="0.859"/><stop offset="1" stop-color="#fff" stop-opacity="0.22"/></radialGradient></defs><g transform="translate(-914.333 -184)"><g transform="translate(-2 -180)"><g transform="translate(-286.987 -24.742)"><g transform="translate(1203.32 388.742)" opacity="0.859" fill="url(#a)"><path d="M 49 96.5 C 42.58687973022461 96.5 36.36638641357422 95.24432373046875 30.51132011413574 92.76782989501953 C 24.85522651672363 90.37550354003906 19.77522659301758 86.95037078857422 15.41242694854736 82.58757019042969 C 11.04962635040283 78.22476959228516 7.62449312210083 73.144775390625 5.232173442840576 67.48867797851562 C 2.755680084228516 61.63361358642578 1.5 55.41312026977539 1.5 49 C 1.5 42.58687973022461 2.755680084228516 36.36638641357422 5.232173442840576 30.51132011413574 C 7.62449312210083 24.85522651672363 11.04962635040283 19.77522659301758 15.41242694854736 15.41242694854736 C 19.77522659301758 11.04962635040283 24.85522651672363 7.62449312210083 30.51132011413574 5.232173442840576 C 36.36638641357422 2.755680084228516 42.58687973022461 1.5 49 1.5 C 55.41312026977539 1.5 61.63361358642578 2.755680084228516 67.48867797851562 5.232173442840576 C 73.144775390625 7.62449312210083 78.22476959228516 11.04962635040283 82.58757019042969 15.41242694854736 C 86.95037078857422 19.77522659301758 90.37550354003906 24.85522651672363 92.76782989501953 30.51132011413574 C 95.24432373046875 36.36638641357422 96.5 42.58687973022461 96.5 49 C 96.5 55.41312026977539 95.24432373046875 61.63361358642578 92.76782989501953 67.48867797851562 C 90.37550354003906 73.144775390625 86.95037078857422 78.22476959228516 82.58757019042969 82.58757019042969 C 78.22476959228516 86.95037078857422 73.144775390625 90.37550354003906 67.48867797851562 92.76782989501953 C 61.63361358642578 95.24432373046875 55.41312026977539 96.5 49 96.5 Z" stroke="none"/><path d="M 49 3 C 42.78872299194336 3 36.76481628417969 4.215812683105469 31.09564971923828 6.613677978515625 C 25.61835479736328 8.930366516113281 20.69861602783203 12.24755096435547 16.47309112548828 16.47309112548828 C 12.24755096435547 20.69861602783203 8.930366516113281 25.61835479736328 6.613677978515625 31.09564971923828 C 4.215812683105469 36.76481628417969 3 42.78872299194336 3 49 C 3 55.21127700805664 4.215812683105469 61.23518371582031 6.613677978515625 66.90435791015625 C 8.930366516113281 72.38164520263672 12.24755096435547 77.30138397216797 16.47309112548828 81.52690887451172 C 20.69861602783203 85.75244903564453 25.61835479736328 89.06963348388672 31.09564971923828 91.38632202148438 C 36.76481628417969 93.78418731689453 42.78872299194336 95 49 95 C 55.21127700805664 95 61.23518371582031 93.78418731689453 66.90435791015625 91.38632202148438 C 72.38164520263672 89.06963348388672 77.30138397216797 85.75244903564453 81.52690887451172 81.52690887451172 C 85.75244903564453 77.30138397216797 89.06963348388672 72.38164520263672 91.38632202148438 66.90435791015625 C 93.78418731689453 61.23518371582031 95 55.21127700805664 95 49 C 95 42.78872299194336 93.78418731689453 36.76481628417969 91.38632202148438 31.09564971923828 C 89.06963348388672 25.61835479736328 85.75244903564453 20.69861602783203 81.52690887451172 16.47309112548828 C 77.30138397216797 12.24755096435547 72.38164520263672 8.930366516113281 66.90435791015625 6.613677978515625 C 61.23518371582031 4.215812683105469 55.21127700805664 3 49 3 M 49 0 C 76.06195068359375 0 98 21.93804931640625 98 49 C 98 76.06195068359375 76.06195068359375 98 49 98 C 21.93804931640625 98 0 76.06195068359375 0 49 C 0 21.93804931640625 21.93804931640625 0 49 0 Z" stroke="none" fill="#fff"/></g><g transform="translate(1203.32 388.742)" fill="none" stroke="#fff" stroke-width="3"><rect width="98" height="98" rx="49" stroke="none"/><rect x="1.5" y="1.5" width="95" height="95" rx="47.5" fill="none"/></g></g></g><g transform="translate(12681.333 11953.12)"><path d="M27.163,199.664a26.987,26.987,0,0,0,19.7-45.446c2.164-3.558,4.766-8.392,4.766-11.069a8.611,8.611,0,1,0-17.222,0,11.041,11.041,0,0,0,.955,3.786,26.974,26.974,0,0,0-22,2.527A7.184,7.184,0,0,0,0,153.126c0,1.842,1.473,4.891,2.983,7.531a26.993,26.993,0,0,0,24.181,39.007m-15.543-25.72a26.269,26.269,0,0,0,1.99,8.4,27.308,27.308,0,0,0-6.8,3.824,24.282,24.282,0,0,1-4.051-12.228Zm3.949-8.958a39.581,39.581,0,0,0,10.312,1.846v4.549H14.188a23.155,23.155,0,0,1,1.381-6.395m24.569,6.395H28.445v-4.5a40.7,40.7,0,0,0,10.468-1.456,22.942,22.942,0,0,1,1.226,5.958m-1.674,9.7a40.885,40.885,0,0,0-10.019-1.335v-5.806H40.139a23.392,23.392,0,0,1-1.674,7.141m-24.276-7.141H25.881V179.8a39.779,39.779,0,0,0-9.855,1.7,23.644,23.644,0,0,1-1.838-7.554m11.693,8.419v12.806a44.489,44.489,0,0,1-8.761-11.33,37.314,37.314,0,0,1,8.761-1.476m2.563,12.8V182.313a38.513,38.513,0,0,1,8.954,1.137,44.3,44.3,0,0,1-8.954,11.715m0-30.85V149.989a44.035,44.035,0,0,1,9.522,13.041,38.245,38.245,0,0,1-9.522,1.287M25.881,150v14.271a37.035,37.035,0,0,1-9.33-1.653A44.445,44.445,0,0,1,25.881,150M8.338,188.229c.008-.006.016-.01.024-.016a24.836,24.836,0,0,1,6.312-3.533A40.494,40.494,0,0,0,19,191.44a50.97,50.97,0,0,0,4.957,5.451,24.434,24.434,0,0,1-15.624-8.662m22.027,8.662a50.969,50.969,0,0,0,4.957-5.451,40.118,40.118,0,0,0,4.575-7.254,26.663,26.663,0,0,1,6.686,3.294,24.444,24.444,0,0,1-16.218,9.411m17.668-11.525a29.162,29.162,0,0,0-7.112-3.533,25.992,25.992,0,0,0,1.785-7.888h8.862a24.272,24.272,0,0,1-3.535,11.422m-5.327-13.985a25.6,25.6,0,0,0-1.357-6.735,28.44,28.44,0,0,0,7.218-3.765,24.262,24.262,0,0,1,3,10.5Zm6.361-28.231c0,1.786-1.97,5.671-4.1,9.234-.454.761-.914,1.507-1.365,2.215-.2.311-.395.616-.587.911-.567-.867-1.164-1.816-1.754-2.8-.88-1.46-1.742-2.987-2.461-4.411a14.527,14.527,0,0,1-1.833-5.153,6.048,6.048,0,0,1,12.1,0m-12.144,7.11a88.1,88.1,0,0,0,5.042,8.278,1.282,1.282,0,0,0,2.109,0c.182-.263.7-1.015,1.377-2.067a24.476,24.476,0,0,1,1.757,2.228,25.748,25.748,0,0,1-6.781,3.561,39.766,39.766,0,0,0-5.1-8.467,52.033,52.033,0,0,0-4.761-5.33,24.246,24.246,0,0,1,6.355,1.8m-13.155-1.8A52.054,52.054,0,0,0,19,153.793a40.259,40.259,0,0,0-4.866,7.939,27.135,27.135,0,0,1-2.644-1.264c1.935-3.4,2.88-5.8,2.88-7.342a7.215,7.215,0,0,0-.1-1.213,24.271,24.271,0,0,1,9.5-3.451M7.186,148.5a4.627,4.627,0,0,1,4.623,4.623,2.826,2.826,0,0,1-.089.611,23.762,23.762,0,0,1-2.4,5.392q-.577,1.03-1.309,2.209-.391.631-.829,1.3c-.465-.711-.888-1.386-1.276-2.029q-.837-1.389-1.446-2.555c-1.343-2.557-1.9-4.263-1.9-4.928A4.629,4.629,0,0,1,7.186,148.5m-2.6,14.811c.76,1.2,1.362,2.083,1.546,2.35a1.282,1.282,0,0,0,2.109,0c.046-.067.892-1.294,1.942-2.993A29.627,29.627,0,0,0,13.17,164.1a25.872,25.872,0,0,0-1.549,7.281H2.759a24.25,24.25,0,0,1,1.826-8.067" transform="translate(-11745 -11887.658)" fill="#4c77ae"/><path d="M6.953,159.595a3.392,3.392,0,1,0-2.215-3.179,3.375,3.375,0,0,0,2.215,3.179m1.179-4.743A1.566,1.566,0,0,1,9.7,156.416a1.5,1.5,0,0,1-.018.225,1.563,1.563,0,0,1-1.317,1.32,1.528,1.528,0,0,1-.228.018,1.563,1.563,0,1,1,0-3.127" transform="translate(-11745.945 -11891.348)" fill="#4c77ae"/><path d="M52.756,147.673a3.993,3.993,0,1,0-3.993-3.993,4,4,0,0,0,3.993,3.993m0-6.155a2.162,2.162,0,1,1-2.162,2.162,2.164,2.164,0,0,1,2.162-2.162" transform="translate(-11754.736 -11888.687)" fill="#4c77ae"/></g></g></svg>