<svg xmlns="http://www.w3.org/2000/svg" width="78.949" height="78.949" viewBox="0 0 78.949 78.949"><g transform="translate(-1 -1)"><path d="M9.82,57a3.82,3.82,0,1,0,3.82,3.82A3.825,3.825,0,0,0,9.82,57Zm0,5.093a1.273,1.273,0,1,1,1.273-1.273A1.275,1.275,0,0,1,9.82,62.093Z" transform="translate(1.367 15.309)" fill="#4c77ae"/><path d="M4.051,55.61l1.8,1.8a6.367,6.367,0,0,1,9,0l1.8-1.8a8.912,8.912,0,0,0-12.6,0Z" transform="translate(0.834 14.215)" fill="#4c77ae"/><path d="M1.222,53.1l1.8,1.8a11.475,11.475,0,0,1,16.209,0l1.8-1.8a14.024,14.024,0,0,0-19.81,0Z" transform="translate(0.061 13.123)" fill="#4c77ae"/><path d="M62.28,58.64H59.734V53.547H57.187V58.64H54.64V56.094H52.094V58.64H49.547V51H47V61.187H62.28Z" transform="translate(12.575 13.669)" fill="#4c77ae"/><path d="M76.129,31.561H65.942a3.825,3.825,0,0,0-3.82,3.82V39.2H56.964a16.459,16.459,0,0,0-3.932-9.483L65.2,17.554h9.66A5.094,5.094,0,0,0,76.046,7.507a7.642,7.642,0,0,0-15.115,0,5.079,5.079,0,0,0,.712,10L51.231,27.918a16.463,16.463,0,0,0-9.483-3.932V18.827h3.82a3.825,3.825,0,0,0,3.82-3.82V4.82A3.825,3.825,0,0,0,45.568,1H35.381a3.825,3.825,0,0,0-3.82,3.82V15.007a3.825,3.825,0,0,0,3.82,3.82H39.2v5.158a16.459,16.459,0,0,0-9.483,3.932l-6.13-6.131a12.765,12.765,0,1,0-1.8,1.8l6.13,6.131A16.463,16.463,0,0,0,23.984,39.2H18.827v-3.82a3.825,3.825,0,0,0-3.82-3.82H4.82A3.825,3.825,0,0,0,1,35.381V45.568a3.825,3.825,0,0,0,3.82,3.82H15.007a3.825,3.825,0,0,0,3.82-3.82v-3.82h5.158a16.459,16.459,0,0,0,3.932,9.483L19.2,59.948l1.8,1.8,8.718-8.718A16.463,16.463,0,0,0,39.2,56.964v5.158h-3.82a3.825,3.825,0,0,0-3.82,3.82V76.129a3.825,3.825,0,0,0,3.82,3.82H45.568a3.825,3.825,0,0,0,3.82-3.82V65.942a3.825,3.825,0,0,0-3.82-3.82h-3.82V56.964a16.459,16.459,0,0,0,9.483-3.932l6.592,6.592A3.812,3.812,0,0,0,54.482,63.4V76.129a3.825,3.825,0,0,0,3.82,3.82H76.129a3.825,3.825,0,0,0,3.82-3.82V63.4a3.825,3.825,0,0,0-3.82-3.82H61.376l-8.344-8.344a16.463,16.463,0,0,0,3.932-9.483h5.158v3.82a3.825,3.825,0,0,0,3.82,3.82H76.129a3.825,3.825,0,0,0,3.82-3.82V35.381a3.825,3.825,0,0,0-3.82-3.82ZM46.841,11.187H34.108V8.64H46.841Zm-11.46-7.64H45.568A1.275,1.275,0,0,1,46.841,4.82V6.093H34.108V4.82A1.275,1.275,0,0,1,35.381,3.547Zm-1.273,11.46V13.734H46.841v1.273a1.275,1.275,0,0,1-1.273,1.273H35.381A1.275,1.275,0,0,1,34.108,15.007ZM4.82,34.108H15.007a1.275,1.275,0,0,1,1.273,1.273v1.273H3.547V35.381A1.275,1.275,0,0,1,4.82,34.108ZM16.28,39.2v2.547H3.547V39.2Zm-1.273,7.64H4.82a1.275,1.275,0,0,1-1.273-1.273V44.295H16.28v1.273A1.275,1.275,0,0,1,15.007,46.841Zm19.1,22.921H46.841v2.547H34.108Zm11.46,7.64H35.381a1.275,1.275,0,0,1-1.273-1.273V74.856H46.841v1.273A1.275,1.275,0,0,1,45.568,77.4Zm1.273-11.46v1.273H34.108V65.942a1.275,1.275,0,0,1,1.273-1.273H45.568A1.275,1.275,0,0,1,46.841,65.942Zm-6.367-11.46c-1.369,0-2.827-1.944-3.832-5.093h7.664C43.3,52.537,41.843,54.482,40.475,54.482Zm-4.481-7.64a31.577,31.577,0,0,1-.586-5.093H45.541a31.72,31.72,0,0,1-.586,5.093Zm-9.461-5.093h6.33a34.923,34.923,0,0,0,.521,5.093H28.015A13.855,13.855,0,0,1,26.532,41.748Zm13.942-15.28c1.369,0,2.827,1.944,3.832,5.094H36.642C37.648,28.412,39.106,26.467,40.475,26.467Zm4.481,7.64a31.577,31.577,0,0,1,.586,5.093H35.408a31.721,31.721,0,0,1,.586-5.093ZM32.862,39.2h-6.33a13.88,13.88,0,0,1,1.482-5.093h5.369A34.747,34.747,0,0,0,32.862,39.2Zm15.224,2.547h6.33a13.88,13.88,0,0,1-1.482,5.093H47.566A34.747,34.747,0,0,0,48.087,41.748Zm0-2.547a34.922,34.922,0,0,0-.521-5.093h5.369A13.9,13.9,0,0,1,54.417,39.2ZM59.575,12.46a2.549,2.549,0,0,1,2.547-2.547H63.4V8.64A5.094,5.094,0,0,1,73.466,7.559a5.1,5.1,0,0,0-3.7,4.9h2.547a2.547,2.547,0,1,1,2.547,2.547H62.122A2.549,2.549,0,0,1,59.575,12.46Zm-8.3,19.1h-4.3a17.6,17.6,0,0,0-1.771-4.254A14.069,14.069,0,0,1,51.272,31.561ZM35.745,27.307a17.649,17.649,0,0,0-1.771,4.254h-4.3A14.054,14.054,0,0,1,35.745,27.307ZM13.734,3.547a10.167,10.167,0,0,1,8.793,15.306,10.259,10.259,0,0,0-4.974-4.331,5.094,5.094,0,1,0-7.639,0A10.266,10.266,0,0,0,4.94,18.851a10.168,10.168,0,0,1,8.794-15.3Zm-2.547,7.64a2.547,2.547,0,1,1,2.547,2.547A2.549,2.549,0,0,1,11.187,11.187Zm-4.51,9.876a7.6,7.6,0,0,1,14.114,0,10.143,10.143,0,0,1-14.114,0Zm23,28.325h4.3a17.6,17.6,0,0,0,1.771,4.254A14.069,14.069,0,0,1,29.678,49.388ZM45.2,53.643a17.649,17.649,0,0,0,1.771-4.254h4.3A14.054,14.054,0,0,1,45.2,53.643ZM77.4,63.4V76.129A1.275,1.275,0,0,1,76.129,77.4H58.3a1.275,1.275,0,0,1-1.273-1.273V63.4A1.275,1.275,0,0,1,58.3,62.122H76.129A1.275,1.275,0,0,1,77.4,63.4ZM65.942,34.108H76.129A1.275,1.275,0,0,1,77.4,35.381v1.273H64.669V35.381A1.275,1.275,0,0,1,65.942,34.108ZM77.4,39.2v2.547H64.669V39.2Zm-1.273,7.64H65.942a1.275,1.275,0,0,1-1.273-1.273V44.295H77.4v1.273A1.275,1.275,0,0,1,76.129,46.841Z" transform="translate(0 0)" fill="#4c77ae"/></g></svg>