<svg xmlns="http://www.w3.org/2000/svg" width="79.745" height="79.745" viewBox="0 0 79.745 79.745"><path d="M60.138,52.177h.088a3.8,3.8,0,0,0,3.761-3.762,3.771,3.771,0,0,0-6.428-2.667,3.811,3.811,0,0,0-1.095,2.667,3.77,3.77,0,0,0,3.673,3.762Zm1.253,2.384v16.46a1.254,1.254,0,0,1-2.508,0V54.526a6.294,6.294,0,0,1-3.073-1.7,6.25,6.25,0,0,1,8.829-8.848,6.246,6.246,0,0,1,0,8.848,6.335,6.335,0,0,1-3.249,1.73Z" transform="translate(-20.348 -15.896)" fill="#4c77ae"/><path d="M60.841,2.285A1.252,1.252,0,0,1,60.47.554,1.246,1.246,0,0,1,62.183.2a38.455,38.455,0,0,1-1.678,65.592,1.241,1.241,0,0,1-1.7-.459,1.225,1.225,0,0,1,.459-1.7A35.964,35.964,0,0,0,60.841,2.285ZM17.573.2a1.247,1.247,0,0,1,1.713.353,1.252,1.252,0,0,1-.371,1.731A35.891,35.891,0,0,0,3.25,25.156,36.033,36.033,0,0,0,20.487,63.639a1.242,1.242,0,1,1-1.237,2.154A38.7,38.7,0,0,1,3.357,48.167,38.4,38.4,0,0,1,17.573.2Zm4.874,7.523a1.244,1.244,0,0,1,1.36,2.084A27.171,27.171,0,0,0,16.2,17.226,27,27,0,0,0,24.974,55.85,1.242,1.242,0,1,1,23.738,58,29.464,29.464,0,0,1,9.609,26.48,29.2,29.2,0,0,1,14.13,15.83a29.767,29.767,0,0,1,8.317-8.106ZM27.3,15.23a1.231,1.231,0,0,1,1.713.353,1.256,1.256,0,0,1-.371,1.731A18.321,18.321,0,0,0,23.56,22.26a18.078,18.078,0,0,0,5.88,25.874A1.234,1.234,0,1,1,28.2,50.269,20.55,20.55,0,0,1,18.35,28.282,20.493,20.493,0,0,1,27.3,15.23Zm3.974,6.128a1.239,1.239,0,0,1,1.343,2.084,10.735,10.735,0,0,0-3.038,2.949,10.89,10.89,0,0,0-1.642,3.885A10.741,10.741,0,0,0,33.1,41.792a1.242,1.242,0,1,1-1.236,2.154,13.226,13.226,0,0,1-.584-22.588ZM55.949,9.808a1.248,1.248,0,0,1-.371-1.713,1.272,1.272,0,0,1,1.731-.371A29.486,29.486,0,0,1,56,58.005a1.209,1.209,0,0,1-1.678-.459,1.243,1.243,0,0,1,.442-1.7A26.991,26.991,0,0,0,55.949,9.808Zm-4.856,7.506a1.267,1.267,0,0,1-.353-1.731,1.231,1.231,0,0,1,1.713-.353,20.691,20.691,0,0,1,5.792,5.634,20.535,20.535,0,0,1,1.8,19.992,20.5,20.5,0,0,1-8.5,9.413,1.234,1.234,0,1,1-1.237-2.136,18.338,18.338,0,0,0,7.47-8.283,18.014,18.014,0,0,0-6.692-22.536Zm-3.956,6.128a1.239,1.239,0,1,1,1.342-2.084A13.247,13.247,0,0,1,47.9,43.946a1.242,1.242,0,1,1-1.237-2.154,10.741,10.741,0,0,0,5.157-11.515,10.806,10.806,0,0,0-4.68-6.834Z" transform="translate(0 -0.001)" fill="#4c77ae"/><path d="M63.25,52.676a1.245,1.245,0,0,0,0-2.49,1.245,1.245,0,1,0,0,2.49Z" transform="translate(-23.372 -18.92)" fill="#4c77ae" fill-rule="evenodd"/><path d="M57.917,86.471h4.768a3.8,3.8,0,0,1,2.649,1.1v.017a3.726,3.726,0,0,1,1.1,2.632v19.638a2.5,2.5,0,0,1-.724,1.749h-.017a2.442,2.442,0,0,1-1.749.741H56.663a2.411,2.411,0,0,1-1.748-.741H54.9a2.532,2.532,0,0,1-.725-1.749V90.215a3.727,3.727,0,0,1,1.1-2.632v-.017A3.8,3.8,0,0,1,57.917,86.471Zm6.022,19.921H56.663v3.461h7.276ZM56.663,103.9h7.276V90.215a1.267,1.267,0,0,0-1.254-1.254H57.917a1.2,1.2,0,0,0-.883.371h-.017a1.289,1.289,0,0,0-.353.883V103.9Z" transform="translate(-20.423 -32.599)" fill="#4c77ae"/></svg>