<svg xmlns="http://www.w3.org/2000/svg" width="95.802" height="63.315" viewBox="0 0 95.802 63.315"><path d="M47.928,101.576A40.384,40.384,0,0,0,7.587,141.911v4.759a3.479,3.479,0,0,0,3.475,3.475H84.788a3.479,3.479,0,0,0,3.475-3.475v-4.759A40.381,40.381,0,0,0,47.928,101.576Zm37.343,45.092a.484.484,0,0,1-.483.483H11.063a.489.489,0,0,1-.483-.483v-4.759a37.346,37.346,0,0,1,74.692,0v4.759ZM71.689,118.15a1.391,1.391,0,0,0-.182-.152,33.539,33.539,0,0,0-47.175.013,1.453,1.453,0,0,0-.165.14,1.3,1.3,0,0,0-.14.167,33.493,33.493,0,0,0-9.7,23.6,1.5,1.5,0,0,0,1.5,1.5h9.686a1.5,1.5,0,0,0,1.5-1.5,20.927,20.927,0,0,1,35.667-14.849c.017.019.034.039.051.056s.028.024.041.037a20.979,20.979,0,0,1,2.131,2.511l-12.2-.958a8.123,8.123,0,1,0,1.783,11.377l6.052-2.472,7.055-2.889a20.831,20.831,0,0,1,1.269,7.186,1.5,1.5,0,0,0,1.5,1.5h9.686a1.5,1.5,0,0,0,1.5-1.5,33.5,33.5,0,0,0-9.686-23.58,1.133,1.133,0,0,0-.148-.183Zm-7.942,5.827a23.847,23.847,0,0,0-14.323-5.928v-6.712a30.477,30.477,0,0,1,19.053,7.91Zm-31.632.009-4.738-4.742a30.5,30.5,0,0,1,19.055-7.908v6.71a23.816,23.816,0,0,0-14.317,5.939Zm-8.058,16.428h-6.7a30.5,30.5,0,0,1,7.908-19.055L30,126.1a23.806,23.806,0,0,0-5.941,14.313Zm23.87,0a5.132,5.132,0,1,1,5.129-5.129A5.138,5.138,0,0,1,47.928,140.414Zm11.465-5.569-3.4,1.388a8.331,8.331,0,0,0,.058-.949,8.087,8.087,0,0,0-.734-3.37l9.422.741Zm12.4,5.569a23.7,23.7,0,0,0-1.443-6.825l1.34-.548a1.5,1.5,0,0,0-.449-2.874l-2.6-.2a23.922,23.922,0,0,0-2.779-3.87l4.731-4.731A30.5,30.5,0,0,1,78.5,140.416H71.8ZM46.433,95.2V88.325a1.5,1.5,0,0,1,2.99,0V95.2a1.5,1.5,0,0,1-2.99,0Zm12.139,1.205,1.778-6.641a1.5,1.5,0,0,1,2.891.773l-1.778,6.641a1.5,1.5,0,0,1-1.445,1.11,1.54,1.54,0,0,1-.387-.051A1.5,1.5,0,0,1,58.572,96.405Zm11.417,4.306,3.438-5.956a1.5,1.5,0,0,1,2.592,1.5l-3.438,5.956a1.5,1.5,0,1,1-2.592-1.5Zm9.914,9.227a1.5,1.5,0,0,1,0-2.115l4.86-4.86a1.5,1.5,0,1,1,2.115,2.115l-4.86,4.86a1.5,1.5,0,0,1-2.115,0Zm15.178,6.475-5.951,3.438a1.5,1.5,0,0,1-1.5-2.592l5.951-3.438a1.5,1.5,0,0,1,1.5,2.592ZM32.613,90.537a1.5,1.5,0,1,1,2.891-.773l1.778,6.641a1.5,1.5,0,0,1-1.059,1.832,1.459,1.459,0,0,1-.387.051,1.5,1.5,0,0,1-1.445-1.11ZM19.834,96.25a1.5,1.5,0,0,1,2.592-1.5l3.438,5.956a1.5,1.5,0,1,1-2.592,1.5ZM8.975,105.079a1.5,1.5,0,1,1,2.115-2.115l4.86,4.86a1.5,1.5,0,0,1-2.115,2.115Zm-1.5,14.972a1.5,1.5,0,0,1-.747-.2L.773,116.413a1.5,1.5,0,0,1,1.5-2.59l5.951,3.438a1.5,1.5,0,0,1-.75,2.79Z" transform="translate(-0.026 -86.83)" fill="#4c77ae"/></svg>