<svg xmlns="http://www.w3.org/2000/svg" width="74" height="74" viewBox="0 0 74 74"><path d="M268.35,248.3a3.343,3.343,0,0,0,2.412-1.017l5.682-5.825a3.369,3.369,0,0,0-4.824-4.7l-3.333,3.417-.584-.568a3.369,3.369,0,1,0-4.7,4.83l3,2.913A3.351,3.351,0,0,0,268.35,248.3ZM264.5,241.19a1.2,1.2,0,0,1,1.692-.024l1.361,1.324a1.086,1.086,0,0,0,1.535-.02l4.09-4.193a1.2,1.2,0,1,1,1.713,1.67l-5.682,5.825a1.2,1.2,0,0,1-1.691.023l-3-2.913A1.2,1.2,0,0,1,264.5,241.19Z" transform="translate(-224.122 -201.672)" fill="#4c77ae"/><path d="M220.793,201.531a1.086,1.086,0,0,0-1.734,1.308,14.315,14.315,0,0,0,1.3,1.494,14.129,14.129,0,1,0-3.471-5.687,1.086,1.086,0,0,0,2.07-.661A11.977,11.977,0,1,1,221.9,202.8a12.161,12.161,0,0,1-1.1-1.267Z" transform="translate(-184.962 -154.159)" fill="#4c77ae"/><path d="M72.5,60.02l-6.853-6.852a1.087,1.087,0,0,0-1.536,0l-.042.042-2.637-2.637a19.082,19.082,0,0,0,3.037-9.187,1.086,1.086,0,0,0-2.168-.137A16.928,16.928,0,0,1,45.412,57.11h-.1A16.933,16.933,0,1,1,62.072,37.172a1.086,1.086,0,0,0,2.138-.383A19.127,19.127,0,0,0,54.367,23.3V14.545a1.1,1.1,0,0,0-.318-.768L40.588.318A1.1,1.1,0,0,0,39.82,0H3.258A3.262,3.262,0,0,0,0,3.258v9.129a1.086,1.086,0,0,0,2.173,0V3.258A1.087,1.087,0,0,1,3.258,2.172H38.734v10.2a3.262,3.262,0,0,0,3.259,3.258h10.2v6.684a19.193,19.193,0,0,0-6.592-1.24.236.236,0,0,0-.032,0H21.318a1.086,1.086,0,1,0,0,2.172H36.527a19.039,19.039,0,0,0-4.333,3.111H21.318a1.086,1.086,0,1,0,0,2.172h8.92a18.906,18.906,0,0,0-3.565,7.766H21.318a1.086,1.086,0,1,0,0,2.172h5.038q-.075.849-.076,1.712,0,.708.051,1.407H21.318a1.086,1.086,0,1,0,0,2.172h5.3a18.9,18.9,0,0,0,3.628,8.075H21.318a1.086,1.086,0,1,0,0,2.172H32.2a19.037,19.037,0,0,0,4.326,3.106H21.318a1.086,1.086,0,1,0,0,2.172H45.4a19.206,19.206,0,0,0,6.8-1.242v12.7a1.087,1.087,0,0,1-1.086,1.086H3.258a1.087,1.087,0,0,1-1.086-1.086V16.732a1.086,1.086,0,0,0-2.173,0v54.01A3.262,3.262,0,0,0,3.258,74h47.85a3.262,3.262,0,0,0,3.259-3.258V57.055q.727-.386,1.426-.839l2.637,2.636a1.1,1.1,0,0,0-.042,1.578l6.853,6.852A5.136,5.136,0,0,0,72.5,60.02ZM41.993,13.459a1.087,1.087,0,0,1-1.086-1.086V3.708l9.752,9.75ZM57.565,54.916q.7-.575,1.347-1.224t1.224-1.347l2.4,2.4-2.571,2.571Zm13.4,10.831a2.978,2.978,0,0,1-4.191,0l-6.085-6.084,4.192-4.191,6.085,6.084A2.977,2.977,0,0,1,70.968,65.746Z" transform="translate(0.001 0)" fill="#4c77ae"/><path d="M53.823,147.92h4.752A2.432,2.432,0,0,0,61,145.491v-4.752a2.432,2.432,0,0,0-2.43-2.429H53.823a2.432,2.432,0,0,0-2.43,2.429v4.752A2.432,2.432,0,0,0,53.823,147.92Zm-.257-7.181a.257.257,0,0,1,.257-.257h4.752a.257.257,0,0,1,.257.257v4.752a.258.258,0,0,1-.257.257H53.823a.257.257,0,0,1-.257-.257Z" transform="translate(-43.965 -118.32)" fill="#4c77ae"/><path d="M51.393,250.859a2.432,2.432,0,0,0,2.43,2.429h4.752A2.432,2.432,0,0,0,61,250.859v-4.752a2.432,2.432,0,0,0-2.43-2.429H53.823a2.432,2.432,0,0,0-2.43,2.429Zm2.173-4.752a.257.257,0,0,1,.257-.257h4.752a.257.257,0,0,1,.257.257v4.752a.258.258,0,0,1-.257.257H53.823a.257.257,0,0,1-.257-.257Z" transform="translate(-43.965 -208.459)" fill="#4c77ae"/><path d="M51.393,358.366a2.432,2.432,0,0,0,2.43,2.429h4.752A2.432,2.432,0,0,0,61,358.366v-4.752a2.432,2.432,0,0,0-2.43-2.429H53.823a2.432,2.432,0,0,0-2.43,2.429Zm2.173-4.752a.257.257,0,0,1,.257-.257h4.752a.257.257,0,0,1,.257.257v4.752a.258.258,0,0,1-.257.257H53.823a.257.257,0,0,1-.257-.257Z" transform="translate(-43.965 -300.428)" fill="#4c77ae"/></svg>