<svg xmlns="http://www.w3.org/2000/svg" width="91.218" height="91.217" viewBox="0 0 91.218 91.217"><path d="M77.86,13.358a45.609,45.609,0,1,0-64.5,64.5,45.609,45.609,0,1,0,64.5-64.5ZM45.609,88.545A42.936,42.936,0,1,1,88.546,45.609,42.985,42.985,0,0,1,45.609,88.545Z" transform="translate(0 0)" fill="#4c77ae"/><path d="M108.273,110.162l9.448,9.448a1.336,1.336,0,0,0,1.89,0,34.92,34.92,0,1,0-49.384,0,1.336,1.336,0,0,0,1.89,0l9.448-9.448a1.336,1.336,0,0,0,0-1.89A18.885,18.885,0,1,1,113.8,94.919a19.006,19.006,0,0,1-.3,3.359l-9.242-3.828a9.364,9.364,0,1,0-3.073,7.4l9.246,3.83a18.956,18.956,0,0,1-2.161,2.588A1.336,1.336,0,0,0,108.273,110.162Zm-29.513-.973-7.568,7.568a31.991,31.991,0,0,1-8.49-20.5H73.4A21.373,21.373,0,0,0,78.76,109.189ZM73.4,93.583H62.7a32.124,32.124,0,0,1,8.5-20.489l7.565,7.564A21.47,21.47,0,0,0,73.4,93.583ZM93.583,73.4a21.468,21.468,0,0,0-12.925,5.364L73.094,71.2a32.123,32.123,0,0,1,20.49-8.5Zm1.336,28.2a6.681,6.681,0,1,1,6.681-6.681A6.688,6.688,0,0,1,94.919,101.6Zm23.728,15.157-7.569-7.569a21.647,21.647,0,0,0,1.876-2.46l2.816,1.166a4.009,4.009,0,1,0,3.068-7.407l-2.816-1.166a21.61,21.61,0,0,0,.412-3.066h10.7A31.989,31.989,0,0,1,118.647,116.757ZM96.256,73.4V62.7a32.125,32.125,0,0,1,20.49,8.5l-7.565,7.564A21.47,21.47,0,0,0,96.256,73.4Zm14.815,7.254,7.565-7.564a32.124,32.124,0,0,1,8.5,20.489h-10.7A21.469,21.469,0,0,0,111.07,80.658Zm-8.113,19.037a9.3,9.3,0,0,0,1.027-2.467l13.832,5.729a1.336,1.336,0,1,1-1.023,2.469Z" transform="translate(-49.31 -49.31)" fill="#4c77ae"/><path d="M98.735,41.793a40.268,40.268,0,0,0-64.53,10.542A1.336,1.336,0,0,0,36.6,53.527a37.6,37.6,0,1,1,46.832,51.956,21.558,21.558,0,0,0-26.33,0,37.636,37.636,0,0,1-22.48-47.19,1.336,1.336,0,0,0-2.533-.851,40.307,40.307,0,0,0,24.82,50.813,1.336,1.336,0,0,0,1.3-.233,18.884,18.884,0,0,1,24.123,0,1.336,1.336,0,0,0,1.3.233A40.271,40.271,0,0,0,98.735,41.793Z" transform="translate(-24.655 -24.655)" fill="#4c77ae"/><path d="M237.509,233.5a4.009,4.009,0,1,0,4.009,4.009A4.013,4.013,0,0,0,237.509,233.5Zm0,5.345a1.336,1.336,0,1,1,1.336-1.336A1.338,1.338,0,0,1,237.509,238.845Z" transform="translate(-191.9 -191.9)" fill="#4c77ae"/><path d="M189.836,353.5a1.336,1.336,0,0,0-1.336,1.336v8.017a1.336,1.336,0,0,0,1.336,1.336h21.379a1.336,1.336,0,0,0,1.336-1.336v-8.017a1.336,1.336,0,0,0-1.336-1.336Zm4.009,8.017h-2.672v-5.345h2.672Zm5.345,0h-2.672v-5.345h2.672Zm5.345,0h-2.672v-5.345h2.672Zm5.345,0h-2.672v-5.345h2.672Z" transform="translate(-154.917 -290.521)" fill="#4c77ae"/></svg>