<svg xmlns="http://www.w3.org/2000/svg" width="120" height="120" viewBox="0 0 120 120">
  <g id="Grupo_1117620" data-name="Grupo 1117620" transform="translate(-1090 -5356.187)">
    <g id="Grupo_1117618" data-name="Grupo 1117618" transform="translate(8226.898 14914.085)">
      <circle id="Elipse_8441" data-name="Elipse 8441" cx="60" cy="60" r="60" transform="translate(-7136.898 -9557.898)" fill="#f6d957" opacity="0.45"/>
      <circle id="Elipse_8442" data-name="Elipse 8442" cx="48" cy="48" r="48" transform="translate(-7124.898 -9545.898)" fill="#fff"/>
    </g>
    <path id="sensores" d="M49.932,56.177h-18.4a6.25,6.25,0,0,1-6.244-6.244v-18.4a6.25,6.25,0,0,1,6.244-6.244h18.4a6.25,6.25,0,0,1,6.244,6.244v18.4A6.25,6.25,0,0,1,49.932,56.177Zm-18.4-28.921a4.281,4.281,0,0,0-4.272,4.272v18.4A4.281,4.281,0,0,0,31.528,54.2h18.4A4.281,4.281,0,0,0,54.2,49.932v-18.4a4.281,4.281,0,0,0-4.272-4.272Zm18.4,23.663h-18.4a.993.993,0,0,1-.986-.986v-18.4a.993.993,0,0,1,.986-.986h18.4a.993.993,0,0,1,.986.986v18.4A.993.993,0,0,1,49.932,50.918ZM32.514,48.946H48.946V32.514H32.514ZM40.73,45.66a4.93,4.93,0,1,1,4.93-4.93A4.932,4.932,0,0,1,40.73,45.66Zm0-7.888a2.958,2.958,0,1,0,2.958,2.958A2.962,2.962,0,0,0,40.73,37.772ZM55.362,11.717a.992.992,0,0,0,0-1.393,20.661,20.661,0,0,0-29.263,0,.985.985,0,0,0,1.393,1.393,18.693,18.693,0,0,1,26.476,0,.984.984,0,0,0,1.393,0Zm-3.707,3.707a.992.992,0,0,0,0-1.393,15.456,15.456,0,0,0-21.849,0A.985.985,0,0,0,31.2,15.424a13.488,13.488,0,0,1,19.062,0,.984.984,0,0,0,1.393,0ZM34.92,19.144a8.22,8.22,0,0,1,11.621,0,.985.985,0,0,0,1.393-1.393,10.188,10.188,0,0,0-14.408,0,.992.992,0,0,0,0,1.393.984.984,0,0,0,1.393,0ZM55.362,71.137a.985.985,0,0,0-1.393-1.393,18.693,18.693,0,0,1-26.476,0A.985.985,0,1,0,26.1,71.137a20.661,20.661,0,0,0,29.263,0ZM51.655,67.43a.985.985,0,1,0-1.393-1.393,13.488,13.488,0,0,1-19.062,0,.985.985,0,1,0-1.393,1.393,15.456,15.456,0,0,0,21.849,0Zm-3.72-3.72a.985.985,0,0,0-1.393-1.393,8.22,8.22,0,0,1-11.621,0,.985.985,0,0,0-1.393,1.393,10.188,10.188,0,0,0,14.408,0Zm23.2-8.348a20.661,20.661,0,0,0,0-29.263.985.985,0,1,0-1.393,1.393,18.693,18.693,0,0,1,0,26.476.992.992,0,0,0,0,1.393.984.984,0,0,0,1.393,0ZM67.43,51.655a15.456,15.456,0,0,0,0-21.849A.985.985,0,0,0,66.036,31.2a13.488,13.488,0,0,1,0,19.062.992.992,0,0,0,0,1.393.984.984,0,0,0,1.393,0Zm-3.72-3.72a10.188,10.188,0,0,0,0-14.408.985.985,0,0,0-1.393,1.393,8.22,8.22,0,0,1,0,11.621.992.992,0,0,0,0,1.393.984.984,0,0,0,1.393,0ZM11.717,55.362a.992.992,0,0,0,0-1.393,18.693,18.693,0,0,1,0-26.476A.985.985,0,0,0,10.323,26.1a20.661,20.661,0,0,0,0,29.263.984.984,0,0,0,1.393,0Zm3.707-3.707a.992.992,0,0,0,0-1.393,13.488,13.488,0,0,1,0-19.062.985.985,0,0,0-1.393-1.393,15.456,15.456,0,0,0,0,21.849.984.984,0,0,0,1.393,0Zm3.72-3.72a.992.992,0,0,0,0-1.393,8.22,8.22,0,0,1,0-11.621.985.985,0,0,0-1.393-1.393,10.188,10.188,0,0,0,0,14.408.984.984,0,0,0,1.393,0Z" transform="translate(1111.801 5375.456)" fill="#c5ae46"/>
  </g>
</svg>
