<svg xmlns="http://www.w3.org/2000/svg" width="120" height="120" viewBox="0 0 120 120">
  <g id="Grupo_1118360" data-name="Grupo 1118360" transform="translate(-1090 -5356.187)">
    <g id="Grupo_1117618" data-name="Grupo 1117618" transform="translate(8226.898 14914.085)">
      <circle id="Elipse_8441" data-name="Elipse 8441" cx="60" cy="60" r="60" transform="translate(-7136.898 -9557.898)" fill="#f6d957" opacity="0.45"/>
      <circle id="Elipse_8442" data-name="Elipse 8442" cx="48" cy="48" r="48" transform="translate(-7124.898 -9545.898)" fill="#fff"/>
    </g>
    <g id="exceso-de-velocidad_1_" data-name="exceso-de-velocidad (1)" transform="translate(1116.616 5382.803)">
      <path id="Trazado_914783" data-name="Trazado 914783" d="M56.991,9.778A33.384,33.384,0,1,0,9.778,56.99,33.384,33.384,0,1,0,56.991,9.778ZM33.384,64.812A31.428,31.428,0,1,1,64.813,33.384,31.464,31.464,0,0,1,33.384,64.812Z" transform="translate(0 0)" fill="#c5ae46"/>
      <path id="Trazado_914784" data-name="Trazado 914784" d="M95.334,96.717l6.916,6.916a.978.978,0,0,0,1.383,0,25.56,25.56,0,1,0-36.147,0,.978.978,0,0,0,1.383,0l6.916-6.916a.978.978,0,0,0,0-1.383,13.823,13.823,0,1,1,23.6-9.774,13.912,13.912,0,0,1-.221,2.458l-6.765-2.8a6.854,6.854,0,1,0-2.249,5.42l6.768,2.8a13.875,13.875,0,0,1-1.582,1.895A.978.978,0,0,0,95.334,96.717ZM73.732,96l-5.54,5.54a23.416,23.416,0,0,1-6.215-15.006h7.834A15.644,15.644,0,0,0,73.732,96Zm-3.92-11.423H61.978a23.514,23.514,0,0,1,6.223-15l5.537,5.537A15.715,15.715,0,0,0,69.812,84.582Zm14.77-14.77a15.714,15.714,0,0,0-9.461,3.926L69.584,68.2a23.513,23.513,0,0,1,15-6.223ZM85.56,90.45a4.89,4.89,0,1,1,4.89-4.89A4.9,4.9,0,0,1,85.56,90.45Zm17.368,11.094L97.388,96a15.843,15.843,0,0,0,1.373-1.8l2.061.854a2.934,2.934,0,1,0,2.246-5.422l-2.061-.854a15.817,15.817,0,0,0,.3-2.244h7.834A23.415,23.415,0,0,1,102.928,101.544ZM86.538,69.812V61.978a23.514,23.514,0,0,1,15,6.223L96,73.738A15.715,15.715,0,0,0,86.538,69.812Zm10.844,5.309,5.537-5.537a23.514,23.514,0,0,1,6.223,15h-7.834A15.714,15.714,0,0,0,97.382,75.121ZM91.443,89.055a6.808,6.808,0,0,0,.751-1.806l10.125,4.194a.978.978,0,1,1-.749,1.807Z" transform="translate(-52.176 -52.176)" fill="#c5ae46"/>
      <path id="Trazado_914785" data-name="Trazado 914785" d="M80.312,38.632a29.475,29.475,0,0,0-47.234,7.716.978.978,0,0,0,1.751.872,27.519,27.519,0,1,1,34.279,38.03,15.78,15.78,0,0,0-19.273,0A27.548,27.548,0,0,1,33.381,50.709a.978.978,0,0,0-1.854-.623A29.5,29.5,0,0,0,49.694,87.28a.978.978,0,0,0,.949-.17,13.822,13.822,0,0,1,17.657,0,.978.978,0,0,0,.95.17A29.477,29.477,0,0,0,80.312,38.632Z" transform="translate(-26.088 -26.088)" fill="#c5ae46"/>
      <path id="Trazado_914786" data-name="Trazado 914786" d="M236.434,233.5a2.934,2.934,0,1,0,2.934,2.934A2.937,2.937,0,0,0,236.434,233.5Zm0,3.912a.978.978,0,1,1,.978-.978A.979.979,0,0,1,236.434,237.412Z" transform="translate(-203.05 -203.05)" fill="#c5ae46"/>
      <path id="Trazado_914787" data-name="Trazado 914787" d="M189.478,353.5a.978.978,0,0,0-.978.978v5.868a.978.978,0,0,0,.978.978h15.649a.978.978,0,0,0,.978-.978v-5.868a.978.978,0,0,0-.978-.978Zm2.934,5.868h-1.956v-3.912h1.956Zm3.912,0h-1.956v-3.912h1.956Zm3.912,0h-1.956v-3.912h1.956Zm3.912,0h-1.956v-3.912h1.956Z" transform="translate(-163.918 -307.402)" fill="#c5ae46"/>
    </g>
  </g>
</svg>
