<svg xmlns="http://www.w3.org/2000/svg" width="77.143" height="77.999" viewBox="0 0 77.143 77.999"><path d="M74.754,21.94h2.109a.773.773,0,0,0,.77-.77V19.061l-2.88,2.88ZM79.42,17.8H92.88a.773.773,0,0,1,.77.77V43.345a.773.773,0,0,1-.77.77H74.261a.773.773,0,0,1-.77-.77V23.727h3.372A2.56,2.56,0,0,0,79.42,21.17V17.8ZM21.694,21.94H23.8a.773.773,0,0,0,.77-.77V19.061l-2.88,2.88ZM26.36,17.8h13.46a.773.773,0,0,1,.77.77V43.345a.773.773,0,0,1-.77.77H21.2a.773.773,0,0,1-.77-.77V23.727H23.8A2.56,2.56,0,0,0,26.36,21.17V17.8Zm5.859,8.18.919.246L23.481,31.8a.891.891,0,0,0,.893,1.542l9.655-5.574-.247.92a.892.892,0,1,0,1.724.461l.8-3a.892.892,0,0,0-.631-1.092l-3-.8a.892.892,0,1,0-.461,1.724Zm16-4.038h2.109a.773.773,0,0,0,.77-.77V19.061l-2.88,2.88ZM52.89,17.8H66.35a.773.773,0,0,1,.77.77V43.345a.773.773,0,0,1-.77.77H47.732a.773.773,0,0,1-.77-.77V23.727h3.372A2.56,2.56,0,0,0,52.89,21.17V17.8Zm17.3,43.972a6.764,6.764,0,1,0,4.79,1.97,6.721,6.721,0,0,0-4.79-1.97Zm-6.037.736a8.545,8.545,0,1,1,.027,12.084,8.552,8.552,0,0,1-.027-12.084ZM83.235,79.881l-.79-.712A2.814,2.814,0,0,0,80.9,80.719l.722.794a3.436,3.436,0,0,0,1.617-1.632ZM93.477,89.1A1.621,1.621,0,0,1,94,90.337a1.854,1.854,0,0,1-3.123,1.373l-8.033-8.842A5.168,5.168,0,0,0,84.6,81.106ZM57.948,66.938A12.368,12.368,0,0,0,72.8,80.619l-3.686,8.816a2.751,2.751,0,0,1-2.2,1.583H36.354c-.594,0-.624-.409-.418-.9l9.03-21.6a2.751,2.751,0,0,1,2.2-1.583H57.948Zm1.423-4.36h-7.4a.888.888,0,0,1-.523-.17L45.287,57.93H37.821a2,2,0,0,0-1.984,1.98l-.011,25.847,7.492-17.92a4.523,4.523,0,0,1,3.85-2.685H58.315a12.284,12.284,0,0,1,1.056-2.573Zm.521,3.591a10.58,10.58,0,1,1,19.15,8.182,1.736,1.736,0,0,0,.225,2.2l1.528,1.52a4.514,4.514,0,0,0-1.007,1.008l-1.526-1.518a1.736,1.736,0,0,0-2.2-.213A10.582,10.582,0,0,1,59.892,66.17Zm-1.516-39h5.2a.893.893,0,1,0,0-1.786h-5.2a.893.893,0,0,0,0,1.786Zm-7.867,0h4.143a.893.893,0,0,0,0-1.786H50.508a.893.893,0,1,0,0,1.786Zm0,4.684H63.573a.893.893,0,1,0,0-1.786H50.508a.893.893,0,1,0,0,1.786Zm10.469,4.684h2.6a.893.893,0,1,0,0-1.786h-2.6a.893.893,0,0,0,0,1.786Zm-10.469,0h6.744a.893.893,0,1,0,0-1.786H50.508a.893.893,0,1,0,0,1.786Zm0,4.684H60.563a.893.893,0,0,0,0-1.786H50.508a.893.893,0,1,0,0,1.786Zm4.616-18.736h8.449a.893.893,0,0,0,0-1.786H55.124a.893.893,0,0,0,0,1.786ZM23.034,37.488v5.281a.893.893,0,0,0,1.786,0V37.488a.893.893,0,1,0-1.786,0Zm4.389-2.534v7.815a.893.893,0,0,0,1.786,0V34.954a.893.893,0,1,0-1.786,0Zm4.389-2.534V42.769a.893.893,0,0,0,1.786,0V32.42a.893.893,0,0,0-1.786,0ZM36.2,29.88v12.89a.893.893,0,0,0,1.786,0V29.88a.893.893,0,1,0-1.786,0Zm41.316-2.1a4.917,4.917,0,1,0,6.954,0,4.917,4.917,0,0,0-6.954,0Zm7.812,8.589,3.784,4.715a1.244,1.244,0,0,0,1.952-1.05.909.909,0,0,0-.243-.659L86.106,35.6l-.775.775Zm1.741-2.279a6.7,6.7,0,1,0-3.243,3.243l3.837,4.8a2.609,2.609,0,0,0,2.121.977,2.994,2.994,0,0,0,2.084-5.181l-4.8-3.837Zm-6.935-4.314a1.715,1.715,0,0,1,2.546,1.2.891.891,0,1,0,1.758-.286,3.5,3.5,0,0,0-5.2-2.456.891.891,0,0,0,.893,1.542ZM57.934,45.9v7.443h22.7a2.042,2.042,0,0,0,2.037-2.037V45.9H74.262A2.56,2.56,0,0,1,71.7,43.345V22.834a.889.889,0,0,1,.27-.639c.669-.663,5.853-5.9,6.06-6.035a.883.883,0,0,1,.505-.147H92.88a2.56,2.56,0,0,1,2.557,2.557V43.345A2.561,2.561,0,0,1,92.88,45.9H84.461v5.406a3.829,3.829,0,0,1-3.823,3.823h-22.7v5.662H60.57A12.361,12.361,0,0,1,80.546,75.307l1.97,1.96a.893.893,0,0,1,.738.23L94.671,87.776a3.636,3.636,0,0,1-2.536,6.235,3.414,3.414,0,0,1-2.572-1.1L79.222,81.528A.89.89,0,0,1,79,80.8l-1.971-1.961a12.28,12.28,0,0,1-2,1.074l-4.266,10.2a4.523,4.523,0,0,1-3.85,2.685H36.354a2.179,2.179,0,0,1-2.309-2.354l.013-30.54a3.77,3.77,0,0,1,3.763-3.767h7.754a.89.89,0,0,1,.563.2l6.116,4.449h3.893V55.13h-22.7a3.829,3.829,0,0,1-3.823-3.823V45.9H21.2a2.56,2.56,0,0,1-2.557-2.557V22.834a.889.889,0,0,1,.27-.639c.669-.663,5.853-5.9,6.06-6.035a.883.883,0,0,1,.505-.147h14.34a2.56,2.56,0,0,1,2.557,2.557V43.345A2.561,2.561,0,0,1,39.821,45.9H31.407v5.406a2.042,2.042,0,0,0,2.037,2.037h22.7V45.9H47.732a2.56,2.56,0,0,1-2.557-2.557V22.834a.889.889,0,0,1,.27-.639c.669-.663,5.853-5.9,6.06-6.035a.883.883,0,0,1,.505-.147H66.35a2.56,2.56,0,0,1,2.557,2.557V43.345A2.561,2.561,0,0,1,66.35,45.9H57.934Z" transform="translate(-18.646 -16.012)" fill="#4c77ae" fill-rule="evenodd"/></svg>