<svg xmlns="http://www.w3.org/2000/svg" width="120" height="120" viewBox="0 0 120 120">
  <g id="Grupo_1118359" data-name="Grupo 1118359" transform="translate(-1090 -5356.187)">
    <g id="Grupo_1117618" data-name="Grupo 1117618" transform="translate(8226.898 14914.085)">
      <circle id="Elipse_8441" data-name="Elipse 8441" cx="60" cy="60" r="60" transform="translate(-7136.898 -9557.898)" fill="#f6d957" opacity="0.45"/>
      <circle id="Elipse_8442" data-name="Elipse 8442" cx="48" cy="48" r="48" transform="translate(-7124.898 -9545.898)" fill="#fff"/>
    </g>
    <g id="disco-del-freno" transform="translate(1118.024 5380.199)">
      <path id="Trazado_914772" data-name="Trazado 914772" d="M145.487,169a14.487,14.487,0,1,0,14.487,14.487A14.5,14.5,0,0,0,145.487,169Zm0,26.24a11.754,11.754,0,1,1,11.754-11.754A11.767,11.767,0,0,1,145.487,195.24Z" transform="translate(-113.096 -145.903)" fill="#c5ae46"/>
      <path id="Trazado_914773" data-name="Trazado 914773" d="M206.783,240a4.783,4.783,0,1,0,4.783,4.783A4.789,4.789,0,0,0,206.783,240Zm0,6.833a2.05,2.05,0,1,1,2.05-2.05A2.052,2.052,0,0,1,206.783,246.833Z" transform="translate(-174.393 -207.199)" fill="#c5ae46"/>
      <path id="Trazado_914774" data-name="Trazado 914774" d="M415.649,78.583a1.367,1.367,0,1,0,1.934-1.932h0a1.367,1.367,0,0,0-1.934,1.933Z" transform="translate(-358.498 -65.829)" fill="#c5ae46"/>
      <path id="Trazado_914775" data-name="Trazado 914775" d="M69.969,33.748A37.571,37.571,0,0,0,63.2,15.688a1.366,1.366,0,1,0-2.228,1.583,35.059,35.059,0,0,1,6.117,15.393l-15,1.514a20.045,20.045,0,0,0-15.988-16.31L37.921,2.914A35.158,35.158,0,0,1,52.636,8.937a1.366,1.366,0,1,0,1.583-2.228A37.657,37.657,0,0,0,36.9.01,1.342,1.342,0,0,0,36.73,0a1.367,1.367,0,0,0-1.354,1.2l-.5,4.089c-.826-.063-1.658-.1-2.485-.1a32.39,32.39,0,0,0-22.9,55.294,32.391,32.391,0,0,0,55.295-22.9c0-.644-.021-1.29-.059-1.934l4.023-.406a1.37,1.37,0,0,0,1.223-1.5Zm-7.92,3.836A29.658,29.658,0,1,1,32.391,7.927c.717,0,1.438.029,2.154.08L33.221,18.848a1.368,1.368,0,0,0,1.193,1.522A17.39,17.39,0,0,1,49.546,35.806,1.367,1.367,0,0,0,50.9,37.037c.046,0,11.1-1.113,11.1-1.113.03.553.047,1.107.047,1.659Z" transform="translate(0 0)" fill="#c5ae46"/>
      <path id="Trazado_914776" data-name="Trazado 914776" d="M295.2,53.076a1.367,1.367,0,0,0-1.8,1.091l-.891,6.011a1.367,1.367,0,0,0,.844,1.469A23.306,23.306,0,0,1,306.535,75.2a1.366,1.366,0,0,0,1.451.883l6-.746a1.367,1.367,0,0,0,1.134-1.77A32.06,32.06,0,0,0,295.2,53.076Zm13.5,20.167a26.052,26.052,0,0,0-13.329-13.711l.487-3.285a29.349,29.349,0,0,1,16.112,16.589Z" transform="translate(-252.522 -45.757)" fill="#c5ae46"/>
      <path id="Trazado_914777" data-name="Trazado 914777" d="M73.273,325.217c-1.262,1.075-2.554,2.268-3.839,3.545A1.367,1.367,0,0,0,71.36,330.7c1.236-1.228,2.477-2.373,3.686-3.4a1.367,1.367,0,0,0-1.773-2.081Z" transform="translate(-59.596 -280.488)" fill="#c5ae46"/>
      <path id="Trazado_914778" data-name="Trazado 914778" d="M61.447,216.576a1.367,1.367,0,0,0,.108-2.729c-1.662-.133-3.419-.2-5.224-.207h0a1.367,1.367,0,0,0,0,2.733c1.735,0,3.421.071,5.013.2Q61.393,216.576,61.447,216.576Z" transform="translate(-47.449 -184.442)" fill="#c5ae46"/>
      <path id="Trazado_914779" data-name="Trazado 914779" d="M177.318,399.594a1.365,1.365,0,0,0-1.471,1.253c-.133,1.662-.2,3.419-.207,5.224a1.367,1.367,0,0,0,1.363,1.37h0a1.367,1.367,0,0,0,1.367-1.363c0-1.735.071-3.421.2-5.013a1.367,1.367,0,0,0-1.253-1.471Z" transform="translate(-151.635 -344.978)" fill="#c5ae46"/>
      <path id="Trazado_914780" data-name="Trazado 914780" d="M289.3,395.921a1.367,1.367,0,1,0-2.081,1.773c1.075,1.262,2.268,2.554,3.545,3.839a1.367,1.367,0,0,0,1.939-1.926C291.473,398.37,290.328,397.13,289.3,395.921Z" transform="translate(-247.681 -341.396)" fill="#c5ae46"/>
      <path id="Trazado_914781" data-name="Trazado 914781" d="M361.594,316.138a1.367,1.367,0,0,0,1.253,1.471c1.662.133,3.419.2,5.224.207h0a1.367,1.367,0,0,0,0-2.733c-1.735,0-3.421-.071-5.013-.2A1.366,1.366,0,0,0,361.594,316.138Z" transform="translate(-312.171 -271.846)" fill="#c5ae46"/>
      <path id="Trazado_914782" data-name="Trazado 914782" d="M145.49,113.045a1.367,1.367,0,1,0,2.081-1.773c-1.075-1.262-2.268-2.554-3.545-3.839a1.367,1.367,0,1,0-1.939,1.926C143.314,110.6,144.459,111.836,145.49,113.045Z" transform="translate(-122.324 -92.402)" fill="#c5ae46"/>
    </g>
  </g>
</svg>
