<svg xmlns="http://www.w3.org/2000/svg" width="120" height="120" viewBox="0 0 120 120">
  <g id="Grupo_1118480" data-name="Grupo 1118480" transform="translate(-6980 6200)">
    <g id="Grupo_1118016" data-name="Grupo 1118016" transform="translate(11 54)">
      <g id="Grupo_1117992" data-name="Grupo 1117992" transform="translate(14105.898 3303.898)">
        <circle id="Elipse_8441" data-name="Elipse 8441" cx="60" cy="60" r="60" transform="translate(-7136.898 -9557.898)" fill="#bfd4ef" opacity="0.45"/>
        <circle id="Elipse_8442" data-name="Elipse 8442" cx="48" cy="48" r="48" transform="translate(-7124.898 -9545.898)" fill="#fbfcfd"/>
      </g>
    </g>
    <g id="mantenimiento_1_" data-name="mantenimiento (1)" transform="translate(7006.667 -6176.215)">
      <path id="Trazado_913178" data-name="Trazado 913178" d="M92.809,31.759H92.2v-3.91A12.02,12.02,0,0,1,95,20.113a13.007,13.007,0,0,0,3.312-8.68A13.214,13.214,0,0,0,92.28.375,2.393,2.393,0,0,0,88.611,2.4v8.209a3.329,3.329,0,0,1-6.658,0V2.4A2.393,2.393,0,0,0,78.283.375a13.214,13.214,0,0,0-6.032,11.058,13.006,13.006,0,0,0,3.312,8.679,11.984,11.984,0,0,1,2.754,6.65,10.007,10.007,0,0,0-7.059,3.645L69.48,32.666a4.638,4.638,0,0,1-3.665,1.779H64.236a4.065,4.065,0,0,0-7.991-.937H41a3.356,3.356,0,0,0-3.352,3.352V54.383A3.356,3.356,0,0,0,41,57.735H56.582a4.064,4.064,0,0,0,7.6-1.214h3.975a4.644,4.644,0,0,1,1.726.331c3.124,1.137,4.67,2.179,8.487,2.852v4.507a6.914,6.914,0,1,0,13.828,0V58.183A4.293,4.293,0,0,0,92.9,55.6a4.243,4.243,0,0,0-.826-2.309A4.18,4.18,0,0,0,94.811,49.4a4.565,4.565,0,0,0-1.236-3.189,4.269,4.269,0,0,0,1.01-6.174,4.327,4.327,0,0,0-1.776-8.276ZM62.155,55.833a1.982,1.982,0,1,1-3.964,0v-2.54a1.042,1.042,0,1,0-2.084,0v2.358H41a1.27,1.27,0,0,1-1.268-1.268V36.859A1.269,1.269,0,0,1,41,35.591h15.11V48.419a1.042,1.042,0,0,0,2.084,0V34.554a1.982,1.982,0,0,1,3.964,0V55.833ZM77.118,18.724a10.926,10.926,0,0,1-2.782-7.291,11.112,11.112,0,0,1,5.068-9.3.307.307,0,0,1,.466.266v8.209a5.412,5.412,0,1,0,10.825,0V2.4a.307.307,0,0,1,.466-.266,11.112,11.112,0,0,1,5.068,9.3,10.926,10.926,0,0,1-2.783,7.292,14.1,14.1,0,0,0-3.334,9.123v3.909H88.286v-2.15a1.042,1.042,0,0,0-2.084,0v2.148l-1.841,0V23.989a.921.921,0,1,1,1.841,0v.742a1.042,1.042,0,1,0,2.084,0v-.742a3,3,0,1,0-6.009,0V31.75h-.764a1.061,1.061,0,0,1-1.062-1.138C80.452,28.14,80.918,22.982,77.118,18.724ZM90.112,64.211a4.83,4.83,0,1,1-9.66,0V59.982q.91.082,1.826.1v3.825a3,3,0,0,0,6.009,0V60.129a4.728,4.728,0,0,0,1.826-.275Zm-5.751-.305V60.1l1.841.015v3.793a.921.921,0,1,1-1.841,0Zm8.448-25.575H91.526a1.042,1.042,0,0,0-1.042,1.042v.021a1.042,1.042,0,0,0,.925,1.035A2.255,2.255,0,0,1,93.4,42.737a2.307,2.307,0,0,1-2.33,2.167h-.446a1.044,1.044,0,0,0-.04,2.087,2.265,2.265,0,0,1,2.146,2.4,2.124,2.124,0,0,1-2.156,2.082h-.7a1.181,1.181,0,0,0-.456,2.271,2.228,2.228,0,0,1-.825,4.3c-5.626-.085-6.724.058-9.054-.268l-.023,0c-4.064-.572-5.992-1.835-8.86-2.86a6.72,6.72,0,0,0-2.5-.479H64.239V36.528h1.576a6.71,6.71,0,0,0,5.3-2.573L72.9,31.7a7.907,7.907,0,0,1,5.472-2.846v1.76a3.14,3.14,0,0,0,3.145,3.222l9.641.008h1.656a2.244,2.244,0,1,1,0,4.488Z" transform="translate(-37.646 0)" fill="#4c77ae"/>
    </g>
  </g>
</svg>
