<svg xmlns="http://www.w3.org/2000/svg" width="93.985" height="93.985" viewBox="0 0 93.985 93.985"><g transform="translate(-1 -1)"><path d="M93.469,23.738H91.954V19.191a1.516,1.516,0,0,0-1.516-1.516h-9.1a1.516,1.516,0,0,0-1.516,1.516v4.548H65.911L61.605,2.219A1.513,1.513,0,0,0,60.12,1H35.866A1.513,1.513,0,0,0,34.38,2.219l-4.305,21.52H16.159V19.191a1.516,1.516,0,0,0-1.516-1.516h-9.1a1.516,1.516,0,0,0-1.516,1.516v4.548H2.516A1.516,1.516,0,0,0,1,25.254V46.477a1.516,1.516,0,0,0,1.516,1.516H4.032V78.311a1.515,1.515,0,0,0,1.516,1.516h9.1a1.515,1.515,0,0,0,1.516-1.516V47.993h9.065l-9.035,45.18a1.515,1.515,0,0,0,1.486,1.813H78.311A1.515,1.515,0,0,0,79.8,93.172l-9.035-45.18h9.065v28.8a1.515,1.515,0,0,0,1.516,1.516h9.1a1.515,1.515,0,0,0,1.516-1.516v-28.8h1.516a1.516,1.516,0,0,0,1.516-1.516V25.254A1.516,1.516,0,0,0,93.469,23.738ZM6.175,44.961,24.366,26.77h7.84L14.015,44.961ZM36.493,26.77H48.881L30.69,44.961H18.3Zm16.675,0h7.84L42.817,44.961h-7.84Zm12.127,0H77.683L59.492,44.961H47.1Zm16.675,0h7.84L71.619,44.961h-7.84Zm.888-6.064h6.064v3.032H82.858ZM37.109,4.032h9.368V10.1h3.032V4.032h9.368l3.941,19.707H33.167ZM7.064,20.707h6.064v3.032H7.064ZM20.079,26.77,4.032,42.817V26.77ZM13.127,76.795H7.064v-28.8h6.064ZM76.461,91.954H49.509V85.89H46.477v6.064H19.524l8.792-43.961H67.669ZM88.922,75.279H82.858V47.993h6.064ZM75.906,44.961,91.954,28.914V44.961Z" transform="translate(0 0)" fill="#4c77ae"/><path d="M31,49h3.032v6.064H31Z" transform="translate(15.477 24.763)" fill="#4c77ae"/><path d="M31,41h3.032v6.064H31Z" transform="translate(15.477 20.636)" fill="#4c77ae"/><path d="M31,33h3.032v6.064H31Z" transform="translate(15.477 16.509)" fill="#4c77ae"/><path d="M31,11h3.032v6.064H31Z" transform="translate(15.477 5.159)" fill="#4c77ae"/></g></svg>