<svg xmlns="http://www.w3.org/2000/svg" width="81.721" height="95.811" viewBox="0 0 81.721 95.811"><path d="M111.954,42.781h-.827V37.512A16.192,16.192,0,0,1,114.9,27.093,17.522,17.522,0,0,0,119.366,15.4a17.8,17.8,0,0,0-8.125-14.9A3.223,3.223,0,0,0,106.3,3.23V14.288a4.484,4.484,0,0,1-8.968,0V3.23A3.223,3.223,0,0,0,92.387.506a17.8,17.8,0,0,0-8.125,14.9,17.52,17.52,0,0,0,4.461,11.692,16.143,16.143,0,0,1,3.709,8.958,13.48,13.48,0,0,0-9.509,4.91L80.528,44a6.247,6.247,0,0,1-4.937,2.4H73.464A5.475,5.475,0,0,0,62.7,45.137H42.161a4.52,4.52,0,0,0-4.515,4.515V73.257a4.52,4.52,0,0,0,4.515,4.515H63.154a5.474,5.474,0,0,0,10.235-1.635h5.354a6.256,6.256,0,0,1,2.325.446c4.209,1.531,6.291,2.935,11.433,3.842V86.5a9.313,9.313,0,1,0,18.627,0v-8.12a5.783,5.783,0,0,0,.953-3.485,5.716,5.716,0,0,0-1.113-3.11,5.63,5.63,0,0,0,3.682-5.241,6.15,6.15,0,0,0-1.664-4.3,5.75,5.75,0,0,0,1.361-8.316,5.829,5.829,0,0,0-2.393-11.148ZM70.662,75.21a2.67,2.67,0,1,1-5.339,0V71.789a1.4,1.4,0,1,0-2.807,0v3.177H42.161a1.71,1.71,0,0,1-1.708-1.708V49.651a1.71,1.71,0,0,1,1.708-1.708H62.515v17.28a1.4,1.4,0,0,0,2.807,0V46.547a2.67,2.67,0,0,1,5.339,0V75.21ZM90.817,25.223A14.718,14.718,0,0,1,87.069,15.4,14.968,14.968,0,0,1,93.9,2.872a.413.413,0,0,1,.627.358V14.288a7.291,7.291,0,1,0,14.582,0V3.23a.413.413,0,0,1,.627-.358A14.969,14.969,0,0,1,116.56,15.4a14.718,14.718,0,0,1-3.748,9.822,19,19,0,0,0-4.491,12.289v5.265l-2.459,0v-2.9a1.4,1.4,0,0,0-2.807,0v2.894l-2.481,0V32.315a1.24,1.24,0,1,1,2.481,0v1a1.4,1.4,0,1,0,2.807,0v-1a4.047,4.047,0,1,0-8.094,0V42.769h-1.03a1.429,1.429,0,0,1-1.431-1.534C95.308,37.907,95.935,30.958,90.817,25.223Zm17.5,61.273a6.506,6.506,0,1,1-13.013,0V80.8q1.225.111,2.459.132v5.153a4.047,4.047,0,0,0,8.094,0V81a6.369,6.369,0,0,0,2.459-.37Zm-7.747-.411v-5.13l2.481.02v5.11a1.24,1.24,0,1,1-2.481,0Zm11.379-34.451h-1.728a1.4,1.4,0,0,0-1.4,1.4v.029a1.4,1.4,0,0,0,1.246,1.395,3.037,3.037,0,0,1,2.678,3.108,3.108,3.108,0,0,1-3.138,2.918h-.6a1.406,1.406,0,0,0-.054,2.811,3.051,3.051,0,0,1,2.89,3.238,2.861,2.861,0,0,1-2.9,2.8h-.944a1.591,1.591,0,0,0-.614,3.059,3,3,0,0,1-1.112,5.795c-7.578-.115-9.058.078-12.2-.361l-.031,0c-5.475-.771-8.072-2.472-11.935-3.853a9.053,9.053,0,0,0-3.364-.645H73.469V49.206h2.123a9.038,9.038,0,0,0,7.142-3.466l2.4-3.042A10.652,10.652,0,0,1,92.5,38.863v2.371a4.23,4.23,0,0,0,4.237,4.341l12.987.01h0l2.228,0a3.023,3.023,0,1,1,0,6.046Z" transform="translate(-37.646 0)" fill="#4c77ae"/></svg>