<svg xmlns="http://www.w3.org/2000/svg" width="96.334" height="96.307" viewBox="0 0 96.334 96.307"><path d="M118.487,47.371H78.135V74.879l14.771-18.41a1.408,1.408,0,0,1,2.248.107l7.278,9.633,5.994-4.174a1.475,1.475,0,0,1,1.927.321l7.921,13.059V47.371ZM64.862,111.807a4.408,4.408,0,0,1,4.389-4.389,4.341,4.341,0,0,1,4.389,4.389,4.389,4.389,0,1,1-8.777,0Zm2.89,0a1.5,1.5,0,1,0,1.5-1.5A1.4,1.4,0,0,0,67.752,111.807ZM49.341,86.653v8.563H68.073V86.653Zm-2.89,8.563V86.653H27.72v8.563ZM27.72,83.87H67.966V64.6H27.72ZM34.249,78.3a1.392,1.392,0,0,1,0-2.783H61.758a1.392,1.392,0,0,1,0,2.783Zm0-5.673a1.392,1.392,0,0,1,0-2.783H61.758a1.392,1.392,0,0,1,0,2.783Zm72.464,24.3a1.392,1.392,0,0,1-2.783,0v-8.67a1.392,1.392,0,0,1,2.783,0Zm7.278,6.315a1.392,1.392,0,0,1-2.783,0V88.259a1.392,1.392,0,0,1,2.783,0Zm7.279,16.7a1.392,1.392,0,0,1-2.783,0V88.259a1.392,1.392,0,0,1,2.783,0ZM78.349,79.161H117.31l-8.456-13.915-5.887,4.067a1.37,1.37,0,0,1-1.927-.321l-7.064-9.419Zm-10.276-32H27.72V55.72H67.966V47.157Zm-41.744-2.89h16.7V26.392A1.417,1.417,0,0,1,44.418,25H93.976a1.417,1.417,0,0,1,1.392,1.392V44.481h24.4a1.417,1.417,0,0,1,1.392,1.392V80.445a1.417,1.417,0,0,1-1.392,1.392h-24.3v38a1.417,1.417,0,0,1-1.392,1.392H44.418a1.417,1.417,0,0,1-1.392-1.392V98h-16.7a1.417,1.417,0,0,1-1.392-1.392v-33.5a1.417,1.417,0,0,1,1.392-1.392h16.7v-3.1h-16.7a1.6,1.6,0,0,1-1.392-1.5V45.765A1.442,1.442,0,0,1,26.329,44.267Zm19.588,0H69.465a1.417,1.417,0,0,1,1.392,1.392V57.111A1.417,1.417,0,0,1,69.465,58.5H45.916v3.1H69.465A1.417,1.417,0,0,1,70.856,63V96.5a1.417,1.417,0,0,1-1.392,1.392H45.916v4.388H92.692V81.944H76.743a1.417,1.417,0,0,1-1.392-1.392V45.979a1.417,1.417,0,0,1,1.392-1.392H92.585V39.771H45.916Zm0-7.386H92.692v-9.1H45.916Zm46.668,68.4H45.916V118.55H92.692V105.278ZM73.853,30.994a1.392,1.392,0,0,1,0,2.783H64.648a1.392,1.392,0,0,1,0-2.783Z" transform="translate(-24.937 -25)" fill="#4c77ae"/></svg>